<?xml version="1.0" standalone="no"?>
<!DOCTYPE svg PUBLIC "-//W3C//DTD SVG 20010904//EN"
 "http://www.w3.org/TR/2001/REC-SVG-20010904/DTD/svg10.dtd">
<svg version="1.0" xmlns="http://www.w3.org/2000/svg"
 width="480.000000pt" height="480.000000pt" viewBox="0 0 480.000000 480.000000"
 preserveAspectRatio="xMidYMid meet">
<metadata>
Created by potrace 1.11, written by Peter Selinger 2001-2013
</metadata>
<g transform="translate(0.000000,480.000000) scale(0.100000,-0.100000)"
fill="#000000" stroke="none">
<path d="M0 2400 l0 -2400 2400 0 2400 0 0 2400 0 2400 -2400 0 -2400 0 0
-2400z m1800 1390 l0 -60 -150 0 c-137 0 -152 -2 -170 -20 -24 -24 -25 -38 -5
-66 12 -19 27 -22 112 -26 108 -5 145 -19 187 -68 52 -63 58 -145 13 -210 -51
-76 -95 -89 -289 -90 l-138 0 0 65 0 65 146 0 c81 0 154 5 165 10 13 7 19 21
19 45 0 46 -20 55 -120 55 -117 0 -173 27 -211 102 -34 66 -22 147 29 202 47
49 73 55 250 56 l162 0 0 -60z m270 -152 l0 -213 120 120 120 120 115 -115
115 -115 0 208 0 207 65 0 65 0 -2 -297 -3 -298 -59 -3 -60 -3 -118 118 -118
118 -118 -118 -117 -117 -63 0 -62 0 0 300 0 300 60 0 60 0 0 -212z m890 -88
l0 -300 -60 0 -60 0 0 300 0 300 60 0 60 0 0 -300z m420 185 l115 -115 115
115 115 115 63 0 62 0 0 -300 0 -300 -60 0 -60 0 0 217 0 218 -120 -120 -120
-120 -115 115 -115 115 0 -213 0 -212 -60 0 -60 0 0 300 0 300 63 0 62 0 115
-115z m-1677 -610 c32 -8 81 -27 110 -41 57 -29 54 -22 -12 25 l-44 31 34 0
c19 0 41 -6 48 -12 11 -10 13 -10 7 0 -5 8 -1 12 11 12 11 0 25 -6 32 -12 11
-10 13 -10 7 0 -13 23 53 13 114 -18 83 -42 77 -80 -7 -50 -24 9 -21 4 20 -32
l47 -43 -2 -68 -2 -68 -35 5 c-84 12 -190 15 -246 7 -58 -8 -57 -8 50 -12 91
-2 98 -4 40 -6 -38 -2 -74 -9 -80 -15 -11 -11 72 -5 174 13 40 6 58 6 65 -2 8
-9 7 -10 -1 -5 -7 4 -13 2 -13 -3 0 -6 11 -11 25 -11 14 0 25 -4 25 -10 0 -5
-15 -9 -32 -8 -90 4 -277 -5 -272 -13 3 -5 20 -7 39 -3 21 4 43 0 62 -9 29
-16 62 -16 96 -2 28 12 19 -2 -16 -24 -19 -11 -34 -27 -34 -35 0 -10 11 -6 36
14 35 29 52 33 35 7 -5 -7 1 -1 13 13 16 17 23 21 24 10 0 -10 2 -11 6 -2 2 6
9 10 14 6 5 -3 9 1 10 8 0 7 4 4 9 -7 12 -27 12 -47 1 -41 -5 3 -11 -1 -14 -9
-4 -9 -1 -12 9 -8 11 4 14 -4 14 -36 0 -26 -5 -41 -12 -42 -10 0 -10 -2 0 -6
8 -3 12 -37 12 -119 0 -84 -3 -114 -12 -115 -10 0 -10 -2 0 -6 22 -9 14 -43
-10 -44 l-23 -2 23 -4 c21 -4 32 -23 13 -23 -19 0 -71 23 -71 31 0 5 -8 9 -17
9 -24 1 -73 29 -53 30 8 1 5 5 -9 11 -15 6 -21 15 -17 24 4 11 -2 15 -22 15
-15 0 -38 3 -52 7 -14 3 -22 2 -18 -2 4 -4 -14 -18 -40 -30 -26 -12 -73 -43
-104 -68 l-57 -47 1 38 c1 20 8 43 17 50 14 11 14 11 -1 6 -15 -5 -17 1 -16
40 0 31 6 50 17 57 14 9 14 10 -1 5 -16 -5 -18 2 -18 49 0 45 3 55 18 56 16 1
16 2 0 6 -10 2 -18 9 -18 14 0 5 8 10 18 10 16 1 16 2 0 6 -10 2 -18 8 -18 13
0 5 -7 7 -15 4 -8 -4 -12 -10 -9 -15 3 -5 -1 -12 -10 -15 -8 -3 -13 -11 -10
-17 2 -7 -6 -25 -19 -41 l-23 -29 -164 62 c-115 44 -166 59 -173 52 -15 -15
-36 -13 -72 5 -20 9 -23 13 -9 10 12 -2 28 1 35 6 11 8 10 9 -3 5 -9 -3 -22 1
-28 9 -20 23 13 64 53 65 l32 1 -30 8 c-20 5 -24 8 -10 9 17 1 18 3 5 11 -12
8 -9 10 12 10 15 0 29 4 32 9 3 4 -7 6 -22 4 -21 -4 -24 -2 -12 6 8 6 12 11 7
11 -4 0 0 11 9 26 9 14 22 23 29 20 7 -2 47 16 91 40 86 47 94 60 13 18 -28
-14 -48 -20 -44 -15 11 18 86 53 101 47 7 -3 37 6 66 20 49 22 50 24 18 19
l-35 -5 30 15 c17 8 40 14 52 15 12 0 24 4 27 8 3 5 20 7 38 5 l33 -3 -28 11
c-24 9 -43 6 -120 -21 -51 -17 -120 -47 -155 -66 -34 -19 -65 -34 -67 -34 -4
0 75 135 121 208 14 21 20 22 157 22 94 0 162 -5 200 -15z m859 5 c31 -8 32
-8 6 -9 -33 -1 -38 -21 -5 -21 20 -1 19 -2 -8 -15 -34 -16 -19 -14 73 11 64
17 64 17 35 30 -25 11 -19 12 57 12 l85 0 -60 -29 c-53 -26 -57 -32 -8 -12 12
5 14 3 8 -7 -5 -9 -4 -11 4 -6 6 4 9 12 5 17 -3 6 0 9 7 8 8 -2 28 5 46 14 18
9 40 17 49 17 14 0 12 -6 -12 -32 l-29 -33 37 34 c40 37 64 36 32 -1 -12 -13
-13 -18 -4 -13 12 7 13 6 3 -7 -7 -8 -11 -17 -8 -20 3 -3 -3 -11 -12 -19 -16
-13 -17 -12 -4 4 19 25 8 21 -15 -5 -10 -12 -13 -18 -6 -14 22 13 13 -7 -20
-43 -29 -32 -30 -33 -4 -11 l29 25 -12 -23 c-7 -13 -45 -58 -84 -100 -40 -42
-61 -68 -48 -57 16 14 22 15 19 6 -2 -8 -27 -30 -54 -49 l-49 -35 45 7 c24 4
47 12 51 18 4 6 12 7 19 3 8 -5 11 -4 7 2 -4 6 7 16 23 23 17 7 28 15 25 18
-2 3 1 12 8 21 6 9 -3 3 -21 -12 -73 -59 -63 -23 22 83 34 41 71 89 83 105
l22 30 1 -29 c0 -17 -10 -41 -22 -55 l-23 -26 23 19 22 19 0 -54 c0 -30 -6
-61 -12 -68 -10 -11 -10 -13 0 -7 6 4 12 3 12 -3 0 -5 -5 -11 -12 -13 -6 -2
-12 -12 -14 -21 -1 -9 2 -15 7 -11 5 3 7 10 4 15 -4 5 -2 9 3 9 6 0 10 -45 11
-100 l2 -100 -36 0 c-19 0 -35 -5 -35 -10 0 -7 13 -8 35 -4 31 5 35 4 35 -15
0 -11 -6 -21 -12 -21 -9 0 -9 -3 -3 -8 6 -4 12 -19 13 -34 1 -22 -3 -28 -18
-28 -11 0 -20 -4 -20 -10 0 -5 -18 -13 -40 -16 -22 -4 -43 -10 -45 -14 -3 -4
-24 -6 -47 -5 -24 1 -30 0 -13 -2 16 -3 33 -9 36 -14 7 -12 130 20 141 36 5 6
8 3 8 -6 0 -13 -19 -22 -72 -35 -40 -10 -82 -17 -93 -16 -11 1 -30 -5 -42 -13
-13 -9 -44 -14 -78 -14 -31 1 -59 -1 -62 -5 -3 -3 8 -6 25 -6 55 0 35 -17 -46
-39 -43 -12 -83 -21 -89 -21 -8 0 -11 35 -11 105 0 121 -7 115 109 91 44 -10
77 -11 100 -5 l34 9 -37 -5 c-21 -2 -40 0 -43 5 -3 5 -41 12 -85 16 -77 6
-109 22 -52 25 l27 2 -27 4 c-26 4 -28 8 -28 47 l0 43 -115 5 c-115 4 -142 11
-115 28 8 6 10 10 4 10 -7 0 -11 19 -11 45 0 25 4 45 8 45 5 0 9 -5 9 -11 0
-5 5 -7 12 -3 8 5 5 11 -10 17 -12 6 -22 14 -22 19 0 5 6 6 13 2 9 -6 9 -4 1
7 -6 8 -11 27 -12 42 -2 29 5 29 39 0 13 -11 16 -11 16 2 0 8 -4 12 -9 9 -4
-3 -8 0 -8 5 0 6 6 11 13 11 6 1 -2 7 -19 14 -28 12 -31 18 -33 65 l-2 51 88
-5 c48 -2 79 -2 68 1 -89 23 -155 46 -155 54 0 6 6 10 13 10 9 0 9 2 0 8 -7 4
-11 17 -10 29 1 21 5 21 168 21 93 0 183 -4 201 -8z m838 -5 c-7 -8 -16 -15
-21 -15 -5 0 -9 7 -9 15 0 9 9 15 21 15 18 0 19 -2 9 -15z m199 -1 c-32 -18
-21 -17 31 1 26 9 78 15 131 15 l89 0 0 -73 0 -72 -122 -63 c-68 -34 -131 -62
-141 -62 -10 0 -16 -4 -12 -9 13 -22 106 -3 184 38 44 23 81 41 83 41 10 0 7
-115 -4 -128 -9 -10 -9 -13 -1 -9 8 5 12 -20 12 -94 1 -93 0 -101 -17 -94 -69
29 -116 45 -124 43 -5 -2 23 -17 64 -33 l73 -30 0 -65 0 -64 -40 -23 c-22 -13
-60 -30 -85 -39 -25 -9 -52 -20 -61 -24 -9 -5 -27 -6 -40 -3 -13 3 -21 3 -17
-2 10 -11 97 -12 91 -1 -4 5 3 7 15 4 12 -4 20 -3 18 1 -3 4 24 21 58 39 l64
31 0 -94 c0 -85 -2 -94 -22 -104 l-21 -11 22 5 c19 5 22 2 21 -24 -1 -36 -11
-39 -143 -39 -60 -1 -83 2 -70 8 14 6 0 9 -47 9 -37 1 -69 5 -72 10 -3 4 -22
11 -42 14 -20 3 -51 16 -69 28 -27 19 -33 29 -33 61 -1 25 5 41 16 48 16 9 16
9 0 10 -18 0 -22 40 -3 40 5 0 3 5 -5 10 -13 9 -12 12 4 25 17 13 17 15 3 15
-12 0 -15 9 -14 35 1 19 7 35 12 35 6 0 6 3 0 8 -6 4 -11 24 -11 45 0 37 1 39
29 34 27 -3 28 -2 13 9 -10 7 -23 11 -29 10 -7 -2 -8 -1 -4 2 4 2 3 10 -3 17
-8 9 -8 15 0 20 6 3 8 10 5 15 -9 14 34 32 63 26 15 -3 45 -1 67 3 l40 9 -50
1 c-43 2 -47 4 -26 12 14 5 52 13 85 16 55 6 58 8 26 13 -19 3 -60 3 -90 -1
-30 -3 -48 -7 -40 -8 8 -2 -1 -9 -20 -16 -68 -26 -66 -31 -68 142 -1 101 3
161 10 170 7 9 7 13 -1 13 -22 0 -10 20 26 44 33 23 46 25 126 24 81 -1 88 -2
66 -14z m226 -174 c-9 -14 -106 -63 -112 -56 -3 2 21 18 53 35 68 35 67 34 59
21z m-2755 -320 c-13 -9 -13 -10 0 -10 13 0 13 -1 0 -10 -8 -5 -19 -10 -25
-10 -5 0 -3 5 5 10 8 5 11 10 7 10 -5 0 -5 5 -2 10 3 6 12 10 18 10 7 0 6 -4
-3 -10z m193 -28 c-2 -6 3 -9 10 -6 7 2 24 1 38 -4 23 -9 23 -10 -15 -26 -22
-9 -50 -19 -63 -22 -18 -5 -21 -9 -12 -20 9 -11 21 -8 67 13 67 30 108 41 98
25 -4 -7 14 -15 46 -22 73 -15 83 -22 69 -49 -7 -11 -16 -21 -21 -21 -6 0 -9
-3 -8 -7 4 -14 -13 -53 -23 -53 -5 0 -9 -7 -9 -15 0 -9 -10 -26 -23 -39 -13
-13 -21 -28 -19 -34 2 -6 -6 -17 -16 -23 -11 -7 -18 -18 -15 -25 2 -6 -6 -19
-19 -28 -12 -9 -17 -16 -10 -16 9 0 8 -7 -4 -23 -15 -20 -27 -22 -98 -24 -54
-1 -73 1 -56 7 19 6 8 8 -43 9 -37 1 -75 5 -85 10 -9 5 -37 15 -62 22 -41 11
-43 13 -20 19 20 5 16 8 -26 13 -58 8 -97 31 -76 45 8 5 13 12 13 16 -3 19 1
27 23 49 14 14 22 28 19 31 -4 3 5 6 18 7 20 0 21 2 6 8 -17 6 -16 9 5 41 17
25 34 37 58 41 l35 6 -35 2 c-19 1 -30 5 -24 9 6 4 19 22 28 41 19 36 18 36
126 15 22 -4 23 -3 5 5 -19 9 -18 10 5 10 20 1 22 3 10 12 -12 8 -10 10 10 6
14 -3 34 -1 45 3 26 11 51 7 48 -8z m1637 -187 c0 -8 -10 -16 -22 -16 -22 -2
-22 -2 -2 -6 15 -3 21 -12 22 -33 1 -30 0 -30 -61 -32 l-62 -2 63 -3 c61 -4
62 -4 62 -33 0 -26 -4 -30 -37 -35 -126 -20 -164 -28 -156 -36 5 -5 26 -4 47
2 21 6 61 8 90 5 35 -4 45 -3 31 3 -19 9 -19 10 3 10 17 1 23 -4 20 -16 -2
-13 -18 -20 -58 -27 -30 -5 -50 -11 -43 -13 8 -3 7 -10 -5 -22 -9 -10 -20 -16
-23 -15 -3 2 -6 -3 -6 -10 0 -9 19 -2 53 20 61 39 97 47 41 9 -20 -14 -36 -31
-34 -37 1 -6 -4 -13 -12 -16 -9 -3 -11 0 -6 9 5 8 4 11 -1 6 -5 -5 -10 -13
-10 -18 -1 -5 -3 -11 -4 -14 -1 -3 -3 -8 -4 -12 -1 -5 -6 -15 -11 -23 -5 -8
20 11 56 42 l66 58 1 -43 c2 -39 -2 -45 -46 -82 -26 -23 -64 -54 -84 -69 -21
-16 -35 -33 -32 -38 3 -5 16 0 28 11 27 25 44 28 25 4 -12 -14 -12 -16 0 -8
10 6 12 4 6 -5 -5 -9 -4 -11 4 -6 6 4 9 11 6 16 -3 4 2 13 10 20 8 7 13 16 10
20 -6 10 33 45 42 37 3 -4 12 -2 20 4 10 9 13 6 13 -13 0 -13 -6 -30 -12 -37
-10 -11 -10 -13 0 -7 18 11 15 -5 -5 -20 -17 -13 -17 -14 0 -8 9 3 17 1 17 -5
0 -6 -8 -11 -17 -12 -12 -1 -9 -4 7 -8 21 -7 15 -10 -37 -21 -35 -7 -63 -17
-63 -21 0 -5 -20 -19 -45 -31 -30 -15 -41 -25 -32 -30 6 -4 17 -8 22 -8 6 0 4
4 -3 9 -15 9 90 51 129 51 19 0 21 2 9 10 -12 8 -9 10 11 10 37 0 46 -28 11
-33 -26 -4 -26 -4 4 -6 22 -1 34 -8 42 -26 l11 -24 -57 2 c-50 1 -210 -38
-199 -49 2 -2 32 1 67 7 68 13 194 1 267 -25 l38 -13 -62 -8 c-35 -4 -61 -11
-58 -16 3 -4 20 -6 38 -4 18 3 26 3 19 -1 -29 -13 1 -22 33 -8 19 8 36 10 40
5 8 -13 -12 -24 -27 -15 -7 4 -10 4 -6 -1 4 -4 3 -14 -3 -22 -6 -7 -8 -13 -3
-13 4 0 -12 -20 -36 -45 -24 -25 -49 -45 -54 -45 -5 0 2 13 17 28 52 55 26 44
-35 -14 -63 -60 -75 -79 -56 -91 7 -3 8 -1 4 6 -4 6 -3 10 3 9 5 -2 53 36 105
84 90 84 116 103 100 76 -4 -8 -3 -10 2 -5 5 5 9 14 9 20 1 7 7 11 13 9 7 -1
21 2 32 8 20 11 22 -2 5 -30 -8 -13 -7 -13 8 -1 9 7 15 17 12 21 -3 5 0 12 6
16 8 4 7 9 -2 16 -11 8 -10 9 3 4 10 -3 37 6 60 19 25 15 58 24 78 24 19 -1
27 -3 17 -6 -9 -2 -15 -9 -12 -14 4 -5 17 -6 30 -3 33 8 132 -15 114 -27 -9
-6 -2 -7 18 -3 20 4 58 -2 102 -15 42 -13 96 -21 140 -21 41 0 71 -4 71 -10 0
-5 -8 -10 -17 -10 -15 0 -16 -2 -3 -10 12 -8 12 -10 1 -10 -8 0 -12 -3 -8 -6
3 -3 -8 -28 -25 -55 l-30 -49 -32 27 c-18 16 -31 31 -29 35 2 4 -6 10 -18 13
-17 6 -19 9 -8 16 10 7 5 8 -12 3 -16 -3 -39 1 -57 10 -17 9 -55 16 -84 17
-29 0 -71 3 -93 7 -22 5 -51 4 -65 0 -14 -4 -36 -10 -50 -13 -14 -3 -35 -13
-48 -23 -23 -18 -22 -18 32 -8 30 6 53 13 51 16 -2 3 37 5 85 5 48 0 86 -3 83
-7 -2 -4 9 -5 26 -2 35 7 118 -29 171 -74 41 -35 36 -53 -5 -20 -16 13 -25 16
-20 9 6 -11 4 -13 -11 -6 -153 63 -288 81 -403 51 -35 -9 -66 -14 -69 -12 -7
7 -86 -51 -119 -88 -23 -25 -24 -27 -3 -9 31 27 102 58 183 79 109 29 302 5
420 -52 l37 -18 -32 -34 c-64 -65 -199 -145 -285 -167 -29 -8 -57 -16 -61 -19
-17 -10 -241 -16 -247 -7 -3 6 -12 8 -19 5 -20 -8 -98 15 -91 26 3 6 -1 7 -10
4 -18 -7 -105 23 -105 37 0 5 4 9 8 9 5 0 9 6 9 14 0 12 -5 11 -25 -2 -23 -15
-25 -15 -37 1 -6 9 -15 14 -18 10 -4 -3 -7 -1 -7 6 0 7 -4 9 -10 6 -5 -3 -10
1 -10 10 0 10 5 13 12 9 7 -4 8 -3 4 4 -4 6 -13 9 -21 6 -7 -3 -22 -1 -31 4
-15 8 -12 13 22 31 21 12 30 20 19 17 -71 -16 -87 -18 -81 -7 4 6 15 11 25 11
30 0 81 21 75 31 -3 5 -13 5 -24 -1 -24 -13 -40 -13 -40 1 0 5 5 7 12 3 6 -4
8 -3 5 3 -5 7 -20 6 -48 -3 -32 -11 -44 -12 -55 -3 -30 24 -106 150 -100 165
3 8 2 13 -3 10 -10 -6 -13 1 -41 82 l-19 52 27 1 c15 0 36 4 47 9 13 6 3 7
-30 4 -37 -4 -46 -3 -35 5 13 9 13 11 1 11 -11 0 -9 4 5 14 18 14 18 14 0 13
-10 -1 -21 4 -23 11 -3 9 11 12 51 12 31 0 56 4 56 9 0 6 -24 7 -55 4 l-55 -6
0 37 c0 27 4 36 18 37 16 1 16 2 0 6 -14 3 -18 15 -18 49 0 28 5 44 13 45 10
0 10 2 0 6 -7 2 -13 18 -13 34 0 25 4 29 28 30 l27 2 -27 4 c-28 4 -40 32 -15
34 10 0 10 2 0 6 -16 6 -17 83 -2 83 8 0 8 4 2 13 -19 25 -9 52 22 58 17 4 26
7 20 8 -5 1 1 7 14 12 13 5 33 7 44 3 14 -4 17 -3 12 6 -5 9 -1 10 15 5 17 -5
21 -4 15 6 -6 9 -3 11 9 6 10 -4 38 2 63 13 33 15 42 16 33 5 -8 -10 3 -8 38
8 27 12 48 25 46 29 -6 9 52 26 94 27 22 1 32 -4 32 -14z m-962 -78 c84 -78
130 -117 113 -94 -12 15 -12 17 3 11 11 -4 16 -18 16 -45 0 -21 -3 -39 -7 -39
-3 0 -29 17 -57 38 -42 32 -96 58 -96 48 0 -2 20 -16 45 -31 54 -35 52 -44 -3
-16 -25 13 -43 17 -47 11 -3 -6 -1 -10 5 -10 6 0 8 -4 5 -10 -3 -5 0 -7 8 -5
15 6 153 -52 144 -61 -3 -3 -15 0 -27 6 -13 7 -26 8 -31 3 -5 -5 5 -14 25 -21
l33 -12 1 -76 c0 -47 5 -81 13 -88 9 -8 10 -8 5 2 -6 9 19 12 111 11 65 -1
109 -4 99 -6 -11 -3 -26 -11 -33 -19 -12 -12 -10 -13 16 -8 20 4 31 2 31 -5 0
-6 -6 -11 -12 -11 -9 0 -8 -4 2 -10 13 -9 13 -11 0 -20 -10 -6 -11 -10 -2 -10
32 0 6 -27 -46 -48 -32 -12 -67 -29 -78 -37 -17 -13 -12 -14 51 -14 l70 1 -44
10 c-36 8 -42 12 -28 19 9 6 32 7 51 4 l34 -7 2 -159 1 -159 -121 0 c-117 0
-126 -2 -121 -32 0 -4 -6 -5 -14 -2 -18 7 -19 20 -2 28 6 3 2 3 -10 0 -24 -6
-68 4 -59 13 3 3 -29 18 -72 33 -81 28 -182 76 -182 86 0 3 7 4 15 0 8 -3 15
-1 15 4 0 6 13 10 28 10 39 0 146 29 150 41 2 5 9 6 14 3 7 -4 8 -2 4 4 -4 8
-17 7 -41 -4 -30 -12 -163 -44 -183 -44 -4 0 0 5 8 10 11 8 9 9 -11 5 -17 -4
-30 -1 -38 9 -8 9 -23 16 -35 16 -11 0 -33 6 -48 14 -23 12 -29 12 -45 0 -17
-13 -17 -13 5 -14 12 0 22 -4 22 -9 0 -5 -39 -12 -86 -16 l-86 -7 43 -20 c23
-10 64 -34 90 -53 31 -22 46 -28 45 -18 -1 8 -9 19 -17 24 -20 12 -2 11 22 -2
11 -5 17 -14 14 -19 -3 -5 0 -12 6 -16 8 -5 9 -3 4 6 -6 10 -4 12 10 6 14 -5
16 -4 7 7 -7 8 -9 16 -6 20 8 7 35 -3 30 -12 -2 -3 6 -6 17 -7 12 0 39 -8 59
-17 27 -12 39 -14 44 -5 4 7 3 8 -4 4 -7 -4 -12 -3 -12 2 0 5 -21 17 -46 27
-25 9 -43 19 -41 21 15 16 273 -109 262 -126 -3 -6 0 -8 7 -5 19 7 112 -47
116 -67 2 -12 -4 -16 -27 -14 -17 1 -31 -1 -31 -5 0 -7 -24 -2 -75 16 -16 5
-17 5 -5 -4 15 -11 14 -11 -30 -24 -12 -3 -11 -6 5 -14 28 -15 105 -27 85 -14
-11 8 -2 11 35 11 36 0 46 -3 35 -10 -13 -9 -13 -10 0 -11 8 -1 -3 -5 -25 -9
l-40 -7 38 -2 c32 -1 37 -4 37 -26 0 -24 -2 -25 -74 -25 -41 0 -78 5 -81 10
-3 6 2 10 11 10 10 0 15 2 12 5 -3 3 -26 1 -51 -5 -27 -6 -55 -6 -69 -1 -15 6
-36 4 -61 -7 -31 -12 -41 -12 -50 -2 -9 10 -9 11 2 5 9 -5 12 -4 7 3 -5 9 -12
9 -29 0 -12 -6 -36 -12 -54 -14 -31 -2 -33 -1 -33 32 0 25 4 34 18 35 16 1 16
2 0 6 -21 5 -26 63 -5 63 9 0 9 2 0 8 -6 4 -11 21 -11 38 1 40 -8 54 -36 54
-12 0 -28 6 -35 13 -11 10 -13 10 -7 0 5 -10 -4 -13 -36 -13 -24 0 -50 6 -57
13 -11 9 -13 9 -7 0 6 -10 -11 -13 -72 -13 -76 0 -80 1 -120 36 -23 20 -40 39
-37 44 3 5 -4 11 -15 15 -11 4 -17 11 -14 17 4 6 -1 8 -14 4 -11 -4 -37 0 -58
8 -22 8 -77 17 -124 21 -101 8 -99 8 -129 -1 -18 -5 -22 -4 -16 6 4 7 -19 -4
-51 -25 -69 -44 -92 -64 -47 -41 18 9 53 19 79 23 32 4 42 9 32 15 -8 6 -1 8
22 4 19 -3 73 -6 120 -7 97 -1 160 -24 223 -79 41 -35 43 -50 5 -29 -12 7 -25
14 -28 14 -3 1 -43 14 -90 29 -104 34 -229 44 -315 25 -33 -7 -67 -13 -76 -14
-9 0 -23 -6 -32 -14 -15 -11 -17 -11 -17 1 0 8 6 20 13 27 9 11 9 13 0 7 -7
-4 -13 -3 -13 1 0 5 6 15 13 22 10 11 9 12 -1 6 -10 -5 -12 1 -10 24 5 38 35
63 60 50 18 -10 19 -9 22 11 0 6 15 19 31 30 17 11 27 20 23 20 -3 0 -15 3
-25 6 -15 5 -15 4 -3 -5 9 -6 10 -11 3 -11 -6 0 -18 -7 -26 -14 -11 -12 -22
-13 -49 -4 -32 9 -35 13 -37 55 -1 33 3 49 16 59 14 11 15 13 2 8 -13 -4 -16
2 -16 33 1 50 39 72 93 55 24 -7 43 -7 57 -1 22 10 22 10 0 5 -13 -2 -26 0
-29 5 -3 5 1 9 8 9 9 1 7 5 -4 14 -10 7 -14 16 -10 20 4 5 -15 -4 -42 -18 -27
-14 -55 -26 -62 -26 -19 0 -18 46 1 54 8 3 15 9 14 13 -3 18 2 31 23 53 12 13
23 31 25 39 1 9 10 21 19 28 10 7 15 13 11 13 -16 0 15 40 31 41 9 0 12 3 5 5
-7 3 -9 12 -6 20 6 15 42 18 83 7 24 -7 23 -8 -10 -14 -31 -6 -29 -7 18 -8 29
0 62 -6 73 -11 10 -6 19 -9 19 -6 0 8 -122 79 -136 79 -9 0 -10 5 -3 19 13 24
26 23 41 -3 15 -24 79 -58 156 -83 72 -24 223 -46 242 -35 10 5 -2 9 -35 9
-77 1 -182 26 -262 64 -40 19 -73 37 -73 40 0 2 38 -11 84 -30 92 -37 202 -56
278 -47 l47 6 -12 -26 c-7 -15 -31 -34 -57 -45 -40 -18 -41 -20 -12 -15 19 3
32 1 32 -5 0 -16 -39 -25 -55 -12 -10 9 -20 8 -42 -3 l-28 -15 30 -7 c67 -14
69 -17 41 -48 -23 -25 -24 -28 -8 -33 9 -3 32 -12 51 -20 32 -14 33 -14 21 1
-12 14 -9 15 26 11 21 -2 43 -5 47 -5 5 -1 6 -5 2 -10 -3 -5 -1 -13 5 -16 6
-4 10 -3 9 2 -7 39 45 41 106 3 22 -14 43 -25 47 -25 3 0 10 -4 15 -9 5 -5 2
-6 -6 -1 -10 5 -12 4 -7 -4 4 -6 12 -8 18 -5 5 4 40 -23 77 -59 73 -73 161
-120 161 -87 0 6 -7 10 -15 10 -31 0 -92 40 -175 116 -47 43 -86 81 -88 85 -2
4 17 6 42 5 32 -1 53 -8 73 -26 l28 -25 -22 25 c-12 14 -19 30 -15 37 5 7 32
-7 79 -41 93 -69 149 -95 253 -117 61 -13 79 -20 63 -24 -12 -4 -24 -13 -27
-21 -5 -13 -2 -12 16 1 26 18 42 20 32 3 -4 -7 -3 -8 5 -4 6 4 9 11 6 16 -3 5
15 21 40 36 49 28 55 41 11 24 -40 -15 -125 -12 -187 6 -64 19 -135 57 -224
121 l-65 47 0 78 c0 74 1 78 23 79 l22 2 -22 4 c-40 8 -25 23 25 25 l47 1 -50
7 c-37 5 -42 7 -20 9 l30 3 -30 13 c-29 14 -29 14 35 16 l65 2 -65 7 c-47 5
-55 7 -30 10 26 2 29 4 12 7 -20 4 -14 11 45 54 43 31 78 49 96 49 16 0 26 4
22 10 -4 6 9 10 30 10 31 0 47 -9 103 -63z m100 -43 c20 -9 31 -18 24 -21 -7
-3 -27 5 -45 16 -39 25 -30 27 21 5z m1427 -89 c102 -39 303 -55 368 -30 9 4
17 3 17 -1 0 -5 -39 -25 -88 -44 l-87 -35 65 -7 c36 -3 75 -4 87 -1 21 5 23 2
21 -36 -1 -46 -2 -47 -52 -26 -19 8 -59 20 -87 26 -34 7 -49 15 -45 24 4 11
-149 -47 -164 -63 -8 -7 41 8 72 23 32 15 107 2 191 -34 27 -12 57 -21 67 -21
16 0 18 -9 19 -66 0 -56 -2 -65 -16 -60 -12 5 -13 3 -5 -7 13 -15 13 -75 1
-83 -5 -3 -47 24 -93 61 -96 74 -132 92 -267 130 l-95 27 0 64 -1 64 47 0 c48
0 110 -16 109 -28 -4 -29 3 -31 54 -11 28 11 53 22 55 24 2 2 -24 3 -58 3 -51
0 -70 5 -111 31 -27 16 -49 26 -49 22 0 -5 -11 -6 -25 -3 -14 2 -25 9 -25 14
0 6 10 8 23 5 21 -6 21 -6 -3 13 -32 24 -20 36 17 17 42 -22 161 -57 192 -56
14 0 -7 9 -48 19 -76 20 -181 64 -181 76 0 3 8 3 18 -1 9 -4 44 -17 77 -30z
m-2617 8 c-10 -2 -26 -2 -35 0 -10 3 -2 5 17 5 19 0 27 -2 18 -5z m2595 -90
c-13 -2 -35 -2 -50 0 -16 2 -5 4 22 4 28 0 40 -2 28 -4z m407 -8 c0 -11 -12
-15 -50 -15 -58 0 -63 6 -17 19 48 14 67 13 67 -4z m-356 -210 c48 -14 113
-38 144 -54 73 -37 154 -96 145 -104 -3 -4 -1 -7 6 -7 7 0 9 -4 6 -10 -3 -5
-1 -10 4 -10 6 0 11 -9 11 -21 0 -16 -4 -19 -22 -14 -21 6 -22 5 -5 -8 15 -13
9 -14 -54 -15 -64 0 -82 5 -180 48 -72 32 -111 45 -115 38 -4 -6 1 -17 11 -25
25 -17 19 -17 -61 8 -90 28 -89 27 -59 55 14 13 25 25 25 26 -4 12 26 98 35
98 5 0 3 5 -5 10 -28 18 23 11 114 -15z m-519 -137 c7 -7 -11 -9 -54 -4 -35 3
-73 6 -85 7 -18 1 -18 2 4 8 32 9 122 2 135 -11z m-1284 -149 c24 -20 24 -20
1 -9 -12 6 -28 10 -35 9 -6 -1 -28 0 -47 1 l-35 2 30 8 c49 13 62 11 86 -11z
m-673 -95 c42 -9 90 -22 107 -29 26 -12 -3 -13 -224 -14 -274 -1 -298 5 -164
40 86 22 182 23 281 3z"/>
<path d="M1940 3096 c0 -2 8 -10 18 -17 15 -13 16 -12 3 4 -13 16 -21 21 -21
13z"/>
<path d="M1920 3076 c0 -2 8 -10 18 -17 15 -13 16 -12 3 4 -13 16 -21 21 -21
13z"/>
<path d="M1593 3043 c9 -2 25 -2 35 0 9 3 1 5 -18 5 -19 0 -27 -2 -17 -5z"/>
<path d="M1738 3043 c6 -2 18 -2 25 0 6 3 1 5 -13 5 -14 0 -19 -2 -12 -5z"/>
<path d="M1975 3030 c10 -11 20 -20 23 -20 3 0 -3 9 -13 20 -10 11 -20 20 -23
20 -3 0 3 -9 13 -20z"/>
<path d="M1748 3023 c6 -2 18 -2 25 0 6 3 1 5 -13 5 -14 0 -19 -2 -12 -5z"/>
<path d="M1545 3000 c-3 -6 -18 -8 -33 -5 -22 4 -23 4 -7 -4 13 -5 46 -4 90 4
l70 13 -57 1 c-31 0 -60 -4 -63 -9z"/>
<path d="M1880 3000 c-9 -6 -10 -10 -3 -10 6 0 15 5 18 10 8 12 4 12 -15 0z"/>
<path d="M1700 2990 c0 -5 21 -10 47 -10 55 0 54 5 -4 14 -27 4 -43 2 -43 -4z"/>
<path d="M2020 2996 c0 -2 8 -10 18 -17 15 -13 16 -12 3 4 -13 16 -21 21 -21
13z"/>
<path d="M1927 2983 c-5 -4 74 -49 128 -71 6 -3 -3 9 -19 26 -16 17 -33 29
-37 26 -5 -3 -21 2 -37 10 -16 8 -32 13 -35 9z"/>
<path d="M1608 2973 c6 -2 18 -2 25 0 6 3 1 5 -13 5 -14 0 -19 -2 -12 -5z"/>
<path d="M1808 2973 c6 -2 18 -2 25 0 6 3 1 5 -13 5 -14 0 -19 -2 -12 -5z"/>
<path d="M1648 2953 c7 -3 16 -2 19 1 4 3 -2 6 -13 5 -11 0 -14 -3 -6 -6z"/>
<path d="M1698 2953 c12 -2 32 -2 45 0 12 2 2 4 -23 4 -25 0 -35 -2 -22 -4z"/>
<path d="M1778 2953 c6 -2 18 -2 25 0 6 3 1 5 -13 5 -14 0 -19 -2 -12 -5z"/>
<path d="M1910 2946 c7 -9 19 -16 27 -16 8 0 11 -4 8 -10 -4 -6 9 -10 31 -10
46 0 43 3 -25 30 -42 16 -51 18 -41 6z"/>
<path d="M1588 2943 c7 -3 16 -2 19 1 4 3 -2 6 -13 5 -11 0 -14 -3 -6 -6z"/>
<path d="M1858 2943 c6 -2 18 -2 25 0 6 3 1 5 -13 5 -14 0 -19 -2 -12 -5z"/>
<path d="M1758 2923 c23 -2 61 -2 85 0 23 2 4 4 -43 4 -47 0 -66 -2 -42 -4z"/>
<path d="M1648 2913 c7 -3 16 -2 19 1 4 3 -2 6 -13 5 -11 0 -14 -3 -6 -6z"/>
<path d="M1813 2903 c9 -2 25 -2 35 0 9 3 1 5 -18 5 -19 0 -27 -2 -17 -5z"/>
<path d="M1898 2903 c7 -3 16 -2 19 1 4 3 -2 6 -13 5 -11 0 -14 -3 -6 -6z"/>
<path d="M2005 2900 c-16 -7 -11 -9 20 -9 29 -1 36 2 25 9 -17 11 -19 11 -45
0z"/>
<path d="M1688 2893 c7 -3 16 -2 19 1 4 3 -2 6 -13 5 -11 0 -14 -3 -6 -6z"/>
<path d="M1748 2873 c6 -2 18 -2 25 0 6 3 1 5 -13 5 -14 0 -19 -2 -12 -5z"/>
<path d="M1973 2873 c9 -2 25 -2 35 0 9 3 1 5 -18 5 -19 0 -27 -2 -17 -5z"/>
<path d="M1678 2863 c7 -3 16 -2 19 1 4 3 -2 6 -13 5 -11 0 -14 -3 -6 -6z"/>
<path d="M1234 2844 c-18 -14 -18 -15 4 -4 12 6 22 13 22 15 0 8 -5 6 -26 -11z"/>
<path d="M1678 2843 c6 -2 18 -2 25 0 6 3 1 5 -13 5 -14 0 -19 -2 -12 -5z"/>
<path d="M1404 2824 c-18 -14 -18 -15 4 -4 12 6 22 13 22 15 0 8 -5 6 -26 -11z"/>
<path d="M1454 2824 c-18 -14 -18 -14 6 -3 31 14 36 19 24 19 -6 0 -19 -7 -30
-16z"/>
<path d="M1304 2814 c-18 -14 -18 -15 4 -4 12 6 22 13 22 15 0 8 -5 6 -26 -11z"/>
<path d="M1565 2810 c-27 -14 -32 -19 -15 -15 14 2 33 5 43 5 10 0 16 4 13 9
-4 5 0 12 6 14 7 3 9 6 3 6 -5 0 -28 -8 -50 -19z"/>
<path d="M1695 2820 c7 -12 65 -14 65 -2 0 4 -16 9 -36 10 -23 2 -33 -1 -29
-8z"/>
<path d="M1631 2816 c2 -2 18 -6 34 -10 22 -5 26 -4 15 4 -14 9 -59 15 -49 6z"/>
<path d="M1923 2813 c15 -2 37 -2 50 0 12 2 0 4 -28 4 -27 0 -38 -2 -22 -4z"/>
<path d="M1380 2787 c-56 -27 -54 -26 -48 -32 5 -5 98 43 98 51 0 5 2 6 -50
-19z"/>
<path d="M1497 2789 c7 -7 15 -10 18 -7 3 3 -2 9 -12 12 -14 6 -15 5 -6 -5z"/>
<path d="M1220 2780 l-25 -8 27 -1 c15 -1 30 4 33 9 7 11 0 11 -35 0z"/>
<path d="M1455 2779 c-11 -5 -33 -14 -50 -20 l-30 -12 50 -13 c27 -7 54 -9 58
-5 5 5 -4 12 -18 15 -26 7 -26 8 -9 21 10 7 23 11 28 8 5 -4 6 -1 2 5 -4 7 -8
12 -9 11 -1 0 -11 -4 -22 -10z"/>
<path d="M1688 2783 c7 -3 16 -2 19 1 4 3 -2 6 -13 5 -11 0 -14 -3 -6 -6z"/>
<path d="M1285 2770 c-19 -8 -19 -9 2 -9 12 -1 25 4 28 9 7 12 -2 12 -30 0z"/>
<path d="M1628 2773 c7 -3 16 -2 19 1 4 3 -2 6 -13 5 -11 0 -14 -3 -6 -6z"/>
<path d="M1238 2753 c7 -3 16 -2 19 1 4 3 -2 6 -13 5 -11 0 -14 -3 -6 -6z"/>
<path d="M1298 2743 c7 -3 16 -2 19 1 4 3 -2 6 -13 5 -11 0 -14 -3 -6 -6z"/>
<path d="M1520 2721 l-25 -7 30 -8 c17 -4 38 -9 49 -13 12 -3 16 -1 12 6 -4 6
-17 11 -29 12 -21 0 -21 1 -2 9 24 10 1 11 -35 1z"/>
<path d="M1608 2713 c7 -3 16 -2 19 1 4 3 -2 6 -13 5 -11 0 -14 -3 -6 -6z"/>
<path d="M1228 2703 c7 -3 16 -2 19 1 4 3 -2 6 -13 5 -11 0 -14 -3 -6 -6z"/>
<path d="M1498 2693 c7 -3 16 -2 19 1 4 3 -2 6 -13 5 -11 0 -14 -3 -6 -6z"/>
<path d="M1612 2691 c-10 -6 -6 -10 15 -15 15 -4 36 -9 47 -13 12 -3 16 -1 12
6 -4 6 -19 11 -34 11 -21 0 -24 2 -12 10 13 9 13 10 0 10 -8 0 -21 -4 -28 -9z"/>
<path d="M1996 2692 c-3 -6 0 -12 6 -15 7 -2 -5 -5 -27 -5 -22 0 -56 -4 -75
-8 -32 -6 -34 -6 -21 10 12 14 7 13 -22 -4 -20 -12 -37 -24 -37 -26 0 -2 28
-1 62 1 45 3 58 1 48 -7 -17 -11 -9 -9 75 24 53 21 76 35 36 23 -15 -4 -26 -3
-31 5 -5 8 -10 9 -14 2z"/>
<path d="M1168 2680 c13 -6 31 -6 45 0 18 7 14 9 -23 9 -37 0 -41 -2 -22 -9z"/>
<path d="M1820 2675 c-30 -17 -94 -21 -70 -4 12 9 12 10 -3 5 -10 -3 -24 -6
-30 -6 -7 0 -6 -4 3 -10 12 -8 10 -10 -9 -10 -13 0 -22 -2 -19 -5 11 -11 116
8 139 26 29 22 24 24 -11 4z"/>
<path d="M1150 2650 c-9 -6 -10 -10 -3 -10 6 0 15 5 18 10 8 12 4 12 -15 0z"/>
<path d="M1250 2653 c8 -3 68 -30 134 -59 65 -29 125 -50 133 -47 9 3 -13 17
-54 33 -37 15 -88 36 -113 47 -25 11 -61 23 -80 27 -19 3 -28 3 -20 -1z"/>
<path d="M1831 2616 c-41 -23 4 -29 47 -6 l37 19 -30 0 c-16 0 -41 -6 -54 -13z"/>
<path d="M1697 2613 c18 -2 50 -2 70 0 21 2 7 4 -32 4 -38 0 -55 -2 -38 -4z"/>
<path d="M1720 2570 c-25 -4 -34 -8 -21 -8 16 -2 21 -6 17 -17 -4 -12 4 -10
37 6 64 32 62 34 -33 19z"/>
<path d="M1668 2543 c6 -2 18 -2 25 0 6 3 1 5 -13 5 -14 0 -19 -2 -12 -5z"/>
<path d="M1955 2524 c-32 -13 -68 -21 -80 -18 -16 4 -17 3 -5 -5 12 -9 13 -11
1 -11 -8 0 -12 -2 -10 -5 6 -6 141 34 153 45 5 5 16 6 25 3 14 -4 14 -3 1 6
-18 13 -13 14 -85 -15z"/>
<path d="M1635 2500 c28 -12 37 -12 30 0 -3 6 -16 10 -28 9 -21 0 -21 -1 -2
-9z"/>
<path d="M1704 2495 c-19 -14 -19 -14 2 -15 12 0 21 6 21 15 0 18 1 18 -23 0z"/>
<path d="M1803 2475 c-17 -14 -17 -14 2 -15 11 0 26 4 33 9 11 7 11 9 -1 14
-8 3 -23 -1 -34 -8z"/>
<path d="M1655 2469 c4 -5 15 -9 26 -9 11 0 18 -4 15 -9 -4 -5 4 -7 16 -3 13
3 19 1 15 -5 -5 -7 1 -9 15 -5 14 3 19 1 14 -6 -5 -8 -1 -10 9 -6 9 4 13 10 8
14 -13 12 -124 39 -118 29z"/>
<path d="M1893 2453 c20 -2 35 -8 32 -13 -3 -4 4 -6 15 -3 39 10 28 18 -28 19
-35 1 -42 0 -19 -3z"/>
<path d="M1978 2373 c7 -3 16 -2 19 1 4 3 -2 6 -13 5 -11 0 -14 -3 -6 -6z"/>
<path d="M2495 3120 c-3 -6 1 -7 9 -4 18 7 21 14 7 14 -6 0 -13 -4 -16 -10z"/>
<path d="M2388 3103 c7 -3 16 -2 19 1 4 3 -2 6 -13 5 -11 0 -14 -3 -6 -6z"/>
<path d="M2453 3093 c9 -2 23 -2 30 0 6 3 -1 5 -18 5 -16 0 -22 -2 -12 -5z"/>
<path d="M2704 3064 c-18 -14 -18 -15 4 -4 12 6 22 13 22 15 0 8 -5 6 -26 -11z"/>
<path d="M2789 3063 c-13 -16 -12 -17 4 -4 16 13 21 21 13 21 -2 0 -10 -8 -17
-17z"/>
<path d="M2423 3063 c15 -2 37 -2 50 0 12 2 0 4 -28 4 -27 0 -38 -2 -22 -4z"/>
<path d="M2804 3038 l-19 -23 23 19 c21 18 27 26 19 26 -2 0 -12 -10 -23 -22z"/>
<path d="M2338 3043 c7 -3 16 -2 19 1 4 3 -2 6 -13 5 -11 0 -14 -3 -6 -6z"/>
<path d="M2423 3033 c9 -2 25 -2 35 0 9 3 1 5 -18 5 -19 0 -27 -2 -17 -5z"/>
<path d="M2538 3013 c12 -2 30 -2 40 0 9 3 -1 5 -23 4 -22 0 -30 -2 -17 -4z"/>
<path d="M2208 2983 c7 -3 16 -2 19 1 4 3 -2 6 -13 5 -11 0 -14 -3 -6 -6z"/>
<path d="M2268 2973 c7 -3 16 -2 19 1 4 3 -2 6 -13 5 -11 0 -14 -3 -6 -6z"/>
<path d="M2363 2963 c20 -2 54 -2 75 0 20 2 3 4 -38 4 -41 0 -58 -2 -37 -4z"/>
<path d="M2739 2943 c-13 -16 -12 -17 4 -4 16 13 21 21 13 21 -2 0 -10 -8 -17
-17z"/>
<path d="M2278 2943 c7 -3 16 -2 19 1 4 3 -2 6 -13 5 -11 0 -14 -3 -6 -6z"/>
<path d="M2735 2898 l-50 -53 53 50 c28 27 52 51 52 52 0 8 -9 -1 -55 -49z"/>
<path d="M2388 2923 c7 -3 16 -2 19 1 4 3 -2 6 -13 5 -11 0 -14 -3 -6 -6z"/>
<path d="M2568 2923 c7 -3 16 -2 19 1 4 3 -2 6 -13 5 -11 0 -14 -3 -6 -6z"/>
<path d="M2859 2903 l-24 -28 28 24 c25 23 32 31 24 31 -2 0 -14 -12 -28 -27z"/>
<path d="M2318 2893 c7 -3 16 -2 19 1 4 3 -2 6 -13 5 -11 0 -14 -3 -6 -6z"/>
<path d="M2368 2883 c6 -2 18 -2 25 0 6 3 1 5 -13 5 -14 0 -19 -2 -12 -5z"/>
<path d="M2598 2883 c7 -3 16 -2 19 1 4 3 -2 6 -13 5 -11 0 -14 -3 -6 -6z"/>
<path d="M2270 2870 c-9 -6 -10 -10 -3 -10 6 0 15 5 18 10 8 12 4 12 -15 0z"/>
<path d="M2457 2873 c18 -2 50 -2 70 0 21 2 7 4 -32 4 -38 0 -55 -2 -38 -4z"/>
<path d="M2754 2838 l-19 -23 23 19 c21 18 27 26 19 26 -2 0 -12 -10 -23 -22z"/>
<path d="M2210 2846 c0 -2 8 -10 18 -17 15 -13 16 -12 3 4 -13 16 -21 21 -21
13z"/>
<path d="M2448 2823 c7 -3 16 -2 19 1 4 3 -2 6 -13 5 -11 0 -14 -3 -6 -6z"/>
<path d="M2306 2811 c5 -5 27 -20 49 -35 43 -28 33 -36 -15 -11 -21 11 -31 12
-36 3 -4 -7 -3 -8 4 -4 7 4 12 2 12 -3 0 -15 -16 -14 -53 5 l-32 15 24 -19
c18 -15 46 -21 122 -25 53 -3 112 -12 131 -20 19 -8 43 -10 58 -6 36 10 52 10
46 0 -11 -18 46 -21 116 -6 40 8 74 15 76 15 2 0 1 4 -3 9 -3 6 -18 6 -36 1
-20 -6 -39 -6 -51 1 -11 6 -27 7 -36 3 -31 -13 -197 0 -187 16 3 4 -14 11 -38
14 -23 4 -69 18 -101 31 -32 13 -55 20 -50 16z"/>
<path d="M2518 2813 c12 -2 32 -2 45 0 12 2 2 4 -23 4 -25 0 -35 -2 -22 -4z"/>
<path d="M2283 2785 c0 -8 4 -12 9 -9 5 3 6 10 3 15 -9 13 -12 11 -12 -6z"/>
<path d="M2538 2773 c12 -2 32 -2 45 0 12 2 2 4 -23 4 -25 0 -35 -2 -22 -4z"/>
<path d="M2720 2746 c0 -2 7 -7 16 -10 8 -3 12 -2 9 4 -6 10 -25 14 -25 6z"/>
<path d="M2228 2733 c7 -3 16 -2 19 1 4 3 -2 6 -13 5 -11 0 -14 -3 -6 -6z"/>
<path d="M2248 2703 c6 -2 18 -2 25 0 6 3 1 5 -13 5 -14 0 -19 -2 -12 -5z"/>
<path d="M2378 2703 c6 -2 18 -2 25 0 6 3 1 5 -13 5 -14 0 -19 -2 -12 -5z"/>
<path d="M2560 2696 c0 -14 57 -32 85 -26 30 6 29 6 -10 12 -22 2 -48 8 -57
12 -10 5 -18 6 -18 2z"/>
<path d="M2768 2693 c7 -3 16 -2 19 1 4 3 -2 6 -13 5 -11 0 -14 -3 -6 -6z"/>
<path d="M2708 2683 c6 -2 18 -2 25 0 6 3 1 5 -13 5 -14 0 -19 -2 -12 -5z"/>
<path d="M2248 2673 c6 -2 18 -2 25 0 6 3 1 5 -13 5 -14 0 -19 -2 -12 -5z"/>
<path d="M2413 2673 c9 -2 23 -2 30 0 6 3 -1 5 -18 5 -16 0 -22 -2 -12 -5z"/>
<path d="M2540 2650 c-8 -5 -10 -10 -5 -10 6 0 17 5 25 10 8 5 11 10 5 10 -5
0 -17 -5 -25 -10z"/>
<path d="M2468 2623 c7 -3 16 -2 19 1 4 3 -2 6 -13 5 -11 0 -14 -3 -6 -6z"/>
<path d="M2685 2620 c-3 -6 1 -7 9 -4 18 7 21 14 7 14 -6 0 -13 -4 -16 -10z"/>
<path d="M2528 2613 c7 -3 16 -2 19 1 4 3 -2 6 -13 5 -11 0 -14 -3 -6 -6z"/>
<path d="M2722 2610 c-12 -5 -51 -8 -85 -5 -80 5 -108 -10 -35 -18 74 -9 149
-8 124 2 -18 7 -18 8 5 14 13 4 33 6 44 6 16 -1 16 -2 -5 -9 -23 -7 -23 -8 9
-9 29 -1 32 1 21 14 -14 17 -43 18 -78 5z"/>
<path d="M2473 2603 c9 -2 23 -2 30 0 6 3 -1 5 -18 5 -16 0 -22 -2 -12 -5z"/>
<path d="M2513 2553 c9 -2 23 -2 30 0 6 3 -1 5 -18 5 -16 0 -22 -2 -12 -5z"/>
<path d="M2593 2543 c9 -2 25 -2 35 0 9 3 1 5 -18 5 -19 0 -27 -2 -17 -5z"/>
<path d="M2778 2543 c6 -2 18 -2 25 0 6 3 1 5 -13 5 -14 0 -19 -2 -12 -5z"/>
<path d="M2653 2493 c9 -2 23 -2 30 0 6 3 -1 5 -18 5 -16 0 -22 -2 -12 -5z"/>
<path d="M2578 2453 c7 -3 16 -2 19 1 4 3 -2 6 -13 5 -11 0 -14 -3 -6 -6z"/>
<path d="M2573 2433 c9 -2 25 -2 35 0 9 3 1 5 -18 5 -19 0 -27 -2 -17 -5z"/>
<path d="M2483 2383 c9 -2 23 -2 30 0 6 3 -1 5 -18 5 -16 0 -22 -2 -12 -5z"/>
<path d="M3512 3096 c-49 -35 -49 -38 -5 -19 22 10 40 23 40 30 0 7 -1 13 -1
13 -1 -1 -16 -11 -34 -24z"/>
<path d="M3510 2850 c14 -4 34 -8 45 -8 l20 -1 -20 9 c-11 5 -31 8 -45 8 l-25
0 25 -8z"/>
<path d="M3455 2840 c-19 -8 -19 -9 3 -9 12 -1 22 4 22 9 0 6 -1 10 -2 9 -2 0
-12 -4 -23 -9z"/>
<path d="M3654 2824 c-18 -14 -18 -15 4 -4 12 6 22 13 22 15 0 8 -5 6 -26 -11z"/>
<path d="M3585 2789 c-15 -6 -11 -8 18 -8 20 -1 37 1 37 3 0 9 -37 12 -55 5z"/>
<path d="M3448 2783 c12 -2 30 -2 40 0 9 3 -1 5 -23 4 -22 0 -30 -2 -17 -4z"/>
<path d="M3680 2780 c-23 -7 -23 -8 -3 -9 12 -1 25 4 28 9 3 6 5 10 3 9 -2 -1
-14 -5 -28 -9z"/>
<path d="M3745 2770 c-19 -8 -19 -9 2 -9 12 -1 25 4 28 9 7 12 -2 12 -30 0z"/>
<path d="M3790 2760 c0 -5 4 -10 9 -10 6 0 13 5 16 10 3 6 -1 10 -9 10 -9 0
-16 -4 -16 -10z"/>
<path d="M3618 2713 c7 -3 16 -2 19 1 4 3 -2 6 -13 5 -11 0 -14 -3 -6 -6z"/>
<path d="M3398 2693 c6 -2 10 -9 7 -14 -4 -5 2 -6 11 -2 11 4 15 3 10 -5 -3
-6 -2 -14 4 -17 6 -4 9 -1 8 6 -2 6 3 14 11 17 9 3 11 0 6 -8 -6 -9 -4 -11 5
-5 18 11 -16 35 -49 34 -14 0 -20 -3 -13 -6z"/>
<path d="M3483 2675 c0 -11 4 -12 14 -4 7 6 13 13 13 15 0 2 -6 4 -13 4 -8 0
-14 -7 -14 -15z"/>
<path d="M3628 2680 c13 -6 31 -6 45 0 18 7 14 9 -23 9 -37 0 -41 -2 -22 -9z"/>
<path d="M3510 2670 c-13 -8 -12 -12 8 -25 27 -20 28 -32 3 -40 -23 -7 -57 5
-41 15 8 5 7 9 -5 13 -11 5 -14 3 -9 -5 5 -8 2 -9 -9 -5 -10 3 -17 2 -17 -2 0
-10 53 -31 84 -32 19 -1 18 -2 -4 -10 -23 -8 -22 -8 5 -4 17 3 48 8 70 12 l40
6 -35 14 c-31 11 -31 12 -5 6 37 -8 63 -7 94 2 16 6 22 5 17 -3 -3 -6 -1 -14
5 -18 8 -4 9 -3 5 4 -9 15 -1 14 43 -2 l34 -12 -51 -22 c-28 -12 -55 -22 -61
-22 -6 0 -11 -4 -11 -9 0 -20 27 -17 75 7 28 14 61 28 74 31 19 5 5 14 -74 44
-89 34 -124 39 -110 17 7 -12 -55 4 -90 23 -33 18 -29 22 8 8 15 -6 29 -6 38
1 11 8 11 9 -3 4 -10 -3 -20 -1 -23 4 -8 13 -36 12 -55 0z"/>
<path d="M3605 2650 c-3 -6 1 -7 9 -4 18 7 21 14 7 14 -6 0 -13 -4 -16 -10z"/>
<path d="M3498 2553 c7 -3 16 -2 19 1 4 3 -2 6 -13 5 -11 0 -14 -3 -6 -6z"/>
<path d="M3503 2533 c9 -2 23 -2 30 0 6 3 -1 5 -18 5 -16 0 -22 -2 -12 -5z"/>
<path d="M3598 2533 c7 -3 16 -2 19 1 4 3 -2 6 -13 5 -11 0 -14 -3 -6 -6z"/>
<path d="M3761 2516 c-24 -13 -40 -25 -35 -28 5 -4 29 4 53 16 24 13 40 25 35
28 -5 4 -29 -4 -53 -16z"/>
<path d="M3428 2523 c6 -2 18 -2 25 0 6 3 1 5 -13 5 -14 0 -19 -2 -12 -5z"/>
<path d="M3528 2513 c12 -2 32 -2 45 0 12 2 2 4 -23 4 -25 0 -35 -2 -22 -4z"/>
<path d="M3453 2503 c9 -2 25 -2 35 0 9 3 1 5 -18 5 -19 0 -27 -2 -17 -5z"/>
<path d="M3398 2493 c6 -2 18 -2 25 0 6 3 1 5 -13 5 -14 0 -19 -2 -12 -5z"/>
<path d="M3518 2483 c18 -2 45 -2 60 0 15 2 0 4 -33 4 -33 0 -45 -2 -27 -4z"/>
<path d="M3598 2453 c7 -3 16 -2 19 1 4 3 -2 6 -13 5 -11 0 -14 -3 -6 -6z"/>
<path d="M3408 2433 c6 -2 18 -2 25 0 6 3 1 5 -13 5 -14 0 -19 -2 -12 -5z"/>
<path d="M3513 2423 c9 -2 23 -2 30 0 6 3 -1 5 -18 5 -16 0 -22 -2 -12 -5z"/>
<path d="M3523 2403 c9 -2 25 -2 35 0 9 3 1 5 -18 5 -19 0 -27 -2 -17 -5z"/>
<path d="M3420 2350 c-13 -9 -13 -10 0 -9 8 0 24 4 35 9 l20 9 -20 0 c-11 0
-27 -4 -35 -9z"/>
<path d="M3578 2353 c7 -3 16 -2 19 1 4 3 -2 6 -13 5 -11 0 -14 -3 -6 -6z"/>
<path d="M3503 2333 c15 -2 39 -2 55 0 15 2 2 4 -28 4 -30 0 -43 -2 -27 -4z"/>
<path d="M3598 2293 c7 -3 16 -2 19 1 4 3 -2 6 -13 5 -11 0 -14 -3 -6 -6z"/>
<path d="M3423 2253 c9 -2 23 -2 30 0 6 3 -1 5 -18 5 -16 0 -22 -2 -12 -5z"/>
<path d="M1058 2573 c7 -3 16 -2 19 1 4 3 -2 6 -13 5 -11 0 -14 -3 -6 -6z"/>
<path d="M1315 2522 c-67 -36 -69 -58 -2 -24 29 15 53 33 53 40 1 6 0 12 0 12
-1 -1 -23 -13 -51 -28z"/>
<path d="M1093 2533 c15 -2 37 -2 50 0 12 2 0 4 -28 4 -27 0 -38 -2 -22 -4z"/>
<path d="M1171 2526 c2 -2 15 -9 29 -15 24 -11 24 -11 6 3 -16 13 -49 24 -35
12z"/>
<path d="M1051 2516 c2 -2 31 -6 64 -9 36 -3 52 -2 40 3 -19 8 -113 14 -104 6z"/>
<path d="M1415 2480 c-60 -34 -135 -68 -210 -96 -11 -4 -29 -6 -40 -5 -16 1
-17 0 -5 -8 21 -12 69 -25 52 -13 -16 11 62 37 80 26 7 -5 8 -3 3 6 -6 10 -4
12 9 7 9 -4 15 -3 12 1 -3 5 27 27 67 50 69 39 117 71 107 71 -3 0 -36 -18
-75 -39z"/>
<path d="M1047 2483 c18 -2 50 -2 70 0 21 2 7 4 -32 4 -38 0 -55 -2 -38 -4z"/>
<path d="M1330 2475 c-14 -8 -20 -14 -15 -14 6 0 21 6 35 14 14 8 21 14 15 14
-5 0 -21 -6 -35 -14z"/>
<path d="M1225 2470 c3 -6 1 -10 -6 -10 -7 0 -10 -3 -6 -6 3 -3 13 -2 22 4 16
8 16 9 1 15 -10 4 -15 3 -11 -3z"/>
<path d="M1148 2453 c7 -3 16 -2 19 1 4 3 -2 6 -13 5 -11 0 -14 -3 -6 -6z"/>
<path d="M958 2433 c6 -2 18 -2 25 0 6 3 1 5 -13 5 -14 0 -19 -2 -12 -5z"/>
<path d="M1053 2423 c9 -2 25 -2 35 0 9 3 1 5 -18 5 -19 0 -27 -2 -17 -5z"/>
<path d="M958 2383 c7 -3 16 -2 19 1 4 3 -2 6 -13 5 -11 0 -14 -3 -6 -6z"/>
<path d="M1008 2373 c7 -3 16 -2 19 1 4 3 -2 6 -13 5 -11 0 -14 -3 -6 -6z"/>
<path d="M965 2350 c-25 -11 1 -11 35 0 20 6 21 8 5 8 -11 0 -29 -3 -40 -8z"/>
<path d="M1118 2353 c6 -2 18 -2 25 0 6 3 1 5 -13 5 -14 0 -19 -2 -12 -5z"/>
<path d="M1048 2333 c18 -2 45 -2 60 0 15 2 0 4 -33 4 -33 0 -45 -2 -27 -4z"/>
<path d="M948 2293 c6 -2 18 -2 25 0 6 3 1 5 -13 5 -14 0 -19 -2 -12 -5z"/>
<path d="M1138 2293 c6 -2 18 -2 25 0 6 3 1 5 -13 5 -14 0 -19 -2 -12 -5z"/>
<path d="M1168 2263 c7 -3 16 -2 19 1 4 3 -2 6 -13 5 -11 0 -14 -3 -6 -6z"/>
<path d="M1218 2233 c7 -3 16 -2 19 1 4 3 -2 6 -13 5 -11 0 -14 -3 -6 -6z"/>
<path d="M1098 2213 c6 -2 18 -2 25 0 6 3 1 5 -13 5 -14 0 -19 -2 -12 -5z"/>
<path d="M2595 2314 c-27 -13 -67 -27 -89 -30 -29 -5 -34 -9 -23 -16 11 -5 42
2 94 23 86 34 88 35 76 42 -4 2 -30 -6 -58 -19z"/>
<path d="M2660 2300 c8 -5 20 -10 25 -10 6 0 3 5 -5 10 -8 5 -19 10 -25 10 -5
0 -3 -5 5 -10z"/>
<path d="M2813 2273 c9 -2 23 -2 30 0 6 3 -1 5 -18 5 -16 0 -22 -2 -12 -5z"/>
<path d="M2748 2263 c7 -3 16 -2 19 1 4 3 -2 6 -13 5 -11 0 -14 -3 -6 -6z"/>
<path d="M2466 2252 c-3 -4 4 -9 15 -9 23 -2 25 3 4 10 -8 4 -16 3 -19 -1z"/>
<path d="M2540 2240 c-8 -5 -10 -10 -5 -10 6 0 17 5 25 10 8 5 11 10 5 10 -5
0 -17 -5 -25 -10z"/>
<path d="M2580 2185 c14 -8 30 -14 35 -14 6 0 -1 6 -15 14 -14 8 -29 14 -35
14 -5 0 1 -6 15 -14z"/>
<path d="M2550 2175 c14 -8 30 -14 35 -14 6 0 -1 6 -15 14 -14 8 -29 14 -35
14 -5 0 1 -6 15 -14z"/>
<path d="M2471 2176 c2 -2 18 -6 34 -10 22 -5 26 -4 15 4 -14 9 -59 15 -49 6z"/>
<path d="M2478 2153 c7 -3 16 -2 19 1 4 3 -2 6 -13 5 -11 0 -14 -3 -6 -6z"/>
<path d="M2731 2131 c-8 -5 -16 -17 -17 -25 -1 -9 2 -14 7 -10 5 3 6 10 3 16
-5 7 -2 9 8 6 9 -4 15 0 15 8 0 8 -1 14 -1 14 -1 0 -7 -4 -15 -9z"/>
<path d="M2835 2078 l-50 -53 53 50 c28 27 52 51 52 52 0 8 -9 -1 -55 -49z"/>
<path d="M2538 2103 c7 -3 16 -2 19 1 4 3 -2 6 -13 5 -11 0 -14 -3 -6 -6z"/>
<path d="M2854 2068 l-19 -23 23 19 c12 11 22 21 22 23 0 8 -8 2 -26 -19z"/>
<path d="M2498 2043 c6 -2 18 -2 25 0 6 3 1 5 -13 5 -14 0 -19 -2 -12 -5z"/>
<path d="M2724 2018 l-19 -23 23 19 c21 18 27 26 19 26 -2 0 -12 -10 -23 -22z"/>
<path d="M2463 2013 c9 -2 23 -2 30 0 6 3 -1 5 -18 5 -16 0 -22 -2 -12 -5z"/>
<path d="M2764 1988 l-19 -23 23 19 c12 11 22 21 22 23 0 8 -8 2 -26 -19z"/>
<path d="M2679 1983 c-13 -16 -12 -17 4 -4 16 13 21 21 13 21 -2 0 -10 -8 -17
-17z"/>
<path d="M2729 1983 c-13 -16 -12 -17 4 -4 16 13 21 21 13 21 -2 0 -10 -8 -17
-17z"/>
<path d="M2468 1983 c6 -2 18 -2 25 0 6 3 1 5 -13 5 -14 0 -19 -2 -12 -5z"/>
<path d="M2834 1958 l-19 -23 23 19 c21 18 27 26 19 26 -2 0 -12 -10 -23 -22z"/>
<path d="M2508 1963 c7 -3 16 -2 19 1 4 3 -2 6 -13 5 -11 0 -14 -3 -6 -6z"/>
<path d="M2533 1933 c9 -2 23 -2 30 0 6 3 -1 5 -18 5 -16 0 -22 -2 -12 -5z"/>
<path d="M2685 1931 c-3 -5 -2 -12 3 -15 5 -3 9 1 9 9 0 17 -3 19 -12 6z"/>
<path d="M2713 1915 c0 -8 4 -12 9 -9 5 3 6 10 3 15 -9 13 -12 11 -12 -6z"/>
<path d="M2744 1908 c-16 -12 -32 -24 -36 -27 -4 -3 4 -6 17 -6 12 0 21 4 18
9 -4 5 -1 6 5 2 14 -9 100 15 106 30 4 11 -40 11 -51 0 -4 -3 -12 -1 -18 4 -8
7 -21 3 -41 -12z"/>
<path d="M2625 1900 c-22 -10 -49 -22 -60 -26 -18 -6 -18 -8 -3 -11 21 -5 127
41 113 49 -6 3 -28 -3 -50 -12z"/>
<path d="M2493 1903 c15 -2 39 -2 55 0 15 2 2 4 -28 4 -30 0 -43 -2 -27 -4z"/>
<path d="M2481 1826 c2 -2 27 -6 54 -9 32 -4 43 -3 30 3 -19 8 -93 14 -84 6z"/>
<path d="M2655 1810 c-16 -11 -23 -20 -15 -19 23 1 45 13 48 27 3 16 2 16 -33
-8z"/>
<path d="M2548 1773 c6 -2 18 -2 25 0 6 3 1 5 -13 5 -14 0 -19 -2 -12 -5z"/>
<path d="M2528 1733 c7 -3 16 -2 19 1 4 3 -2 6 -13 5 -11 0 -14 -3 -6 -6z"/>
<path d="M2828 1723 c12 -2 32 -2 45 0 12 2 2 4 -23 4 -25 0 -35 -2 -22 -4z"/>
<path d="M2738 1713 c7 -3 16 -2 19 1 4 3 -2 6 -13 5 -11 0 -14 -3 -6 -6z"/>
<path d="M2958 1713 c6 -2 18 -2 25 0 6 3 1 5 -13 5 -14 0 -19 -2 -12 -5z"/>
<path d="M2538 1699 c15 -6 30 -5 40 1 13 7 8 9 -23 9 -35 0 -37 -1 -17 -10z"/>
<path d="M2905 1578 l-70 -73 73 70 c39 38 72 71 72 72 0 8 -11 -2 -75 -69z"/>
<path d="M3115 1640 c-3 -5 -3 -10 1 -10 4 0 -1 -10 -12 -22 -19 -23 -19 -23
2 -5 11 9 21 24 21 32 0 18 -3 19 -12 5z"/>
<path d="M3675 1609 c-5 -7 5 -8 32 -3 51 9 54 14 10 14 -20 0 -39 -5 -42 -11z"/>
<path d="M3059 1594 c-7 -9 -14 -23 -15 -31 -2 -12 0 -12 15 1 10 9 18 23 18
31 0 19 -1 19 -18 -1z"/>
<path d="M3119 1593 c-13 -16 -12 -17 4 -4 16 13 21 21 13 21 -2 0 -10 -8 -17
-17z"/>
<path d="M2940 1504 c-46 -41 -88 -74 -92 -74 -4 0 -5 9 -3 20 2 11 0 22 -4
24 -4 3 -7 -9 -7 -26 1 -17 -4 -33 -10 -35 -7 -2 -11 7 -9 26 1 17 -1 29 -5
26 -4 -3 -6 -19 -5 -35 2 -21 -1 -30 -9 -27 -7 3 -12 -7 -12 -28 0 -19 4 -32
8 -29 4 2 5 14 3 25 -3 13 0 19 8 16 7 -3 11 -10 9 -17 -3 -11 0 -11 12 -1 9
7 13 17 10 22 -3 5 2 9 12 9 26 0 179 135 181 159 1 12 1 21 0 20 -1 0 -40
-34 -87 -75z"/>
<path d="M3064 1548 l-19 -23 23 19 c21 18 27 26 19 26 -2 0 -12 -10 -23 -22z"/>
<path d="M2769 1523 c-13 -16 -12 -17 4 -4 16 13 21 21 13 21 -2 0 -10 -8 -17
-17z"/>
<path d="M3014 1508 l-19 -23 23 19 c12 11 22 21 22 23 0 8 -8 2 -26 -19z"/>
<path d="M3024 1488 l-19 -23 23 19 c21 18 27 26 19 26 -2 0 -12 -10 -23 -22z"/>
<path d="M2729 1483 c-13 -16 -12 -17 4 -4 16 13 21 21 13 21 -2 0 -10 -8 -17
-17z"/>
<path d="M2954 1458 l-19 -23 23 19 c12 11 22 21 22 23 0 8 -8 2 -26 -19z"/>
<path d="M2954 1428 l-19 -23 23 19 c12 11 22 21 22 23 0 8 -8 2 -26 -19z"/>
<path d="M2839 1363 c-13 -16 -12 -17 4 -4 16 13 21 21 13 21 -2 0 -10 -8 -17
-17z"/>
<path d="M3528 1363 c6 -2 18 -2 25 0 6 3 1 5 -13 5 -14 0 -19 -2 -12 -5z"/>
<path d="M2859 1358 c-5 -18 -6 -38 -1 -34 7 8 12 36 6 36 -2 0 -4 -1 -5 -2z"/>
<path d="M3458 1333 c12 -2 30 -2 40 0 9 3 -1 5 -23 4 -22 0 -30 -2 -17 -4z"/>
<path d="M3368 1323 c7 -3 16 -2 19 1 4 3 -2 6 -13 5 -11 0 -14 -3 -6 -6z"/>
<path d="M3308 1313 c7 -3 16 -2 19 1 4 3 -2 6 -13 5 -11 0 -14 -3 -6 -6z"/>
<path d="M3248 1253 c7 -3 16 -2 19 1 4 3 -2 6 -13 5 -11 0 -14 -3 -6 -6z"/>
<path d="M3168 1233 c7 -3 16 -2 19 1 4 3 -2 6 -13 5 -11 0 -14 -3 -6 -6z"/>
<path d="M1788 2343 c7 -3 16 -2 19 1 4 3 -2 6 -13 5 -11 0 -14 -3 -6 -6z"/>
<path d="M1890 2347 c0 -2 15 -16 33 -33 l32 -29 -29 33 c-28 30 -36 37 -36
29z"/>
<path d="M1841 2327 c2 -2 22 -15 44 -31 l40 -27 -35 30 c-19 17 -39 31 -44
31 -5 0 -7 -1 -5 -3z"/>
<path d="M1668 2293 c12 -2 32 -2 45 0 12 2 2 4 -23 4 -25 0 -35 -2 -22 -4z"/>
<path d="M1708 2273 c6 -2 18 -2 25 0 6 3 1 5 -13 5 -14 0 -19 -2 -12 -5z"/>
<path d="M1810 2260 c-8 -5 -10 -10 -5 -10 6 0 17 5 25 10 8 5 11 10 5 10 -5
0 -17 -5 -25 -10z"/>
<path d="M1860 2240 c-9 -6 -10 -10 -3 -10 6 0 15 5 18 10 8 12 4 12 -15 0z"/>
<path d="M1678 2233 c6 -2 18 -2 25 0 6 3 1 5 -13 5 -14 0 -19 -2 -12 -5z"/>
<path d="M2000 2236 c0 -2 8 -10 18 -17 15 -13 16 -12 3 4 -13 16 -21 21 -21
13z"/>
<path d="M1726 2221 c-4 -5 3 -7 14 -4 23 6 26 13 6 13 -8 0 -17 -4 -20 -9z"/>
<path d="M1770 2210 c-8 -5 -10 -10 -5 -10 6 0 17 5 25 10 8 5 11 10 5 10 -5
0 -17 -5 -25 -10z"/>
<path d="M1810 2200 c-8 -5 -10 -10 -5 -10 6 0 17 5 25 10 8 5 11 10 5 10 -5
0 -17 -5 -25 -10z"/>
<path d="M1840 2190 c-8 -5 -10 -10 -5 -10 6 0 17 5 25 10 8 5 11 10 5 10 -5
0 -17 -5 -25 -10z"/>
<path d="M1870 2180 c-9 -6 -10 -10 -3 -10 6 0 15 5 18 10 8 12 4 12 -15 0z"/>
<path d="M1895 2170 c-3 -6 1 -7 9 -4 18 7 21 14 7 14 -6 0 -13 -4 -16 -10z"/>
<path d="M1960 2160 c-9 -6 -10 -10 -3 -10 6 0 15 5 18 10 8 12 4 12 -15 0z"/>
<path d="M885 2140 c53 -12 118 -12 111 -1 -3 4 -38 8 -78 9 -64 0 -68 -1 -33
-8z"/>
<path d="M1730 2140 c-8 -5 -10 -10 -5 -10 6 0 17 5 25 10 8 5 11 10 5 10 -5
0 -17 -5 -25 -10z"/>
<path d="M808 2133 c7 -3 16 -2 19 1 4 3 -2 6 -13 5 -11 0 -14 -3 -6 -6z"/>
<path d="M1648 2133 c7 -3 16 -2 19 1 4 3 -2 6 -13 5 -11 0 -14 -3 -6 -6z"/>
<path d="M858 2123 c7 -3 16 -2 19 1 4 3 -2 6 -13 5 -11 0 -14 -3 -6 -6z"/>
<path d="M985 2120 c-20 -8 -20 -9 1 -9 32 -1 85 -22 79 -31 -3 -4 1 -12 8
-18 8 -7 28 -3 67 13 l54 23 -60 0 c-37 0 -74 6 -92 16 -17 9 -32 16 -34 15
-2 0 -12 -4 -23 -9z"/>
<path d="M928 2113 c7 -3 16 -2 19 1 4 3 -2 6 -13 5 -11 0 -14 -3 -6 -6z"/>
<path d="M1018 2083 c7 -3 16 -2 19 1 4 3 -2 6 -13 5 -11 0 -14 -3 -6 -6z"/>
<path d="M829 2049 l-24 -20 28 17 c15 9 27 18 27 20 0 8 -8 4 -31 -17z"/>
<path d="M948 2043 c7 -3 16 -2 19 1 4 3 -2 6 -13 5 -11 0 -14 -3 -6 -6z"/>
<path d="M1008 2039 c15 -6 30 -5 40 1 13 7 8 9 -23 9 -35 0 -37 -1 -17 -10z"/>
<path d="M1090 2035 c-15 -8 -19 -14 -10 -14 18 -1 46 16 40 23 -3 2 -16 -2
-30 -9z"/>
<path d="M854 2024 c-18 -14 -18 -15 4 -4 12 6 22 13 22 15 0 8 -5 6 -26 -11z"/>
<path d="M838 1986 c-43 -30 -45 -33 -27 -44 23 -15 29 -15 29 -2 0 6 -8 10
-17 11 -10 0 -2 7 17 14 19 7 29 14 21 14 -8 1 -4 8 10 21 36 29 20 23 -33
-14z"/>
<path d="M740 1989 c-22 -18 -22 -19 -3 -10 12 6 25 16 28 21 9 15 3 12 -25
-11z"/>
<path d="M1870 2006 c0 -3 9 -10 20 -16 11 -6 20 -8 20 -6 0 3 -9 10 -20 16
-11 6 -20 8 -20 6z"/>
<path d="M919 1976 l-67 -22 112 -28 c61 -16 137 -39 169 -52 70 -28 199 -112
191 -125 -3 -5 0 -9 6 -9 6 0 9 -4 5 -9 -3 -6 11 -13 31 -17 23 -4 32 -9 23
-14 -8 -6 -3 -10 17 -13 16 -3 0 -4 -35 -2 -35 2 -59 0 -55 -5 12 -11 123 -15
158 -5 l28 8 -33 21 c-19 11 -37 22 -41 22 -5 1 -12 2 -17 3 -6 0 -50 33 -98
72 -93 76 -193 128 -283 149 -73 17 -95 29 -52 30 20 0 31 4 27 10 -8 12 -6
13 -86 -14z"/>
<path d="M1940 1966 c0 -3 14 -12 30 -21 17 -9 30 -13 30 -11 0 3 -13 12 -30
21 -16 9 -30 13 -30 11z"/>
<path d="M1560 1920 c40 -36 90 -73 90 -67 0 2 -28 25 -62 51 -35 26 -47 33
-28 16z"/>
<path d="M2133 1933 c15 -2 37 -2 50 0 12 2 0 4 -28 4 -27 0 -38 -2 -22 -4z"/>
<path d="M2200 1910 c-24 -15 -7 -19 20 -5 15 8 19 14 10 14 -8 1 -22 -3 -30
-9z"/>
<path d="M1400 1885 c13 -14 26 -25 28 -25 3 0 -5 11 -18 25 -13 14 -26 25
-28 25 -3 0 5 -11 18 -25z"/>
<path d="M1410 1907 c0 -2 15 -16 33 -33 l32 -29 -29 33 c-28 30 -36 37 -36
29z"/>
<path d="M2098 1903 c18 -2 45 -2 60 0 15 2 0 4 -33 4 -33 0 -45 -2 -27 -4z"/>
<path d="M691 1896 c2 -2 21 -11 41 -19 29 -12 36 -13 32 -2 -3 7 -15 16 -27
19 -25 7 -52 8 -46 2z"/>
<path d="M888 1893 c7 -3 16 -2 19 1 4 3 -2 6 -13 5 -11 0 -14 -3 -6 -6z"/>
<path d="M1350 1875 c13 -14 26 -25 28 -25 3 0 -5 11 -18 25 -13 14 -26 25
-28 25 -3 0 5 -11 18 -25z"/>
<path d="M1540 1835 c35 -36 67 -65 69 -65 3 0 -24 29 -59 65 -35 36 -67 65
-69 65 -3 0 24 -29 59 -65z"/>
<path d="M1330 1845 c19 -19 36 -35 39 -35 3 0 -10 16 -29 35 -19 19 -36 35
-39 35 -3 0 10 -16 29 -35z"/>
<path d="M2134 1864 c-18 -14 -18 -15 4 -4 12 6 22 13 22 15 0 8 -5 6 -26 -11z"/>
<path d="M1700 1866 c0 -3 9 -10 20 -16 11 -6 20 -8 20 -6 0 3 -9 10 -20 16
-11 6 -20 8 -20 6z"/>
<path d="M750 1840 c8 -5 20 -10 25 -10 6 0 3 5 -5 10 -8 5 -19 10 -25 10 -5
0 -3 -5 5 -10z"/>
<path d="M1660 1846 c0 -2 8 -10 18 -17 15 -13 16 -12 3 4 -13 16 -21 21 -21
13z"/>
<path d="M1440 1836 c0 -2 8 -10 18 -17 15 -13 16 -12 3 4 -13 16 -21 21 -21
13z"/>
<path d="M1495 1810 c10 -11 20 -20 23 -20 3 0 -3 9 -13 20 -10 11 -20 20 -23
20 -3 0 3 -9 13 -20z"/>
<path d="M1580 1827 c0 -2 15 -16 33 -33 l32 -29 -29 33 c-28 30 -36 37 -36
29z"/>
<path d="M686 1811 c-3 -4 11 -13 30 -20 19 -7 32 -16 29 -21 -3 -4 11 -11 30
-14 20 -4 34 -10 31 -14 -2 -4 14 -5 37 -3 23 2 35 6 27 9 -8 3 -52 20 -97 38
-46 18 -85 29 -87 25z"/>
<path d="M750 1810 c8 -5 20 -10 25 -10 6 0 3 5 -5 10 -8 5 -19 10 -25 10 -5
0 -3 -5 5 -10z"/>
<path d="M1420 1795 c13 -14 26 -25 28 -25 3 0 -5 11 -18 25 -13 14 -26 25
-28 25 -3 0 5 -11 18 -25z"/>
<path d="M2054 1794 c-18 -14 -18 -15 4 -4 12 6 22 13 22 15 0 8 -5 6 -26 -11z"/>
<path d="M2134 1794 c-18 -14 -18 -15 4 -4 12 6 22 13 22 15 0 8 -5 6 -26 -11z"/>
<path d="M1470 1796 c0 -2 8 -10 18 -17 15 -13 16 -12 3 4 -13 16 -21 21 -21
13z"/>
<path d="M1100 1770 c19 -11 40 -19 45 -19 6 0 -6 8 -25 19 -19 11 -39 19 -45
19 -5 0 6 -8 25 -19z"/>
<path d="M1888 1783 c7 -3 16 -2 19 1 4 3 -2 6 -13 5 -11 0 -14 -3 -6 -6z"/>
<path d="M1390 1776 c0 -2 8 -10 18 -17 15 -13 16 -12 3 4 -13 16 -21 21 -21
13z"/>
<path d="M1550 1745 c19 -19 36 -35 39 -35 3 0 -10 16 -29 35 -19 19 -36 35
-39 35 -3 0 10 -16 29 -35z"/>
<path d="M971 1746 c-10 -12 -8 -16 10 -21 22 -7 22 -8 3 -23 -17 -13 -17 -14
-1 -8 17 6 64 -2 151 -25 31 -8 36 -13 25 -21 -11 -8 -10 -9 4 -4 10 3 60 7
110 7 75 1 85 3 52 9 -22 5 -58 6 -80 4 -32 -4 -59 4 -140 41 -55 26 -105 49
-111 51 -6 3 -16 -2 -23 -10z"/>
<path d="M1630 1735 c13 -14 26 -25 28 -25 3 0 -5 11 -18 25 -13 14 -26 25
-28 25 -3 0 5 -11 18 -25z"/>
<path d="M1858 1753 c7 -3 16 -2 19 1 4 3 -2 6 -13 5 -11 0 -14 -3 -6 -6z"/>
<path d="M2054 1744 c-18 -14 -18 -15 4 -4 12 6 22 13 22 15 0 8 -5 6 -26 -11z"/>
<path d="M1475 1730 c10 -11 20 -20 23 -20 3 0 -3 9 -13 20 -10 11 -20 20 -23
20 -3 0 3 -9 13 -20z"/>
<path d="M1510 1747 c0 -2 15 -16 33 -33 l32 -29 -29 33 c-28 30 -36 37 -36
29z"/>
<path d="M1920 1740 c0 -5 7 -7 15 -4 8 4 15 8 15 10 0 2 -7 4 -15 4 -8 0 -15
-4 -15 -10z"/>
<path d="M870 1730 c-32 -10 -29 -11 49 -14 61 -2 63 -2 30 10 -39 14 -45 15
-79 4z"/>
<path d="M1797 1733 c-3 -5 9 -10 26 -11 17 -2 34 -7 37 -11 3 -5 16 -3 30 4
l25 14 -26 1 c-15 0 -40 3 -57 6 -16 3 -32 2 -35 -3z"/>
<path d="M820 1716 c0 -2 7 -7 16 -10 8 -3 12 -2 9 4 -6 10 -25 14 -25 6z"/>
<path d="M1328 1703 c7 -3 16 -2 19 1 4 3 -2 6 -13 5 -11 0 -14 -3 -6 -6z"/>
<path d="M1790 1690 c0 -12 8 -12 35 0 18 8 17 9 -7 9 -16 1 -28 -3 -28 -9z"/>
<path d="M1965 1691 c-3 -5 -2 -12 3 -15 5 -3 9 1 9 9 0 17 -3 19 -12 6z"/>
<path d="M1735 1680 c3 -5 14 -10 23 -10 15 0 15 2 2 10 -20 13 -33 13 -25 0z"/>
<path d="M1670 1670 c8 -5 26 -10 39 -10 32 0 24 6 -19 14 -25 4 -31 3 -20 -4z"/>
<path d="M681 1656 c-7 -8 -8 -17 -3 -20 6 -3 15 1 21 8 7 8 8 17 3 20 -6 3
-15 -1 -21 -8z"/>
<path d="M739 1649 l-24 -20 28 17 c15 9 27 18 27 20 0 8 -8 4 -31 -17z"/>
<path d="M1415 1650 c3 -5 18 -10 32 -10 32 0 28 5 -10 14 -19 4 -26 3 -22 -4z"/>
<path d="M689 1613 c-13 -16 -12 -17 4 -4 9 7 17 15 17 17 0 8 -8 3 -21 -13z"/>
<path d="M1260 1623 c-14 -3 -29 -9 -35 -14 -6 -6 4 -6 25 -2 19 4 60 8 92 8
31 0 54 3 51 8 -4 7 -90 8 -133 0z"/>
<path d="M719 1603 c-13 -16 -12 -17 4 -4 9 7 17 15 17 17 0 8 -8 3 -21 -13z"/>
<path d="M1190 1600 c0 -5 5 -10 11 -10 5 0 7 5 4 10 -3 6 -8 10 -11 10 -2 0
-4 -4 -4 -10z"/>
<path d="M1460 1586 c0 -3 9 -10 20 -16 11 -6 20 -8 20 -6 0 3 -9 10 -20 16
-11 6 -20 8 -20 6z"/>
<path d="M1241 1576 c2 -2 15 -9 29 -15 24 -11 24 -11 6 3 -16 13 -49 24 -35
12z"/>
<path d="M1868 1563 c7 -3 16 -2 19 1 4 3 -2 6 -13 5 -11 0 -14 -3 -6 -6z"/>
<path d="M2130 1559 c-25 -4 -67 -8 -95 -9 -27 -1 -44 -4 -37 -7 8 -3 66 -2
130 2 77 6 109 11 92 16 -30 9 -33 9 -90 -2z"/>
<path d="M1923 1553 c9 -2 23 -2 30 0 6 3 -1 5 -18 5 -16 0 -22 -2 -12 -5z"/>
<path d="M1340 1515 c13 -14 26 -25 28 -25 3 0 -5 11 -18 25 -13 14 -26 25
-28 25 -3 0 5 -11 18 -25z"/>
<path d="M1370 1536 c0 -2 8 -10 18 -17 15 -13 16 -12 3 4 -13 16 -21 21 -21
13z"/>
<path d="M1435 1520 c10 -11 20 -20 23 -20 3 0 -3 9 -13 20 -10 11 -20 20 -23
20 -3 0 3 -9 13 -20z"/>
<path d="M1485 1520 c10 -11 20 -20 23 -20 3 0 -3 9 -13 20 -10 11 -20 20 -23
20 -3 0 3 -9 13 -20z"/>
<path d="M1280 1516 c0 -2 8 -10 18 -17 15 -13 16 -12 3 4 -13 16 -21 21 -21
13z"/>
<path d="M1560 1516 c0 -2 8 -10 18 -17 15 -13 16 -12 3 4 -13 16 -21 21 -21
13z"/>
<path d="M1720 1516 c0 -3 14 -12 30 -21 17 -9 30 -13 30 -11 0 3 -13 12 -30
21 -16 9 -30 13 -30 11z"/>
<path d="M1690 1506 c0 -3 9 -10 20 -16 11 -6 20 -8 20 -6 0 3 -9 10 -20 16
-11 6 -20 8 -20 6z"/>
<path d="M1685 1480 c10 -11 20 -20 23 -20 3 0 -3 9 -13 20 -10 11 -20 20 -23
20 -3 0 3 -9 13 -20z"/>
<path d="M1835 1491 c-3 -5 -2 -12 3 -15 5 -3 9 1 9 9 0 17 -3 19 -12 6z"/>
<path d="M1620 1466 c0 -2 8 -10 18 -17 15 -13 16 -12 3 4 -13 16 -21 21 -21
13z"/>
<path d="M1656 1459 c5 -8 9 -18 9 -24 1 -5 7 -9 15 -7 9 1 5 -6 -9 -18 l-23
-20 28 -1 c27 -2 27 -2 -6 -9 -31 -7 -32 -7 -7 -9 15 0 27 -5 27 -10 0 -19 37
-20 73 -2 35 18 36 19 13 25 -13 3 -48 25 -76 47 -29 23 -49 35 -44 28z"/>
<path d="M1810 1466 c0 -3 14 -12 30 -21 17 -9 30 -13 30 -11 0 3 -13 12 -30
21 -16 9 -30 13 -30 11z"/>
<path d="M1730 1446 c0 -2 8 -10 18 -17 15 -13 16 -12 3 4 -13 16 -21 21 -21
13z"/>
<path d="M1940 1426 c0 -3 13 -12 29 -21 25 -12 29 -13 27 0 -1 8 -6 18 -11
22 -4 4 -5 2 -1 -4 9 -16 1 -16 -25 -3 -10 6 -19 8 -19 6z"/>
<path d="M1900 1416 c0 -3 9 -10 20 -16 11 -6 20 -8 20 -6 0 3 -9 10 -20 16
-11 6 -20 8 -20 6z"/>
<path d="M1803 1355 c-19 -21 -16 -23 27 -15 46 8 64 20 32 20 -11 0 -26 2
-34 5 -7 2 -19 -2 -25 -10z"/>
<path d="M1680 1336 c0 -2 7 -7 16 -10 8 -3 12 -2 9 4 -6 10 -25 14 -25 6z"/>
<path d="M1735 1327 c-12 -10 -15 -16 -6 -21 6 -4 14 0 17 8 3 9 10 13 15 10
5 -3 9 0 9 5 0 15 -12 14 -35 -2z"/>
<path d="M1838 1323 c7 -3 16 -2 19 1 4 3 -2 6 -13 5 -11 0 -14 -3 -6 -6z"/>
<path d="M1703 1295 c0 -8 4 -12 9 -9 5 3 6 10 3 15 -9 13 -12 11 -12 -6z"/>
<path d="M1928 1283 c7 -3 16 -2 19 1 4 3 -2 6 -13 5 -11 0 -14 -3 -6 -6z"/>
<path d="M1958 1253 c6 -2 18 -2 25 0 6 3 1 5 -13 5 -14 0 -19 -2 -12 -5z"/>
<path d="M3665 2130 c22 -4 47 -4 55 1 10 5 -5 8 -40 8 -55 -1 -55 -1 -15 -9z"/>
<path d="M3478 2083 c7 -3 16 -2 19 1 4 3 -2 6 -13 5 -11 0 -14 -3 -6 -6z"/>
<path d="M3408 2043 c7 -3 16 -2 19 1 4 3 -2 6 -13 5 -11 0 -14 -3 -6 -6z"/>
<path d="M3450 2045 c0 -8 38 -11 55 -5 15 6 10 8 -17 8 -21 0 -38 -1 -38 -3z"/>
<path d="M3445 1990 c3 -5 11 -10 16 -10 6 0 7 5 4 10 -3 6 -11 10 -16 10 -6
0 -7 -4 -4 -10z"/>
<path d="M3762 1961 c-11 -7 -11 -9 0 -14 9 -3 15 1 15 9 0 8 -1 14 -1 14 -1
0 -7 -4 -14 -9z"/>
<path d="M3814 1936 c1 -8 5 -18 8 -22 4 -3 5 1 4 10 -1 8 -5 18 -8 22 -4 3
-5 -1 -4 -10z"/>
</g>
</svg>
