<svg id="Layer_1" data-name="Layer 1" xmlns="http://www.w3.org/2000/svg" xmlns:xlink="http://www.w3.org/1999/xlink" viewBox="0 0 89 89"><defs><clipPath id="clip-path"><rect x="11.41" y="17.45" width="66.74" height="44.46" style="fill:none"/></clipPath></defs><title>adv-3</title><circle cx="44.5" cy="44.5" r="44.5" style="fill:#b8cd00"/><g style="clip-path:url(#clip-path)"><path d="M25.86,42.75a2.37,2.37,0,1,0,2.37-2.34,2.35,2.35,0,0,0-2.37,2.34m-4.11-8.69a2.37,2.37,0,1,0-2.37,2.35,2.36,2.36,0,0,0,2.37-2.35m8.85-8.84a2.37,2.37,0,1,0-2.37,2.34,2.36,2.36,0,0,0,2.37-2.34M37,36.41a2.35,2.35,0,1,0-2.37-2.35A2.36,2.36,0,0,0,37,36.41m0,2.53A4.88,4.88,0,1,1,42,34.06,4.91,4.91,0,0,1,37,38.94M33.16,25.38a4.93,4.93,0,1,1-4.93-4.88,4.9,4.9,0,0,1,4.93,4.88m-8.8,8.68a4.93,4.93,0,1,1-4.93-4.87,4.9,4.9,0,0,1,4.93,4.87M23.3,42.75a4.93,4.93,0,1,1,4.93,4.87,4.9,4.9,0,0,1-4.93-4.87M45,34.06A16.82,16.82,0,1,0,28.23,50.68,16.72,16.72,0,0,0,45,34.06M78.15,55.92V35.72c0-1.81-.3-2-1.21-2H71.48c-.91,0-1.22.22-1.22,2V37l-5.8,5V34.18c-.07-2.77-1.78-4.36-7.07-4.36H47.12A19.13,19.13,0,0,1,28.23,53.21a19.44,19.44,0,0,1-9.69-2.57v6.55c0,2.88,2.07,4.72,7.07,4.72H57.39c5,0,7.07-1.84,7.07-4.72V50.47l5.8,4.27v1.18c0,2.17.36,2.07,1.22,2.07h5.46c.86,0,1.21.1,1.21-2.07" style="fill:#fff"/></g></svg>