<svg id="Layer_1" data-name="Layer 1" xmlns="http://www.w3.org/2000/svg" viewBox="0 0 89 89"><title>adv-4</title><circle cx="44.5" cy="44.5" r="44.5" style="fill:#00a896"/><path d="M74.08,55.92a2.42,2.42,0,1,1-2.42-2.42,2.42,2.42,0,0,1,2.42,2.42m-1.22,3.59a4,4,0,0,1-1.29.22,3.9,3.9,0,0,1-1.86-.48,3.81,3.81,0,1,1,3.15.26m-1.2-9.64a6.11,6.11,0,0,0-2.59,11.64C66.82,68.09,61.09,75,54.37,75c-8.24,0-15-10.34-15.67-17.8a5.1,5.1,0,0,0,2.94-3.28C46,52.11,50,47.78,53,41.41a2.59,2.59,0,0,0-.16-2.53,39.17,39.17,0,0,0,3.07-14.34c0-7.47-.51-10.66-5.64-11.55a2.07,2.07,0,0,0-1.62-.77H44.22a2.08,2.08,0,0,0-2.08,2.08h0a2.08,2.08,0,0,0,2.08,2.07h4.45a2,2,0,0,0,1.11-.32c1.39.24,1.93.64,2.24,1.18.66,1.15.79,3.45.79,7.31a36,36,0,0,1-2.87,13.24,2.59,2.59,0,0,0-1.62,1.37c-3.11,6.51-7.26,10.4-11.1,10.4S29,45.37,25.86,38.62A2.63,2.63,0,0,0,24,37.14a35.6,35.6,0,0,1-2.61-12.59c0-3.78.14-6.19.86-7.34.34-.55.92-1,2.43-1.18a2.13,2.13,0,0,0,1.17.36h4.45a2.08,2.08,0,0,0,2.08-2.08h0a2.08,2.08,0,0,0-2.08-2.08H25.81a2.06,2.06,0,0,0-1.57.71c-2.07.3-3.67,1-4.68,2.62-1.13,1.81-1.33,4.45-1.33,9a39.08,39.08,0,0,0,2.93,14,2.61,2.61,0,0,0,0,2.25,31.89,31.89,0,0,0,6.51,9.61,16.74,16.74,0,0,0,4.84,3.33,5.12,5.12,0,0,0,3.09,3.47A26.09,26.09,0,0,0,40.9,70.39c3.82,5,8.6,7.7,13.47,7.7s9.65-2.73,13.47-7.7a27.56,27.56,0,0,0,4.35-8.33,6.11,6.11,0,0,0-.53-12.19" style="fill:#fff"/></svg>