<svg id="Layer_1" data-name="Layer 1" xmlns="http://www.w3.org/2000/svg" viewBox="0 0 90 90">
    <title>adv-1</title>
    <circle cx="45" cy="45" r="45" style="fill:#971b6d" />
    <path d="M14.16,18.37h2.4L21,22.8H18.59Zm9.21,2L18.94,16V13.6L23.37,18ZM8.9,17.88l7.8,7.8a1.71,1.71,0,0,0,1.19.49h6.46L42.61,44.42A1.7,1.7,0,0,0,45,42L26.74,23.79V17.32a1.66,1.66,0,0,0-.5-1.19L18.45,8.34a1.68,1.68,0,0,0-2.88,1.19V15H10.09a1.68,1.68,0,0,0-1.55,1,1.69,1.69,0,0,0,.36,1.84M26.12,30.32a21.9,21.9,0,1,0,4.76-4.77l-2.4-2.41a25.32,25.32,0,1,1-4.77,4.77ZM43.8,38.18h-.28l-2.79-2.8A8.48,8.48,0,1,1,36,40.16L38.8,43v.27a5.06,5.06,0,1,0,5.12-5h-.06M37,31.63a13.55,13.55,0,1,1-4.8,4.77L29.75,34a17.05,17.05,0,1,0,4.81-4.77Z" transform="translate(0 0)" style="fill:#fff" />
</svg>