<svg id="Layer_1" data-name="Layer 1" xmlns="http://www.w3.org/2000/svg" viewBox="0 0 89 89"><title>adv-6</title><circle cx="44.5" cy="44.5" r="44.5" style="fill:#005c74"/><path d="M39.83,44.83c-2.29.77-4.84,1.67-7.47,2.79a49.45,49.45,0,0,0-8.89,4.72,18.33,18.33,0,0,0-3.47,3A8.72,8.72,0,0,0,18.92,57c-.07.13-.12.26-.18.39a1.59,1.59,0,0,0-.07.2l0,.09,0,0v0s0-.19,0-.09v0l-.19.64c0,.11-.07.21-.11.33a2.73,2.73,0,0,0,.47,2.72,3.83,3.83,0,0,0,.29.28h0a2.17,2.17,0,0,0,.26.21,6.56,6.56,0,0,0,1.22.79,21.88,21.88,0,0,0,9.23,2.23l-1.29.29a28.64,28.64,0,0,1-7,.72,10.54,10.54,0,0,1-5.12-1.36A6.86,6.86,0,0,1,13.91,62a8.48,8.48,0,0,1-1-3.55l0-1v-.67l.08-.55c0-.15,0-.3.08-.45a8.75,8.75,0,0,1,.23-.88,14.45,14.45,0,0,1,1.41-3.2,25.16,25.16,0,0,1,4.09-5,58,58,0,0,1,9.4-7.11c2.8-1.74,5.47-3.2,7.87-4.42l3.52,4.44Zm9.83-21.12L48.58,22.1a22.85,22.85,0,0,0-27.1,19c1.4-1.06,2.77-2,4-2.81a20.51,20.51,0,0,1,1.05-2.56h3.16c1.13-.66,2.3-1.31,3.53-2H27.68a19.69,19.69,0,0,1,11.47-8.19,13.51,13.51,0,0,0-3.43,3.64,2.41,2.41,0,0,1,.48-.12l2.25-.26h0A8.09,8.09,0,0,1,43.1,26v5.45l1.3,1,.66-.35V26a8.47,8.47,0,0,1,5.13,3.44l2.54-1.21ZM66.33,33.82,65,52l-3.39,2.8L59.16,36.21c-4.55,1.38-9.22,2.56-13.38,3.51l-1.35,6.65-1.85,1.3-.49-9-5.59-7,2.25-.26,5.42,4.09c3.75-2,8-4.25,12.34-6.23L46,13.66l4.4-.15,13,12.75C70.9,23.4,77.6,21.91,80.8,24c-1,3.7-7,7-14.47,9.8M45.07,55.39h7.55c-1.72,4.3-4.44,7.25-7.55,7.76Zm-2,7.76c-3.12-.51-5.83-3.46-7.56-7.76h7.56ZM27.68,55.39h5.76a17,17,0,0,0,5.71,8.18,19.7,19.7,0,0,1-11.47-8.18m35.58,1.43a2.61,2.61,0,0,1-1.59.6,2.51,2.51,0,0,1-2-.9,19.63,19.63,0,0,1-10.65,7,16.83,16.83,0,0,0,5.71-8.18H59.1a2,2,0,0,1-.06-.23l-.23-1.73H55.36a32.41,32.41,0,0,0,1.15-7.89h1.26l-.25-2h-1a33.16,33.16,0,0,0-.32-3.81l-1.91.51a31.93,31.93,0,0,1,.27,3.3h-6.9l-.4,2h7.3a30.26,30.26,0,0,1-1.23,7.89H45.07V49.1l-1,.7a2.62,2.62,0,0,1-1,.39v3.24H34.85A28.89,28.89,0,0,1,34,49.74l-.64.26-1.2.54c.18,1,.39,2,.64,2.89H26.55c-.56.34-1.1.68-1.6,1s-.75.55-1.09.82A22.86,22.86,0,0,0,63.53,56.6Z" style="fill:#fff"/></svg>