<svg id="Layer_1" data-name="Layer 1" xmlns="http://www.w3.org/2000/svg" viewBox="0 0 89 89"><title>adv-2</title><circle cx="44.5" cy="44.5" r="44.5" style="fill:#e40073"/><path d="M34.88,31.78c1.88,0,3.82-.16,5.7,0,2.58.22,3.29,1.71,3.33,4.08a9.46,9.46,0,0,1,0,2.71c-.38.92-2.1,1-2,2.09.16,1.39,4.11,1.38,5,1,1.67-.7.89-1.41,0-2.21s-.88-.77-1-2c-.15-2.6.34-5.22-2.17-6.94-1.78-1.22-4.17-.88-6.21-.88a9.18,9.18,0,0,0-2.77,0c-1,.41-1.68,2.06-.06,2.21M50,29.57h4.74a5,5,0,0,1,1.55,0c1.25.52,1.26,1.71,0,2.21-1.1.44-3.33,0-4.49,0a6,6,0,0,1-1.8,0c-.94-.43-1.57-2.06,0-2.21m3.39,4.1c-2.89,0-2.65,4.76.26,4.39,2.55-.32,2.35-4.38-.26-4.39M36.61,38c-2.59,0-2.78-4.07-.26-4.39,2.88-.37,3.12,4.41.26,4.39m24,29.15a5.6,5.6,0,0,1-6.26,5.09c-1.49-.14-3.57-.9-4.41-2.24-1.09-1.74.28-2.44,1.58-3.33A13.59,13.59,0,0,0,55,63.23c.89-1.23,1.15-2.24,2.86-1.77,2.84.78,2.74,4.21,2.63,6.53,0-.46.08-.92.12-1.38,0,.19,0,.39,0,.58M44.25,65.81c0-.11.34-1.86.67-1.86s1,2.11.32,2.43c-.35.16-1.17,0-1-.56m-12,5.9c-2.46-1.19-3.46-4.28-2.93-6.83.62-3,3.66-4.92,5.6-2.08a13.58,13.58,0,0,0,3.24,3.52c1.16.85,2.84,1.44,2.07,3.22-1.06,2.44-5.87,3.17-8,2.17m-7-32.8c-.23-2.89,1.38-4.23,4-4.66,2.47-.41,2.28-1.43,2.55-3.5.39-2.94,3.17-3.36,5.76-4A29.34,29.34,0,0,1,48.5,26c2.39.3,7.69.82,9.21,3,1,1.44-.22,3.84,1.46,4.91,1.94,1.24,4.39-.07,5.44,2.85.82,2.29-.15,6-2.93,6.39C62,41.38,60,41.91,59.44,43c-.71,1.43-.85,3.05-1.66,4.49a15.39,15.39,0,0,1-8.36,7.07c-.76.26-3.17,1.28-3.47.08-.21-.82,1.73-2,2-2.86a11.7,11.7,0,0,0,.18-2.9c.11-1.43.73-1.21,1.39-2.34,1.28-2.15-2-1.63-3.21-1.63s-4.2-.55-5.48,0c-2,.85.22,1.67.64,2.63A7.16,7.16,0,0,1,41.6,50a4.55,4.55,0,0,0,1.14,3.23c.59.69,1.82,1.31.42,2s-4.95-1.54-6-2.2A14.61,14.61,0,0,1,33,48.84a17.21,17.21,0,0,1-2.28-5.31c-.18-.66-.2-1.8-.92-2.14-1.25-.59-1.63.85-1.44,1.76-2.21-.38-3-2.39-3.13-4.41,0,.36.06.73.08,1.09,0-.3-.05-.6-.07-.9M45,21.17a17.71,17.71,0,0,1,6,.94c1,.33,5.16,1.78,5.36,2.94.17,1-4.12-.57-5.06-.75a33.39,33.39,0,0,0-14.13.32c-.73.18-3.86,1.66-3.69.48s4.11-2.55,5-2.88a17.47,17.47,0,0,1,6.45-1m7.5,38.31c0,2,.36,3.28-1.29,4.68-.59.5-2.21,1.84-3.11,1.47s-.94-2.34-1.08-3a13.93,13.93,0,0,1-.65-3.92c.17-1.54,1-1.3,2.38-1.63.77-.19,2.33-1.12,3.09-.9,1.35.39.66,2.29.66,3.27M43.75,50a3.68,3.68,0,0,0,2.32,0A1.22,1.22,0,1,1,43.75,50Zm-6.21,9.45c0-3.38,0-3.4,3.21-2.52,1.08.3,2.39.12,2.78,1.27.34,1-.5,3.45-.7,4.4-.61,2.82-1.23,3.74-3.75,1.75-1.77-1.39-1.59-2.74-1.59-4.83M70,69c-2-6.12-9-8-13.7-11.28-2.63-1.86.5-5,1.83-6.76,1-1.38,1.49-3.16,2.47-4.48s2.12-1.11,3.41-1.89C66.17,43.3,67,40.8,67,38.4a7.35,7.35,0,0,0-.8-3.42c-.78-1.43-2.34-1.94-3.09-3.2-.89-1.49-.33-4.74-.52-6.55a21.51,21.51,0,0,0-3.21-9.69,14.21,14.21,0,0,0-6.57-5.31,18.18,18.18,0,0,0-4.29-1.17,8.37,8.37,0,0,1-1.62-.18c-.93-.42-1.07-1.34-2.39-1.06-.65.14-.8.63-1.29.85a6.94,6.94,0,0,1-1.74.4,17,17,0,0,0-3.7,1,16.51,16.51,0,0,0-6.81,5.28,18.62,18.62,0,0,0-3.25,7.72,37.52,37.52,0,0,0-.49,4.08c-.12,1.47.24,2.74-.19,4.1-.7,2.22-3.36,2.86-3.86,5.68s.29,5.87,2.69,7.44c1.28.84,2.49.74,3.47,2,1.19,1.49,1.91,3.62,3.07,5.21.79,1.09,2.56,3,2.41,4.51S32.56,58,31.37,58.76c-6.43,4-13.23,8.22-12.27,16.91.4-.06,1.79,0,2-.29.46-.5.3-3.66.57-4.59.86-3.05,3-5.12,5.63-6.8-1,4.47,1.19,9.43,5.95,10.36a8.57,8.57,0,0,0,6.63-1.53c2-1.47,2.65-4.62,5.48-4.23,2.12.29,3,3.24,4.92,4.47a8.39,8.39,0,0,0,6.8,1.15c4.58-1.22,6.43-6,5.41-10.39,2.64,1.67,4.91,3.71,5.84,6.78.24.81.12,4.36.51,4.76s1.71.24,2.13.3a20.47,20.47,0,0,0-1.42-7.81c.25.74.5,1.48.76,2.22L70,69" transform="translate(-0.5 -0.5)" style="fill:#fff"/></svg>