<svg id="Layer_1" data-name="Layer 1" xmlns="http://www.w3.org/2000/svg" xmlns:xlink="http://www.w3.org/1999/xlink" viewBox="0 0 89 89"><defs><clipPath id="clip-path"><rect x="9.57" y="8.45" width="69.85" height="72.11" style="fill:none"/></clipPath></defs><title>adv-5</title><circle cx="44.5" cy="44.5" r="44.5" style="fill:#00953e"/><g style="clip-path:url(#clip-path)"><path d="M31.45,43.16c-.61-1.1-.58-1-.61-1.1l-6.5-10.79.6-4.32A13.41,13.41,0,0,1,28,21.21a54.35,54.35,0,0,1,6-6.12,102,102,0,0,1,8.25-6.64,1.82,1.82,0,0,1,1.38.44A1.84,1.84,0,0,1,44,10.33h0l-3.62,3.34a.51.51,0,0,0,.7.75l3.79-3.5h0l1.9-1.75a4.49,4.49,0,0,1,1.68.86,3.52,3.52,0,0,1,.86,1.84l-5.19,4.8a.51.51,0,0,0,.7.75l5.42-5,.53-.49c1.13.19,2.36,1.32,2.92,3.24L48.45,20a.51.51,0,0,0,.69.75l5.47-5.06h0l.69-.64a4.08,4.08,0,0,1,2.35,1.22,4.43,4.43,0,0,1,1,2.35L46.19,30.09l-.06.06,0,.07,0,.06,0,.1v.15l.06.18.12.15.13.08.1,0h.16a.56.56,0,0,0,.3-.09,5.91,5.91,0,0,0,1.29-.49,1,1,0,0,1,.78,0,2.76,2.76,0,0,1,1.18.82c.43.56.19.85.31,1.11l-.41.52-3.73,1.55c-4.14,1.72-12.22,5-12.23,5h0a.48.48,0,0,0-.24.18ZM66.66,59.67a5.54,5.54,0,0,1-.7,0L57.43,45h0l0,0a.51.51,0,0,0-.86.56l.05.07c.36.9,1,2.41.59,3.21l-2.88.88-.44-1.49-.71-4c-.78-4.41-2.19-13-2.19-13a.45.45,0,0,0-.16-.28A14.83,14.83,0,0,0,49,29.61a2.31,2.31,0,0,1-.41-.38l9.3-8.48a2.23,2.23,0,0,1,.42.42c.36.46.74,1.15,1.19,1.63a.5.5,0,0,0,.19.13l5.4,2a13.33,13.33,0,0,1,4.93,4.25,55,55,0,0,1,4.69,7.14c2.72,4.85,4.58,9.25,4.69,9.5a1.85,1.85,0,0,1-.74,1.25,1.83,1.83,0,0,1-1.49.06l-2.48-4.26a.52.52,0,0,0-.89.52l2.6,4.46h0l1.3,2.22a4.38,4.38,0,0,1-1.21,1.45,3.48,3.48,0,0,1-2,.45L71,45.88a.51.51,0,1,0-.88.52l3.71,6.38h0l.36.61c-.44,1.07-1.8,2-3.81,2.15L66.8,49.4a.51.51,0,0,0-.88.52l3.75,6.44.49.84a4.08,4.08,0,0,1-1.7,2,3.89,3.89,0,0,1-1.8.44Zm-38.07,7.6-4.27-1.33a13.25,13.25,0,0,1-5-4.13,54.57,54.57,0,0,1-4.82-7.05,102.9,102.9,0,0,1-4.9-9.4,1.82,1.82,0,0,1,.71-1.26,1.85,1.85,0,0,1,1.49-.1l2.58,4.21a.51.51,0,0,0,.87-.53l-2.69-4.4h0l-1.34-2.2a4.27,4.27,0,0,1,1.17-1.47,3.49,3.49,0,0,1,2-.49l3.69,6a.51.51,0,1,0,.87-.54l-4.22-6.92c.41-1.07,1.75-2,3.75-2.22l3.71,6.07A.51.51,0,0,0,23,41l-4.4-7.2a4,4,0,0,1,1.66-2.06,4.33,4.33,0,0,1,2.48-.47l6.93,11.5a21,21,0,0,1,1.91,3l0,.06.07.06,0,0,.09,0L32,46l.2,0,.17-.09.1-.11.05-.1,0-.06a.34.34,0,0,0,0-.09.58.58,0,0,0,0-.31c0-.24-.15-.71-.42-1.74a.84.84,0,0,1,.19-.85,3.08,3.08,0,0,1,1-.72,5.2,5.2,0,0,1,1.34-.45l.49,1.06.79,4c.85,4.3,3.13,12.69,3.28,13.27L28.6,67.27ZM43.48,80.55a1.77,1.77,0,0,1-1.31-.61,1.83,1.83,0,0,1-.2-1.48l4-2.87a.51.51,0,0,0-.6-.83l-4.2,3h0l-2.09,1.5a4.28,4.28,0,0,1-1.56-1.06,3.5,3.5,0,0,1-.63-1.93l5.75-4.11a.51.51,0,0,0-.59-.83l-6,4.29h0l-.59.42c-1.1-.34-2.17-1.61-2.49-3.59l5.79-4.14a.51.51,0,1,0-.59-.83l-6.07,4.34h0l-.79.56a4,4,0,0,1-2.18-1.5,4.43,4.43,0,0,1-.65-2.45l10.27-7.34,3.52-2.51.06,0,.06-.06,0-.06,0-.1,0-.14,0-.19-.1-.17-.12-.09-.1,0-.07,0H42a.6.6,0,0,0-.3.05c-.24.06-.7.2-1.71.55-.08,0-.08.12-.15.17h0A10.06,10.06,0,0,1,39.41,57a18,18,0,0,1-.31-1.81l3.59-1c4.25-1.17,15.3-4.9,16-5.13L64.4,59,63,64.37a13.35,13.35,0,0,1-3.77,5.31A55.31,55.31,0,0,1,52.5,75a102.19,102.19,0,0,1-9,5.55Z" style="fill:#fff"/></g></svg>