<?xml version="1.0" encoding="utf-8"?>
<!-- Generator: Adobe Illustrator 22.0.1, SVG Export Plug-In . SVG Version: 6.00 Build 0)  -->
<svg version="1.1" id="Layer_1" xmlns="http://www.w3.org/2000/svg" xmlns:xlink="http://www.w3.org/1999/xlink" x="0px" y="0px"
	 viewBox="0 0 464.9 385.5" style="enable-background:new 0 0 464.9 385.5;" xml:space="preserve">
<style type="text/css">
	.st0{fill:#FFFFFF;}
</style>
<g>
	<g>
		<path class="st0" d="M331.6,4.3v45.4h0c0,23.4-22.9,42.5-51,42.5s-51-19.1-51-42.5V4.3h17v45.4c0,14.1,15.3,25.5,34,25.5
			c18.8,0,34-11.4,34-25.5h0V4.3H331.6z M445,4.3v64.4L380.6,4.3H360v85h17V24.7l64.6,64.6H462v-85H445z M171.7,66.6h-49.8l0,0v22.7
			h-17v-85h17v0l0,0h53.9l0,0v0c17.2,0,31.2,14,31.2,31.2c0,12.3-7.1,22.9-17.4,28l14.9,25.9h-19.6L171.7,66.6z M121.8,49.6h53.9
			l0,0v0c7.8,0,14.2-6.4,14.2-14.2c0-7.8-6.4-14.2-14.2-14.2v0l0,0h-53.9l0,0L121.8,49.6L121.8,49.6z"/>
	</g>
	<g>
		<path class="st0" d="M462,264.6l-0.7-1.1l-0.1-0.1c-0.3,0.2-0.5,0.5-0.8,0.8l1.6,1.6V264.6z"/>
		<path class="st0" d="M399.9,200.2l0-0.7c0-0.8,0-1.5,0-2.1l0-1.3l-3.6-1.9c-0.7-0.4-1.5-0.8-2.1-1.1c0,0-0.1,0-0.2-0.1v4.7
			l4.7,4.7c0.4-0.3,0.7-0.5,1.1-0.8L399.9,200.2z"/>
		<path class="st0" d="M402.4,198.8c0,0,0,0.4,0,0.9c1.1-0.9,2.1-1.8,3-2.7c2.1-2.1,2.2-2.2,2.2-2.2c1.9-2.5,2-6.6,0.2-9.1l-11.2-15
			c-0.7-0.9-1.6-1.5-2.6-1.7v13.2l0.7,0.3l0.2,4.2c0.1,2,0.1,4.1,0.1,4.1l1.1,0.6l0.4,0.2c0.6,0.3,1.4,0.7,2.1,1.1l3.7,2l0,1.3
			c0,0.6,0,1.4,0,2.2L402.4,198.8z"/>
		<path class="st0" d="M394.4,151.3l-0.4-0.1v7.4c0.7-0.4,1.4-1,1.9-1.8c0,0,1.1-1.8,2.7-4.5l-2.3-0.6
			C395.6,151.6,394.9,151.4,394.4,151.3"/>
		<path class="st0" d="M411.1,167.7l-0.6-4.1l-1.2-0.4c-0.7-0.3-1.7-0.6-2.7-0.9c0,0-3.9-1.2-3.9-1.2c0,0,0-0.1-0.2-1.3l-0.5-2.8
			l-0.6-2.8c-0.1-0.3-0.1-0.6-0.2-0.8c-2,3.3-3.4,5.6-3.4,5.6c-1.6,2.7-1.4,6.8,0.5,9.3l11.1,14.9c1.8,2.6,4.2,2.3,5.3-0.6
			c0,0,1.4-3.6,3.1-8.5l-2.4-0.9c-0.7-0.3-1.5-0.6-2.1-0.8l-1.7-0.6l0,0C411.6,171.5,411.3,169.6,411.1,167.7"/>
		<path class="st0" d="M405.8,111.5c-0.8,3.8-0.1,10.9,1.9,12.5c2.4,1.9,5.6,1.6,7-0.7c0.3-0.5,0.7-1.2,1-2l-0.4-1.9l-1.2-0.4
			l-1.3-0.4l-1.5-0.4c0,0-4-1.1-4-1.1c0,0-0.3-1-0.3-1.3l-0.7-2.8L405.8,111.5z"/>
		<path class="st0" d="M420.4,157.4l-0.8-4l-1.2-0.3c-0.6-0.2-1.6-0.4-2.7-0.7l-4-1l-0.3-1.3l-0.7-2.7l-0.7-2.7l-0.3-1.3l-2.3-0.5
			c-1.5,2.7-3.1,5.6-4.7,8.1l0.5,0.1c0,0,0.1,0.5,0.3,1.3l0.6,2.8l0.6,2.8l0.2,1.3l3.9,1.2c0.9,0.3,1.9,0.6,2.7,0.9l1.2,0.4l0.7,4.1
			c0.3,1.8,0.5,3.6,0.6,4.1l1.2,0.4l0.5,0.2c0.6,0.2,1.4,0.5,2.1,0.8l0.9,0.4c1.1-3.1,2.2-6.6,3.2-10.1l-0.6-0.2l0,0L420.4,157.4z"
			/>
		<path class="st0" d="M406.3,126.5l-5.1-3.9c-2.5-1.9-5.6-2.3-7-1c0,0,0,0-0.3,0.3v8.6l3,0.5l4.1,0.7l0.4,1.3
			c0.3,0.8,0.6,1.8,0.9,2.7l1.2,4l1.2,0.2l0.9,0.2c0.7-1.2,1.3-2.4,1.8-3.4l1.1-2.2C409.8,131.9,408.8,128.4,406.3,126.5"/>
		<path class="st0" d="M411,135.7l-1,2c-0.4,0.9-0.9,1.8-1.5,2.8l3.1,0.7l0.4,1.3l0.7,2.8l0.7,2.7l0.3,1.3l4,1
			c1.2,0.3,2.1,0.6,2.8,0.8l1.2,0.4l0.9,4.1l0.4,2c0.5-1.9,0.8-3.6,1.1-5.2c0.5-3.2,0.6-3.6,0.6-3.6c0.6-3.1-0.8-7.3-3.1-9.4
			c-2.3-2.1-4.2-3.7-4.2-3.7C414.9,133.5,412.1,133.6,411,135.7"/>
		<path class="st0" d="M419.6,121.3c-0.5,0.7-0.6,2.4-0.4,4.4l1.1,0.4l1.3,0.5l1.4,0.6l4,1.6l0.2,1.3l0.3,2.9l0.3,2.7
			c0-0.1,0.1-0.2,0.1-0.3c0.8-2.5,2.7-9.3,0.5-11.5l-2-2C424.2,119.6,421.1,119.4,419.6,121.3"/>
		<path class="st0" d="M413.3,116.1l1.5,0.4l1.3,0.4l0.8,0.3c0.5-2.2,0.5-4.3-0.6-5.4l-2-2c-1.9-1.9-4.7-2.3-6.7-1.1l0.6,2.2
			l0.8,2.8c0.3,1.3,0.3,1.3,0.3,1.3L413.3,116.1z"/>
		<path class="st0" d="M424.8,131.8l-0.2-1.3l-4.4-1.7l-0.7-0.3c0.6,3.4,1.7,6.8,2.9,7.8c1,0.9,2.1,1.3,3.1,1.2c0,0,0,0,0-0.1
			l-0.3-2.8L424.8,131.8z"/>
		<path class="st0" d="M401.6,141.6l-1.2-3.9c-0.3-1-0.6-1.9-0.8-2.7l-0.4-1.2l-4-0.7l-1.1-0.2v11.2c0.1,0.3,0.1,0.5,0.2,0.8l1,4
			l1.2,0.3c0.5,0.1,1.2,0.3,1.9,0.5l0.9,0.2l0.7,0.2c1.4-2.4,3.1-5.3,4.6-8l-1.6-0.3L401.6,141.6z"/>
		<path class="st0" d="M436.8,137.6l1.2,2.1c0.2,0.3,0.3,0.5,0.4,0.7l0.3,0.5l4.1-0.1l1.5,0l1.3,0l1.3,0c0,0,1,1.9,1.9,3.7l1.8,3.8
			l1.3,0.1c0.8,0,1.9,0.1,2.8,0.2l4.2,0.4l0.2,0.3c0.1,0.2,0.2,0.5,0.4,0.9l1.1,2.7l0.7,1.8c0.2-0.2,0.5-0.5,0.7-0.7
			c0,0,0.1-0.1,0.1-0.1v-10.1l-2.5-0.1c-1,0-2-0.1-2.8-0.1l-1.3,0l0-0.1l-1.9-3.6c-0.9-1.8-2-3.6-2-3.6l-1.3,0l-1.3,0l-1.5,0.1
			l-4.1,0.2c-0.1-0.1-0.3-0.5-0.7-1.1l-1.5-2.4l-0.1-0.1c-0.5,0.5-1.1,1.1-1.8,1.8C438.4,135.9,437.5,136.8,436.8,137.6"/>
		<path class="st0" d="M435.2,139.8l-0.1-0.1c-0.2,0.3-0.3,0.4-0.3,0.4c-1.8,2.6-1.1,6,1.5,7.7l14.3,10.1c2.5,1.9,6.2,1.5,8.2-0.8
			c0,0,0.1-0.1,0.4-0.5l-0.6-1.5l-1-2.6c-0.1-0.4-0.3-0.7-0.4-0.9l-0.1-0.3l-4.1-0.3c-0.9-0.1-2-0.2-2.8-0.2l-1.3-0.1l0-0.1
			l-1.7-3.7c-0.9-1.8-1.8-3.7-1.8-3.7l-1.3,0l-1.3,0l-1.5,0l-4.1,0.1l0-0.1l-0.2-0.3l-0.1-0.1c-0.1-0.2-0.2-0.4-0.4-0.7L435.2,139.8
			z"/>
		<path class="st0" d="M427.8,152.4l-0.8,2c0.2,0,0.6,0,1.2,0.1l2.5,0.2l1.6,0.1l1.3,0.1l1.3,0.1c0,0,0.9,2,1.7,3.9l1.5,3.9
			c0,0,0.1,0,0.4,0l0.9,0.1c0.8,0.1,1.8,0.3,2.8,0.5l4.2,0.7c0,0,0.2,0.5,0.4,1.3l0.9,2.8l0.7,2.4l1.6-2.4c1.8-2.5,1.2-6.2-1.2-8.1
			l-14-9.8C432.2,148.6,429,149.6,427.8,152.4"/>
		<path class="st0" d="M452.3,170.1l-1.7,2.5l2.4,0.6l1.5,0.4l1.3,0.4l1.3,0.4l1,4.1l0.9,4.1l1.2,0.4c0.5,0.1,1.1,0.3,1.8,0.6v-11.7
			l-2.4-2.4C457.4,167.2,454,167.5,452.3,170.1"/>
		<path class="st0" d="M443.7,183L443,184c-1.6,2.7-1.2,6.9,0.8,9.3l7.4,9.5c1.8,2.5,5.1,2.8,7.3,0.5l0.2-0.2c0-0.2,0-0.4-0.1-0.6
			l-0.3-2.9l-0.3-2.9l-0.2-1.3l-4.3-1.7l-1-0.4l-1.3-0.4l-1.2-0.4l-0.7-4.1l-0.8-4.1l-1.2-0.4l-1.3-0.4l-1.5-0.4
			C444.4,183.2,444.1,183.1,443.7,183"/>
		<path class="st0" d="M462,251.6L462,251.6l0-4.3l0,0l-2.4-1.5c-0.3-0.2-0.6-0.4-0.8-0.5l-0.3-0.2l0.2-4.4c0-0.9,0.1-1.9,0.1-2.6
			l0-1.3l-0.6-0.3l-3.8,2.6l0.2,3.5c0,0.8,0.1,1.5,0.1,2.2c0,0.3,0,2,0,2l1.1,0.6c0.2,0.1,0.4,0.2,0.7,0.4c0.6,0.3,1.2,0.7,1.9,1
			l3.7,2.1L462,251.6z"/>
		<path class="st0" d="M429.2,200.1c0,0-4-1.1-4-1.1c0,0-0.3-1-0.3-1.3l-0.7-2.8l-0.8-2.8c-0.2-0.8-0.4-1.3-0.4-1.3l-4.6-1
			c-0.6-0.1-1.2-0.2-1.7-0.3c-0.6,2-1.2,4-1.9,5.7l0.2,0.6l0.3,0.6c0.2,0.6,0.5,1.3,0.8,2.1l1.4,4l1.3,0.2c0.6,0.1,1.4,0.3,2.3,0.5
			l0.6,0.1l4.2,0.9c0,0,0.2,0.5,0.4,1.3l0.6,2c1.3-2.1,2.7-4.5,4.1-7l-0.1,0L429.2,200.1z"/>
		<path class="st0" d="M450.3,215.9l-3.6,3.7l3,1.4c1.9,0.9,3.8,1.8,3.8,1.8l0.3,4.3c0,0.8,0.1,1.5,0.1,2.2c0,0.3,0,2,0,2l1.1,0.6
			c0.2,0.1,0.4,0.2,0.7,0.4c0.6,0.3,1.2,0.7,1.9,1l0.1,0.1l1.9-1.3c1.2-0.7,2-1.7,2.4-2.9v-4.2c-0.1-0.2-0.2-0.5-0.3-0.7l-4.5-7.5
			C455.6,214,452.5,213.6,450.3,215.9"/>
		<path class="st0" d="M422.8,165.1c-0.9,3,0.3,7.1,2.6,9.2l8.8,8.4c2.1,2.1,5,1.9,6.6-0.5c-0.2-0.1-0.4-0.1-0.4-0.1
			c0,0-0.3-1-0.3-1.3l-0.7-2.8l-0.8-2.8c-0.2-0.8-0.4-1.3-0.4-1.3l-4.6-1c-0.8-0.2-1.6-0.3-2.3-0.4l-1.3-0.2l0,0l-1.4-3.9
			c-0.3-0.7-0.5-1.4-0.8-2l-0.3-0.7l-0.5-1.2l-1.4-0.2l-1.2-0.2l-1.3-0.1L422.8,165.1z"/>
		<path class="st0" d="M457.6,123.1l-1,0.4c-2.9,1.2-2.9,3.4-0.2,4.8l5.6,3.2v-9c-0.7,0.1-1.4,0.1-2.1,0.2
			C459.1,122.9,458.3,123,457.6,123.1"/>
		<path class="st0" d="M461.5,167.1l0.6,0.6v-8.4l-1.1-0.2C459,161.4,459.2,165,461.5,167.1"/>
		<path class="st0" d="M441.6,224.7L441.6,224.7l4,1.6l0.2,1.3l0.3,2.9l0.3,2.9c0.1,0.7,0.1,1.1,0.1,1.3l3.8,1.8
			c0.6,0.3,1.1,0.5,1.6,0.8l3.3-2.3l-0.3-0.2c-0.6-0.4-1.3-0.7-1.8-1c-0.3-0.1-1.8-1-1.8-1l0-1.3c0-0.2,0-0.5,0-0.7
			c0-0.7,0-1.4-0.1-2.2l-0.2-4.2c0,0-1.9-0.9-3.8-1.8l-2.5-1.1L441.6,224.7z"/>
		<path class="st0" d="M434,205.5l-0.7-3.5c-1.9,3.5-3.9,6.8-5.6,9.4c0.3,1.2,0.3,1.2,0.3,1.2l4,1.1l1.5,0.4l1.3,0.4l1.3,0.4
			l0.9,4.2l0.7,4.2l1,0.3c1.3-1.4,2.9-2.9,4.6-4.7l-0.2-2.3l-0.3-2.9l-0.2-1.3l-4.4-1.7l-1-0.4L436,210l-1.2-0.4L434,205.5z"/>
		<path class="st0" d="M461.1,243.8l0.3,0.2c0.2,0.1,0.4,0.3,0.7,0.4v-10.2c-0.4,0-0.8,0.1-1.1,0.3l-0.5,0.4l0.8,0.5l0,1.4
			c0,0.7,0,1.8-0.1,2.8L461.1,243.8z"/>
		<path class="st0" d="M436.4,230c-2.2,2.2-2.2,5.9,0,8.1l2,2c2.2,2.2,6,2.5,8.5,0.6l2.7-1.9c-0.5-0.2-1.1-0.5-1.6-0.7l-3.8-1.7
			l0-0.1c0-0.1,0-0.6-0.1-1.3l-0.3-2.9l-0.3-2.9l-0.2-1.3l-3.6-1.4L436.4,230z"/>
		<path class="st0" d="M452.1,246.2c0-0.7,0-1.4-0.1-2.2l-0.2-3.4l-2.9,2c-2.5,1.9-2.7,5.2-0.5,7.4l2,2c2.2,2.2,6.2,2.6,8.8,1
			l0.3-0.1l0-0.7l-3.6-2c-0.6-0.4-1.3-0.7-1.8-1c-0.3-0.1-1.8-1-1.8-1l0-1.3C452.1,246.7,452.1,246.5,452.1,246.2"/>
		<path class="st0" d="M435.5,225.1l-0.7-4.1l-0.8-4.1l-1.2-0.4l-1.3-0.4l-1.5-0.4c0,0-4-1.1-4-1.1c0,0,0-0.2-0.1-0.4
			c-1.3,2-2.2,3.2-2.2,3.2c-1.8,2.5-1.5,6.4,0.7,8.6l2,2c2.2,2.2,5.8,2.2,8,0c0,0,0.9-0.9,2.4-2.5l-0.1,0L435.5,225.1z"/>
		<path class="st0" d="M414.2,200.8c-0.2-0.7-0.5-1.4-0.7-2c-1.5,3.7-2.6,6.1-2.6,6.1c-1.4,2.8-0.7,6.9,1.5,9.1l2,2
			c2.2,2.2,5.5,1.9,7.3-0.6c0,0,1.3-1.9,3.3-4.9l0,0l-0.8-2.8c-0.2-0.8-0.4-1.3-0.4-1.3l-4.7-1c-0.8-0.2-1.6-0.3-2.3-0.4l-1.3-0.2
			l0,0L414.2,200.8z"/>
		<path class="st0" d="M424.2,161.5l0.6,0.1l1.6,0.2l1.3,0.2l1.3,0.2l0.5,1.3l0.3,0.6c0.2,0.6,0.5,1.3,0.8,2.1l1.4,4l1.3,0.2
			c0.6,0.1,1.4,0.3,2.3,0.5l0.6,0.1l4.2,0.9c0,0,0.2,0.5,0.4,1.3l0.8,2.8l0.8,2.8c0.1,0.5,0.2,0.8,0.2,1l4.3-6.4
			c0-0.1,0-0.2-0.1-0.3l-0.8-2.7l-0.9-2.7c-0.2-0.7-0.4-1.2-0.4-1.2l-4.2-0.7c-1-0.2-1.9-0.3-2.7-0.4l-1.3-0.2c0,0-1.3-3.4-1.5-3.9
			c-0.8-1.9-1.6-3.8-1.6-3.8l-1.4-0.1l-1.2-0.1l-1.5-0.1l-3.1-0.2L424.2,161.5z"/>
		<path class="st0" d="M436.1,196.6c0,0-0.1,0.2-1.4,2.6c0,0,0,0,0,0l0.6,0.2l0.9,4.2l0.7,4.2l1.2,0.4l1.3,0.5l1.4,0.6l4,1.6
			l0.2,1.3l0.3,2.9l0.2,1.6c1.2-1.2,2.4-2.4,3.6-3.7l1.1-1.1c1.3-1.3,0.8-4.5-1-7l-6.9-8.9C440.4,193.5,437.6,193.8,436.1,196.6"/>
		<path class="st0" d="M445.2,180.8l1.3,0.4l1.5,0.4l1.3,0.4l1.3,0.4l0.9,4.2l0.7,4.2l1.2,0.4l1.3,0.5l1.4,0.6l4,1.6l0.2,1.3
			l0.3,2.9l0.3,2.8l1.1-1.1V186l-1.2-0.4c-1-0.3-2-0.7-2.7-0.9c-0.7-0.2-1.2-0.4-1.2-0.4c0,0-0.4-2.1-0.9-4.1l-1-4l-1.2-0.3
			l-1.3-0.3l-1.5-0.4l-1.9-0.4L445.2,180.8z"/>
		<path class="st0" d="M419.1,179.1c0,0-0.3,1.2-1,4.4c-0.3,1.3-0.6,2.5-0.9,3.7l0.7,0.1c0.6,0.1,1.4,0.3,2.3,0.5l0.6,0.1l4.2,0.9
			c0,0,0.2,0.5,0.4,1.3l0.8,2.8l0.8,2.8c0.3,1.3,0.3,1.3,0.3,1.3l4,1.1l0.7,0.2c0.1-0.2,0.2-0.3,0.2-0.5c1.4-2.7,1.9-3.6,1.9-3.6
			c1.5-2.8,0.9-6.8-1.3-9.1l-8.2-7.9C422.3,175.3,419.8,176,419.1,179.1"/>
		<path class="st0" d="M460.2,205.7c-2.2,2.2-2.8,5.8-1.5,7.9l1.2,2c0.8,1.3,1.5,2.5,2.1,3.6v-13.8l-1.1-0.5L460.2,205.7z"/>
		<path class="st0" d="M443.8,130.9c0,0-0.2,0.2-0.7,0.5l1,1.5c0.5,0.7,0.6,1,0.7,1.1l4.1-0.2l1.5-0.1l1.3,0l1.3,0
			c0,0,1.1,1.9,2,3.6l1.9,3.7l1.3,0c0.8,0,1.9,0.1,2.8,0.1l1,0V135l-8.6-4.8C450.7,128.7,446.3,129.1,443.8,130.9"/>
		<path class="st0" d="M434.5,114.4c0,0.3,0,2,0,2l1.1,0.6c0.2,0.1,0.4,0.2,0.7,0.4c0.6,0.3,1.2,0.7,1.9,1l3.7,2.1l0,0.8l3.5-1.8
			l0-0.2c0,0-0.4-0.3-1.1-0.7l-2.4-1.6l-2.4-1.5c-0.3-0.2-0.6-0.4-0.8-0.5l-0.3-0.2l0.2-4.4c0-0.9,0.1-1.9,0.1-2.6l0-1.3l-0.3-0.2
			h-0.6l-3.6,2.5l0.2,3.5C434.5,113,434.5,113.8,434.5,114.4"/>
		<path class="st0" d="M432.9,106.3h-2.2c0.4,0.2,0.9,0.4,1.3,0.6L432.9,106.3z"/>
		<path class="st0" d="M441.2,109.2l-0.1,4.4l0.3,0.2c0.2,0.1,0.5,0.3,0.8,0.5l2.4,1.6l2.4,1.6c0.7,0.4,1.1,0.7,1.1,0.7l0,0.1
			c2.4-1.3,3.5-4.3,2.4-6.8c-0.6-1.4-2.2-3.5-4.1-5.1h-5.2l0,0.1C441.2,107.1,441.2,108.2,441.2,109.2"/>
		<path class="st0" d="M418.4,109.8c2.2,2.2,6,2.5,8.5,0.6l2.7-1.9c-0.5-0.2-1.1-0.5-1.6-0.7l-3.3-1.5h-9.4c0.3,0.5,0.6,1.1,1.1,1.5
			L418.4,109.8z"/>
		<path class="st0" d="M428.4,119.8l2,2c2.2,2.2,6.2,2.6,8.8,1l0.3-0.2l0-0.7l-3.6-2c-0.6-0.4-1.3-0.7-1.8-1c-0.3-0.1-1.9-1-1.9-1
			l0-1.3c0-0.2,0-0.5,0-0.7c0-0.7,0-1.4-0.1-2.2l-0.2-3.4l-2.9,2C426.4,114.3,426.2,117.6,428.4,119.8"/>
		<path class="st0" d="M460.4,113.9c0,0,0,0,1.7-0.5v-1.1l-2.1-1.5c0,0,0.3-2.1,0.4-4.2l0-0.3h-9.3l1.9,4.1
			C454.3,113.3,457.6,114.9,460.4,113.9"/>
		<path class="st0" d="M424.1,355.2l-1.2-2.6c-0.2-0.4-0.3-0.7-0.4-0.9l-0.2-0.3l-4.2-0.1l-1.5,0l-1.3,0l-1.3,0c0,0,0,0,0,0
			c0,0-0.1-0.1-0.2-0.4l-0.4-0.8l-0.4-0.6c-0.2-0.4-0.5-0.9-0.8-1.4l-9.2,3.9c-3,0.7-3.2,2.4-0.4,3.8l10.5,5.5
			c1.6,0.9,3.9,1.3,6,1.1c2.1-1.5,4.2-3.1,6.2-4.8L424.1,355.2z"/>
		<path class="st0" d="M389.6,375.5l-1.3-2.6l-1.3-2.4c-0.4-0.7-0.6-1.1-0.6-1.1l-4.1,0.1c-2,0.1-4,0.2-4.1,0.2l-0.1,0l0-0.1
			l-2.1-3.4c-0.4-0.6-0.8-1.3-1.1-1.8l-1.1-1.7l-1.3,0.1c-0.9,0.1-1.8,0.2-2.8,0.3c-0.8,0.1-1.6,0.2-2.3,0.3l-1,0.4
			c-2.9,1.2-2.9,3.4-0.2,4.8l16.5,9.4c0.2,0.1,0.4,0.2,0.6,0.3c2.3-0.5,4.6-1.2,6.8-1.9h0L389.6,375.5z"/>
		<path class="st0" d="M405.2,369.1h-1.3c-0.5,0-1.6,0-2.8,0l-4.1,0.1l-0.6-1.1l-1.4-2.4l-1.4-2.4c-0.3-0.5-0.6-0.9-0.6-1.1
			c0,0,0,0,0,0l-4.1,0.3c-2,0.1-4,0.4-4.1,0.4l-0.3-0.5l-1.9-2.9c-0.3-0.4-0.5-0.8-0.8-1.1l-6.4,2.4l0.5,0.8l0.4,0.6
			c0.4,0.5,0.8,1.1,1.2,1.8l2.2,3.5c0.3,0,2.2-0.2,4.1-0.2l4.2-0.1c0,0,0,0,0,0c0,0,0.3,0.5,0.7,1.2l1.4,2.5l1.3,2.5l0.6,1.1
			c0,0,2,0,4.1,0.1c0.4,0,0.7,0,1.1,0c3.1-1.2,6.1-2.5,9-4L405.2,369.1z"/>
		<path class="st0" d="M430.4,346.3c-2.2-2.2-6.4-3.1-9.3-2l-6.7,2.8l0.9,1.6l1.3,0l1.4,0l1.5,0l4.3,0.2l0.2,0.3
			c0.1,0.2,0.3,0.5,0.4,0.9l1.3,2.6l1.2,2.6c0.1,0.2,0.2,0.4,0.2,0.5c2.2-1.9,4.3-3.9,6.3-6c-0.2-0.6-0.6-1.1-1.1-1.6L430.4,346.3z"
			/>
		<path class="st0" d="M410.1,362.8l-11.9-6c-2.8-1.3-7.6-1.7-10.6-0.9l-3.5,1.4c0.6,1,1.9,2.8,1.9,2.9c0,0,2-0.2,4.1-0.4l4.2-0.3
			c0,0,0,0,0,0c0,0,0.3,0.5,0.7,1.1l1.5,2.5l1.4,2.4l0.6,1.1l4.1-0.1c1.2,0,2.3,0,2.9,0l1.3,0l1.4,2.6c0.1-0.1,0.2-0.1,0.3-0.2
			l1.7-1C412.8,366.7,412.8,364.3,410.1,362.8"/>
		<path class="st0" d="M353.6,371.4c0,0-0.2,0.2-0.7,0.5l1,1.5c0.5,0.7,0.6,1,0.7,1.1l4.1-0.2l1.5-0.1l1.3,0l1.3,0
			c0,0,1.1,1.9,2,3.6l1.6,3.1c4.2-0.3,8.4-0.8,12.5-1.6l-15.7-8.8C360.5,369.3,356.1,369.6,353.6,371.4"/>
		<path class="st0" d="M292.1,309.1c0,0,0,0.4,0,0.9c1.1-0.9,2.1-1.8,3-2.7c2.1-2.1,2.2-2.2,2.2-2.2c1.9-2.5,2-6.6,0.2-9.1l-11.2-15
			c-1.9-2.4-5.1-2.5-7.1,0c0,0-1,1.3-2.7,3.2l0.1,1.3l0.3,2.8l0.1,1.3l3.8,1.6c0.8,0.4,1.8,0.8,2.6,1.2l1.2,0.6l0.2,4.2
			c0.1,2,0.1,4.1,0.1,4.1l1.1,0.6l0.4,0.2c0.6,0.3,1.4,0.7,2.1,1.1l3.7,2l0,1.3c0,0.6,0,1.4,0,2.2L292.1,309.1z"/>
		<path class="st0" d="M271.7,247.7l-0.9-2.9c-2,1.9-3.3,3.2-3.3,3.2c-2.2,2.2-2.2,5.8,0,7.9l11.3,12c2.2,2.2,5.3,1.9,6.9-0.7
			c0,0,1.1-1.8,2.7-4.5L286,262c-0.7-0.2-1.3-0.4-1.9-0.5l-1.2-0.3l0,0l-1-4c-0.2-0.8-0.4-1.6-0.6-2.3l-0.5-1.7l-4-0.9l-4.1-0.8
			l0.1-0.1l-0.4-1.2C272.3,249.6,272,248.6,271.7,247.7"/>
		<path class="st0" d="M304.5,292.8c0,0,1.4-3.6,3.1-8.5l-2.4-0.9c-0.7-0.3-1.5-0.6-2.1-0.8l-1.7-0.6l0,0c-0.1-0.2-0.3-2.1-0.6-4.1
			l-0.6-4.1l-1.2-0.4c-0.7-0.3-1.7-0.6-2.7-0.9c0,0-3.9-1.2-3.9-1.2c0,0,0-0.1-0.2-1.3l-0.5-2.8l-0.6-2.8c-0.1-0.3-0.1-0.6-0.2-0.8
			c-2,3.3-3.4,5.6-3.4,5.6c-1.6,2.7-1.4,6.8,0.5,9.3l11.1,14.9C301,296,303.4,295.7,304.5,292.8"/>
		<path class="st0" d="M296.7,225.9l-0.7-2.8l-0.4-1.4c-0.8,3.8-0.1,10.9,1.9,12.5c2.4,1.9,5.6,1.6,7-0.7c0.3-0.5,0.7-1.2,1-2
			l-0.4-1.9l-1.2-0.4l-1.3-0.4l-1.5-0.4c0,0-4-1.1-4-1.1C297,227.2,296.7,226.2,296.7,225.9"/>
		<path class="st0" d="M310.2,267.7l-0.8-4l-1.2-0.3c-0.6-0.2-1.6-0.4-2.7-0.7l-4-1l-0.3-1.3l-0.7-2.7l-0.7-2.7l-0.3-1.3l-2.3-0.5
			c-1.5,2.7-3.1,5.6-4.7,8.1l0.5,0.1c0,0,0.1,0.5,0.3,1.3l0.6,2.8l0.6,2.8l0.2,1.3l3.9,1.2c0.9,0.3,1.9,0.6,2.7,0.9l1.2,0.4l0.7,4.1
			c0.3,1.8,0.5,3.6,0.6,4.1l1.2,0.4l0.5,0.2c0.6,0.2,1.4,0.5,2.1,0.8l0.9,0.4c1.1-3.1,2.2-6.6,3.2-10.1l-0.6-0.2l0,0L310.2,267.7z"
			/>
		<path class="st0" d="M277.4,278.7c2-2.4,1.8-6.3-0.3-8.6l-11.8-12.2c-2-2-5.2-2.1-7.4-0.5v4.1l0.5,2c0.2,1.1,0.5,2.1,0.6,2.8
			l0.2,1.3l3.9,1.2c1.9,0.6,3.9,1.3,3.9,1.3l0.2,1.3l0.1,0.5c0.1,0.7,0.3,1.5,0.4,2.4l0.6,4.1l1.2,0.4c0.5,0.2,1.2,0.4,1.8,0.7
			l0.8,0.3l3.2,1.2C276.7,279.6,277.4,278.7,277.4,278.7"/>
		<path class="st0" d="M284.1,231.8l-1.3,1.2c-0.6,0.6-1.3,1.3-2.1,2l0.6,1.6c0.4,1.1,0.8,2.1,1,2.7l0.4,1.2l4.1,0.6l4.1,0.7
			l0.4,1.3c0.3,0.8,0.6,1.8,0.9,2.7l1.2,4l1.2,0.2l0.9,0.2c0.7-1.2,1.3-2.4,1.8-3.4l1.1-2.2c1.2-2.3,0.2-5.8-2.3-7.8l-5.1-3.9
			C288.5,230.9,285.4,230.5,284.1,231.8"/>
		<path class="st0" d="M312.7,267.8c0.5-1.9,0.8-3.6,1.1-5.2c0.5-3.2,0.6-3.6,0.6-3.6c0.6-3.1-0.8-7.3-3.1-9.4
			c-2.3-2.1-4.2-3.7-4.2-3.7c-2.4-2-5.2-2-6.2,0.1l-1,2c-0.4,0.9-0.9,1.8-1.5,2.8l3.1,0.7l0.4,1.3l0.7,2.8l0.7,2.7l0.3,1.3l4,1
			c1.2,0.3,2.1,0.6,2.8,0.8l1.2,0.4l0.9,4.1L312.7,267.8z"/>
		<path class="st0" d="M309.3,231.6c-0.5,0.7-0.6,2.4-0.4,4.4l1.1,0.4l1.3,0.5l1.4,0.6l4,1.6l0.2,1.3l0.3,2.9l0.3,2.7
			c0-0.1,0.1-0.2,0.1-0.3c0.8-2.5,2.7-9.3,0.5-11.5l-2-2C313.9,229.9,310.9,229.7,309.3,231.6"/>
		<path class="st0" d="M297.4,219l0.6,2.2l0.8,2.8c0.3,1.3,0.3,1.3,0.3,1.3l4,1.1l1.5,0.4l1.3,0.4l0.8,0.3c0.5-2.2,0.5-4.3-0.6-5.4
			l-2-2C302.2,218.2,299.4,217.8,297.4,219"/>
		<path class="st0" d="M314.6,242l-0.2-1.3L310,239l-0.7-0.3c0.6,3.4,1.7,6.8,2.9,7.8c1,0.9,2.1,1.3,3.1,1.2c0,0,0,0,0-0.1l-0.3-2.8
			L314.6,242z"/>
		<path class="st0" d="M279.5,238.8l-0.7-1.9c-2,2-4.2,4.1-6,5.9l0.9,2.7c0.3,1,0.6,1.9,0.8,2.7l0.4,1.2l4,0.8l4,0.9l0.4,1.3
			l0.1,0.4c0.2,0.7,0.4,1.5,0.6,2.3l1,4l1.2,0.3c0.5,0.1,1.2,0.3,1.9,0.5l0.9,0.2l0.7,0.2c1.4-2.4,3.1-5.3,4.6-8l-1.6-0.3l-1.3-0.2
			l-1.2-3.9c-0.3-1-0.6-1.9-0.8-2.7l-0.4-1.2l-4-0.7l-4.1-0.6l-0.4-1.2C280.2,240.8,279.9,239.8,279.5,238.8"/>
		<path class="st0" d="M460.5,264.2c-0.3,0.3-0.7,0.6-1,1c-1,1-1.9,2-2.6,2.8l1.2,2.1c0.2,0.3,0.3,0.5,0.4,0.7l0.3,0.5l3.3-0.1v-5.3
			L460.5,264.2z"/>
		<path class="st0" d="M457.1,273.3l-0.1-0.1c-0.1-0.2-0.2-0.4-0.4-0.7l-1.4-2.4l-0.1-0.1c-0.2,0.3-0.3,0.5-0.3,0.5
			c-1.8,2.6-1.1,6,1.5,7.7l5.6,4c0-0.9,0-1.9,0-2.9h0v-5.7l-0.6,0l-4.1,0.1l0-0.1L457.1,273.3z"/>
		<path class="st0" d="M447.8,282.7l-0.8,2c0.2,0,0.6,0,1.2,0.1l2.5,0.2l1.6,0.1l1.3,0.1l1.3,0.1c0,0,0.9,2,1.7,3.9l1.5,3.9
			c0,0,0.1,0,0.4,0l0.9,0.1c0.5,0.1,1,0.1,1.6,0.2c0.4-2.6,0.6-5.3,0.8-8l-6.9-4.9C452.3,278.9,449.1,279.8,447.8,282.7"/>
		<path class="st0" d="M445.2,329.3c0,0-0.3-1-0.3-1.3l-0.7-2.8l-0.8-2.8c-0.2-0.8-0.4-1.3-0.4-1.3l-4.6-1c-0.6-0.1-1.2-0.2-1.7-0.3
			c-0.6,2-1.2,4-1.9,5.7l0.2,0.6l0.3,0.6c0.2,0.6,0.5,1.3,0.8,2.1l1.4,4l1.3,0.2c0.6,0.1,1.4,0.3,2.3,0.5l0.6,0.1l4.1,0.9
			c0.9-1.4,1.8-2.9,2.7-4.4C447.2,329.9,445.2,329.3,445.2,329.3"/>
		<path class="st0" d="M458.3,304.2l-4.6-1c-0.8-0.2-1.6-0.3-2.3-0.4l-1.3-0.2l0,0l-1.4-3.9c-0.3-0.7-0.5-1.4-0.8-2l-0.3-0.7
			l-0.5-1.2l-1.4-0.2l-1.2-0.2l-1.3-0.1l-0.5,1.1c-0.9,3,0.3,7.1,2.6,9.2l8.8,8.4c0.5,0.5,1.1,0.9,1.6,1.1c1-2.8,1.9-5.7,2.7-8.6
			C458.4,304.7,458.3,304.2,458.3,304.2"/>
		<path class="st0" d="M439.1,335.7c-0.8-0.2-1.6-0.3-2.3-0.4l-1.3-0.2l0,0l-1.4-3.9c-0.2-0.7-0.5-1.4-0.7-2
			c-1.5,3.7-2.6,6.1-2.6,6.1c-1.4,2.8-0.7,6.9,1.5,9.1l2,2c0.5,0.5,0.9,0.8,1.5,1c2.9-3.2,5.6-6.6,8.1-10.2
			c-0.1-0.3-0.1-0.5-0.1-0.5L439.1,335.7z"/>
		<path class="st0" d="M460.3,295.9c-1-0.2-1.9-0.3-2.7-0.4l-1.3-0.2c0,0-1.3-3.4-1.5-3.9c-0.8-1.9-1.6-3.8-1.6-3.8l-1.4-0.1
			l-1.2-0.1l-1.5-0.1l-3.1-0.2l-1.9,4.7l0.6,0.1l1.6,0.2l1.3,0.2l1.3,0.2l0.5,1.3l0.3,0.6c0.2,0.6,0.5,1.3,0.8,2.1l1.4,4l1.3,0.2
			c0.6,0.1,1.4,0.3,2.3,0.5l0.6,0.1l3.4,0.8c0.5-2,0.8-4,1.2-6L460.3,295.9z"/>
		<path class="st0" d="M449.6,328c1.8-3.2,3.3-6.5,4.7-9.9c-0.4-0.9-0.8-1.8-1.5-2.5l-8.2-7.9c-2.3-2.1-4.8-1.3-5.5,1.7
			c0,0-0.3,1.2-1,4.4c-0.3,1.3-0.6,2.5-0.9,3.7l0.7,0.1c0.6,0.1,1.4,0.3,2.3,0.5l0.6,0.1l4.2,0.9c0,0,0.2,0.5,0.4,1.3l0.8,2.8
			l0.8,2.8c0.3,1.3,0.3,1.3,0.3,1.3L449.6,328z"/>
		<path class="st0" d="M390.7,315.3c0,0,1.5-1.2,3.6-3l-2.4-1l-0.8-0.3c-0.7-0.3-1.3-0.6-1.8-0.8l-1.2-0.5l0,0l-0.4-4.1
			c-0.1-0.9-0.2-1.9-0.3-2.6l-0.2-1.5l-1.2-0.4c-2.2,2.6-4.8,4.9-7.6,6.8c2.6,3.6,4.5,6.4,4.5,6.4
			C384.8,316.7,388.3,317.2,390.7,315.3"/>
		<path class="st0" d="M419.9,332l0-1.4l0-0.7c0-0.8,0-1.5,0-2.1l0-1.3l-3.6-1.9c-0.7-0.4-1.5-0.8-2.1-1.1c0,0-1.5-0.7-1.5-0.8
			c0,0,0-2.1-0.1-4.1l-0.2-4.1l-1.1-0.5c-0.6-0.3-1.4-0.7-2.6-1.2l-3.7-1.6l0,0l-0.1-1.3l-0.3-2.8l0-0.5c-0.5,0.6-1.1,1.1-1.7,1.7
			c-1.5,1.5-3.1,3-4.6,4.3l0.2,3l0.1,2.7l0,1.3l3.7,1.8c0.9,0.5,1.9,1,2.5,1.3l1.1,0.6l0,4.2c-0.1,2-0.1,4-0.1,4.1
			c0.1,0,0.3,0.2,1.1,0.6c0.7,0.4,1.6,0.9,2.5,1.4l3.6,2.2l0,0.8C415.1,335.3,417.5,333.7,419.9,332"/>
		<path class="st0" d="M405.3,341c0,0,2.1-1.1,5-2.8l0.1-1l-3.5-2.1c-0.9-0.6-1.9-1.1-2.4-1.4c0,0-1.1-0.6-1.1-0.6l0.1-4.1l0-4.1
			l-1.1-0.6c-0.6-0.4-1.5-0.8-2.5-1.3l-3.7-1.8l0-1.3l-0.1-2.8l-0.1-2.3c-2.1,1.8-3.6,3-3.6,3c-2.4,1.9-3.1,5.7-1.6,8.4l6.9,12.5
			C399,341.4,402.5,342.5,405.3,341"/>
		<path class="st0" d="M422.4,329.1c0,0,0,0.4,0,0.9c1.1-0.9,2.1-1.8,3-2.7c2.1-2.1,2.2-2.2,2.2-2.2c1.9-2.5,2-6.6,0.2-9.1l-11.2-15
			c-1.9-2.4-5.1-2.5-7.1,0c0,0-1,1.3-2.7,3.2l0.1,1.3l0.3,2.8l0.1,1.3l3.8,1.6c0.8,0.4,1.8,0.8,2.6,1.2l1.2,0.6l0.2,4.2
			c0.1,2,0.1,4.1,0.1,4.1l1.1,0.6l0.4,0.2c0.6,0.3,1.4,0.7,2.1,1.1l3.7,2l0,1.3c0,0.6,0,1.4,0,2.2L422.4,329.1z"/>
		<path class="st0" d="M400.8,306.3c1.2-1.2,2.3-2.3,3.2-3.4l-4.5-1.7c-0.7-0.3-1.3-0.5-1.8-0.7l-1.2-0.4l-0.6-4.1
			c-0.1-0.8-0.3-1.7-0.4-2.3l-0.3-1.7c0,0-1.6-0.5-3.3-1.1c-1.1,2.9-2.5,5.5-4.2,8l1.9,0.7l0.2,1.3l0,0.3c0.1,0.7,0.2,1.6,0.3,2.6
			l0.4,4.1l1.2,0.5c0.5,0.2,1.2,0.5,1.9,0.8l0.7,0.3l2.1,0.9C397.8,309.1,399.4,307.7,400.8,306.3"/>
		<path class="st0" d="M415.9,287.1c0,0,1.1-1.8,2.7-4.5l-2.3-0.6c-0.7-0.2-1.3-0.4-1.9-0.5l-1.2-0.3l0,0l-1-4
			c-0.2-0.8-0.4-1.6-0.6-2.3l-0.4-1.7l-4-0.9l-4.1-0.8l0.1-0.1l-0.4-1.2c-0.2-0.8-0.5-1.7-0.8-2.7l-0.9-2.9c-2,1.9-3.3,3.2-3.3,3.2
			c-2.2,2.2-2.2,5.8,0,7.9l11.3,12C411.2,290.1,414.3,289.8,415.9,287.1"/>
		<path class="st0" d="M392.4,346.7c2.9-1.1,4.1-4.3,2.7-7l-6.6-12c-1.6-2.7-5-3.5-7.6-1.8l-4.2,2.7l1.2,0.7
			c0.9,0.5,1.8,1.1,2.5,1.5l1.1,0.7l-0.2,4.2l0,0.9c0,0.7-0.1,1.4-0.1,2l-0.1,1.3l3.5,2.3c0.8,0.5,1.6,1.1,2.2,1.5l1.2,0.9
			c0,0-0.2,2-0.4,3.9C390.5,347.4,392.4,346.7,392.4,346.7"/>
		<path class="st0" d="M374.1,320.2c0,0.8,0.1,1.8,0.1,2.9l0,3.8l5.1-3.3c2.6-1.7,3.3-5.2,1.5-7.8l-4.9-6.6c-3,1.6-6.2,2.7-9.6,3.4
			c0,0.4,0.1,0.8,0.1,1.1l0.1,1.4l3.8,1.8l3.7,1.9L374.1,320.2z"/>
		<path class="st0" d="M324.9,249.9c-0.2,0.3-0.3,0.4-0.3,0.4c-1.8,2.5-1.1,5.9,1.4,7.6v-6.2l-1-1.7L324.9,249.9z"/>
		<path class="st0" d="M434.8,312.9c0,0,1.4-3.6,3.1-8.5l-2.4-0.9c-0.7-0.3-1.5-0.6-2.1-0.8l-1.7-0.6l0,0c-0.1-0.2-0.3-2.1-0.6-4.1
			l-0.6-4.1l-1.2-0.4c-0.7-0.3-1.7-0.6-2.7-0.9c0,0-3.9-1.2-3.9-1.2c0,0,0-0.1-0.2-1.3l-0.5-2.8l-0.6-2.8c-0.1-0.3-0.1-0.6-0.2-0.8
			c-2,3.3-3.4,5.6-3.4,5.6c-1.6,2.7-1.4,6.8,0.5,9.3l11.1,14.9C431.3,316.1,433.7,315.8,434.8,312.9"/>
		<path class="st0" d="M317.5,262.6l-0.8,2c0.2,0,0.6,0,1.2,0.1l2.5,0.2l1.6,0.1l1.3,0.1l1.3,0.1c0,0,0.6,1.4,1.3,2.9v-6.7l-1.4-1
			C322,258.8,318.8,259.8,317.5,262.6"/>
		<path class="st0" d="M331.8,298.3c0,1.9,0.6,3.9,1.7,5.3l7.4,9.5c1.8,2.5,5.1,2.8,7.3,0.5l0.2-0.2c0-0.2,0-0.4-0.1-0.6l-0.2-1.7
			C341.5,308.6,335.8,304.1,331.8,298.3"/>
		<path class="st0" d="M402.9,231.1l3.6-2.3l-0.8-0.1l0,0c-0.1-0.1-0.3-0.6-0.5-1.2l-1.2-2.6l-1.2-2.6c-0.2-0.4-0.3-0.7-0.4-0.9
			l-0.2-0.3L398,221l-1.5,0l-1.3,0l-1.1,0v10.5C396.7,232.5,400.5,232.4,402.9,231.1"/>
		<path class="st0" d="M412.6,229.4l-1.2-0.2l-0.3,0l-5.3,3.5c-2.7,1.5-2.8,4-0.2,5.7l6.2,4.1c2.6,1.8,6.5,1.4,8.7-0.8
			c0,0,1.4-1.4,3-3l-3.1-0.7c-0.8-0.2-1.6-0.3-2.3-0.4l-1.3-0.2l0,0l-1.4-3.9c-0.3-0.7-0.5-1.4-0.8-2l-0.7-1.9L412.6,229.4z"/>
		<path class="st0" d="M434.7,253.5c0.3-0.5,0.6-1.2,1-2l-0.4-1.9l-1.2-0.4l-1.3-0.4l-1.5-0.4c0,0-4-1.1-4-1.1c0,0-0.3-1-0.3-1.3
			l-0.7-2.8l-0.4-1.4c-0.8,3.8-0.1,10.9,1.9,12.5C430.2,256.2,433.3,255.9,434.7,253.5"/>
		<path class="st0" d="M351.8,361.9l3.5-1.8l0-0.2c0,0-0.4-0.3-1.1-0.7l-2.4-1.6l-2.4-1.5c-0.3-0.2-0.6-0.4-0.8-0.5l-0.3-0.2
			l0.2-4.4c0-0.9,0.1-1.9,0.1-2.6l0-1.3l-0.6-0.3l-3.8,2.6l0.2,3.5c0,0.8,0.1,1.5,0.1,2.2c0,0.3,0,2,0,2l1.1,0.6
			c0.2,0.1,0.4,0.2,0.7,0.4c0.6,0.3,1.2,0.7,1.9,1l3.7,2.1L351.8,361.9z"/>
		<path class="st0" d="M314.9,309.3c0,0-0.3-1-0.3-1.3l-0.7-2.8l-0.8-2.8c-0.2-0.8-0.4-1.3-0.4-1.3l-4.6-1c-0.6-0.1-1.2-0.2-1.7-0.3
			c-0.6,2-1.2,4-1.9,5.7l0.2,0.6l0.3,0.6c0.2,0.6,0.5,1.3,0.8,2.1l1.4,4l1.3,0.2c0.6,0.1,1.4,0.3,2.3,0.5l0.6,0.1l4.2,0.9
			c0,0,0.2,0.5,0.4,1.3l0.6,2c1.3-2.1,2.7-4.5,4.1-7l-0.1,0l-1.5-0.4C318.9,310.4,314.9,309.3,314.9,309.3"/>
		<path class="st0" d="M347.3,343.5l0.1,0.1l1.9-1.3c2.7-1.6,3.6-5.1,2.1-7.8l-4.5-7.5c-1.7-2.6-4.8-3-7-0.7l-3.6,3.7l3,1.4
			c1.9,0.9,3.8,1.8,3.8,1.9l0.3,4.3c0,0.8,0.1,1.5,0.1,2.2c0,0.3,0,2,0,2l1.1,0.6c0.2,0.1,0.4,0.2,0.7,0.4
			C346,342.7,346.7,343.1,347.3,343.5"/>
		<path class="st0" d="M423.5,282.7l0.6,2.8l0.6,2.8l0.2,1.3l3.9,1.2c0.9,0.3,1.9,0.6,2.7,0.9l1.2,0.4l0.7,4.1
			c0.3,1.8,0.5,3.6,0.6,4.1l1.2,0.4l0.5,0.2c0.6,0.2,1.4,0.5,2.1,0.8l0.9,0.4c1.1-3.1,2.2-6.6,3.2-10.1l-0.6-0.2l0,0l-0.8-4l-0.8-4
			l-1.2-0.3c-0.6-0.2-1.6-0.4-2.7-0.7l-4-1l-0.3-1.3l-0.7-2.7l-0.7-2.7l-0.3-1.3l-2.3-0.5c-1.5,2.7-3.1,5.6-4.7,8.1l0.5,0.1
			C423.2,281.4,423.4,281.9,423.5,282.7"/>
		<path class="st0" d="M323.3,283.2c-0.8-0.2-1.6-0.3-2.3-0.4l-1.3-0.2l0,0l-1.4-3.9c-0.3-0.7-0.5-1.4-0.8-2l-0.3-0.7l-0.5-1.2
			l-1.4-0.2l-1.2-0.2l-1.3-0.1l-0.5,1.1c-0.9,3,0.3,7.1,2.6,9.2l8.8,8.4c1.6,1.6,3.6,1.8,5.3,0.8c-1.5-3.1-2.5-6.4-2.9-9.9
			L323.3,283.2z"/>
		<path class="st0" d="M407.7,298.7c2-2.4,1.8-6.3-0.3-8.6L395.6,278c-0.5-0.5-1-0.8-1.6-1.1v2.3c0,3.2-0.5,6.4-1.3,9.3l0.8,0.2
			c1.9,0.6,3.9,1.3,3.9,1.3l0.2,1.3l0.1,0.5c0.1,0.7,0.3,1.5,0.4,2.3l0.6,4.1l1.2,0.4c0.5,0.2,1.2,0.4,1.8,0.7l0.8,0.3l3.2,1.2
			C407,299.6,407.7,298.7,407.7,298.7"/>
		<path class="st0" d="M375.8,352.6c3-1,6.4-2.2,9.2-3.2c0.2-1.9,0.4-3.7,0.4-3.7l-1.1-0.7l-0.2-0.2c-0.6-0.4-1.4-0.9-2.1-1.4
			l-3.5-2.2l0.1-1.3c0-0.6,0.1-1.3,0.1-2.1l0-0.8l0.2-4.2l-1.1-0.6l-2.5-1.4l-1-0.6l-8.2,5.3l-0.1,1.6l0.3,0.2
			c0.2,0.1,0.5,0.3,0.8,0.5l2.4,1.6l2.4,1.6c0.7,0.4,1.1,0.7,1.1,0.7l-0.4,4.3c-0.2,2.1-0.4,4.2-0.4,4.2L375.8,352.6
			C375.8,352.6,375.8,352.6,375.8,352.6"/>
		<path class="st0" d="M412.6,259.3l0.4,1.2l4.1,0.6l4.1,0.7l0.4,1.3c0.3,0.8,0.6,1.8,0.9,2.7l1.2,4l1.2,0.2l0.9,0.2
			c0.7-1.2,1.3-2.4,1.8-3.4l1.1-2.2c1.2-2.3,0.2-5.8-2.3-7.8l-5.1-3.9c-2.5-1.9-5.6-2.3-7-1l-1.3,1.2c-0.6,0.6-1.3,1.3-2.1,2
			l0.6,1.6C412,257.7,412.4,258.8,412.6,259.3"/>
		<path class="st0" d="M443,287.8c0.5-1.9,0.8-3.6,1.1-5.2c0.5-3.2,0.6-3.6,0.6-3.6c0.6-3.1-0.8-7.3-3.1-9.4
			c-2.3-2.1-4.2-3.7-4.2-3.7c-2.4-2-5.2-2-6.3,0.1l-1,2c-0.4,0.9-0.9,1.8-1.5,2.8l3.1,0.7l0.4,1.3l0.7,2.8l0.7,2.7l0.3,1.3l4,1
			c1.2,0.3,2.1,0.6,2.7,0.8l1.2,0.4l0.9,4.1L443,287.8z"/>
		<path class="st0" d="M344.9,345c-0.6-0.4-1.3-0.7-1.8-1c-0.3-0.1-1.8-1-1.8-1l0-1.3c0-0.2,0-0.5,0-0.7c0-0.7,0-1.4-0.1-2.2
			l-0.2-4.2c0,0-1.9-0.9-3.8-1.8l-2.5-1.1l-3.2,3.2l0,0l4,1.6l0.2,1.3l0.3,2.9l0.3,2.9c0.1,0.7,0.1,1.1,0.1,1.3l3.8,1.8
			c0.6,0.3,1.1,0.5,1.6,0.8l3.3-2.3L344.9,345z"/>
		<path class="st0" d="M447.2,260.3l0.3,2.9l0.3,2.7c0-0.1,0.1-0.2,0.1-0.3c0.8-2.5,2.7-9.3,0.5-11.5l-2-2c-2.2-2.2-5.3-2.4-6.8-0.5
			c-0.5,0.7-0.6,2.4-0.4,4.4l1.1,0.4l1.3,0.5l1.4,0.6l4,1.6L447.2,260.3z"/>
		<path class="st0" d="M437,247.5c0.5-2.2,0.5-4.3-0.6-5.4l-2-2c-1.9-1.9-4.7-2.3-6.7-1.1l0.6,2.2l0.8,2.8c0.3,1.3,0.3,1.3,0.3,1.3
			l4,1.1l1.5,0.4l1.3,0.4L437,247.5z"/>
		<path class="st0" d="M445.5,267.8l-0.3-2.8l-0.3-2.9l-0.2-1.3l-4.4-1.7l-0.7-0.3c0.6,3.4,1.7,6.8,2.9,7.8
			C443.5,267.5,444.5,267.9,445.5,267.8C445.5,267.8,445.5,267.8,445.5,267.8"/>
		<path class="st0" d="M416.3,228.6l0.3,0.6c0.2,0.6,0.5,1.3,0.8,2.1l1.4,4l1.3,0.2c0.6,0.1,1.4,0.3,2.3,0.5l0.6,0.1l2.6,0.6
			c1.1-2,0.8-4.8-1.1-6.6l-2-2c-2.1-2.1-5.6-2.4-8.1-0.9l0.2,0l1.3,0.2L416.3,228.6z"/>
		<path class="st0" d="M332.8,326.9l-0.3-2.9l-0.2-1.3l-4.4-1.7l-1-0.4l-1.3-0.4l-1.2-0.4l-0.7-4.1l-0.7-3.5
			c-1.9,3.5-3.9,6.8-5.6,9.4c0.3,1.2,0.3,1.2,0.3,1.2l4,1.1l1.5,0.4l1.3,0.4l1.3,0.4l0.9,4.2l0.7,4.2l1,0.4c1.3-1.4,2.9-2.9,4.6-4.7
			L332.8,326.9z"/>
		<path class="st0" d="M360.3,351.9c-1.2-2.8-6.9-8.8-9.6-7.2l-0.5,0.4l0.8,0.5l0,1.4c0,0.7,0,1.8-0.1,2.8l-0.1,4.4l0.3,0.2
			c0.2,0.1,0.5,0.3,0.8,0.5l2.4,1.6l2.4,1.6c0.7,0.4,1.1,0.7,1.1,0.7l0,0.1C360.3,357.4,361.4,354.5,360.3,351.9"/>
		<path class="st0" d="M328.2,350.4c2.2,2.2,6,2.5,8.5,0.6l2.7-1.9c-0.5-0.2-1.1-0.5-1.6-0.7l-3.8-1.7l0-0.1c0-0.1,0-0.6-0.1-1.3
			l-0.3-2.8l-0.3-2.9l-0.2-1.3l-3.6-1.4l-3.3,3.4c-2.2,2.2-2.2,5.9,0,8.1L328.2,350.4z"/>
		<path class="st0" d="M410.3,216.1c-2.2-2.2-6.4-3.1-9.3-2l-6.7,2.8l0.9,1.6l1.3,0l1.4,0l1.5,0l4.3,0.2l0.2,0.3
			c0.1,0.2,0.3,0.5,0.4,0.9l1.3,2.6l1.2,2.6c0.3,0.7,0.5,1.2,0.5,1.2l2.4,0.3l1.9-1.2c2.5-1.8,2.8-5.1,0.6-7.3L410.3,216.1z"/>
		<path class="st0" d="M343.8,359.5c-0.3-0.1-1.9-1-1.9-1l0-1.3c0-0.2,0-0.5,0-0.7c0-0.7,0-1.4-0.1-2.2l-0.2-3.4l-2.9,2
			c-2.5,1.9-2.7,5.2-0.5,7.4l2,2c2.2,2.2,6.2,2.6,8.8,1l0.3-0.1l0-0.7l-3.6-2C345,360.1,344.4,359.8,343.8,359.5"/>
		<path class="st0" d="M316.1,338.3c2.2,2.2,5.8,2.2,8,0c0,0,0.9-0.9,2.4-2.5l-0.1,0l-1.2-0.4l-0.7-4.1l-0.8-4.1l-1.2-0.4l-1.3-0.4
			l-1.5-0.4c0,0-4-1.1-4-1.1c0,0,0-0.2-0.1-0.4c-1.3,2-2.2,3.2-2.2,3.2c-1.8,2.5-1.5,6.4,0.7,8.6L316.1,338.3z"/>
		<path class="st0" d="M304.1,326.3c2.2,2.2,5.5,1.9,7.3-0.6c0,0,1.3-1.9,3.3-4.9l0,0l-0.8-2.8c-0.2-0.8-0.4-1.3-0.4-1.3l-4.7-1
			c-0.8-0.2-1.6-0.3-2.3-0.4l-1.3-0.2l0,0l-1.4-3.9c-0.2-0.7-0.5-1.4-0.7-2c-1.5,3.7-2.6,6.1-2.6,6.1c-1.4,2.8-0.7,6.9,1.5,9.1
			L304.1,326.3z"/>
		<path class="st0" d="M398.4,263.4l-1.7-0.3l-2.7-0.4v4.4c0.6-0.3,1.2-0.6,1.6-1.1C395.6,266.1,396.7,265,398.4,263.4"/>
		<path class="st0" d="M419.9,280.5c1.4-2.4,3.1-5.3,4.6-8l-1.6-0.3l-1.3-0.2l-1.2-3.9c-0.3-1-0.6-1.9-0.8-2.7l-0.4-1.2l-4-0.7
			l-4.1-0.6l-0.4-1.2c-0.2-0.7-0.6-1.6-0.9-2.7l-0.7-1.9c-2,2-4.2,4.1-6,5.9l0.9,2.7c0.3,1,0.6,1.9,0.8,2.7l0.4,1.2l4,0.8l4,0.9
			l0.4,1.3l0.1,0.4c0.2,0.7,0.4,1.5,0.6,2.3l1,4l1.2,0.3c0.5,0.1,1.2,0.3,1.9,0.5l0.9,0.2L419.9,280.5z"/>
		<path class="st0" d="M371.7,328.5l0-3.9c0-1,0-2.1-0.1-2.9l0-1.3l-3.7-1.8l-3.8-1.8l-0.1-1.4c0-0.7-0.1-1.5-0.2-2.4
			c-1.3,0.1-2.6,0.2-3.9,0.2c-2.3,0-4.6-0.2-6.7-0.7l-0.6,0.7l2,1c1.9,0.9,3.8,1.8,3.8,1.8l0.3,4.3c0,0.8,0.1,1.5,0.1,2.2
			c0,0.3,0,2,0,2l1.1,0.6c0.2,0.1,0.4,0.2,0.7,0.4c0.6,0.3,1.2,0.7,1.9,1l3.7,2.1l0,1.4c0,0.6,0,1.3,0,2.1L371.7,328.5z"/>
		<path class="st0" d="M316.1,272l1.3,0.2l1.3,0.2l0.5,1.3l0.3,0.6c0.2,0.6,0.5,1.3,0.8,2.1l1.4,4l1.3,0.2c0.6,0.1,1.4,0.3,2.3,0.5
			l0.6,0.1l0.2,0.1c0-0.7-0.1-1.3-0.1-2V275c-0.3-0.8-1.2-3.2-1.4-3.6c-0.8-1.9-1.6-3.8-1.6-3.8l-1.4-0.1l-1.2-0.1l-1.5-0.1
			l-3.1-0.2l-1.9,4.7l0.6,0.1L316.1,272z"/>
		<path class="st0" d="M334.8,322.3l0.3,2.9l0.2,1.6c1.2-1.2,2.4-2.4,3.6-3.7l1.1-1.1c1.3-1.3,0.8-4.5-1-7l-6.9-8.9
			c-2-2.4-4.8-2.1-6.3,0.6c0,0-0.1,0.2-1.4,2.6c0,0,0,0,0,0l0.6,0.2l0.9,4.2l0.7,4.2l1.2,0.4l1.3,0.5l1.4,0.6l4,1.6L334.8,322.3z"/>
		<path class="st0" d="M400.6,261.3c2-1.9,4.4-4.2,6.6-6.4l-0.1,0l-2.8-0.3l-4.1-0.4c0,0-0.8-2-1.6-3.8l-1.1-2.6l-0.5-1.2l-2.9-0.2
			v12.7l0.5,1.2l4,0.6L400.6,261.3z"/>
		<path class="st0" d="M321.7,308.6c0.1-0.2,0.2-0.3,0.2-0.5c1.4-2.7,1.9-3.6,1.9-3.6c1.5-2.8,0.9-6.8-1.3-9.1l-8.2-7.9
			c-2.3-2.1-4.8-1.3-5.5,1.7c0,0-0.3,1.2-1,4.4c-0.3,1.3-0.6,2.5-0.9,3.7l0.7,0.1c0.6,0.1,1.4,0.3,2.3,0.5l0.6,0.1l4.2,0.9
			c0,0,0.2,0.5,0.4,1.3l0.8,2.8l0.8,2.8c0.3,1.3,0.3,1.3,0.3,1.3l4,1.1L321.7,308.6z"/>
		<path class="st0" d="M409.4,252.6c0.6-0.6,1.2-1.1,1.7-1.6l1.1-1.1c1.2-1.2,0.1-3.6-2.5-5.3l-7-4.6c-2.6-1.7-5.4-2.7-6.1-2.4
			l-0.6,0.3c-0.6,0.3-1.3,0.7-2,1v4.9c0.2,0,0.3,0,0.5,0l4.1,0.3l0.6,1.2l1.1,2.6l1.6,3.8c0,0,2,0.2,4.1,0.4l2.8,0.3L409.4,252.6z"
			/>
		<path class="st0" d="M370.2,354.5l2.7-0.9c0,0,0,0,0,0l-3.2-2.3c0,0,0.3-2.1,0.4-4.2l0.4-4.2c0,0-0.4-0.3-1.1-0.7l-2.4-1.6
			l-2.4-1.5c-0.3-0.2-0.6-0.4-0.8-0.5l-0.3-0.2l0-1.3l-0.8,0.5c-2.7,1.6-3.8,5.2-2.4,8l2.5,5.4C364.1,353.8,367.4,355.4,370.2,354.5
			"/>
		<path class="st0" d="M363.7,333.6c0-0.8,0.1-1.7,0.1-2.3l0-1.3l-3.6-2c-0.6-0.4-1.3-0.7-1.8-1c-0.3-0.1-1.9-1-1.9-1l0-1.3
			c0-0.2,0-0.5,0-0.7c0-0.7,0-1.4-0.1-2.2l-0.2-4.2c0,0-1.9-0.9-3.8-1.8l-1.6-0.7l-0.8,0.9c-2.2,2.2-2.8,5.8-1.5,7.9l1.2,2
			c2.4,4,4.2,7.2,4.2,7.2c1.5,2.7,4.9,3.7,7.6,2.1L363.7,333.6z"/>
		<path class="st0" d="M394,197.7v7.9c1.5-1,3.1-2.1,4.7-3.2L394,197.7z"/>
		<path class="st0" d="M324.2,222.5c0,0.8,0.1,1.5,0.1,2.2c0,0.3,0.1,2,0.1,2l1.1,0.6c0.1,0.1,0.3,0.2,0.5,0.3v-9.9l-2,1.4
			L324.2,222.5z"/>
		<path class="st0" d="M320,195.8l-3.6,3.7l3,1.4c1.9,0.9,3.8,1.8,3.8,1.8l0.3,4.3c0,0.8,0.1,1.5,0.1,2.2c0,0.3,0.1,2,0.1,2l1.1,0.6
			c0.2,0.1,0.4,0.2,0.7,0.4c0.2,0.1,0.4,0.2,0.6,0.3v-17.1C324.2,193.9,321.8,194,320,195.8"/>
		<path class="st0" d="M323,213.7c-0.3-0.1-1.8-1-1.8-1l0-1.3c0-0.2,0-0.5,0-0.7c0-0.7,0-1.4-0.1-2.2l-0.2-4.2c0,0-1.9-0.9-3.8-1.8
			l-2.5-1.1l-3.2,3.2l0,0l4,1.6l0.2,1.3l0.3,2.9l0.3,2.9c0.1,0.7,0.1,1.1,0.1,1.3l3.8,1.8c0.6,0.3,1.1,0.5,1.6,0.8l3.3-2.3l-0.3-0.2
			C324.2,214.3,323.5,214,323,213.7"/>
		<path class="st0" d="M306.1,210c-2.2,2.2-2.2,5.9,0,8.1l2,2c2.2,2.2,6,2.5,8.5,0.6l2.7-1.9c-0.5-0.2-1.1-0.5-1.6-0.7l-3.8-1.7
			l0-0.1c0-0.1,0-0.6-0.1-1.3l-0.3-2.9l-0.3-2.9L313,208l-3.6-1.4L306.1,210z"/>
		<path class="st0" d="M323.8,229.2c-0.3-0.1-1.9-1-1.9-1l0-1.3c0-0.2,0-0.5,0-0.7c0-0.7,0-1.4-0.1-2.2l-0.2-3.4l-2.9,2
			c-2.5,1.9-2.7,5.2-0.5,7.4l2,2c1.5,1.5,3.7,2.1,5.8,1.9v-3.6l-0.4-0.2C325,229.8,324.3,229.5,323.8,229.2"/>
		<path class="st0" d="M360,381.3c1.3,0,2.5,0,3.8-0.1l-0.4-0.8c-0.1-0.2-0.2-0.4-0.4-0.7c-0.8-1.5-1.6-2.9-1.6-2.9l-1.3,0l-1.3,0
			l-1.5,0.1l-4.1,0.2c-0.1-0.1-0.3-0.5-0.7-1.1l-1.5-2.4l-0.1-0.1c-0.3,0.2-0.5,0.5-0.8,0.8c-0.3,0.3-0.7,0.6-1,1
			c-1,1-1.9,2-2.6,2.8l1.2,2.1c0.1,0.1,0.1,0.2,0.2,0.3C352,381,356,381.3,360,381.3"/>
		<path class="st0" d="M283.4,330.9l-0.4-0.8l-0.4-0.6c-0.2-0.4-0.5-0.9-0.8-1.4l-9.1,3.8c1.3,2.1,2.6,4.2,4.1,6.2l6,3.1
			c2.7,1.5,7.2,1.6,10,0.1l3.6-2.3l-0.8-0.1l0-0.1c-0.1-0.1-0.3-0.6-0.5-1.2l-1.2-2.6l-1.2-2.6c-0.2-0.4-0.3-0.7-0.4-0.9l-0.2-0.3
			l-4.2-0.1l-1.5,0l-1.3,0l-1.3,0c0,0,0,0,0,0C283.6,331.2,283.5,331.1,283.4,330.9"/>
		<path class="st0" d="M302.4,339.7l-1.2-0.2l-0.3,0l-5.3,3.5c-2.7,1.5-2.8,4-0.2,5.7l6.2,4.1c2.6,1.8,6.5,1.4,8.7-0.8
			c0,0,1.4-1.4,3-3l-3.1-0.7c-0.8-0.2-1.6-0.3-2.3-0.4l-1.3-0.2l0,0l-1.4-3.9c-0.3-0.7-0.5-1.4-0.8-2l-0.7-1.9L302.4,339.7z"/>
		<path class="st0" d="M316.7,356.2l-0.7-2.8l-0.4-1.4c-0.8,3.8-0.1,10.9,1.9,12.5c2.4,1.9,5.6,1.6,7-0.7c0.3-0.5,0.7-1.2,1-2
			l-0.4-1.9l-1.2-0.4l-1.3-0.4l-1.5-0.4c0,0-4-1.1-4-1.1C317,357.5,316.8,356.5,316.7,356.2"/>
		<path class="st0" d="M302.8,363.3c-0.1,0.1-0.2,0.2-0.3,0.3c5.1,3.5,10.6,6.5,16.3,9.1c0-2-1-4.2-2.7-5.6l-5.1-3.9
			c-2.5-1.9-5.6-2.3-7-1l0,0C304,362.1,303.8,362.4,302.8,363.3"/>
		<path class="st0" d="M326.3,375.5c-0.8-0.5-1.7-0.8-2.5-0.9C324.7,375,325.5,375.3,326.3,375.5"/>
		<path class="st0" d="M336.2,362.4c-2.2-2.2-5.3-2.4-6.8-0.5c-0.5,0.7-0.6,2.4-0.4,4.4l1.1,0.4l1.3,0.5l1.4,0.6l4,1.6l0.2,1.3
			l0.3,2.9l0.3,2.7c0-0.1,0.1-0.2,0.1-0.3c0.8-2.5,2.7-9.3,0.5-11.5L336.2,362.4z"/>
		<path class="st0" d="M324.2,350.4c-1.9-1.9-4.7-2.3-6.7-1.1l0.6,2.2l0.8,2.8c0.3,1.3,0.3,1.3,0.3,1.3l4,1.1l1.5,0.4l1.3,0.4
			l0.8,0.3c0.5-2.2,0.5-4.3-0.6-5.4L324.2,350.4z"/>
		<path class="st0" d="M335.2,378l-0.3-2.8l-0.3-2.9l-0.2-1.3l-4.4-1.7l-0.7-0.3c0.6,3.4,1.7,6.8,2.9,7.8c0.5,0.4,1,0.7,1.5,1
			c0.3,0.1,0.6,0.2,1,0.3C334.8,378.1,335,378.1,335.2,378C335.2,378.1,335.2,378,335.2,378"/>
		<path class="st0" d="M312.1,338.3c-2.1-2.1-5.6-2.4-8.1-0.9l0.2,0l1.3,0.2l0.5,1.3l0.3,0.6c0.2,0.6,0.5,1.3,0.8,2.1l1.4,4l1.3,0.2
			c0.6,0.1,1.4,0.3,2.3,0.5l0.6,0.1l2.6,0.6c1.1-2,0.8-4.8-1.1-6.6L312.1,338.3z"/>
		<path class="st0" d="M300.1,326.3c-2.2-2.2-6.4-3.1-9.3-2l-6.7,2.8l0.9,1.6l1.3,0l1.4,0l1.5,0l4.3,0.2l0.2,0.3
			c0.1,0.2,0.3,0.5,0.4,0.9l1.3,2.6l1.2,2.6c0.3,0.7,0.5,1.2,0.5,1.2l2.4,0.3l1.9-1.2c2.5-1.8,2.8-5.1,0.6-7.3L300.1,326.3z"/>
		<path class="st0" d="M280.7,343.3c0.3,0.4,0.6,0.8,0.9,1.1C281.4,344.1,281.1,343.7,280.7,343.3"/>
		<path class="st0" d="M286.4,347.8l-0.6,0.3c-0.2,0.1-0.4,0.2-0.7,0.3c4.6,4.9,9.6,9.4,15.1,13.4c0.2-0.2,0.4-0.4,0.6-0.6l1.1-1.1
			c1.2-1.2,0.1-3.6-2.5-5.3l-7-4.6C289.8,348.5,287.1,347.5,286.4,347.8"/>
		<path class="st0" d="M258.5,289.8c0.2,2.1,0.5,4.1,0.8,6.1c0.4-0.2,0.8-0.4,1.1-0.7c0,0,1.5-1.2,3.6-3l-2.4-1l-0.8-0.3
			c-0.7-0.3-1.3-0.6-1.8-0.8L258.5,289.8z"/>
		<path class="st0" d="M288.5,312.7L288.5,312.7c0.4-0.3,0.7-0.5,1.1-0.8l0-1.4l0-0.7c0-0.8,0-1.5,0-2.1l0-1.3l-3.6-1.9
			c-0.7-0.4-1.5-0.8-2.1-1.1c0,0-1.5-0.7-1.5-0.8c0,0,0-2.1-0.1-4.1l-0.2-4.1l-1.1-0.5c-0.6-0.3-1.4-0.6-2.6-1.2l-3.7-1.6l0,0
			l-0.1-1.3l-0.3-2.8l0-0.5c-0.5,0.6-1.1,1.1-1.7,1.7c-1.4,1.4-3,2.8-4.4,4.1l0,0c-0.1,0.1-0.2,0.1-0.2,0.2l0.2,3l0.1,2.7l0,1.3
			l3.7,1.8c0.9,0.5,1.9,1,2.5,1.3l1.1,0.6l0,4.2c-0.1,2-0.1,4-0.1,4.1c0.1,0,0.3,0.2,1.1,0.6c0.7,0.4,1.6,0.9,2.5,1.4l3.5,2.2l0,0.8
			C284.5,315.5,286.5,314.1,288.5,312.7"/>
		<path class="st0" d="M265.8,301l0-1.3l-0.1-2.8l-0.1-2.3c-2.1,1.8-3.6,3-3.6,3c-0.8,0.7-1.4,1.5-1.8,2.5c0.7,3.5,1.7,6.9,2.7,10.3
			l4.5,8.1c1.4,2.8,4.9,3.9,7.6,2.4c0,0,2.1-1.1,5-2.8l0.1-1l-3.5-2.1c-0.9-0.6-1.9-1.1-2.4-1.4c0,0-1.1-0.6-1.1-0.6l0.1-4.1l0-4.1
			l-1.1-0.6c-0.6-0.4-1.5-0.8-2.5-1.3L265.8,301z"/>
		<path class="st0" d="M266.1,290.3L266.1,290.3c1.4-1.3,3-2.7,4.4-4.1c1.2-1.2,2.3-2.3,3.2-3.4l-4.5-1.7c-0.7-0.3-1.3-0.5-1.8-0.7
			l-1.2-0.4l-0.6-4.1c-0.1-0.8-0.3-1.7-0.4-2.3l-0.3-1.7c0,0-1.5-0.5-3.2-1c-0.2-0.1-0.5-0.2-0.7-0.2l-3.1-0.9v9.3l1.4,0.5l0.2,1.3
			l0,0.3c0.1,0.7,0.2,1.6,0.3,2.6l0,0.3l0.4,3.8l1.2,0.5c0.5,0.2,1.2,0.5,1.9,0.8l0.7,0.3L266.1,290.3
			C266.1,290.4,266.1,290.4,266.1,290.3"/>
		<path class="st0" d="M394,113.3c2.3,0.5,4.8-0.1,6.5-1.7c0,0,1.4-1.4,3-3l-3.1-0.7c-0.8-0.2-1.6-0.3-2.3-0.4l-1.3-0.2l0,0
			l-0.3-0.9H394V113.3z"/>
		<path class="st0" d="M326,108.2v-1.9h-1.8C324.4,107,325,107.6,326,108.2"/>
		<path class="st0" d="M404.9,106.3l0.5,0.1c0,0,0-0.1,0.1-0.1H404.9z"/>
		<path class="st0" d="M313.5,110.9c0,0-0.2,0.2-0.7,0.5l1,1.5c0.5,0.7,0.6,1,0.7,1.1l4.1-0.2l1.5-0.1l1.3,0l1.3,0
			c0,0,1.1,1.9,2,3.6l1.2,2.3v-8l-2.8-1.6C320.4,108.7,316.1,109,313.5,110.9"/>
		<path class="st0" d="M272.7,211.1l3.6-2.3l-0.8-0.1l0-0.1c-0.1-0.1-0.3-0.6-0.5-1.2l-1.2-2.6l-1.2-2.6c-0.2-0.4-0.3-0.7-0.4-0.9
			l-0.2-0.3l-4.2-0.1l-1.5,0l-1.3,0l-1.3,0c0,0,0,0,0,0c0,0-0.1-0.1-0.2-0.4l-0.4-0.8l-0.4-0.6c-0.2-0.4-0.5-0.9-0.8-1.4l-3.8,1.6
			v9.1l4.7,2.5C265.4,212.5,269.9,212.5,272.7,211.1"/>
		<path class="st0" d="M290.2,221.8c0,0,1.4-1.4,3-3l-3.1-0.7c-0.8-0.2-1.6-0.3-2.3-0.4l-1.3-0.2l0,0l-1.4-3.9
			c-0.3-0.7-0.5-1.4-0.8-2l-0.7-1.9l-1.4-0.2l-1.2-0.2l-0.3,0l-5.3,3.5c-2.7,1.5-2.8,4-0.2,5.7l6.2,4.1
			C284.1,224.3,288,224,290.2,221.8"/>
		<path class="st0" d="M294.1,210l-2-2c-2.1-2.1-5.6-2.4-8.1-0.9l0.2,0l1.3,0.2l0.5,1.3l0.3,0.6c0.2,0.6,0.5,1.3,0.8,2.1l1.4,4
			l1.3,0.2c0.6,0.1,1.4,0.3,2.3,0.5l0.6,0.1l2.6,0.6C296.3,214.6,295.9,211.9,294.1,210"/>
		<path class="st0" d="M282.1,198l-2-2c-2.2-2.2-6.4-3.1-9.3-2l-6.7,2.8l0.9,1.6l1.3,0l1.4,0l1.5,0l4.3,0.2l0.2,0.3
			c0.1,0.2,0.3,0.5,0.4,0.9l1.3,2.6l1.2,2.6c0.3,0.7,0.5,1.2,0.5,1.2l2.4,0.3l1.9-1.2C284,203.5,284.3,200.2,282.1,198"/>
		<path class="st0" d="M259.8,212.5l-1.8-0.9v7.2l1.7-1C262.5,216.3,262.5,214,259.8,212.5"/>
		<path class="st0" d="M265.4,246c0,0,1.1-1,2.7-2.6l-1.7-0.3l-4-0.6c0,0-0.2-0.5-0.5-1.2l-1-2.6l-1-2.7l-0.5-1.2l-1.5-0.1V247
			C260.3,248.3,263.4,247.9,265.4,246"/>
		<path class="st0" d="M276.9,234.8L276.9,234.8l-2.9-0.3l-4.1-0.4c0,0-0.8-2-1.6-3.8l-1.1-2.6l-0.5-1.2l-4.1-0.2
			c-0.9-0.1-2-0.1-2.8-0.1l-1.3,0l0,0l-0.6-1.1v7.3l3.3,0.4l0.5,1.2l1,2.7l1.4,3.9l4,0.6l2.1,0.3C272.3,239.3,274.6,237,276.9,234.8
			"/>
		<path class="st0" d="M280.8,231l1.1-1.1c1.2-1.2,0.1-3.6-2.5-5.3l-7-4.6c-2.6-1.7-5.4-2.7-6.1-2.4l-0.6,0.3c-2,1-4.4,2.3-6.7,3.6
			l1.1,2.2l1.3,0c0.9,0,1.9,0.1,2.8,0.1l4.1,0.3l0.6,1.2l1.1,2.6l1.6,3.8c0,0,2,0.2,4.1,0.4l2.8,0.3l0.6,0.1
			C279.7,232,280.3,231.5,280.8,231"/>
		<path class="st0" d="M309.1,114.8c-1,1-1.9,2-2.6,2.8l1.2,2.1c0.2,0.3,0.3,0.5,0.4,0.7l0.3,0.5l4.1-0.1l1.5,0l1.3,0l1.3,0
			c0,0,1,1.9,1.9,3.7l1.8,3.8l1.3,0.1c0.8,0,1.9,0.1,2.8,0.2l0.4,0l0,0l1.1,0.1v-5.2l-0.9,0l0-0.1l-1.9-3.6c-0.9-1.8-2-3.6-2-3.6
			l-1.3,0l-1.3,0l-1.5,0.1l-4.1,0.2c-0.1-0.1-0.3-0.5-0.7-1.1l-1.5-2.4l-0.1-0.1c-0.3,0.2-0.5,0.5-0.8,0.8
			C309.8,114.1,309.5,114.5,309.1,114.8"/>
		<path class="st0" d="M304.9,119.8l-0.1-0.1c-0.2,0.3-0.3,0.4-0.3,0.4c-1.8,2.6-1.1,6,1.5,7.7l14.3,10.1c1.6,1.2,3.7,1.5,5.6,0.9
			v-7.6l-3.1-0.3c-0.9-0.1-2-0.2-2.8-0.2l-1.3-0.1l0-0.1l-1.7-3.7c-0.9-1.8-1.8-3.7-1.8-3.7l-1.3,0l-1.3,0l-1.5,0l-4.1,0.1l0-0.1
			l-0.2-0.3l-0.1-0.1c-0.1-0.2-0.2-0.4-0.4-0.7L304.9,119.8z"/>
		<path class="st0" d="M297.5,132.4l-0.8,2c0.2,0,0.6,0,1.2,0.1l2.5,0.2l1.6,0.1l1.3,0.1l1.3,0.1c0,0,0.9,2,1.7,3.9l1.5,3.9
			c0,0,0.1,0,0.4,0l0.9,0.1c0.8,0.1,1.8,0.3,2.8,0.5l4.2,0.7c0,0,0.2,0.5,0.4,1.3l0.9,2.8l0.7,2.4l1.6-2.4c1.8-2.5,1.2-6.2-1.2-8.1
			l-14-9.8C301.9,128.6,298.8,129.5,297.5,132.4"/>
		<path class="st0" d="M320.3,152.6l2.4,0.6l1.5,0.4l1.3,0.4l0.5,0.1v-6.1c-1.5,0-3,0.7-4,2.2L320.3,152.6z"/>
		<path class="st0" d="M326,174.9l-2.8-1.1l-1-0.4l-1.3-0.4l-1.2-0.4l-0.7-4.1l-0.8-4.1l-1.2-0.4l-1.3-0.4l-1.5-0.4
			c0,0-0.3-0.1-0.7-0.2l-0.7,1.1c-1.6,2.7-1.2,6.9,0.8,9.3l7.4,9.5c1.3,1.7,3.2,2.4,5,1.9V174.9z"/>
		<path class="st0" d="M300.5,180.6l-0.1,0l-1.5-0.4c0,0-4-1.1-4-1.1c0,0-0.3-1-0.3-1.3l-0.7-2.8l-0.8-2.8c-0.2-0.8-0.4-1.3-0.4-1.3
			l-4.6-1c-0.6-0.1-1.2-0.2-1.7-0.3c-0.6,2-1.2,4-1.9,5.7l0.2,0.6l0.3,0.6c0.2,0.6,0.5,1.3,0.8,2.1l1.4,4l1.3,0.2
			c0.6,0.1,1.4,0.3,2.3,0.5l0.6,0.1l4.2,0.9c0,0,0.2,0.5,0.4,1.3l0.6,2C297.7,185.5,299.1,183.1,300.5,180.6"/>
		<path class="st0" d="M310.5,162.1c-0.2-0.1-0.4-0.1-0.4-0.1c0,0-0.3-1-0.3-1.3l-0.7-2.8l-0.8-2.8c-0.2-0.8-0.4-1.3-0.4-1.3l-4.6-1
			c-0.8-0.2-1.6-0.3-2.3-0.4l-1.3-0.2l0,0l-1.4-3.9c-0.3-0.7-0.5-1.4-0.8-2l-0.3-0.7l-0.5-1.2l-1.4-0.2l-1.2-0.2l-1.3-0.1l-0.5,1.1
			c-0.9,3,0.3,7.1,2.6,9.2l8.8,8.4C306,164.7,308.9,164.5,310.5,162.1"/>
		<path class="st0" d="M313,198.9l-0.2-2.3l-0.3-2.9l-0.2-1.3l-4.4-1.7l-1-0.4l-1.3-0.4l-1.2-0.4l-0.7-4.1l-0.7-3.5
			c-1.9,3.5-3.9,6.8-5.6,9.4c0.3,1.2,0.3,1.2,0.3,1.2l4,1.1l1.5,0.4l1.3,0.4l1.3,0.4l0.9,4.2l0.7,4.2l1,0.3
			C309.8,202.2,311.3,200.6,313,198.9"/>
		<path class="st0" d="M304.1,208c0,0,0.9-0.9,2.4-2.5l-0.1,0l-1.2-0.4l-0.7-4.1l-0.8-4.1l-1.2-0.4l-1.3-0.4l-1.5-0.4
			c0,0-4-1.1-4-1.1c0,0,0-0.2-0.1-0.4c-1.3,2-2.2,3.2-2.2,3.2c-1.8,2.5-1.5,6.4,0.7,8.6l2,2C298.3,210.2,301.9,210.2,304.1,208"/>
		<path class="st0" d="M291.3,195.4c0,0,1.3-1.9,3.3-4.9l0,0l-0.8-2.8c-0.2-0.8-0.4-1.3-0.4-1.3l-4.6-1c-0.8-0.2-1.6-0.3-2.3-0.4
			l-1.3-0.2l0,0l-1.4-3.9c-0.2-0.7-0.5-1.4-0.7-2c-1.5,3.7-2.6,6.1-2.6,6.1c-1.4,2.8-0.7,6.9,1.5,9.1l2,2
			C286.3,198.2,289.5,197.9,291.3,195.4"/>
		<path class="st0" d="M316.3,153l-0.8-2.7l-0.9-2.7c-0.2-0.7-0.4-1.2-0.4-1.2l-4.2-0.7c-1-0.2-1.9-0.3-2.7-0.4l-1.3-0.2
			c0,0-1.3-3.4-1.5-3.9c-0.8-1.9-1.6-3.8-1.6-3.8l-1.4-0.1l-1.2-0.1l-1.5-0.1l-3.1-0.2l-1.9,4.7l0.6,0.1l1.6,0.2l1.3,0.2l1.3,0.2
			l0.5,1.3l0.3,0.6c0.2,0.6,0.5,1.3,0.8,2.1l1.4,4l1.3,0.2c0.6,0.1,1.4,0.3,2.3,0.5l0.6,0.1l4.2,0.9c0,0,0.2,0.5,0.4,1.3l0.8,2.8
			l0.8,2.8c0.1,0.5,0.2,0.8,0.2,1l4.3-6.4C316.4,153.2,316.4,153.1,316.3,153"/>
		<path class="st0" d="M318.9,192.9l1.1-1.2c1.3-1.3,0.8-4.5-1-7l-6.9-8.9c-2-2.4-4.8-2.1-6.3,0.6c0,0-0.1,0.2-1.4,2.6c0,0,0,0,0,0
			l0.6,0.2l0.9,4.2l0.7,4.2l1.2,0.4l1.3,0.5l1.4,0.6l4,1.6l0.2,1.3l0.3,2.9l0.2,1.6C316.5,195.4,317.7,194.1,318.9,192.9"/>
		<path class="st0" d="M326,161.5c-0.1-0.4-0.2-0.8-0.3-1.3l-1-4l-1.2-0.3l-1.3-0.3l-1.5-0.4l-1.9-0.4l-3.9,6l1.3,0.4l1.5,0.4
			l1.3,0.4l1.3,0.4l0.9,4.2l0.7,4.2l1.2,0.4l1.3,0.5l1.4,0.6l0.1,0.1V161.5z"/>
		<path class="st0" d="M302.5,165.2l-8.2-7.9c-2.3-2.1-4.8-1.3-5.5,1.7c0,0-0.3,1.2-1,4.4c-0.3,1.3-0.6,2.5-0.9,3.7l0.7,0.1
			c0.6,0.1,1.4,0.3,2.3,0.5l0.6,0.1l4.2,0.9c0,0,0.2,0.5,0.4,1.3l0.8,2.8l0.8,2.8c0.3,1.3,0.3,1.3,0.3,1.3l4,1.1l0.7,0.2
			c0.1-0.2,0.2-0.3,0.2-0.5c1.4-2.7,1.9-3.6,1.9-3.6C305.3,171.5,304.7,167.4,302.5,165.2"/>
		<path class="st0" d="M237.5,155.1c-0.1-0.9-0.2-1.9-0.3-2.6l-0.2-1.5l-3.8-1.4l-3.9-1.4l-0.2-1.3c-0.1-0.8-0.3-1.8-0.4-2.8
			l-0.7-4.1l-1.2-0.4l-1.3-0.4c-0.6,0.6-1.1,1.1-1.5,1.5v10.8c4.5,5.8,8.8,12.1,8.8,12.1c1.8,2.6,5.2,3.1,7.6,1.1c0,0,1.5-1.2,3.6-3
			l-2.4-1l-0.8-0.3c-0.7-0.3-1.3-0.6-1.8-0.8l-1.2-0.5l0,0L237.5,155.1z"/>
		<path class="st0" d="M269.6,180.2l0-0.7c0-0.8,0-1.5,0-2.1l0-1.3l-3.6-1.9c-0.7-0.4-1.5-0.8-2.1-1.1c0,0-1.5-0.7-1.5-0.8
			c0,0,0-2.1-0.1-4.1l-0.2-4.1l-1.1-0.5c-0.6-0.3-1.4-0.6-2.6-1.2l-3.7-1.6l0,0l-0.1-1.3l-0.3-2.8l-0.1-0.5
			c-0.5,0.6-1.1,1.1-1.7,1.7c-1.5,1.5-3.1,3-4.6,4.3l0.2,3l0.1,2.7l0,1.3l3.7,1.8c0.9,0.5,1.9,1,2.5,1.3l1.1,0.6l0,1.3h2.4v8.4
			c0.3,0.2,0.7,0.4,1.1,0.6l3.5,2.2l0,0.8c2.2-1.4,4.7-3,7-4.7L269.6,180.2z"/>
		<path class="st0" d="M249.4,172.6l-3.7-1.8l0-1.3l-0.1-2.8l-0.1-2.3c-2.1,1.8-3.6,3-3.6,3c-2,1.6-2.8,4.5-2.1,7h13l-0.8-0.4
			C251.3,173.5,250.4,173.1,249.4,172.6"/>
		<path class="st0" d="M260,186.9l-2-1.2v3.4c0.6-0.3,1.3-0.7,2-1.1L260,186.9z"/>
		<path class="st0" d="M277.2,174.8c1.9-2.5,2-6.6,0.2-9.1l-11.2-15c-1.9-2.4-5.1-2.5-7.1,0c0,0-1,1.3-2.7,3.2l0.1,1.3l0.3,2.8
			l0.1,1.3l3.8,1.6c0.8,0.4,1.8,0.8,2.6,1.2l1.2,0.6l0.2,4.2c0.1,2,0.1,4.1,0.1,4.1l1.1,0.6l0.4,0.2c0.6,0.3,1.4,0.7,2.1,1.1l3.7,2
			l0,1.3c0,0.6,0,1.4,0,2.2l0,0.7c0,0,0,0.4,0,0.9c1.1-0.9,2.1-1.8,3-2.7C277.2,174.8,277.2,174.8,277.2,174.8"/>
		<path class="st0" d="M253.7,152.6l-4.5-1.7c-0.7-0.3-1.3-0.5-1.8-0.7l-1.2-0.4l-0.6-4.1c-0.1-0.8-0.3-1.7-0.4-2.3l-0.3-1.7
			c0,0-2-0.6-3.9-1.2l-3.9-1.2l0,0l-0.3-1.3c-0.1-0.7-0.3-1.7-0.6-2.8l-0.9-4l-1.2-0.3l-0.1,0c-1.7,1.7-3.9,3.8-6.1,6.1
			c-0.2,0.2-0.3,0.3-0.5,0.5l1.4,0.4l1.2,0.4l0.8,4.1c0.2,1,0.4,2,0.5,2.8l0.2,1.3l3.9,1.4l3.9,1.5l0.2,1.3l0,0.3
			c0.1,0.7,0.2,1.6,0.3,2.6l0.4,4.1l1.2,0.5c0.5,0.2,1.2,0.5,1.9,0.8l0.7,0.3l2.1,0.9c1.4-1.3,3-2.7,4.4-4.2
			C251.7,154.7,252.8,153.6,253.7,152.6"/>
		<path class="st0" d="M265.6,136.8c0,0,1.1-1.8,2.7-4.5l-2.3-0.6c-0.7-0.2-1.3-0.4-1.9-0.5l-1.2-0.3l0,0l-1-4
			c-0.2-0.8-0.4-1.6-0.6-2.3l-0.4-1.7l-4-0.9l-4.1-0.8l0.1-0.1l-0.4-1.2c-0.2-0.8-0.5-1.7-0.8-2.7l-0.9-2.9c-2,1.9-3.3,3.2-3.3,3.2
			c-2.2,2.2-2.2,5.8,0,7.9l11.3,12C260.9,139.8,264,139.5,265.6,136.8"/>
		<path class="st0" d="M230.5,165.5l-6.6-8.9v17.7h3.4l1.7-1.1C231.6,171.5,232.3,168,230.5,165.5"/>
		<path class="st0" d="M285.2,153.1c-0.7-0.3-1.5-0.6-2.1-0.8l-1.7-0.6l0,0c-0.1-0.2-0.3-2.1-0.6-4.1l-0.6-4.1l-1.2-0.4
			c-0.7-0.3-1.7-0.6-2.7-0.9c0,0-3.9-1.2-3.9-1.2c0,0,0-0.1-0.2-1.3l-0.5-2.8l-0.6-2.8c-0.1-0.3-0.1-0.6-0.2-0.8
			c-2,3.3-3.4,5.6-3.4,5.6c-1.6,2.7-1.4,6.8,0.5,9.3l11.1,14.9c1.8,2.6,4.2,2.3,5.3-0.6c0,0,1.4-3.6,3.1-8.5L285.2,153.1z"/>
		<path class="st0" d="M272.4,130.9l0.5,0.1c0,0,0.1,0.5,0.3,1.3l0.6,2.8l0.6,2.8l0.2,1.3l3.9,1.2c0.9,0.3,1.9,0.6,2.7,0.9l1.2,0.4
			l0.7,4.1c0.3,1.8,0.5,3.6,0.6,4.1l1.2,0.5l0.5,0.2c0.6,0.2,1.4,0.5,2.1,0.8l0.9,0.4c1.1-3.1,2.2-6.6,3.2-10.1l-0.6-0.2l0,0l-0.8-4
			l-0.8-4l-1.2-0.3c-0.6-0.2-1.6-0.4-2.7-0.7l-4-1L281,130l-0.7-2.7l-0.7-2.7l-0.3-1.3l-2.3-0.5
			C275.5,125.5,273.9,128.3,272.4,130.9"/>
		<path class="st0" d="M257.3,148.4c2-2.4,1.8-6.3-0.3-8.6l-11.8-12.2c-2.2-2.2-5.9-2.2-8.1,0c0,0-0.4,0.4-1.1,1.1l0.1,0l1.3,0.3
			l0.9,4.1c0.2,1.1,0.5,2.1,0.6,2.8l0.2,1.3l3.9,1.2c1.9,0.6,3.9,1.3,3.9,1.3l0.2,1.3l0.1,0.5c0.1,0.7,0.3,1.5,0.4,2.3l0.6,4.1
			l1.2,0.4c0.5,0.2,1.2,0.4,1.8,0.7l0.8,0.3l3.2,1.2C256.6,149.3,257.3,148.4,257.3,148.4"/>
		<path class="st0" d="M261.3,106.3c0.4,1.1,0.8,2.1,1,2.7l0.4,1.2l4.1,0.6l4.1,0.7l0.4,1.3c0.3,0.8,0.6,1.8,0.9,2.7l1.2,4l1.2,0.2
			l0.9,0.2c0.7-1.2,1.3-2.4,1.8-3.4l1.1-2.2c1.2-2.3,0.2-5.8-2.3-7.8l-0.2-0.1H261.3z"/>
		<path class="st0" d="M280.7,115.7l-1,2c-0.4,0.9-0.9,1.8-1.5,2.8l3.1,0.7l0.4,1.3l0.7,2.8l0.7,2.7l0.3,1.3l4,1
			c1.2,0.3,2.1,0.6,2.7,0.8l1.2,0.4l0.9,4.1l0.4,2c0.5-1.9,0.8-3.7,1.1-5.2c0.5-3.2,0.6-3.6,0.6-3.6c0.6-3.1-0.8-7.3-3.1-9.4
			c-2.3-2.1-4.2-3.7-4.2-3.7C284.6,113.5,281.8,113.6,280.7,115.7"/>
		<path class="st0" d="M290.6,106.3l0.6,0.2l1.4,0.6l4,1.6l0.2,1.3l0.3,2.9l0.3,2.7c0-0.1,0.1-0.2,0.1-0.3c0.6-1.8,1.8-6.1,1.5-9.1
			H290.6z"/>
		<path class="st0" d="M295.2,117.5C295.2,117.5,295.2,117.5,295.2,117.5l-0.3-2.9l-0.3-2.9l-0.2-1.3l-4.4-1.7l-0.7-0.3
			c0.6,3.4,1.7,6.8,2.9,7.8C293.1,117.2,294.2,117.6,295.2,117.5"/>
		<path class="st0" d="M248,113.1l-1.7-0.3l-4-0.6c0,0-0.2-0.5-0.5-1.2l-1-2.6l-0.8-2.1h-15.3L237,116c2.4,2,6.1,1.9,8.4-0.3
			C245.3,115.7,246.4,114.7,248,113.1"/>
		<path class="st0" d="M272.6,121.8l-1.3-0.2l-1.2-3.9c-0.3-1-0.6-1.9-0.8-2.7l-0.4-1.2l-4-0.7l-4.1-0.6l-0.4-1.2
			c-0.2-0.7-0.6-1.6-0.9-2.7l-0.7-1.9c-2,2-4.2,4.1-6,5.9l0.9,2.7c0.3,1,0.6,1.9,0.8,2.7l0.4,1.2l4,0.8l4,0.9l0.4,1.3l0.1,0.4
			c0.2,0.7,0.4,1.5,0.6,2.3l1,4l1.2,0.3c0.5,0.1,1.2,0.3,1.9,0.5l0.9,0.2l0.7,0.2c1.4-2.4,3.1-5.3,4.6-8L272.6,121.8z"/>
		<path class="st0" d="M228.7,129.5c-0.7-0.2-1.2-0.3-1.2-0.3l0,0l-1.1-3.9l-0.2-0.8c-0.2-0.7-0.4-1.4-0.5-1.9l-0.4-1.2l-1.3-0.2
			v15.2l0.4,0.1c0.5-0.5,1-1,1.6-1.6c1.7-1.7,3.4-3.4,4.9-4.8L228.7,129.5z"/>
		<path class="st0" d="M223.9,118.6l3.2,0.6l0.4,1.3c0.2,0.6,0.4,1.3,0.6,2l0.2,0.8l1.1,4l0,0c0.1,0,0.6,0.1,1.2,0.3l2.2,0.5
			c1.4-1.4,2.3-2.2,2.3-2.2c2.2-2.2,2.1-5.6-0.3-7.6l-10.9-8.7V118.6z"/>
		<path class="st0" d="M242.8,106.3l1.4,3.7l4,0.6l2.1,0.3c1.5-1.4,3.1-3,4.7-4.6H242.8z"/>
		<path class="st0" d="M138.9,378.4L138.9,378.4l7.7,0c-0.1-0.7-0.3-1.7-0.6-2.7l-0.9-4l-1.2-0.3l-0.1,0c-1.4,1.4-3.1,3.1-4.9,4.9
			V378.4z"/>
		<path class="st0" d="M157.2,358.2c-2.2,2.2-2.2,5.8,0,7.9l11.3,12c0.1,0.1,0.2,0.2,0.4,0.4h5.6c0.3-0.3,0.6-0.7,0.9-1.1
			c0,0,1.1-1.8,2.7-4.5l-2.3-0.6c-0.7-0.2-1.3-0.4-1.9-0.5l-1.2-0.3l0,0l-1-4c-0.2-0.8-0.4-1.6-0.6-2.3l-0.4-1.7l-4-0.9l-4.1-0.8
			l0.1-0.1l-0.4-1.2c-0.2-0.8-0.5-1.7-0.8-2.7l-0.9-3C158.5,356.9,157.2,358.2,157.2,358.2"/>
		<path class="st0" d="M181.6,378.4l-0.2-0.8l-0.6-2.8c-0.1-0.3-0.1-0.6-0.2-0.8c-1.1,1.9-2.1,3.5-2.7,4.5H181.6z"/>
		<path class="st0" d="M187.2,344.5c2.4,1.9,5.6,1.6,7-0.7c0.3-0.5,0.6-1.2,1-2l-0.4-1.9l-1.2-0.4l-1.3-0.4l-1.5-0.4
			c0,0-4-1.1-4-1.1c0,0-0.3-1-0.3-1.3l-0.7-2.8l-0.4-1.4C184.5,335.8,185.2,342.9,187.2,344.5"/>
		<path class="st0" d="M182.7,371.6c0,0,0.1,0.5,0.3,1.3l0.6,2.8l0.6,2.8H200l-0.1-0.5l-0.8-4l-1.2-0.3c-0.6-0.2-1.6-0.4-2.7-0.7
			l-4-1l-0.3-1.3l-0.7-2.7l-0.7-2.7l-0.3-1.3l-2.3-0.5c-1.5,2.7-3.1,5.6-4.7,8.1L182.7,371.6z"/>
		<path class="st0" d="M147,368.2c0,0-0.4,0.4-1.1,1.1l0.1,0l1.3,0.3l0.9,4.1c0.2,1.1,0.5,2.1,0.6,2.8l0.2,1.3l2.1,0.6H165
			l-9.9-10.3C152.9,366,149.2,366,147,368.2"/>
		<path class="st0" d="M173.8,342l-1.3,1.2c-0.6,0.6-1.3,1.3-2.1,2l0.6,1.6c0.4,1.1,0.8,2.1,1,2.7l0.4,1.2l4.1,0.6l4.1,0.7l0.4,1.3
			c0.3,0.8,0.6,1.8,0.9,2.7l1.2,4l1.2,0.2l0.9,0.2c0.7-1.2,1.3-2.4,1.8-3.4l1.1-2.2c1.2-2.3,0.2-5.8-2.3-7.8l-5.1-3.9
			C178.3,341.2,175.2,340.7,173.8,342"/>
		<path class="st0" d="M190.5,356.2l-1,2c-0.4,0.9-0.9,1.8-1.5,2.8l3.1,0.7l0.4,1.3l0.7,2.8l0.7,2.7l0.3,1.3l4,1
			c1.2,0.3,2.1,0.6,2.8,0.8l1.2,0.4l0.9,4.1l0.4,2c0.5-1.9,0.8-3.6,1.1-5.2c0.5-3.2,0.6-3.6,0.6-3.6c0.6-3.1-0.8-7.3-3.1-9.4
			c-2.3-2.1-4.2-3.7-4.2-3.7C194.4,354,191.6,354.1,190.5,356.2"/>
		<path class="st0" d="M198.7,346.2l1.1,0.4l1.3,0.5l1.4,0.6l4,1.6l0.2,1.3l0.3,2.5v-8.6h1c0,0,0,0-0.1-0.1l-2-2
			c-2.2-2.2-5.3-2.4-6.8-0.5C198.6,342.5,198.5,344.2,198.7,346.2"/>
		<path class="st0" d="M187.1,329.2l0.6,2.2l0.8,2.8c0.3,1.3,0.3,1.3,0.3,1.3l4,1.1l1.5,0.4l1.3,0.4l0.8,0.3
			c0.5-2.2,0.5-4.3-0.6-5.4l-2-2C192,328.4,189.2,328,187.1,329.2"/>
		<path class="st0" d="M201.9,356.8c1,0.9,2.1,1.3,3.1,1.2c0,0,0,0,0-0.1l-0.3-2.9l-0.3-2.9l-0.2-1.3l-4.4-1.7l-0.7-0.3
			C199.7,352.4,200.8,355.8,201.9,356.8"/>
		<path class="st0" d="M162.5,353l0.9,2.7c0.3,1,0.6,1.9,0.8,2.7l0.4,1.2l4,0.8l4,0.9l0.4,1.3l0.1,0.4c0.2,0.7,0.4,1.5,0.6,2.3l1,4
			l1.2,0.3c0.5,0.1,1.2,0.3,1.9,0.5l0.9,0.2l0.7,0.2c1.4-2.4,3.1-5.3,4.6-8l-1.6-0.3l-1.3-0.2l-1.2-3.9c-0.3-1-0.6-1.9-0.8-2.7
			l-0.4-1.2l-4-0.7l-4.1-0.6l-0.4-1.2c-0.2-0.6-0.6-1.6-0.9-2.7l-0.7-1.9C166.5,349.1,164.4,351.2,162.5,353"/>
		<path class="st0" d="M206.9,374.9v-1.1l-0.4,1.1C206.6,374.9,206.8,374.9,206.9,374.9"/>
		<path class="st0" d="M240.9,344.4v-1.3c-0.5,0.1-1,0.1-1.5,0.2c-0.8,0.1-1.6,0.2-2.3,0.3l-1,0.4c-0.3,0.1-0.6,0.3-0.9,0.4H240.9z"
			/>
		<polygon class="st0" points="205.1,378.4 206.9,378.4 206.9,377.4 205.5,377.3 		"/>
		<path class="st0" d="M240.6,277.6c0.1,0.2,0.1,0.4,0.3,0.5l0,0c0,0,0,0,0.1,0.1v-1.8h-0.4C240.5,276.8,240.5,277.2,240.6,277.6"/>
		<path class="st0" d="M230.6,284.7l1,0.4l0.8,0.3c0.7,0.3,1.4,0.6,1.9,0.8l1.2,0.5l0.4,4.2c0.1,1,0.2,2,0.2,2.7l0.1,1.4l3.8,1.8
			l0.9,0.5v-14.6l-0.2-0.3c-1.9-2.4-5.3-2.6-7.5-0.4L230.6,284.7z"/>
		<path class="st0" d="M214,332.7c0,0.8,0.1,1.5,0.1,2.2c0,0.3,0.1,2,0.1,2l1.1,0.6c0.2,0.1,0.4,0.2,0.7,0.4c0.6,0.3,1.2,0.7,1.9,1
			l3.7,2.1l0,0.8l3.5-1.8l0-0.2c0,0-0.4-0.3-1.1-0.7l-2.4-1.6l-2.4-1.5c-0.3-0.2-0.6-0.4-0.8-0.5l-0.3-0.2l0.2-4.4
			c0-0.9,0.1-1.9,0.1-2.6l0-1.3l-0.6-0.3l-3.8,2.6L214,332.7z"/>
		<path class="st0" d="M209.8,306.1l-3.6,3.7l3,1.4c1.9,0.9,3.8,1.8,3.8,1.8l0.3,4.3c0,0.8,0.1,1.5,0.1,2.2c0,0.3,0.1,2,0.1,2
			l1.1,0.6c0.2,0.1,0.4,0.2,0.7,0.4c0.6,0.3,1.2,0.7,1.9,1l0.1,0.1l1.9-1.3c2.7-1.6,3.6-5.1,2.1-7.8l-4.5-7.5
			C215.1,304.2,211.9,303.8,209.8,306.1"/>
		<path class="st0" d="M235.8,317l0.3,0.2c0.2,0.1,0.5,0.3,0.8,0.5l2.4,1.6l1.6,1.1v-8.2l-5.1,3.3L235.8,317z"/>
		<path class="st0" d="M201.1,314.9L201.1,314.9l4,1.6l0.2,1.3l0.3,2.9l0.3,2.9c0.1,0.7,0.1,1.1,0.1,1.3l3.8,1.8
			c0.6,0.3,1.1,0.5,1.6,0.8l3.3-2.3l-0.3-0.2c-0.6-0.4-1.3-0.7-1.8-1c-0.3-0.1-1.8-1-1.8-1l0-1.3c0-0.2,0-0.5,0-0.7
			c0-0.7,0-1.4-0.1-2.2l-0.2-4.2c0,0-1.9-0.9-3.8-1.8l-2.5-1.1L201.1,314.9z"/>
		<path class="st0" d="M220.4,324.7l-0.5,0.4l0.8,0.5l0,1.4c0,0.7,0,1.8-0.1,2.8l-0.1,4.4l0.3,0.2c0.2,0.1,0.5,0.3,0.8,0.5l2.4,1.6
			l2.4,1.6c0.7,0.4,1.1,0.7,1.1,0.7l0,0.1c2.4-1.3,3.5-4.3,2.4-6.8C228.8,329.1,223.1,323.1,220.4,324.7"/>
		<path class="st0" d="M195.8,320.2c-2.2,2.2-2.2,5.9,0,8.1l2,2c2.2,2.2,6,2.5,8.5,0.6l2.7-1.9c-0.5-0.2-1.1-0.5-1.6-0.7l-3.8-1.7
			l0-0.1c0-0.1,0-0.6-0.1-1.3l-0.3-2.9l-0.3-2.9l-0.2-1.3l-3.6-1.4L195.8,320.2z"/>
		<path class="st0" d="M208.4,332.9c-2.5,1.9-2.7,5.2-0.5,7.4l2,2c2.2,2.2,6.2,2.6,8.8,1l0.3-0.1l0-0.7l-3.6-2
			c-0.6-0.4-1.3-0.7-1.8-1c-0.3-0.1-1.9-1-1.9-1l0-1.3c0-0.2,0-0.5,0-0.7c0-0.7,0-1.4-0.1-2.2l-0.2-3.4L208.4,332.9z"/>
		<path class="st0" d="M222.3,293.2l2,1c1.9,0.9,3.8,1.8,3.8,1.9l0.3,4.3c0,0.8,0.1,1.5,0.1,2.2c0,0.3,0.1,2,0.1,2l1.1,0.6
			c0.2,0.1,0.4,0.2,0.7,0.4c0.6,0.3,1.2,0.7,1.9,1l3.7,2.1l0,1.4c0,0.6,0,1.3,0,2.1l5-3.2v-8.6l-3.3-1.7l-3.8-1.8l-0.1-1.4
			c0-0.7-0.1-1.8-0.2-2.7l-0.4-4.2L232,288c-0.6-0.2-1.3-0.5-2-0.8l-0.7-0.3l-0.6-0.2L222.3,293.2z"/>
		<path class="st0" d="M230.1,325.5l2.5,5.4c1.2,2.9,4.6,4.4,7.4,3.5c0,0,0,0,1-0.3v-1.8l-1.5-1.1c0,0,0.3-2.1,0.4-4.2l0.4-4.2
			c0,0-0.4-0.3-1.1-0.7l-2.4-1.6l-2.4-1.5c-0.3-0.2-0.6-0.4-0.8-0.5l-0.3-0.2l0-1.3l-0.8,0.5C229.8,319.1,228.7,322.7,230.1,325.5"
			/>
		<path class="st0" d="M219.6,295.9c-2.2,2.2-2.8,5.8-1.5,7.9l1.2,2c2.4,4,4.2,7.2,4.2,7.2c1.5,2.7,4.9,3.7,7.6,2.1l2.2-1.4
			c0-0.8,0.1-1.7,0.1-2.3l0-1.3l-3.6-2c-0.6-0.4-1.3-0.7-1.8-1c-0.3-0.1-1.9-1-1.9-1l0-1.3c0-0.2,0-0.5,0-0.7c0-0.7,0-1.4-0.1-2.2
			l-0.2-4.2c0,0-1.9-0.9-3.8-1.8l-1.6-0.7L219.6,295.9z"/>
		<path class="st0" d="M204.3,224.3l2.7-0.1v-4.5c-1.4,0.2-2.6,0.7-3.6,1.5c0,0-0.2,0.2-0.7,0.5l1,1.5
			C204.1,223.9,204.2,224.2,204.3,224.3"/>
		<path class="st0" d="M122.2,137.9c-1.4,1.4-3,2.8-4.4,4.1l0,0h0v0c-0.1,0.1-0.2,0.1-0.2,0.2l0.2,3l0.1,2.7l0,1.3l3.7,1.8
			c0.9,0.5,1.9,1,2.5,1.3l1.1,0.6l0,4.2c0,0.2,0,0.5,0,0.7c0,1.7-0.1,3.3-0.1,3.4c0.1,0,0.3,0.2,1.1,0.6c0.7,0.4,1.6,0.9,2.5,1.4
			l3.5,2.2l0,0.8l0,0v0c1.9-1.2,3.9-2.5,5.9-4h0c0.4-0.3,0.7-0.5,1.1-0.8l0-1.4l0-0.7c0-0.8,0-1.5,0-2.1l0-1.3l-3.6-1.9
			c-0.7-0.4-1.5-0.8-2.1-1.1c0,0-1.5-0.7-1.5-0.8c0,0,0-2.1-0.1-4.1l-0.2-4.1l-1.1-0.5c-0.6-0.3-1.4-0.7-2.6-1.2l-3.7-1.6l0,0
			l-0.1-1.3l-0.3-2.8l0-0.5C123.4,136.7,122.8,137.3,122.2,137.9"/>
		<path class="st0" d="M128.9,130.6c0,0-1,1.3-2.7,3.2l0.1,1.3l0.3,2.8l0.1,1.3l3.8,1.6c0.8,0.4,1.8,0.8,2.6,1.2l1.2,0.6l0.2,4.2
			c0.1,2,0.1,4.1,0.1,4.1l1.1,0.6l0.4,0.2c0.6,0.3,1.4,0.7,2.1,1.1l3.7,2l0,1.3c0,0.6,0,1.4,0,2.2l0,0.7c0,0,0,0.4,0,0.9
			c1.1-0.9,2.1-1.8,3-2.7c2.1-2.1,2.2-2.2,2.2-2.2c1.9-2.5,2-6.6,0.2-9.1l-11.2-15C134.1,128.2,130.9,128.1,128.9,130.6"/>
		<path class="st0" d="M99.9,114.6l-1.8,3l0.5,0.1l1.2,0.4l0.8,4.1c0.2,1,0.4,2,0.5,2.8l0,0.2v0v0l0,0l0.2,1.1l1.5,0.5l0,0l2.4,0.9
			l3.9,1.5l0.2,1.3l0,0.3c0.1,0.7,0.2,1.6,0.3,2.6l0,0.3l0,0l0.4,3.8l1.2,0.5c0.5,0.2,1.2,0.5,1.9,0.8l0.7,0.3l2.1,0.9h0
			c0,0,0,0,0.1,0v0c1.4-1.3,3-2.7,4.4-4.1c1.2-1.2,2.3-2.3,3.2-3.4l-4.5-1.7c-0.7-0.3-1.3-0.5-1.8-0.7l-1.2-0.4l-0.6-4.1
			c-0.1-0.8-0.3-1.7-0.4-2.3l-0.3-1.7c0,0-1.5-0.5-3.2-1c-0.2-0.1-0.5-0.2-0.7-0.2l-3.9-1.2l0,0l-0.3-1.3c-0.1-0.7-0.3-1.7-0.6-2.8
			l-0.9-4l-1.2-0.3l-0.1,0C102.6,111.9,101.3,113.2,99.9,114.6"/>
		<path class="st0" d="M135.3,116.8c0,0,1.1-1.8,2.7-4.5l-2.3-0.6c-0.7-0.2-1.3-0.4-1.9-0.5l-1.2-0.3l0,0l-1-4
			c0-0.2-0.1-0.4-0.2-0.6h-13.6l10.6,11.2C130.6,119.7,133.7,119.4,135.3,116.8"/>
		<path class="st0" d="M137.8,128.3l11.1,14.9c1.8,2.6,4.2,2.3,5.3-0.6c0,0,1.4-3.6,3.1-8.5l-2.4-0.9c-0.7-0.3-1.5-0.6-2.1-0.8
			l-1.7-0.6l0,0c-0.1-0.2-0.3-2.1-0.6-4.1l-0.6-4.1l-1.2-0.4c-0.7-0.3-1.7-0.6-2.7-0.9c0,0-3.9-1.2-3.9-1.2c0,0,0-0.1-0.2-1.3
			l-0.5-2.8l-0.6-2.8c-0.1-0.3-0.1-0.6-0.2-0.8c-2,3.3-3.4,5.6-3.4,5.6C135.6,121.6,135.8,125.8,137.8,128.3"/>
		<path class="st0" d="M142.6,111c0,0,0.1,0.5,0.3,1.3l0.6,2.8l0.6,2.8l0.2,1.3l3.9,1.2c0.9,0.3,1.9,0.6,2.7,0.9l1.2,0.4l0.7,4.1
			c0.3,1.8,0.5,3.6,0.6,4.1l1.2,0.4l0.5,0.2c0.6,0.2,1.4,0.5,2.1,0.8l0.9,0.4c1.1-3.1,2.2-6.6,3.2-10.1l-0.6-0.2l0,0l-0.8-4l-0.8-4
			l-1.2-0.3c-0.6-0.2-1.6-0.4-2.7-0.7l-4-1l-0.3-1.3l-0.7-2.7l-0.2-0.9h-5.1c-0.9,1.6-1.8,3.1-2.6,4.6L142.6,111z"/>
		<path class="st0" d="M105.9,108.8l1.3,0.3l0.9,4.1c0.2,1.1,0.5,2.1,0.6,2.8l0.2,1.3l3.9,1.2c1.9,0.6,3.9,1.3,3.9,1.3l0.2,1.3
			l0.1,0.5c0.1,0.7,0.3,1.5,0.4,2.3l0.6,4.1l1.2,0.4c0.5,0.2,1.2,0.4,1.8,0.7l0.8,0.3l3.2,1.2c1.2-1.3,1.9-2.2,1.9-2.2
			c2-2.4,1.8-6.3-0.3-8.6L115,107.6c-0.6-0.6-1.4-1-2.2-1.3h-3.7c-0.8,0.3-1.6,0.7-2.2,1.3c0,0-0.4,0.4-1.1,1.1L105.9,108.8z"/>
		<path class="st0" d="M153.1,109.2l4,1c1.2,0.3,2.1,0.6,2.8,0.8l1.2,0.4l0.9,4.1l0.4,2c0.5-1.9,0.8-3.6,1.1-5.2
			c0.5-3.2,0.6-3.6,0.6-3.6c0.1-0.7,0.1-1.5,0.1-2.3h-11.7l0.4,1.7L153.1,109.2z"/>
		<path class="st0" d="M135.9,109.2c0.5,0.1,1.2,0.3,1.9,0.5l0.9,0.2l0.7,0.2c0.7-1.2,1.4-2.5,2.2-3.8H134l0.6,2.6L135.9,109.2z"/>
		<path class="st0" d="M191.4,108.3c0.8,0,1.9,0.1,2.8,0.2l4.2,0.4l0.2,0.3c0.1,0.2,0.2,0.5,0.4,0.9l1.1,2.7l0.7,1.8
			c0.2-0.2,0.5-0.5,0.7-0.7c1.5-1.5,3-2.9,4.3-4l-1-2.3l-0.5-1.2h-15l0.9,1.9L191.4,108.3z"/>
		<path class="st0" d="M175.8,107.7l14.3,10.1c2.5,1.9,6.2,1.5,8.2-0.8c0,0,0.1-0.1,0.4-0.5l-0.6-1.5l-1-2.6
			c-0.1-0.4-0.3-0.7-0.4-0.9l-0.1-0.3l-4.1-0.3c-0.9-0.1-2-0.2-2.8-0.2l-1.3-0.1l0-0.1l-1.7-3.7c-0.1-0.2-0.2-0.4-0.3-0.6h-12.2
			C174.6,106.9,175.2,107.3,175.8,107.7"/>
		<path class="st0" d="M167.2,112.3l-0.8,2c0.2,0,0.6,0,1.2,0.1l2.5,0.2l1.6,0.1l1.3,0.1l1.3,0.1c0,0,0.9,2,1.7,3.9l1.5,3.9
			c0,0,0.1,0,0.4,0l0.9,0.1c0.8,0.1,1.8,0.3,2.8,0.5l4.2,0.7c0,0,0.2,0.5,0.4,1.3l0.9,2.8l0.7,2.4l1.6-2.4c1.8-2.5,1.2-6.2-1.2-8.1
			l-14-9.8C171.7,108.5,168.5,109.5,167.2,112.3"/>
		<path class="st0" d="M191.7,130l-1.7,2.5l2.4,0.6l1.5,0.4l1.3,0.4l1.3,0.4l1,4.1l0.9,4.1l1.2,0.4c0.7,0.2,1.7,0.5,2.7,0.9l4,1.4
			l0.3,1.3l0.3,1.8V137l-7.8-7.8C196.8,127.1,193.5,127.4,191.7,130"/>
		<path class="st0" d="M198,163.2l0.1-0.2c0-0.2,0-0.4-0.1-0.6l-0.3-2.8l-0.3-2.9l-0.2-1.3l-4.3-1.7l-1-0.4l-1.3-0.4l-1.2-0.4
			l-0.7-4.1l-0.8-4.1l-1.2-0.4l-1.3-0.4l-1.5-0.4c0,0-0.3-0.1-0.7-0.2l-0.7,1.1c-1.6,2.7-1.2,6.9,0.8,9.3l7.4,9.5
			C192.5,165.2,195.8,165.5,198,163.2"/>
		<path class="st0" d="M201.5,211.6l3.5-1.8l0-0.2c0,0-0.4-0.3-1.1-0.7l-2.4-1.6l-2.4-1.5c-0.3-0.2-0.6-0.4-0.8-0.5l-0.3-0.2
			l0.2-4.4c0-0.9,0.1-1.9,0.1-2.6l0-1.3l-0.6-0.3l-3.8,2.6l0.2,3.5c0,0.8,0.1,1.5,0.1,2.2c0,0.3,0,2,0,2l1.1,0.6
			c0.2,0.1,0.4,0.2,0.7,0.4c0.6,0.3,1.2,0.7,1.9,1l3.7,2.1L201.5,211.6z"/>
		<path class="st0" d="M165.5,165.5l0.6,2c1.3-2.1,2.7-4.5,4.1-7l-0.1,0l-1.5-0.4c0,0-4-1.1-4-1.1c0,0-0.3-1-0.3-1.3l-0.7-2.8
			l-0.8-2.8c-0.2-0.8-0.4-1.3-0.4-1.3l-4.7-1c-0.6-0.1-1.2-0.2-1.7-0.3c-0.6,2-1.2,4-1.9,5.7l0.2,0.6l0.3,0.6
			c0.2,0.6,0.5,1.3,0.8,2.1l1.4,4l1.3,0.2c0.6,0.1,1.4,0.3,2.3,0.5l0.6,0.1l4.2,0.9C165.2,164.3,165.3,164.8,165.5,165.5"/>
		<path class="st0" d="M197,193.1l0.1,0.1l1.9-1.3c2.7-1.6,3.6-5.1,2.1-7.8l-4.5-7.5c-1.7-2.6-4.8-3-7-0.7l-3.6,3.7l3,1.4
			c1.9,0.9,3.8,1.8,3.8,1.9l0.3,4.3c0,0.8,0.1,1.5,0.1,2.2c0,0.3,0,2,0,2l1.1,0.6c0.2,0.1,0.4,0.2,0.7,0.4
			C195.7,192.4,196.4,192.8,197,193.1"/>
		<path class="st0" d="M164.8,134.2l8.8,8.4c2.1,2.1,5,1.9,6.6-0.5c-0.2-0.1-0.4-0.1-0.4-0.1c0,0-0.3-1-0.3-1.3l-0.7-2.8l-0.8-2.8
			c-0.2-0.8-0.4-1.3-0.4-1.3l-4.6-1c-0.8-0.2-1.6-0.3-2.3-0.4l-1.3-0.2l0,0l-1.4-3.9c-0.3-0.7-0.5-1.4-0.8-2l-0.3-0.7l-0.5-1.2
			l-1.4-0.2L164,124l-1.3-0.1l-0.5,1.1C161.3,128,162.5,132.1,164.8,134.2"/>
		<path class="st0" d="M200.9,127l6,6v-13l-0.4-0.1c-0.8-0.1-1.9-0.3-2.8-0.4l-3.3-0.5C198.4,121.3,198.7,124.9,200.9,127"/>
		<path class="st0" d="M191.5,197.1l3.3-2.3l-0.3-0.2c-0.6-0.4-1.3-0.7-1.8-1c-0.3-0.1-1.8-1-1.8-1l0-1.3c0-0.2,0-0.5,0-0.7
			c0-0.7,0-1.4-0.1-2.2l-0.2-4.2c0,0-1.9-0.9-3.8-1.8l-2.5-1.1l-3.2,3.2l0,0l4,1.6l0.2,1.3l0.3,2.9l0.3,2.9c0.1,0.7,0.1,1.1,0.1,1.3
			l3.8,1.8C190.4,196.6,191,196.9,191.5,197.1"/>
		<path class="st0" d="M177.1,183.2l1,0.4c1.3-1.4,2.9-2.9,4.6-4.7l-0.2-2.3l-0.3-2.9l-0.2-1.3l-4.4-1.7l-1-0.4l-1.3-0.4l-1.2-0.4
			l-0.7-4.1l-0.7-3.5c-1.9,3.5-3.9,6.8-5.6,9.4c0.3,1.2,0.3,1.2,0.3,1.2l4,1.1l1.5,0.4l1.3,0.4l1.3,0.4l0.9,4.2L177.1,183.2z"/>
		<path class="st0" d="M206.9,207.9v-10.4c-2.2-2.2-5-4.1-6.6-3.1l-0.5,0.4l0.8,0.5l0,1.4c0,0.7,0,1.8-0.1,2.8l-0.1,4.4l0.3,0.2
			c0.2,0.1,0.5,0.3,0.8,0.5l2.4,1.6l2.4,1.6C206.6,207.7,206.8,207.8,206.9,207.9"/>
		<path class="st0" d="M177.8,200c2.2,2.2,6,2.5,8.5,0.6l2.7-1.9c-0.5-0.2-1.1-0.5-1.6-0.7l-3.8-1.7l0-0.1c0-0.1,0-0.6-0.1-1.3
			l-0.3-2.8l-0.3-2.9l-0.2-1.3l-3.6-1.4l-3.3,3.4c-2.2,2.2-2.2,5.9,0,8.1L177.8,200z"/>
		<path class="st0" d="M189.9,212c2.2,2.2,6.2,2.6,8.8,1l0.3-0.2l0-0.7l-3.6-2c-0.6-0.4-1.3-0.7-1.8-1c-0.3-0.1-1.9-1-1.9-1l0-1.3
			c0-0.2,0-0.5,0-0.7c0-0.7,0-1.4-0.1-2.2l-0.2-3.4l-2.9,2c-2.5,1.9-2.7,5.2-0.5,7.4L189.9,212z"/>
		<path class="st0" d="M165.8,188c2.2,2.2,5.8,2.2,8,0c0,0,0.9-0.9,2.4-2.5l-0.1,0l-1.2-0.4l-0.7-4.1l-0.8-4.1l-1.2-0.4l-1.3-0.4
			l-1.5-0.4c0,0-4-1.1-4-1.1c0,0,0-0.2-0.1-0.4c-1.3,2-2.2,3.2-2.2,3.2c-1.8,2.5-1.5,6.4,0.7,8.6L165.8,188z"/>
		<path class="st0" d="M151.8,174l2,2c2.2,2.2,5.5,1.9,7.3-0.6c0,0,1.3-1.9,3.3-4.9l0,0l-0.8-2.8c-0.2-0.8-0.4-1.3-0.4-1.3l-4.7-1
			c-0.8-0.2-1.6-0.3-2.3-0.4l-1.3-0.2l0,0l-1.4-3.9c-0.2-0.7-0.5-1.4-0.7-2c-1.5,3.7-2.6,6.1-2.6,6.1
			C148.9,167.7,149.6,171.8,151.8,174"/>
		<path class="st0" d="M202.4,116.8l3.1,0.4c0.5,0.1,1,0.1,1.4,0.2v-5c-1.1,1-2.4,2.2-3.5,3.4C203,116.2,202.7,116.5,202.4,116.8"/>
		<path class="st0" d="M204.3,163.8c0.9,0.4,1.9,0.9,2.6,1.2v-6.9l-4.6,4.7L204.3,163.8z"/>
		<path class="st0" d="M181.8,139.7l4.3-6.4c0-0.1,0-0.2-0.1-0.3l-0.8-2.7l-0.9-2.7c-0.2-0.7-0.4-1.2-0.4-1.2l-4.2-0.7
			c-1-0.2-1.9-0.3-2.7-0.4l-1.3-0.2c0,0-1.3-3.4-1.5-3.9c-0.8-1.9-1.6-3.8-1.6-3.8l-1.4-0.1l-1.2-0.1l-1.5-0.1l-3.1-0.2l-1.9,4.7
			l0.6,0.1l1.6,0.2l1.3,0.2l1.3,0.2l0.5,1.3l0.3,0.6c0.2,0.6,0.5,1.3,0.8,2.1l1.4,4l1.3,0.2c0.6,0.1,1.4,0.3,2.3,0.5l0.6,0.1
			l4.2,0.9c0,0,0.2,0.5,0.4,1.3l0.8,2.8l0.8,2.8C181.7,139.2,181.8,139.5,181.8,139.7"/>
		<path class="st0" d="M184.5,172l0.3,2.9l0.2,1.6c1.2-1.2,2.4-2.4,3.6-3.7l1.1-1.1c1.3-1.3,0.8-4.5-1-7l-6.9-8.9
			c-2-2.4-4.8-2.1-6.3,0.6c0,0-0.1,0.2-1.4,2.6c0,0,0,0,0,0l0.6,0.2l0.9,4.2l0.7,4.2l1.2,0.4l1.3,0.5l1.4,0.6l4,1.6L184.5,172z"/>
		<path class="st0" d="M185.9,141.1l1.5,0.4l1.3,0.4l1.3,0.4l0.9,4.2l0.7,4.2l1.2,0.4l1.3,0.5l1.4,0.6l4,1.6l0.2,1.3l0.3,2.9
			l0.3,2.8l5.4-5.5l-0.4-0.2l-0.2-1.3l-0.4-2.8l-0.4-2.9l-0.2-1.3l-3.9-1.3c-1-0.3-2-0.7-2.7-0.9c-0.7-0.2-1.2-0.4-1.2-0.4
			c0,0-0.4-2.1-0.9-4.1l-1-4l-1.2-0.3l-1.3-0.3l-1.5-0.4l-1.9-0.4l-3.9,6L185.9,141.1z"/>
		<path class="st0" d="M156.7,147.1l0.7,0.1c0.6,0.1,1.4,0.3,2.3,0.5l0.6,0.1l4.2,0.9c0,0,0.2,0.5,0.4,1.3l0.8,2.8l0.8,2.8
			c0.3,1.3,0.3,1.3,0.3,1.3l4,1.1l0.7,0.2c0.1-0.2,0.2-0.3,0.2-0.5c1.4-2.7,1.9-3.6,1.9-3.6c1.5-2.8,0.9-6.8-1.3-9.1l-8.2-7.9
			c-2.3-2.1-4.8-1.3-5.5,1.7c0,0-0.3,1.2-1,4.4C157.3,144.6,157,145.9,156.7,147.1"/>
		<path class="st0" d="M199.3,175.5c2.4,4,4.2,7.2,4.2,7.2c0.8,1.4,2,2.3,3.4,2.7v-9.2c-0.4-0.2-0.8-0.4-0.8-0.4l0-1.3
			c0-0.2,0-0.5,0-0.7c0-0.7,0-1.4-0.1-2.2l-0.2-4.2c0,0-1.9-0.9-3.8-1.8l-1.6-0.7l-0.8,0.9c-2.2,2.2-2.8,5.8-1.5,7.9L199.3,175.5z"
			/>
		<polygon class="st0" points="206.9,106.3 206.9,106.4 206.9,106.3 		"/>
		<path class="st0" d="M157.4,322.4c1.8,0,3.6-0.3,5-1.1l3.6-2.3l-0.8-0.1l0-0.1c-0.1-0.1-0.3-0.6-0.5-1.2l-1.2-2.6l-1.2-2.6
			c-0.2-0.4-0.3-0.7-0.4-0.9l-0.2-0.3l-4.2-0.1l-1.5,0h0l-1.3,0l-1.3,0c0,0,0,0,0,0c0,0-0.1-0.1-0.2-0.4l-0.4-0.8l-0.4-0.6
			c-0.2-0.4-0.5-0.9-0.8-1.4h0l-9.2,3.9c-3,0.7-3.2,2.4-0.4,3.8l10.5,5.5C153.8,322,155.6,322.4,157.4,322.4"/>
		<path class="st0" d="M174.6,333.9c2,0.1,4-0.5,5.4-1.9c0,0,1.4-1.4,3-3l-3.1-0.7c-0.8-0.2-1.6-0.3-2.3-0.4l-1.3-0.2l0,0l-1.4-3.9
			c-0.3-0.7-0.5-1.4-0.8-2l-0.7-1.9l-1.4-0.2l-1.2-0.2l-0.3,0h0l-5.3,3.5c-2.7,1.5-2.8,4-0.2,5.7l6.2,4.1
			C172.2,333.5,173.4,333.8,174.6,333.9"/>
		<path class="st0" d="M184.9,326.9L184.9,326.9c1.1-2,0.8-4.8-1.1-6.6l-2-2c-1.3-1.3-3.2-1.9-5-1.9c-1.1,0-2.2,0.3-3.1,0.9l0.2,0
			l1.3,0.2l0.5,1.3l0.3,0.6c0.2,0.6,0.5,1.3,0.8,2.1l1.4,4l1.3,0.2c0.6,0.1,1.4,0.3,2.3,0.5l0.6,0.1L184.9,326.9z"/>
		<path class="st0" d="M138.1,334.4l0.5,0h0l6.7-4l-0.7-1.5h0h-1.3c-0.3,0-0.7,0-1.2,0c-0.5,0-1.1,0-1.7,0l-4.1,0.1l-0.6-1.1
			l-1.4-2.4l-1.4-2.4c-0.3-0.5-0.6-0.9-0.6-1.1c0,0,0,0,0,0h0l-4.1,0.3c-2,0.1-4,0.4-4.1,0.4l-0.3-0.5l-1.9-2.9
			c-0.3-0.4-0.5-0.8-0.8-1.1l0,0v0l-6.4,2.4l0.5,0.8l0.4,0.6c0.4,0.5,0.8,1.1,1.1,1.8l2.2,3.5h0c0.3,0,2.2-0.2,4.1-0.2l4.2-0.1
			c0,0,0,0,0,0c0,0,0.3,0.5,0.7,1.2l1.4,2.5l1.3,2.5l0.6,1.1h0c0,0,0,0,0.1,0c0.4,0,2.2,0,4,0.1
			C136.3,334.3,137.3,334.3,138.1,334.4"/>
		<path class="st0" d="M166.9,316.6l2.4,0.3h0l1.9-1.2c2.5-1.8,2.8-5.1,0.6-7.3l-2-2c-1.7-1.7-4.4-2.6-6.9-2.5
			c-0.8,0-1.6,0.2-2.4,0.5l-6.7,2.8l0.9,1.6h0l1.3,0l1.4,0l1.5,0l4.3,0.2l0.2,0.3c0.1,0.2,0.3,0.5,0.4,0.9l1.3,2.6l1.2,2.6
			C166.7,316.1,166.9,316.5,166.9,316.6"/>
		<path class="st0" d="M147.5,329.1L147.5,329.1L147.5,329.1l2-1.2c2.8-1.4,2.8-3.8,0.1-5.3l-11.9-6c-1.8-0.8-4.3-1.3-6.7-1.3
			c-1.4,0-2.8,0.1-3.9,0.4l-3.5,1.4c0.6,1,1.9,2.8,1.9,2.9h0c0,0,2-0.2,4.1-0.4l4.2-0.3c0,0,0,0,0,0c0,0,0.3,0.5,0.7,1.1l1.5,2.5
			l1.4,2.4l0.6,1.1h0l4.1-0.1c0.3,0,0.6,0,0.9,0c0.8,0,1.6,0,2,0l1.3,0L147.5,329.1z"/>
		<path class="st0" d="M151,358c1.5-0.1,3-0.6,4.1-1.7c0,0,1.1-1,2.7-2.6l-1.7-0.3l-4-0.6c0,0-0.2-0.5-0.5-1.2l-1-2.6l-1-2.6
			l-0.5-1.2l-4.1-0.4c-1-0.1-2-0.2-2.8-0.2l-1.3-0.1c0,0-0.2-0.5-0.5-1.2l-1.1-2.6l-1.3-2.8h0c-2.3,1.3-3.8,2.2-3.8,2.2
			c-1.9,1.1-2.5,2.8-1.9,4.4h6.4v5.8l7.9,6.3C147.9,357.5,149.5,358,151,358"/>
		<path class="st0" d="M139.3,367.7c0.1,0,0.6,0.1,1.2,0.3l2.2,0.5h0c1.4-1.4,2.3-2.2,2.3-2.2c2.2-2.2,2.1-5.6-0.3-7.6l-5.7-4.6
			v12.4L139.3,367.7L139.3,367.7z"/>
		<path class="st0" d="M160,351.4L160,351.4L160,351.4c2-1.9,4.4-4.2,6.6-6.4l-0.1,0l-2.8-0.3l-4.1-0.4c0,0-0.8-2-1.6-3.8l-1.1-2.6
			l-0.5-1.2l-4.1-0.2c-0.9-0.1-2-0.1-2.8-0.1l-1.3,0l0,0l-1.7-3.4l0,0v0c-2.2,1.2-4.4,2.5-6.3,3.6l0.8,1.7l1.6,3.8l1.3,0.1
			c0.8,0.1,1.8,0.1,2.8,0.3l4.1,0.4l0.5,1.2l1,2.7l1.4,3.9l4,0.6L160,351.4z"/>
		<path class="st0" d="M168.9,342.8L168.9,342.8L168.9,342.8c0.6-0.6,1.2-1.1,1.7-1.6l1.1-1.1c1.2-1.2,0.1-3.6-2.5-5.3l-7-4.6
			c-2.3-1.4-4.7-2.5-5.7-2.4c-0.1,0-0.3,0-0.4,0.1l-0.6,0.3c-2,1-4.4,2.3-6.7,3.6l1.1,2.2l1.3,0c0.9,0,1.9,0.1,2.8,0.1l4.1,0.3
			l0.6,1.2l1.1,2.6l1.6,3.8c0,0,2,0.2,4.1,0.4l2.8,0.3L168.9,342.8z"/>
		<path class="st0" d="M31.6,269c0,0,0,0.4,0,0.9c0,0,0,0,0,0v0c1.1-0.9,2.1-1.8,3-2.7c2.1-2.1,2.2-2.2,2.2-2.2
			c1.9-2.5,2-6.6,0.2-9.1l-11.2-15c-0.3-0.4-0.7-0.7-1-1l-6.2,10.4l1.7,0.7c0.8,0.4,1.8,0.8,2.6,1.2l1.2,0.6l0.2,4.2
			c0.1,2,0.1,4.1,0.1,4.1l1.1,0.6l0.4,0.2c0.6,0.3,1.4,0.7,2.1,1.1l3.7,2l0,1.3c0,0.6,0,1.4,0,2.2L31.6,269z"/>
		<path class="st0" d="M52.1,197.3l4,1.6l0.2,1.3l0.3,2.9l0.3,2.7c0,0,0,0,0,0v0c0-0.1,0.1-0.2,0.1-0.3c0.8-2.5,2.7-9.3,0.5-11.5
			l-2-2c-0.5-0.5-0.9-0.8-1.5-1.1l-3.5,5.8l0.1,0L52.1,197.3z"/>
		<path class="st0" d="M54.6,207.7L54.6,207.7L54.6,207.7C54.6,207.7,54.6,207.7,54.6,207.7l-0.3-2.9l-0.3-2.9l-0.2-1.3l-4.4-1.7
			l-0.1,0l-0.4,0.7c0.6,3,1.6,6,2.7,6.9C52.6,207.4,53.7,207.8,54.6,207.7"/>
		<path class="st0" d="M199.9,224.1c-0.3,0.3-0.7,0.6-1,1c-1,1-1.9,2-2.6,2.8l1.2,2.1c0.2,0.3,0.3,0.5,0.4,0.7l0.3,0.5h0l4.1-0.1
			l1.5,0l1.3,0l1.3,0c0,0,0.2,0.4,0.5,0.9v-5.3l-4,0.2c-0.1-0.1-0.3-0.5-0.7-1.1l-1.5-2.4l-0.1-0.1
			C200.5,223.5,200.2,223.8,199.9,224.1L199.9,224.1L199.9,224.1z"/>
		<path class="st0" d="M227.1,279.4l0.4,2.8l0.2,1.3l0,0h0l3.6-3.7c1-1,1.5-2.2,1.6-3.5h-6.3l0,0.2L227.1,279.4z"/>
		<path class="st0" d="M214.7,295.1c1.2,0,2.3-0.6,3.3-1.5l0.1-0.2c0-0.2,0-0.4-0.1-0.6l-0.3-2.8l-0.3-2.9l-0.2-1.3l-4.3-1.7l-1-0.4
			l-1.3-0.4l-1.2-0.4l-0.7-4.1l-0.5-2.3h-1.3v-2.1l-0.3-0.1l-1.3-0.4l-1.5-0.4c0,0-0.3-0.1-0.7-0.2h0l-0.7,1.1
			c-1.6,2.7-1.2,6.9,0.8,9.3l7.4,9.5C211.7,294.4,213.2,295.1,214.7,295.1"/>
		<path class="st0" d="M185.6,295.8l0.6,2c0,0,0,0,0,0v0c1.3-2.1,2.7-4.5,4.1-7l-0.1,0l-1.5-0.4c0,0-4-1.1-4-1.1c0,0-0.3-1-0.3-1.3
			l-0.7-2.8l-0.8-2.8c-0.2-0.8-0.4-1.3-0.4-1.3l-4.6-1c-0.6-0.1-1.2-0.2-1.7-0.3h0c-0.6,2-1.2,4-1.9,5.7l0.2,0.6l0.3,0.6
			c0.2,0.6,0.5,1.3,0.8,2.1l1.4,4l1.3,0.2c0.6,0.1,1.4,0.3,2.3,0.5l0.6,0.1l4.2,0.9C185.2,294.6,185.4,295.1,185.6,295.8"/>
		<path class="st0" d="M197.2,274.3c1.2-0.1,2.3-0.8,3.1-1.9c-0.2-0.1-0.4-0.1-0.4-0.1c0,0-0.3-1-0.3-1.3l-0.7-2.8l-0.8-2.8
			c-0.2-0.8-0.4-1.3-0.4-1.3l-4.6-1c-0.8-0.2-1.6-0.3-2.3-0.4l-1.3-0.2l0,0l-1.4-3.9c-0.3-0.7-0.5-1.4-0.8-2l-0.3-0.7l-0.5-1.2
			l-1.4-0.2l-1.2-0.2l-1.3-0.1h0l-0.5,1.1c-0.9,3,0.3,7.1,2.6,9.2l8.8,8.4C194.7,273.9,196,274.4,197.2,274.3"/>
		<path class="st0" d="M197.2,313.5l1,0.4h0c1.3-1.4,2.9-2.9,4.6-4.7l-0.2-2.3l-0.3-2.9l-0.2-1.3l-4.4-1.7l-1-0.4l-1.3-0.4l-1.2-0.4
			l-0.7-4.1l-0.7-3.5c0,0,0,0,0,0v0c-1.9,3.5-3.9,6.8-5.6,9.4c0.3,1.2,0.3,1.2,0.3,1.2l4,1.1l1.5,0.4l1.3,0.4l1.3,0.4l0.9,4.2
			L197.2,313.5z"/>
		<path class="st0" d="M189.8,319.9c1.4,0,2.9-0.6,4-1.7c0,0,0.9-0.9,2.4-2.5l-0.1,0l-1.2-0.4l-0.7-4.1l-0.8-4.1l-1.2-0.4l-1.3-0.4
			l-1.5-0.4c0,0-4-1.1-4-1.1c0,0,0-0.2-0.1-0.4c0,0,0,0,0,0v0c-1.3,2-2.2,3.2-2.2,3.2c-1.8,2.5-1.5,6.4,0.7,8.6l2,2
			C187,319.4,188.4,319.9,189.8,319.9"/>
		<path class="st0" d="M177.1,307.7c1.5,0,3-0.7,4-2.1c0,0,1.3-1.9,3.3-4.9l0,0l-0.8-2.8c-0.2-0.8-0.4-1.3-0.4-1.3l-4.7-1
			c-0.8-0.2-1.6-0.3-2.3-0.4L175,295l0,0l-1.4-3.9c-0.2-0.7-0.5-1.4-0.7-2c0,0,0,0,0,0v0c-1.5,3.7-2.6,6.1-2.6,6.1
			c-1.4,2.8-0.7,6.9,1.5,9.1l2,2C174.8,307.2,176,307.7,177.1,307.7"/>
		<path class="st0" d="M201.6,268.9c0.1,0.5,0.2,0.8,0.2,1l0,0v0l4.3-6.4c0-0.1,0-0.2-0.1-0.3l-0.8-2.7l-0.9-2.7
			c-0.2-0.7-0.4-1.2-0.4-1.2l-4.2-0.7c-1-0.2-1.9-0.3-2.7-0.4l-1.3-0.2c0,0-1.3-3.4-1.5-3.9c-0.8-1.9-1.6-3.8-1.6-3.8l-1.4-0.1
			l-1.2-0.1l-1.5-0.1l-3.1-0.2h0l-1.9,4.7l0.6,0.1l1.6,0.2l1.3,0.2l1.3,0.2l0.5,1.3l0.3,0.6c0.2,0.6,0.5,1.3,0.8,2.1l1.4,4l1.3,0.2
			c0.6,0.1,1.4,0.3,2.3,0.5l0.6,0.1l4.2,0.9c0,0,0.2,0.5,0.4,1.3l0.8,2.8L201.6,268.9z"/>
		<path class="st0" d="M204.5,302.3l0.3,2.9l0.2,1.6l0,0v0c1.2-1.2,2.4-2.4,3.6-3.7l1.1-1.2c1.3-1.3,0.8-4.5-1-7l-6.9-8.9
			c-0.9-1.1-1.9-1.6-2.9-1.6c-1.3-0.1-2.5,0.7-3.4,2.3c0,0-0.1,0.2-1.4,2.6c0,0,0,0,0,0l0.6,0.2l0.9,4.2l0.7,4.2l1.2,0.4l1.3,0.5
			l1.4,0.6l4,1.6L204.5,302.3z"/>
		<polygon class="st0" points="206.9,271.6 206.9,267.5 204.6,271 206,271.4 		"/>
		<path class="st0" d="M191.4,288.6L191.4,288.6L191.4,288.6c0.1-0.2,0.2-0.3,0.2-0.5c1.4-2.7,1.9-3.6,1.9-3.6
			c1.5-2.8,0.9-6.8-1.3-9.1l-8.2-7.9c-0.9-0.8-1.8-1.2-2.6-1.2c-1.3,0-2.5,1-2.9,2.9c0,0-0.3,1.2-1,4.4c-0.3,1.3-0.6,2.5-0.9,3.7
			l0.7,0.1c0.6,0.1,1.4,0.3,2.3,0.5l0.6,0.1l4.2,0.9c0,0,0.2,0.5,0.4,1.3l0.8,2.8l0.8,2.8c0.3,1.3,0.3,1.3,0.3,1.3l4,1.1
			L191.4,288.6z"/>
		<path class="st0" d="M142,301.6c0.9,0,1.8-0.2,2.7-0.6c0,0,2.1-1.1,5-2.8l0.1-1l-3.5-2.1c-0.9-0.6-1.9-1.1-2.4-1.4
			c0,0-1.1-0.6-1.1-0.6l0.1-4.1l0-4.1l-1.1-0.6c-0.6-0.4-1.5-0.8-2.5-1.3l-3.7-1.8l0-1.3l-0.1-2.8l0-0.5h-2.2
			c-0.9,0.7-1.5,1.2-1.5,1.2c-2.4,1.9-3.1,5.7-1.6,8.4l6.9,12.5C138,300.4,140,301.5,142,301.6"/>
		<path class="st0" d="M151.6,249.3c1.4,0,2.8-0.7,3.7-2.2c0,0,1.1-1.8,2.7-4.5l-2.3-0.6c-0.7-0.2-1.3-0.4-1.9-0.5l-1.2-0.3l0,0
			l-1-4c-0.2-0.8-0.4-1.6-0.6-2.3l-0.4-1.7l-4-0.9l-4.1-0.8l0.1-0.1l-0.4-1.2c-0.2-0.8-0.5-1.7-0.8-2.7l-0.9-2.9l0,0v0
			c-0.6,0.6-1.1,1.1-1.6,1.5v11.5l9.6,10.1C149.4,248.8,150.5,249.3,151.6,249.3"/>
		<path class="st0" d="M171.5,275.1c1.1,0.1,2.1-0.7,2.8-2.4c0,0,1.4-3.6,3.1-8.5l-2.4-0.9c-0.7-0.3-1.5-0.6-2.1-0.8l-1.7-0.6l0,0
			c-0.1-0.2-0.3-2.1-0.6-4.1l-0.6-4.1l-1.2-0.4c-0.7-0.3-1.7-0.6-2.7-0.9c0,0-3.9-1.2-3.9-1.2c0,0,0-0.1-0.2-1.3l-0.5-2.8l-0.6-2.8
			c-0.1-0.3-0.1-0.6-0.2-0.8c0,0,0,0,0,0v0c-2,3.3-3.4,5.6-3.4,5.6c-1.6,2.7-1.4,6.8,0.5,9.3l11.1,14.9
			C169.7,274.5,170.6,275.1,171.5,275.1"/>
		<path class="st0" d="M86.8,303.4l0.1,0.1l0,0v0l1.9-1.3c2.7-1.6,3.6-5.1,2.1-7.8l-4.5-7.5c-0.9-1.5-2.3-2.2-3.8-2.2
			c-1.1,0-2.3,0.5-3.2,1.5l-3.6,3.7l3,1.4c1.9,0.9,3.8,1.8,3.8,1.9l0.3,4.3c0,0.8,0.1,1.5,0.1,2.2c0,0.3,0,2,0,2l1.1,0.6
			c0.2,0.1,0.4,0.2,0.7,0.4C85.5,302.7,86.1,303,86.8,303.4"/>
		<path class="st0" d="M145.2,260.9L145.2,260.9c1.2-1.3,1.9-2.2,1.9-2.2c2-2.4,1.8-6.3-0.3-8.6l-7.9-8.2v16.6l0.5,0.2
			c0.5,0.2,1.2,0.4,1.8,0.7l0.8,0.3L145.2,260.9L145.2,260.9z"/>
		<path class="st0" d="M115.3,312.5L115.3,312.5c3-1,6.4-2.2,9.2-3.2c0.2-1.9,0.4-3.7,0.4-3.7l-1.1-0.7l-0.2-0.2
			c-0.6-0.4-1.4-0.9-2.1-1.4l-3.5-2.2l0.1-1.3c0-0.6,0.1-1.3,0.1-2.1l0-0.8l0.2-4.2l-1.1-0.6l-2.5-1.4l-1-0.6l0,0v0l-8.2,5.3
			l-0.1,1.6l0.3,0.2c0.2,0.1,0.5,0.3,0.8,0.5l2.4,1.6l2.4,1.6c0.7,0.4,1.1,0.7,1.1,0.7l-0.4,4.3c-0.2,2.1-0.4,4.2-0.4,4.2
			L115.3,312.5C115.2,312.5,115.2,312.5,115.3,312.5"/>
		<path class="st0" d="M181.9,226.5c1,0.9,2.1,1.3,3.1,1.2h0c0,0,0,0,0-0.1l-0.3-2.9l-0.3-2.9l-0.2-1.3l-4.4-1.7l-0.7-0.3h0
			C179.6,222.1,180.7,225.5,181.9,226.5"/>
		<path class="st0" d="M67.6,310.3c1.1,1.1,2.6,1.7,4.2,1.8c1.5,0.1,3.1-0.3,4.4-1.2l2.7-1.9c-0.5-0.2-1.1-0.5-1.6-0.7l-3.8-1.7
			l0-0.1c0-0.1,0-0.6-0.1-1.3l-0.3-2.8l-0.3-2.9l-0.2-1.3l-3.6-1.4h0l-3.3,3.4c-2.2,2.2-2.2,5.9,0,8.1L67.6,310.3z"/>
		<path class="st0" d="M143.2,178.6l0.2,0.3c0.1,0.2,0.3,0.5,0.4,0.9l1.3,2.6l1.2,2.6c0.3,0.7,0.5,1.2,0.5,1.2l2.4,0.3h0l1.9-1.2
			c2.5-1.8,2.8-5.1,0.6-7.3l-2-2c-1.7-1.7-4.4-2.6-6.9-2.5c-0.8,0-1.6,0.2-2.4,0.5l-1.6,0.7v3.8h0L143.2,178.6z"/>
		<polygon class="st0" points="134.7,178.4 134.7,178.4 136,178.4 136.5,178.4 138.7,174.7 133.8,176.8 		"/>
		<path class="st0" d="M79.6,322.3c1.4,1.4,3.4,2.1,5.4,2c1.2-0.1,2.4-0.4,3.4-1l0.3-0.2l0-0.7l-3.6-2c-0.6-0.4-1.3-0.7-1.8-1
			c-0.3-0.1-1.8-1-1.8-1l0-1.3c0-0.2,0-0.5,0-0.7c0-0.7,0-1.4-0.1-2.2l-0.2-3.4l0,0v0l-2.9,2c-2.5,1.9-2.7,5.2-0.5,7.4L79.6,322.3z"
			/>
		<path class="st0" d="M55.6,298.2c1.1,1.1,2.6,1.7,4,1.6c1.4,0,2.9-0.6,4-1.7c0,0,0.9-0.9,2.4-2.5l-0.1,0l-1.2-0.4l-0.7-4.1
			l-0.8-4.1l-1.2-0.4l-1.3-0.4l-1.5-0.4c0,0-4-1.1-4-1.1c0,0,0-0.2-0.1-0.4l0,0v0c-1.3,2-2.2,3.2-2.2,3.2c-1.8,2.5-1.5,6.4,0.7,8.6
			L55.6,298.2z"/>
		<path class="st0" d="M159.3,240.4L159.3,240.4L159.3,240.4c1.4-2.4,3.1-5.3,4.6-8l-1.6-0.3l-1.3-0.2l-1.2-3.9
			c-0.3-1-0.6-1.9-0.8-2.7l-0.4-1.2l-4-0.7l-4.1-0.6l-0.4-1.2c-0.2-0.7-0.6-1.6-0.9-2.7l-0.7-1.9h0c-2,2-4.2,4.1-6,5.9l0.9,2.7
			c0.3,1,0.6,1.9,0.8,2.7l0.4,1.2l4,0.8l4,0.9l0.4,1.3l0.1,0.4c0.2,0.7,0.4,1.5,0.6,2.3l1,4l1.2,0.3c0.5,0.1,1.2,0.3,1.9,0.5
			l0.9,0.2L159.3,240.4z"/>
		<path class="st0" d="M53.4,231.7l0.6,0.1l1.6,0.2l1.3,0.2l1.3,0.2l0.5,1.3l0.3,0.6c0.2,0.6,0.5,1.3,0.8,2.1l1.4,4l1.3,0.2
			c0.6,0.1,1.4,0.3,2.3,0.5l0.6,0.1l4.2,0.9c0,0,0.2,0.5,0.4,1.3l0.8,2.8l0.8,2.8c0.1,0.5,0.2,0.8,0.2,1l0,0v0l4.3-6.4
			c0-0.1,0-0.2-0.1-0.3l-0.8-2.7l-0.9-2.7c-0.2-0.7-0.4-1.2-0.4-1.2l-4.2-0.7c-1-0.2-1.9-0.3-2.7-0.4l-1.3-0.2c0,0-1.3-3.4-1.5-3.9
			c-0.8-1.9-1.6-3.8-1.6-3.8l-1.4-0.1l-1.2-0.1l-1.5-0.1l-3.1-0.2h0L53.4,231.7z"/>
		<path class="st0" d="M108,314.6c0.5,0,1.1-0.1,1.6-0.3l2.7-0.9c0,0,0,0,0,0l-3.2-2.3c0,0,0.3-2.1,0.4-4.2l0.4-4.2
			c0,0-0.4-0.3-1.1-0.7l-2.4-1.6l-2.4-1.5c-0.3-0.2-0.6-0.4-0.8-0.5l-0.3-0.2l0-1.3h0l-0.8,0.5c-2.7,1.6-3.8,5.2-2.4,8l2.5,5.4
			C103.3,313.2,105.6,314.7,108,314.6"/>
		<path class="st0" d="M98.3,295.7c0.9,0,1.8-0.3,2.7-0.8l2.2-1.4c0-0.8,0.1-1.7,0.1-2.3l0-1.3l-3.6-2c-0.6-0.4-1.3-0.7-1.8-1
			c-0.3-0.1-1.9-1-1.9-1l0-1.3c0-0.2,0-0.5,0-0.7c0-0.7,0-1.4-0.1-2.2l-0.2-4.2c0,0-1.1-0.5-2.4-1.1h-4.2c-1.8,2.2-2.3,5.4-1,7.4
			l1.2,2c2.4,4,4.2,7.2,4.2,7.2C94.3,294.8,96.3,295.8,98.3,295.7"/>
		<path class="st0" d="M106.5,146.1c1.2,0.1,2.5-0.3,3.5-1.2c0,0,1.5-1.2,3.6-3l-2.4-1l-0.8-0.3c-0.7-0.3-1.3-0.6-1.8-0.8l-1.2-0.5
			l0,0l-0.4-4.1c-0.1-0.9-0.2-1.9-0.3-2.6l-0.2-1.5l-3.8-1.4l-3.9-1.4l-0.2-1.3c0-0.2-0.1-0.4-0.1-0.6c-0.1-0.7-0.2-1.4-0.4-2.2
			l-0.3-1.9l0,0l-0.4-2.1l-0.9-0.3l-5.4,9c5.1,6.3,11.1,15,11.1,15C103.4,145.2,105,146,106.5,146.1"/>
		<path class="st0" d="M78.2,150.8c0,0.4,0,0.9,0,1.3c0,0.3,0.1,2,0.1,2l1.1,0.6c0.2,0.1,0.4,0.2,0.7,0.4c0.6,0.3,1.2,0.7,1.9,1
			l3.7,2.1l0,1.4c0,0.6,0,1.3,0,2.1l0,0v0l5.5-3.5l0-3.9c0-1,0-2.1-0.1-2.9l0-1.3l-3.7-1.8l-3.8-1.8l-0.1-1.4c0-0.7-0.1-1.7-0.2-2.6
			L78.2,150.8z"/>
		<path class="st0" d="M82.2,167.2c-2.7,1.6-3.8,5.2-2.4,8l2.5,5.4c1,2.3,3.4,3.8,5.7,3.8c0.5,0,1.1-0.1,1.6-0.3l2.7-0.9
			c0,0,0,0,0,0l-3.2-2.3c0,0,0.3-2.1,0.4-4.2l0.4-4.2c0,0-0.4-0.3-1.1-0.7l-2.4-1.6l-2.4-1.5c-0.3-0.2-0.6-0.4-0.8-0.5l-0.3-0.2
			l0-1.3l0,0v0L82.2,167.2z"/>
		<path class="st0" d="M78.2,165.5c0.9,0,1.8-0.3,2.7-0.8l2.2-1.4c0-0.8,0.1-1.7,0.1-2.3l0-1.3l-3.6-2c-0.6-0.4-1.3-0.7-1.8-1
			c-0.3-0.1-1.9-1-1.9-1l0-0.9l-3.6,6c0.7,1.1,1,1.8,1,1.8C74.3,164.5,76.2,165.5,78.2,165.5"/>
		<path class="st0" d="M94.7,343.7l-1.3,0l-1.3,0l-1.5,0l-4.1,0.1l0-0.1l-0.2-0.3l-0.1-0.1c-0.1-0.2-0.2-0.4-0.4-0.7l-1.4-2.4
			l-0.1-0.1c-0.2,0.3-0.3,0.4-0.3,0.4c-0.8,1.2-1.1,2.5-0.9,3.8H95C94.8,344,94.7,343.7,94.7,343.7"/>
		<path class="st0" d="M32,340.5c-0.2-0.8-0.5-1.7-0.8-2.7l-0.9-2.9c-2,1.9-3.3,3.2-3.3,3.2c-1.7,1.7-2.1,4.2-1.2,6.3h14.9l-0.3-1
			l-4-0.9l-4.1-0.8l0.1-0.1L32,340.5z"/>
		<path class="st0" d="M23,291.2c0,0-0.1-0.1-0.2-0.4l-0.4-0.8l-0.4-0.6c-0.2-0.4-0.5-0.9-0.8-1.4l-9.2,3.9c-3,0.7-3.2,2.4-0.4,3.8
			l10.5,5.5c2.7,1.5,7.2,1.6,10,0.1l3.6-2.3l-0.8-0.1l0-0.1c-0.1-0.1-0.3-0.6-0.5-1.2l-1.2-2.6l-1.2-2.6c-0.2-0.4-0.3-0.7-0.4-0.9
			l-0.2-0.3l-4.2-0.1l-1.5,0l-1.3,0L23,291.2C23,291.2,23,291.2,23,291.2"/>
		<path class="st0" d="M41.8,299.6l-1.2-0.2l-0.3,0l-5.3,3.5c-2.7,1.5-2.8,4-0.2,5.7l6.2,4.1c2.6,1.8,6.5,1.4,8.7-0.8
			c0,0,1.4-1.4,3.1-3l-3.1-0.7c-0.8-0.2-1.6-0.3-2.3-0.4l-1.3-0.2l0,0l-1.4-3.9c-0.3-0.7-0.5-1.4-0.8-2l-0.7-1.9L41.8,299.6z"/>
		<path class="st0" d="M63.9,323.7c0.3-0.5,0.6-1.2,1-2l-0.4-1.9l-1.2-0.4L62,319l-1.5-0.4c0,0-4-1.1-4-1.1c0,0-0.3-1-0.3-1.3
			l-0.7-2.8l-0.4-1.4c-0.8,3.8-0.1,10.9,1.9,12.5C59.3,326.4,62.5,326,63.9,323.7"/>
		<path class="st0" d="M56.5,343.3c-0.2,0.4-0.4,0.8-0.6,1.1H59l-0.2-0.6L56.5,343.3z"/>
		<path class="st0" d="M4.4,316.7c-0.3,0-0.7,0-1,0l-0.5,0v1L4.4,316.7z"/>
		<path class="st0" d="M55.6,326.9l-5.1-3.9c-2.5-1.9-5.6-2.3-7-1l-1.3,1.2c-0.6,0.6-1.3,1.3-2.1,2l0.6,1.6c0.4,1.1,0.8,2.1,1,2.7
			l0.4,1.2l4.1,0.6l4.1,0.7l0.4,1.3c0.3,0.8,0.6,1.8,0.9,2.7l1.2,4l1.2,0.2l0.9,0.2c0.7-1.2,1.3-2.4,1.8-3.4l1.1-2.2
			C59,332.4,58,328.9,55.6,326.9"/>
		<path class="st0" d="M66.5,336c-2.4-2-5.2-2-6.3,0.1l-1,2c-0.4,0.9-0.9,1.8-1.5,2.8l3.1,0.7l0.4,1.3l0.4,1.4h11.9
			c-0.6-1.8-1.5-3.5-2.7-4.6C68.4,337.7,66.5,336,66.5,336"/>
		<path class="st0" d="M76.3,330.5l0.3,2.9l0.3,2.7c0-0.1,0.1-0.2,0.1-0.3c0.8-2.5,2.7-9.3,0.5-11.5l-2-2c-2.2-2.2-5.3-2.4-6.8-0.5
			c-0.5,0.7-0.6,2.4-0.4,4.4l1.1,0.4l1.3,0.5l1.4,0.6l4,1.6L76.3,330.5z"/>
		<path class="st0" d="M66.1,317.6c0.5-2.2,0.5-4.3-0.6-5.4l-2-2c-1.9-1.9-4.7-2.3-6.7-1.1l0.6,2.2l0.8,2.8c0.3,1.3,0.3,1.3,0.3,1.3
			l4,1.1l1.5,0.4l1.3,0.4L66.1,317.6z"/>
		<path class="st0" d="M74,332.2l-0.2-1.3l-4.4-1.7l-0.7-0.3c0.6,3.4,1.7,6.8,2.9,7.8c1,0.9,2.1,1.3,3.1,1.2c0,0,0,0,0-0.1l-0.3-2.8
			L74,332.2z"/>
		<path class="st0" d="M45.5,298.8l0.3,0.6c0.2,0.6,0.5,1.3,0.8,2.1l1.4,4l1.3,0.2c0.6,0.1,1.4,0.3,2.3,0.5l0.6,0.1l2.6,0.6
			c1.1-2,0.8-4.8-1.1-6.6l-2-2c-2.1-2.1-5.6-2.4-8.1-0.9l0.2,0l1.3,0.2L45.5,298.8z"/>
		<path class="st0" d="M7.8,314.3l0.5,0l6.7-4l-0.7-1.5l-1.3,0c-0.5,0-1.6,0-2.8,0L6.1,309l-0.6-1.1l-1.4-2.4l-1.3-2.1v10.9
			c0.6,0,1.4,0,2.1,0.1C6,314.2,7,314.3,7.8,314.3"/>
		<path class="st0" d="M24.5,288.7l1.3,0l1.4,0l1.5,0l4.3,0.2l0.2,0.3c0.1,0.2,0.3,0.5,0.4,0.9l1.3,2.6l1.2,2.6
			c0.3,0.7,0.5,1.2,0.5,1.2l2.4,0.3l1.9-1.2c2.5-1.8,2.8-5.1,0.6-7.3l-2-2c-2.2-2.2-6.4-3.1-9.3-2l-6.7,2.8L24.5,288.7z"/>
		<path class="st0" d="M2.8,299.4l0.5,0c0,0,0,0,0,0c0,0,0.3,0.5,0.7,1.1l1.5,2.5l1.4,2.4l0.6,1.1l4.1-0.1c1.2,0,2.3,0,2.9,0l1.3,0
			l1.4,2.6l2-1.2c2.8-1.4,2.8-3.8,0.1-5.3l-11.9-6c-1.2-0.6-2.8-1-4.5-1.2V299.4z"/>
		<path class="st0" d="M25.9,333.3l-4-0.6c0,0-0.2-0.5-0.5-1.2l-1-2.6l-1-2.6l-0.5-1.2l-4.1-0.4c-1-0.1-2-0.2-2.8-0.2l-1.3-0.1
			c0,0-0.2-0.5-0.5-1.2l-1.1-2.6l-1.3-2.8c-2.3,1.3-3.8,2.2-3.8,2.2c-0.5,0.3-0.9,0.6-1.2,1v4.4c0.2,0.3,0.5,0.6,0.9,0.9l12.7,10.2
			c2.4,2,6.1,1.9,8.4-0.3c0,0,1.1-1,2.7-2.6L25.9,333.3z"/>
		<path class="st0" d="M52.1,342.3l-1.3-0.2l-1.2-3.9c-0.3-1-0.6-1.9-0.8-2.7l-0.4-1.2l-4-0.7l-4.1-0.6l-0.4-1.2
			c-0.2-0.7-0.6-1.6-0.9-2.7l-0.7-1.9c-2,2-4.2,4.1-6,5.9l0.9,2.7c0.3,1,0.6,1.9,0.8,2.7l0.4,1.2l4,0.8l4,0.9l0.4,1.3l0.1,0.4
			c0.1,0.4,0.2,0.9,0.4,1.4h9.5c0.3-0.6,0.7-1.2,1-1.8L52.1,342.3z"/>
		<path class="st0" d="M4.7,341.8l-1.9-0.4v2.9h2.6c-0.1-0.5-0.3-1-0.4-1.4L4.7,341.8z"/>
		<path class="st0" d="M6.7,339.7l0.4,1.3c0.2,0.6,0.4,1.3,0.6,2l0.2,0.8l0.2,0.7h7.8c0.8-2,0.3-4.3-1.5-5.8l-11.5-9.1v9.5
			L6.7,339.7z"/>
		<path class="st0" d="M36.3,325l-2.8-0.3l-4.1-0.4c0,0-0.8-2-1.6-3.8l-1.1-2.6l-0.5-1.2l-4.1-0.2c-0.9-0.1-2-0.1-2.8-0.1l-1.3,0
			l0,0l-1.7-3.4c-2.2,1.2-4.4,2.5-6.3,3.6l0.8,1.7l1.6,3.8l1.3,0.1c0.8,0.1,1.8,0.1,2.8,0.3l4.1,0.4l0.5,1.2l1,2.7l1.4,3.9l4,0.6
			l2.1,0.3C31.8,329.5,34.1,327.2,36.3,325L36.3,325z"/>
		<path class="st0" d="M25.9,307.7l-0.6,0.3c-2,1-4.4,2.3-6.7,3.6l1.1,2.2l1.3,0c0.9,0,1.9,0.1,2.8,0.1l4.1,0.3l0.6,1.2l1.1,2.6
			l1.6,3.8c0,0,2,0.2,4.1,0.4l2.8,0.3l0.6,0.1c0.6-0.6,1.2-1.1,1.7-1.6l1.1-1.1c1.2-1.2,0.1-3.6-2.5-5.3l-7-4.6
			C29.3,308.5,26.5,307.4,25.9,307.7"/>
		<path class="st0" d="M14.4,280.9c0,0,2.1-1.1,5-2.8l0.1-1L16,275c-0.9-0.6-1.9-1.1-2.4-1.4c0,0-1.1-0.6-1.1-0.6l0.1-4.1l0-4.1
			l-1.1-0.6c-0.3-0.1-0.6-0.3-0.9-0.5L4.3,274l2.5,4.5C8.2,281.2,11.6,282.3,14.4,280.9"/>
		<path class="st0" d="M4.2,279.6L2.8,277v8.9C4.8,284.5,5.4,281.9,4.2,279.6"/>
		<path class="st0" d="M102.8,340.3c-0.1-0.2-0.2-0.4-0.4-0.7c-0.8-1.5-1.6-2.9-1.6-2.9h0l-1.3,0l-1.3,0l-1.5,0.1l-4.1,0.2
			c-0.1-0.1-0.3-0.5-0.7-1.1l-1.5-2.4l-0.1-0.1h0c-0.3,0.2-0.5,0.5-0.8,0.8c-0.3,0.3-0.7,0.6-1,1c-1,1-1.9,2-2.6,2.8l1.2,2.1
			c0.2,0.3,0.3,0.5,0.4,0.7l0.3,0.5l4.1-0.1l1.5,0l1.3,0l1.3,0c0,0,0.8,1.5,1.6,3.1h15.1l-0.1-0.2l-4.1-0.2c-1,0-2-0.1-2.8-0.1
			l-1.3,0l0-0.1L102.8,340.3z"/>
		<path class="st0" d="M133.7,336.7l-4.1-0.1l-0.6-1.2l-1.3-2.6l-1.3-2.4c-0.4-0.7-0.6-1.1-0.6-1.1h0l-4.1,0.1c-2,0.1-4,0.2-4.1,0.2
			l0,0l0-0.1l-2.1-3.4c-0.4-0.6-0.8-1.3-1.1-1.8l-1.1-1.7h0l-1.3,0.1c-0.9,0.1-1.8,0.2-2.8,0.3c-0.8,0.1-1.7,0.2-2.3,0.3l-1,0.4
			c-2.9,1.2-2.9,3.4-0.2,4.8l16.5,9.4c1.3,0.8,3.1,1.3,4.8,1.3c1.8,0,3.5-0.3,4.9-1.1l2.8-1.6C134.4,336.7,134,336.7,133.7,336.7"/>
		<path class="st0" d="M138.9,372.3c0.6-0.6,1.2-1.2,1.7-1.7l-1.7-0.4V372.3z"/>
		<path class="st0" d="M119.6,340.1l-16.9-9.5c-1-0.5-2.3-0.8-3.6-0.9c-2.2-0.1-4.5,0.5-6,1.6c0,0-0.2,0.2-0.7,0.5l1,1.5
			c0.5,0.7,0.6,1,0.7,1.1l4.1-0.2l1.5-0.1l1.3,0l1.3,0c0,0,1.1,1.9,2,3.6l1.9,3.7l1.3,0c0.8,0,1.9,0.1,2.8,0.1l4.2,0.2l0.2,0.3
			c0.1,0.2,0.2,0.5,0.4,0.9l0.6,1.3h5.9C122,342.8,121.4,341.2,119.6,340.1"/>
		<path class="st0" d="M11.8,261.5c0.8,0.4,1.5,0.8,2.1,1.1l1.1,0.6l0,4.2c0,0.2,0,0.5,0,0.7c0,1.7-0.1,3.3-0.1,3.4
			c0.1,0,0.3,0.2,1.1,0.6c0.7,0.4,1.6,0.9,2.5,1.4l3.5,2.2l0,0.8c1.9-1.2,3.9-2.5,5.9-4h0h0c0.4-0.3,0.7-0.5,1.1-0.8l0-1.4l0-0.7
			c0-0.8,0-1.5,0-2.1l0-1.3l-3.6-1.9c-0.7-0.4-1.5-0.8-2.1-1.1c0,0-1.5-0.7-1.5-0.8c0,0,0-2.1-0.1-4.1l-0.2-4.1l-1.1-0.5
			c-0.6-0.3-1.4-0.6-2.6-1.2l-0.6-0.3L11.8,261.5z"/>
		<path class="st0" d="M26.6,236.8c0.3,0.6,0.6,1.2,0.9,1.7l11.1,14.9c0.8,1.1,1.7,1.7,2.5,1.7c1.1,0.1,2.1-0.7,2.8-2.4
			c0,0,1.4-3.6,3.1-8.5l-2.4-0.9c-0.7-0.3-1.5-0.6-2.1-0.8l-1.7-0.6l0,0c-0.1-0.2-0.3-2.1-0.6-4.1l-0.6-4.1l-1.2-0.4
			c-0.7-0.3-1.7-0.6-2.7-0.9c0,0-3.9-1.2-3.9-1.2c0,0,0-0.1-0.2-1.3l-0.2-1.2L26.6,236.8z"/>
		<path class="st0" d="M33.3,225.6l0.5,2.5l0.2,1.3l3.9,1.2c0.9,0.3,1.9,0.6,2.7,0.9l1.2,0.4l0.7,4.1c0.3,1.8,0.5,3.6,0.6,4.1
			l1.2,0.4l0.5,0.2c0.6,0.2,1.4,0.5,2.1,0.8l0.9,0.4c1.1-3.1,2.2-6.6,3.2-10.1l-0.6-0.2l0,0l-0.8-4l-0.8-4l-1.2-0.3
			c-0.6-0.2-1.6-0.4-2.7-0.7l-4-1l-0.3-1.3l-0.7-2.7l-0.5-1.9L33.3,225.6z"/>
		<path class="st0" d="M41.1,212.6l0,0.1l0.7,2.8l0.7,2.7l0.3,1.3l4,1c1.2,0.3,2.1,0.6,2.8,0.8l1.2,0.4l0.9,4.1l0.4,2v0l0,0
			c0.5-1.9,0.8-3.6,1.1-5.2c0.5-3.2,0.6-3.6,0.6-3.6c0.6-3.1-0.8-7.3-3.1-9.4c-2.3-2.1-4.2-3.7-4.2-3.7c-0.3-0.2-0.6-0.5-0.9-0.6
			L41.1,212.6z"/>
		<path class="st0" d="M196.6,233.2l-0.1-0.1c-0.1-0.2-0.2-0.4-0.4-0.7l-1.4-2.4l-0.1-0.1l0,0v0c-0.2,0.3-0.3,0.5-0.3,0.5
			c-1.8,2.6-1.1,6,1.5,7.7l11.1,7.8v-8.4l-0.1-0.3c-0.9-1.8-1.8-3.7-1.8-3.7l-1.3,0l-1.3,0h0l-1.5,0l-4.1,0.1l0-0.1L196.6,233.2z"/>
		<path class="st0" d="M191.8,239.7c-1.9-0.1-3.7,1-4.5,2.9l-0.8,2c0.2,0,0.6,0,1.2,0.1l2.5,0.2l1.6,0.1l1.3,0.1l1.3,0.1
			c0,0,0.9,2,1.7,3.9l1.5,3.9c0,0,0.1,0,0.4,0l0.9,0.1c0.8,0.1,1.8,0.3,2.8,0.5l4.2,0.7c0,0,0.2,0.5,0.4,1.3l0.6,1.9v-8.2l-12.6-8.9
			C193.5,240,192.6,239.7,191.8,239.7"/>
		<polygon class="st0" points="210.8,276.4 210.9,276.8 211.7,281 212.9,281.4 214.2,281.8 215.6,282.4 219.6,284 219.8,285.3 
			220.1,288.2 220.4,291.1 220.4,291 220.4,291.1 225.9,285.5 225.5,285.4 225.3,284.1 224.9,281.3 224.5,278.4 224.2,277.1 
			222,276.4 		"/>
		<path class="st0" d="M159.3,291.9l0-1.4l0-0.7c0-0.8,0-1.5,0-2.1l0-1.3l-3.6-1.9c-0.7-0.4-1.5-0.8-2.1-1.1c0,0-1.5-0.7-1.5-0.8
			c0,0,0-2.1-0.1-4.1l-0.2-4.1l-1.1-0.5c-0.6-0.3-1.4-0.7-2.6-1.2l-3.7-1.6l0,0l-0.1-1.3L144,267l0-0.5c0,0,0,0,0,0v0
			c-0.5,0.6-1.1,1.1-1.7,1.7c-1.1,1.1-2.2,2.2-3.4,3.2v5h-1.1l0.1,1.8l0,1.3l3.7,1.8c0.9,0.5,1.9,1,2.5,1.3l1.1,0.6l0,4.2
			c-0.1,2-0.1,4-0.1,4.1c0.1,0,0.3,0.2,1.1,0.6c0.7,0.4,1.6,0.9,2.5,1.4l3.5,2.2l0,0.8h0C154.5,295.2,157,293.6,159.3,291.9"/>
		<path class="st0" d="M70.5,203.4L70.5,203.4L70.5,203.4L70.5,203.4c-0.6,0.4-1.2,1-1.9,1.7c-1,1-1.9,2-2.6,2.8l1.2,2.1
			c0.2,0.3,0.3,0.5,0.4,0.7l0.3,0.5h0l4.1-0.1l1.5,0l1.3,0l1.3,0c0,0,1,1.9,1.9,3.7l1.8,3.8l1.3,0.1c0.8,0,1.9,0.1,2.8,0.2l4.2,0.4
			l0.2,0.3c0.1,0.2,0.2,0.5,0.4,0.9l1.1,2.7l0.7,1.8l0,0v0c0.2-0.2,0.5-0.5,0.7-0.7c1.5-1.5,3-2.9,4.3-4l-1-2.3l-1.1-2.6
			c-0.2-0.4-0.3-0.7-0.4-0.9l-0.1-0.3l-4.1-0.2c-1,0-2-0.1-2.8-0.1l-1.3,0l0-0.1l-1.9-3.6c-0.9-1.8-2-3.6-2-3.6h0l-1.3,0l-1.3,0
			l-1.5,0.1l-4.1,0.2c-0.1-0.1-0.3-0.5-0.7-1.1L70.5,203.4z"/>
		<path class="st0" d="M164.8,287.2c2.1-2.1,2.2-2.2,2.2-2.2c1.9-2.5,2-6.6,0.2-9.1l-11.2-15c-1-1.2-2.3-1.8-3.5-1.8
			c-1.3,0-2.6,0.6-3.6,1.8c0,0-1,1.3-2.7,3.2l0.1,1.3l0.3,2.8l0.1,1.3l3.8,1.6c0.8,0.4,1.8,0.8,2.6,1.2l1.2,0.6l0.2,4.2
			c0.1,2,0.1,4.1,0.1,4.1l1.1,0.6l0.4,0.2c0.6,0.3,1.4,0.7,2.1,1.1l3.7,2l0,1.3c0,0.6,0,1.4,0,2.2l0,0.7c0,0,0,0.4,0,0.9
			c0,0,0,0,0,0v0C162.9,289,163.9,288.1,164.8,287.2"/>
		<path class="st0" d="M143.5,262.8l-4.5-1.7c0,0,0,0-0.1,0v6.4c0.5-0.4,0.9-0.9,1.4-1.3C141.4,265,142.5,263.8,143.5,262.8"/>
		<path class="st0" d="M131.8,306.6c2.9-1.1,4.1-4.3,2.7-7l-6.6-12c-1-1.7-2.7-2.6-4.5-2.7c-1.1,0-2.2,0.3-3.1,0.9l-4.2,2.7l1.2,0.7
			c0.9,0.5,1.8,1.1,2.5,1.5l1.1,0.7l-0.2,4.2l0,0.9c0,0.7-0.1,1.4-0.1,2l-0.1,1.3l3.5,2.3c0.8,0.5,1.6,1.1,2.2,1.5l1.2,0.9
			c0,0-0.2,2-0.4,3.9c0,0,0,0,0,0v0C129.9,307.4,131.8,306.6,131.8,306.6"/>
		<path class="st0" d="M108.7,276.4l1,0.5l3.7,1.9l0.1,1.3c0,0.8,0.1,1.8,0.1,2.9l0,3.8l0,0v0l5.1-3.3c2.4-1.6,3.1-4.6,1.9-7.1
			H108.7z"/>
		<path class="st0" d="M66.3,213.2l-0.1-0.1c-0.1-0.2-0.2-0.4-0.4-0.7l-1.4-2.4l-0.1-0.1c0,0,0,0,0,0v0c-0.2,0.3-0.3,0.5-0.3,0.5
			c-1.8,2.6-1.1,6,1.5,7.7l14.3,10.1c0.9,0.7,2,1.1,3.1,1.2c1.9,0.1,3.8-0.5,5.1-2c0,0,0.1-0.1,0.4-0.5l-0.6-1.5l-1-2.6
			c-0.1-0.4-0.3-0.7-0.4-0.9l-0.1-0.3l-4.1-0.3c-0.9-0.1-2-0.2-2.8-0.2l-1.3-0.1l0-0.1l-1.7-3.7c-0.9-1.8-1.8-3.7-1.8-3.7l-1.3,0
			l-1.3,0h0l-1.5,0l-4.1,0.1l0-0.1L66.3,213.2z"/>
		<path class="st0" d="M61.5,219.6c-1.9-0.1-3.7,1-4.5,2.9l-0.8,2c0.2,0,0.6,0,1.2,0.1l2.5,0.2l1.5,0.1l1.3,0.1l1.3,0.1
			c0,0,0.9,2,1.7,3.9l1.5,3.9c0,0,0.1,0,0.4,0l0.9,0.1c0.8,0.1,1.8,0.3,2.8,0.5l4.2,0.7c0,0,0.2,0.5,0.4,1.3l0.9,2.8l0.7,2.4l0,0v0
			l1.6-2.4c1.8-2.6,1.2-6.2-1.2-8.1l-14-9.8C63.2,219.9,62.3,219.6,61.5,219.6"/>
		<path class="st0" d="M85.5,238c-1.5,0-3,0.7-4,2.2l-1.7,2.5l2.4,0.6l1.5,0.4L85,244l1.3,0.3l1,4.1l0.9,4.1l1.2,0.4
			c0.7,0.2,1.7,0.5,2.7,0.9l0.3,0.1l4-6.9l-7.6-7.6C87.8,238.5,86.6,238,85.5,238"/>
		<path class="st0" d="M72.9,253.1L72.9,253.1L72.9,253.1l-0.7,1.1c-1.6,2.7-1.2,6.9,0.8,9.3l7.4,9.5c0.2,0.2,0.4,0.5,0.6,0.7
			l4.9-8.4l-3.2-1.2l-1-0.4l-1.3-0.4l-1.2-0.4l-0.7-4.1l-0.8-4.1l-1.2-0.4l-1.3-0.4l-1.5-0.4C73.6,253.3,73.3,253.2,72.9,253.1"/>
		<path class="st0" d="M133.3,180.9c0,0-0.1-0.1-0.2-0.4l-0.4-0.8l-0.4-0.6c-0.2-0.4-0.5-0.9-0.8-1.4l0,0v0l-9.2,3.9
			c-3,0.7-3.2,2.4-0.4,3.8l8.1,4.2l5.1-8.8l-0.5,0L133.3,180.9C133.3,180.9,133.3,180.9,133.3,180.9"/>
		<path class="st0" d="M142.4,191l3.6-2.3l-0.8-0.1l0,0c-0.1-0.1-0.3-0.6-0.5-1.2l-1.2-2.6l-1.2-2.6c-0.2-0.4-0.3-0.7-0.4-0.9
			l-0.2-0.3l-2.7-0.1V192C140.2,191.9,141.4,191.6,142.4,191"/>
		<path class="st0" d="M152.1,189.4l-1.2-0.2l-0.3,0h0l-5.3,3.5c-2.7,1.5-2.8,4-0.2,5.7l6.2,4.1c1,0.7,2.1,1,3.3,1.1
			c2,0.1,4-0.5,5.4-1.9c0,0,1.4-1.4,3-3l-3.1-0.7c-0.8-0.2-1.6-0.3-2.3-0.4l-1.3-0.2l0,0l-1.4-3.9c-0.3-0.7-0.5-1.4-0.8-2l-0.7-1.9
			L152.1,189.4z"/>
		<path class="st0" d="M166.4,205.9l-0.7-2.8l-0.4-1.4v0l0,0c-0.8,3.8-0.1,10.9,1.9,12.5c1.2,1,2.6,1.4,3.9,1.2
			c1.3-0.1,2.4-0.8,3.1-2c0.3-0.5,0.7-1.2,1-2l-0.4-1.9l-1.2-0.4l-1.3-0.4l-1.5-0.4c0,0-4-1.1-4-1.1
			C166.7,207.2,166.5,206.1,166.4,205.9"/>
		<path class="st0" d="M94.7,319.8c0,0-0.4-0.3-1.1-0.7l-2.4-1.6l-2.4-1.5c-0.3-0.2-0.6-0.4-0.8-0.5l-0.3-0.2l0.2-4.4
			c0-0.9,0.1-1.9,0.1-2.6l0-1.3l-0.6-0.3h0l-3.8,2.6l0.2,3.5c0,0.8,0.1,1.5,0.1,2.2c0,0.3,0.1,2,0.1,2l1.1,0.6
			c0.2,0.1,0.4,0.2,0.7,0.4c0.6,0.3,1.2,0.7,1.9,1l3.7,2.1l0,0.8h0l3.5-1.8L94.7,319.8z"/>
		<path class="st0" d="M58.4,270.3c0,0-4-1.1-4-1.1c0,0-0.3-1-0.3-1.3l-0.7-2.8l-0.8-2.8c-0.2-0.8-0.4-1.3-0.4-1.3l-4.6-1
			c-0.6-0.1-1.2-0.2-1.7-0.3h0c-0.6,2-1.2,4-1.9,5.7l0.2,0.6l0.3,0.6c0.2,0.6,0.5,1.3,0.8,2.1l1.4,4l1.3,0.2
			c0.6,0.1,1.4,0.3,2.3,0.5l0.6,0.1l4.2,0.9c0,0,0.2,0.5,0.4,1.3l0.6,2c0,0,0,0,0,0v0c1.3-2.1,2.7-4.5,4.1-7l-0.1,0L58.4,270.3z"/>
		<path class="st0" d="M179.9,247.6l-0.8-4l-1.2-0.3c-0.6-0.2-1.6-0.4-2.7-0.7l-4-1l-0.3-1.3l-0.7-2.7l-0.7-2.7l-0.3-1.3l-2.3-0.5h0
			c-1.5,2.7-3.1,5.6-4.7,8.1l0.5,0.1c0,0,0.1,0.5,0.3,1.3l0.6,2.8l0.6,2.8l0.2,1.3l3.9,1.2c0.9,0.3,1.9,0.6,2.7,0.9l1.2,0.4l0.7,4.1
			c0.3,1.8,0.5,3.6,0.6,4.1l1.2,0.4l0.5,0.2c0.6,0.2,1.4,0.5,2.1,0.8l0.9,0.4v0l0,0c1.1-3.1,2.2-6.6,3.2-10.1l-0.6-0.2l0,0
			L179.9,247.6z"/>
		<path class="st0" d="M52.4,234.1L52.4,234.1l-0.5,1.1c-0.9,3,0.3,7.1,2.6,9.2l8.8,8.4c1,1.1,2.3,1.5,3.5,1.4
			c1.2-0.1,2.3-0.8,3.1-1.9c-0.2-0.1-0.4-0.1-0.4-0.1c0,0-0.3-1-0.3-1.3l-0.7-2.8l-0.8-2.8c-0.2-0.8-0.4-1.3-0.4-1.3l-4.6-1
			c-0.8-0.2-1.6-0.3-2.3-0.4l-1.3-0.2l0,0l-1.4-3.9c-0.3-0.7-0.5-1.4-0.8-2l-0.3-0.7l-0.5-1.2l-1.4-0.2l-1.2-0.2L52.4,234.1z"/>
		<path class="st0" d="M93.2,192.5L93.2,192.5l-1.3,0.1c-0.9,0.1-1.8,0.2-2.8,0.3c-0.8,0.1-1.6,0.2-2.3,0.3l-1,0.4
			c-2.9,1.2-2.9,3.4-0.2,4.8l16.5,9.4c1.3,0.8,3.1,1.3,4.8,1.3c1.8,0,3.5-0.3,4.9-1.1l2.8-1.6c-0.3,0-0.7,0-1,0l-4.1-0.1l-0.6-1.2
			l-1.3-2.6l-1.3-2.4c-0.4-0.7-0.6-1.1-0.6-1.1h0l-4.1,0.1c-2,0.1-4,0.2-4.1,0.2l0,0l0-0.1l-2.1-3.4c-0.4-0.6-0.8-1.3-1.1-1.8
			L93.2,192.5z"/>
		<path class="st0" d="M165.8,216.7l-5.1-3.9c-1.6-1.2-3.4-1.8-4.8-1.8c-0.9,0-1.6,0.3-2.1,0.7l0,0c-0.1,0.1-0.3,0.3-1.3,1.2
			c-0.6,0.6-1.3,1.3-2.1,2l0.6,1.6c0.4,1.1,0.8,2.1,1,2.7l0.4,1.2l4.1,0.6l4.1,0.7l0.4,1.3c0.3,0.8,0.6,1.8,0.9,2.7l1.2,4l1.2,0.2
			l0.9,0.2h0c0.7-1.2,1.3-2.4,1.8-3.4l1.1-2.2C169.3,222.1,168.2,218.6,165.8,216.7"/>
		<path class="st0" d="M173.1,224.3c-1.1,0-2.1,0.6-2.6,1.6l-1,2c-0.4,0.9-0.9,1.8-1.5,2.8l3.1,0.7l0.4,1.3l0.7,2.8l0.7,2.7l0.3,1.3
			l4,1c1.2,0.3,2.1,0.6,2.7,0.8l1.2,0.4l0.9,4.1l0.4,2c0,0,0,0,0,0v0c0.5-1.9,0.8-3.6,1.1-5.2c0.5-3.2,0.6-3.6,0.6-3.6
			c0.6-3.1-0.8-7.3-3.1-9.4c-2.3-2.1-4.2-3.7-4.2-3.7C175.6,224.8,174.3,224.3,173.1,224.3"/>
		<path class="st0" d="M90.1,229.2L90.1,229.2c-1.9,2.4-1.7,5.9,0.6,8l7.3,7.3l3.5-6c0,0,0,0,0,0l-1.5-0.3c0,0-0.6-2-1.2-4l-1.3-3.9
			l-1.2-0.2c-0.8-0.1-1.9-0.3-2.8-0.4L90.1,229.2z"/>
		<path class="st0" d="M84.3,304.9c-0.6-0.4-1.3-0.7-1.8-1c-0.3-0.1-1.8-1-1.8-1l0-1.3c0-0.2,0-0.5,0-0.7c0-0.7,0-1.4-0.1-2.2
			l-0.2-4.2c0,0-1.9-0.9-3.8-1.8l-2.5-1.1v0l0,0l-3.2,3.2l0,0l4,1.6l0.2,1.3l0.3,2.9l0.3,2.9c0.1,0.7,0.1,1.1,0.1,1.3l3.8,1.8
			c0.6,0.3,1.1,0.5,1.6,0.8h0l3.3-2.3L84.3,304.9z"/>
		<path class="st0" d="M185.8,212c-1.1-1.1-2.4-1.7-3.6-1.8c-1.2-0.1-2.4,0.3-3.1,1.3c-0.5,0.7-0.6,2.4-0.4,4.4l1.1,0.4l1.3,0.5
			l1.4,0.6l4,1.6l0.2,1.3l0.3,2.9l0.3,2.7l0,0v0c0-0.1,0.1-0.2,0.1-0.3c0.8-2.5,2.7-9.3,0.5-11.5L185.8,212z"/>
		<path class="st0" d="M173.8,200c-1.2-1.2-2.7-1.8-4.2-1.8c-0.9,0-1.8,0.2-2.5,0.7l0.6,2.2l0.8,2.8c0.3,1.3,0.3,1.3,0.3,1.3l4,1.1
			l1.5,0.4l1.3,0.4l0.8,0.3v0v0c0.5-2.2,0.5-4.3-0.6-5.4L173.8,200z"/>
		<path class="st0" d="M161.8,188c-1.3-1.3-3.2-1.9-5-1.9c-1.1,0-2.2,0.3-3.1,0.9l0.2,0l1.3,0.2l0.5,1.3l0.3,0.6
			c0.2,0.6,0.5,1.3,0.8,2.1l1.4,4l1.3,0.2c0.6,0.1,1.4,0.3,2.3,0.5l0.6,0.1l2.6,0.6h0c1.1-2,0.8-4.8-1.1-6.6L161.8,188z"/>
		<path class="st0" d="M63.2,275.6l-0.7-3.5c0,0,0,0,0,0v0c-1.9,3.5-3.9,6.8-5.6,9.4c0.3,1.2,0.3,1.2,0.3,1.2l4,1.1l1.5,0.4l1.3,0.4
			l1.3,0.4l0.9,4.2l0.7,4.2l1,0.3h0c1.3-1.4,2.9-2.9,4.6-4.7l-0.2-2.3l-0.3-2.9l-0.2-1.3l-4.4-1.7l-1-0.4l-1.3-0.4l-1.2-0.4
			L63.2,275.6z"/>
		<path class="st0" d="M99.7,311.8c-1.1-2.5-5.6-7.3-8.5-7.4c-0.4,0-0.8,0.1-1.1,0.3l-0.5,0.4l0.8,0.5l0,1.4c0,0.7,0,1.8-0.1,2.8
			l-0.1,4.4l0.3,0.2c0.2,0.1,0.5,0.3,0.8,0.5l2.4,1.6l2.4,1.6c0.7,0.4,1.1,0.7,1.1,0.7l0,0.1h0C99.8,317.3,100.8,314.4,99.7,311.8"
			/>
		<path class="st0" d="M101.1,187.8L101.1,187.8l-6.4,2.4l0.5,0.8l0.4,0.6c0.4,0.5,0.8,1.1,1.1,1.8l2.2,3.5h0c0.3,0,2.2-0.2,4.1-0.2
			l4.2-0.1c0,0,0,0,0,0c0,0,0.3,0.5,0.7,1.2l1.4,2.5l1.3,2.5l0.6,1.1h0c0,0,0,0,0.1,0c0.4,0,2.2,0,4,0.1c1.1,0,2.1,0.1,2.9,0.1
			l0.5,0h0l4.5-2.7l1.5-2.6l-0.1-0.1h0l-1.3,0c-0.3,0-0.7,0-1.2,0c-0.5,0-1.1,0-1.7,0l-4.1,0.1l-0.6-1.1l-1.4-2.4l-1.4-2.4
			c-0.3-0.5-0.6-0.9-0.6-1.1c0,0,0,0,0,0h0l-4.1,0.3c-2,0.1-4,0.4-4.1,0.4l-0.3-0.5l-1.9-2.9C101.6,188.5,101.3,188.1,101.1,187.8"
			/>
		<path class="st0" d="M110.9,185.1c-1.4,0-2.8,0.1-3.9,0.4l-3.5,1.4c0.6,1,1.9,2.8,1.9,2.9h0c0,0,2.1-0.2,4.1-0.4l4.2-0.3
			c0,0,0,0,0,0c0,0,0.3,0.5,0.7,1.1l1.5,2.5l1.4,2.4l0.6,1.1h0l4.1-0.1c0.3,0,0.6,0,0.9,0c0.8,0,1.6,0,2,0l1.3,0l0,0.1l2.5-4.3
			l-11-5.6C115.8,185.6,113.3,185.1,110.9,185.1"/>
		<path class="st0" d="M43.4,271c-0.2-0.7-0.5-1.4-0.7-2v0l0,0c-1.5,3.7-2.6,6.1-2.6,6.1c-1.4,2.8-0.7,6.9,1.5,9.1l2,2
			c1,1,2.1,1.5,3.3,1.5c1.5,0,3-0.7,4-2.1c0,0,1.3-1.9,3.3-4.9l0,0l-0.8-2.8c-0.2-0.8-0.4-1.3-0.4-1.3l-4.7-1
			c-0.8-0.2-1.6-0.3-2.3-0.4l-1.3-0.2l0,0L43.4,271z"/>
		<path class="st0" d="M118.1,207.5L118.1,207.5c-2.3,1.3-3.8,2.2-3.8,2.2c-2.7,1.6-2.8,4.4-0.3,6.3l0.4,0.3l4.4-7.5L118.1,207.5
			L118.1,207.5z"/>
		<path class="st0" d="M97.9,221.7L97.9,221.7L97.9,221.7c-1.5,1.3-3.1,2.8-4.7,4.4c-0.4,0.4-0.7,0.7-0.9,1l3.1,0.4
			c1,0.1,2,0.3,2.8,0.5l1.3,0.2l1.3,4c0.6,1.9,1.2,3.9,1.2,4c0,0,0.1,0,0.4,0.1l0.5,0.1l3.9-6.8c-0.3-0.8-0.7-2.1-1.1-3.3l-1.4-3.9
			l-1.3-0.2c-0.8-0.1-1.9-0.2-2.8-0.3L97.9,221.7z"/>
		<path class="st0" d="M106.9,216.5c-1.6,0-3.3,0.5-4.5,1.5c0,0-0.7,0.6-1.9,1.5l1.4,0.1c0.9,0.1,2,0.2,2.8,0.3l1.3,0.2l1.5,3.9
			c0.3,0.9,0.7,1.9,0.9,2.6l4.5-7.7l-1.5-1.2C110.1,216.9,108.5,216.5,106.9,216.5"/>
		<path class="st0" d="M111.2,288.4l0-3.9c0-1,0-2.1-0.1-2.9l0-1.3l-3.7-1.8l-3.8-1.8l0-0.3H98l0.2,3.8c0,0.8,0.1,1.5,0.1,2.2
			c0,0.3,0.1,2,0.1,2l1.1,0.6c0.2,0.1,0.4,0.2,0.7,0.4c0.6,0.3,1.2,0.7,1.9,1l3.7,2.1l0,1.4c0,0.6,0,1.3,0,2.1h0L111.2,288.4z"/>
		<path class="st0" d="M68.7,264.5c-1.3-0.1-2.5,0.7-3.4,2.3c0,0-0.1,0.2-1.4,2.6c0,0,0,0,0,0l0.6,0.2l0.9,4.2l0.7,4.2l1.2,0.4
			l1.3,0.5l1.4,0.6l4,1.6l0.2,1.3l0.3,2.9l0.2,1.6c0,0,0,0,0,0v0c1.2-1.2,2.4-2.4,3.6-3.7l1.1-1.2c1.3-1.3,0.8-4.5-1-7l-6.9-8.9
			C70.7,265,69.7,264.5,68.7,264.5"/>
		<path class="st0" d="M87.3,254.9c-0.7-0.2-1.2-0.4-1.2-0.4c0,0-0.4-2.1-0.9-4.1l-1-4l-1.2-0.3l-1.3-0.3l-1.5-0.4l-1.9-0.4h0
			l-3.9,6l1.3,0.4l1.5,0.4l1.3,0.4l1.3,0.4l0.9,4.2l0.7,4.2l1.2,0.4l1.3,0.5l1.4,0.6l1.8,0.7l4-6.9l-1.2-0.4
			C89,255.4,88,255.1,87.3,254.9"/>
		<path class="st0" d="M143.7,214.4l-4.1-0.4c0,0-0.3-0.7-0.7-1.7v8.7l1.1,0.2h0c2-1.9,4.4-4.2,6.6-6.4l-0.1,0L143.7,214.4z"/>
		<path class="st0" d="M120.3,206.2C120.3,206.2,120.3,206.2,120.3,206.2L120.3,206.2L120.3,206.2z"/>
		<path class="st0" d="M51.2,246.3c-1.3,0-2.5,1-2.9,2.9c0,0-0.3,1.2-1,4.4c-0.3,1.3-0.6,2.5-0.9,3.7l0.7,0.1
			c0.6,0.1,1.4,0.3,2.3,0.5l0.6,0.1l4.2,0.9c0,0,0.2,0.5,0.4,1.3l0.8,2.8l0.8,2.8c0.3,1.3,0.3,1.3,0.3,1.3l4,1.1l0.7,0.2h0
			c0.1-0.2,0.2-0.3,0.2-0.5c1.4-2.7,1.9-3.6,1.9-3.6c1.5-2.8,0.9-6.8-1.3-9.1l-8.2-7.9C52.9,246.7,52,246.3,51.2,246.3"/>
		<path class="st0" d="M149.2,204.5l-7-4.6c-1.1-0.7-2.3-1.3-3.3-1.7v7.8l0.8,2l1.6,3.8c0,0,2,0.2,4.1,0.4l2.8,0.3l0.6,0.1h0
			c0.6-0.6,1.2-1.1,1.7-1.6l1.1-1.1C152.9,208.6,151.8,206.2,149.2,204.5"/>
		<path class="st0" d="M79,199.4c-2.2-0.1-4.5,0.5-6,1.6c0,0-0.2,0.2-0.7,0.5l1,1.5c0.5,0.7,0.6,1,0.7,1.1h0l4.1-0.2l1.5-0.1l1.3,0
			l1.3,0c0,0,1.1,1.9,2,3.6l1.9,3.7l1.3,0c0.8,0,1.9,0.1,2.8,0.1l4.2,0.2l0.2,0.3c0.1,0.2,0.2,0.5,0.4,0.9l1.2,2.6l1.1,2.6
			c0,0.1,0.1,0.2,0.1,0.3c0,0,0,0,0,0v0c1.5-1.3,2.5-2,2.5-2c2.5-1.9,2.3-4.8-0.4-6.5l-16.9-9.5C81.6,199.8,80.3,199.5,79,199.4"/>
		<path class="st0" d="M122.8,154.4l-1.1-0.6c-0.6-0.4-1.5-0.8-2.5-1.3l-3.7-1.8l0-1.3l-0.1-2.8l-0.1-2.3c0,0,0,0,0,0v0
			c-2.1,1.8-3.6,3-3.6,3c-2.4,1.9-3.1,5.7-1.6,8.4l6.9,12.5c1,1.9,2.9,3,4.9,3.1c0.9,0,1.8-0.2,2.7-0.6c0,0,2.1-1.1,5-2.8l0.1-1
			l-3.5-2.1c-0.9-0.6-1.9-1.1-2.4-1.4c0,0-1.1-0.6-1.1-0.6l0.1-4.1L122.8,154.4z"/>
		<path class="st0" d="M103.4,154.7c-1.1,0-2.2,0.3-3.1,0.9l-4.2,2.7l1.2,0.7c0.9,0.5,1.8,1.1,2.5,1.5l1.1,0.7l-0.2,4.2l0,0.9
			c0,0.7-0.1,1.4-0.1,2l-0.1,1.3l3.5,2.3c0.8,0.5,1.6,1.1,2.2,1.5l1.2,0.9c0,0-0.2,2-0.4,3.9h0c2.8-1,4.7-1.7,4.7-1.7
			c2.9-1.1,4.1-4.3,2.7-7l-6.6-12C106.9,155.7,105.2,154.7,103.4,154.7"/>
		<path class="st0" d="M85.4,138.8l0.2,1.9c0.1,1,0.2,2,0.2,2.7l0.1,1.4l3.8,1.8l3.7,1.9l0.1,1.3c0,0.8,0.1,1.8,0.1,2.9l0,3.8l0,0v0
			l5.1-3.3c2.6-1.7,3.3-5.2,1.5-7.8l-9.8-13.3c-0.2-0.2-0.4-0.4-0.6-0.6L85.4,138.8z"/>
		<path class="st0" d="M67.9,177.9l0-1.3l-0.6-0.3v0l0,0l-3.8,2.6l0.2,3.5c0,0.8,0.1,1.5,0.1,2.2c0,0.3,0.1,2,0.1,2l1.1,0.6
			c0.2,0.1,0.4,0.2,0.7,0.4c0.6,0.3,1.2,0.7,1.9,1l3.7,2.1l0,0.8l0,0v0l3.5-1.8l0-0.2c0,0-0.4-0.3-1.1-0.7l-2.4-1.6l-2.4-1.5
			c-0.3-0.2-0.6-0.4-0.8-0.5l-0.3-0.2l0.2-4.4C67.8,179.6,67.9,178.7,67.9,177.9"/>
		<path class="st0" d="M65.3,172.3c0.5,0.2,0.9,0.5,1.4,0.8l0.1,0.1h0l1.9-1.3c2.7-1.6,3.6-5.1,2.1-7.8l-0.3-0.5L65.3,172.3z"/>
		<path class="st0" d="M93.7,159.8L93.7,159.8L93.7,159.8l-8.2,5.3l-0.1,1.6l0.3,0.2c0.2,0.1,0.5,0.3,0.8,0.5l2.4,1.6l2.4,1.6
			c0.7,0.4,1.1,0.7,1.1,0.7l-0.4,4.3c-0.2,2.1-0.4,4.2-0.4,4.2l3.4,2.5c0,0,0,0,0.1,0h0c3-1,6.4-2.2,9.2-3.2
			c0.2-1.9,0.4-3.7,0.4-3.7l-1.1-0.7l-0.2-0.2c-0.6-0.4-1.4-0.9-2.1-1.4l-3.5-2.2l0.1-1.3c0-0.6,0.1-1.3,0.1-2.1l0-0.8l0.2-4.2
			l-1.1-0.6l-2.5-1.4L93.7,159.8z"/>
		<path class="st0" d="M63.3,175.6l1.2-0.9l-0.3-0.2c-0.1,0-0.2-0.1-0.3-0.1L63.3,175.6z"/>
		<path class="st0" d="M71.2,174.1c-0.4,0-0.8,0.1-1.1,0.3l-0.5,0.4l0.8,0.5l0,1.3c0,0.7,0,1.8-0.1,2.8l-0.1,4.4l0.3,0.2
			c0.2,0.1,0.5,0.3,0.8,0.5l2.4,1.6l2.4,1.6c0.7,0.4,1.1,0.7,1.1,0.7l0,0.1l0,0v0c2.4-1.3,3.5-4.3,2.4-6.9
			C78.6,179.1,74.1,174.2,71.2,174.1"/>
		<path class="st0" d="M56.2,187.5c0.2,0.9,0.7,1.8,1.4,2.5l2,2c1.4,1.4,3.4,2.1,5.4,2c1.2-0.1,2.4-0.4,3.4-1l0.3-0.2l0-0.7l-3.6-2
			c-0.6-0.4-1.3-0.7-1.8-1c-0.3-0.1-1.9-1-1.9-1l0-1.3c0-0.2,0-0.5,0-0.7c0-0.7,0-1.4-0.1-2.2l-0.2-3.4h0l-1.2,0.8L56.2,187.5z"/>
	</g>
</g>
</svg>
