<?xml version="1.0" encoding="utf-8"?>
<!-- Generator: Adobe Illustrator 22.0.1, SVG Export Plug-In . SVG Version: 6.00 Build 0)  -->
<svg version="1.1" id="Layer_1" xmlns="http://www.w3.org/2000/svg" xmlns:xlink="http://www.w3.org/1999/xlink" x="0px" y="0px"
	 viewBox="0 0 464.9 385.5" style="enable-background:new 0 0 464.9 385.5;" xml:space="preserve">
<style type="text/css">
	.st0{fill:#FFFFFF;}
</style>
<g>
	<path class="st0" d="M144.6,38.3L144.6,38.3L144.6,38.3h-17c-4.7,0-8.5-3.8-8.5-8.5c0-4.7,3.8-8.5,8.5-8.5h39.7v-17h-39.7v0
		c-14.1,0-25.5,11.4-25.5,25.5c0,14.1,11.4,25.5,25.5,25.5h17l0,0v0c4.7,0,8.5,3.8,8.5,8.5c0,4.7-3.8,8.5-8.5,8.5l0,0v0h-39.7v17
		h39.7v0l0,0c14.1,0,25.5-11.4,25.5-25.5C170.1,49.7,158.6,38.3,144.6,38.3"/>
	<rect x="317.5" y="4.3" class="st0" width="17" height="85"/>
	<polygon class="st0" points="461.8,4.3 445,4.3 444.3,4.3 410.9,37.6 377.6,4.3 377,4.3 360.1,4.3 360,4.3 360,4.3 360,10.7 
		360,89.3 377,89.3 377,27.7 410.9,61.6 445,27.5 445,89.3 462,89.3 462,10.5 462,4.5 462,4.3 	"/>
	<polygon class="st0" points="275,65.8 241,31.9 206.9,66 206.9,4.3 189.9,4.3 189.9,83 189.9,89 189.9,89.3 190.2,89.3 206.9,89.3 
		207.7,89.3 241,56 274.4,89.3 275,89.3 291.9,89.3 292,89.3 292,89.2 292,82.9 292,4.3 275,4.3 	"/>
	<path class="st0" d="M441.5,157.9c-0.1,0-0.1,0.2-0.3,0.8c2.2,0,4.3,0.5,6.1-0.1c4-1.4,8-2.9,11.6-5c1.1-0.6,2.1-1.2,3.2-1.8v-5
		c-0.4,0.2-0.8,0.4-1.2,0.7C454.5,151.1,448.4,155.3,441.5,157.9"/>
	<path class="st0" d="M434.2,172.4c1.3,0.6,2.7,1.1,4.1,1.4c4,1.1,8.1,1.8,11.9,3.2c4,1.5,7.9,3.4,11.8,5.2v-1.6
		c-2.9-1.3-5.9-2.7-8.8-4C447.2,173.7,440.9,172.4,434.2,172.4"/>
	<path class="st0" d="M407,164.2c0,0.1,0.1,0.3,0.1,0.4c0.7,0.1,1.5,0.1,2.2,0.2c4.3,0.2,8.6,0.3,12.9,0.8
		c5.4,0.5,10.8,1.2,16.2,2.1c4.4,0.7,8.7,1.6,12.9,3c3.6,1.2,7.2,2.5,10.7,3.8v-3.9c-10.7-3.6-21.7-6-33-7c-6-0.5-12.1-0.5-18.1-0.5
		C409.6,163.1,408.3,163.8,407,164.2"/>
	<path class="st0" d="M405.6,271c1.2,0.3,2.5,0.6,3.8,0.9c8.7,1.8,17.1,4.1,25.3,7.4c5.3,2.1,10.5,4.3,15,7.9c4,3.2,7.3,7.1,10.6,11
		c0.3-1.3,0.5-2.7,0.7-4c-1.5-1.7-3-3.4-4.5-5c-5.4-5.9-11.8-10.5-19.4-13.1c-6.5-2.2-13.1-4.1-19.7-6
		C413.3,268.8,409.3,268.4,405.6,271"/>
	<path class="st0" d="M426.1,221.8c-5.3,0.9-10.7,0.9-16,0.4c-4.9-0.4-9.8-1-14.6-2c-0.5-0.1-1-0.2-1.5-0.3v5.8
		c3.6,0.8,7.4,1.4,11.2,1.6c7.8,0.4,15.6,0.5,23.3-0.7c7.8-1.2,15.2-3.8,22.4-7.2c3.7-1.7,7.4-3.4,11.1-5.2v-5.1
		C450.5,214.6,438.8,219.6,426.1,221.8"/>
	<path class="st0" d="M396.4,168.6c0.7,0.1,1.2,0.2,1.6,0.3c5.3,0.7,10.7,1.4,16,2.2c8.8,1.5,17.2,4.1,25.5,7.3
		c7.5,2.9,14.9,5.7,22.4,8.6v-1.5c-2.5-1.1-5-2.2-7.5-3.3c-15.9-7.1-32.2-13-49.8-14.6C402,167.3,399.2,167,396.4,168.6"/>
	<path class="st0" d="M423.4,158.1c-0.9,0-1.7,0.4-2.6,0.7c3.7,0.5,7.4,0.6,11,1c5.9,0.6,11.9,1.3,17.8,2.3
		c4.2,0.7,8.3,1.7,12.5,2.7v-1c-0.3-0.1-0.6-0.1-0.9-0.2c-4.7-1.1-9.5-1.9-14.3-2.8c-4.6-0.8-9.2-1.5-13.8-2.1
		C429.9,158.3,426.6,158.2,423.4,158.1"/>
	<path class="st0" d="M452.5,242.5c-1.2,0.3-2.3,0.6-3.5,0.9c0,0.1,0.1,0.3,0.1,0.4c4.4-0.4,8.7-1.1,12.9-2.2v-2.2
		C459,240.7,455.8,241.7,452.5,242.5"/>
	<path class="st0" d="M457.6,272.4c1.5,0.8,3,1.7,4.4,2.5v-0.7c-1.6-0.8-3.3-1.6-5-2.4C457.2,272.1,457.4,272.2,457.6,272.4"/>
	<path class="st0" d="M414.1,264c-6.6,2.6-13.3,4.9-20,7.2v1.7c11.2-3.4,22.1-7.4,32.7-12.3c11.6-5.4,23.3-10.8,35.3-15.2v-1
		c-4.2,1.4-8.3,3-12.3,4.7C437.8,254.1,426.1,259.3,414.1,264"/>
	<path class="st0" d="M462,251.2c-1.8,0.3-3.6,0.6-5.4,1c-3.2,0.6-6.3,1.5-9.2,2.2c4.8,0.4,9.7,0.5,14.6,1.2V251.2z"/>
	<path class="st0" d="M438,257.7c-1.1,0.1-2.1,0.7-3.4,1.1c4.9,0.6,9.4,1.1,13.8,1.7c4.7,0.6,9.3,1.7,13.7,3.4v-3.4
		C454.5,257.9,446.5,257,438,257.7"/>
	<path class="st0" d="M394,124.7v22.1c9.4,0.2,18.8,0.2,28.1-1.6c4.9-1,9.7-2.2,13.9-5c8.2-5.4,17-9.6,26-13.3v-20.6h-23
		c-4.2,1-8.4,2.3-12.6,3.8C415.2,114,404.5,119.1,394,124.7"/>
	<path class="st0" d="M412.2,229c-2.7-0.1-5.4-0.2-8.1-0.5c-3.4-0.4-6.8-0.7-10.1-1.3v3.7c4.3,0.8,8.6,1.5,13,1.8
		c10.4,0.7,20.7-0.6,30.8-3.6c8.3-2.4,16.4-5.3,24.3-8.5v-4.8c-2,1-4.1,2-6.1,3C442.1,225.9,427.7,229.6,412.2,229"/>
	<path class="st0" d="M447.4,324.2c0,0.2-0.1,0.3-0.1,0.5c0.2,0.1,0.4,0.3,0.7,0.4c0.9,0.3,1.8,0.7,2.7,1c0.2-0.3,0.4-0.7,0.5-1
		C449.9,324.8,448.6,324.5,447.4,324.2"/>
	<path class="st0" d="M430.4,238.6c-5.1,0.6-10.3,0.4-15.4,0.6c-0.5,0-1.1,0.1-2,0.1c3.8,1.5,7.2,2.3,10.8,1.9
		c5.5-0.5,11.2-0.5,16.6-1.7c5.8-1.3,11.5-3.3,16.9-5.7c1.6-0.7,3.2-1.5,4.8-2.3v-3.4c-6,2.8-12,5.5-18.4,7.3
		C439.3,236.6,434.9,238,430.4,238.6"/>
	<path class="st0" d="M440.3,149.2c-4.4,2.5-8.8,4.8-13.2,7.2c0.8,0.2,1.7,0.2,2.4-0.1c5.7-1.9,11.1-4.8,16.3-7.8
		c5.3-3.1,10.7-6,16.2-8.7v-2.4C454.7,141.1,447.5,145.2,440.3,149.2"/>
	<path class="st0" d="M449.8,327.6c-1.8-0.7-3.6-1.4-5.5-2c-1.2-0.4-2.7,0-4.1,0c2.9,1.4,5.7,2.7,8.4,4.1
		C449.1,328.9,449.5,328.2,449.8,327.6"/>
	<path class="st0" d="M443,242.9c6.6-1.1,13.1-2.4,19.1-5.3v-4.1c-6.1,2.9-12.5,5.3-19.1,6.9c-4.8,1.2-9.7,1.7-14.2,2.4
		C433.2,243.8,438.1,243.7,443,242.9"/>
	<path class="st0" d="M461.9,283.7c0-0.5,0-1,0.1-1.5c-1-0.8-2-1.5-3.1-2.2c-10.9-7.1-23-11.1-35.5-13.9c-1.2-0.3-2.5-0.4-3.7-0.5
		c0,0.2,0,0.3-0.1,0.5c0.7,0.1,1.3,0.2,2,0.4c6.7,2,13.3,4,20,6C449.4,274.8,456.1,278.6,461.9,283.7"/>
	<path class="st0" d="M436.6,168.8c-4.5-0.7-9-1.2-13.6-1.6c-5.3-0.5-10.6-0.7-14.8-1c4.3,0.9,9.6,1.8,14.8,3
		c3.1,0.7,6.1,1.5,9.3,1.5c7.2-0.1,14.2,1.1,20.9,4c3,1.3,5.9,2.7,8.8,4.1V176c-1.7-0.6-3.4-1.2-5.2-1.9
		C450.3,171.7,443.5,169.9,436.6,168.8"/>
	<path class="st0" d="M416.7,161.2c0.5,0.1,0.6,0.2,0.8,0.2c7,0.6,14,0.9,20.9,1.9c5.9,0.8,11.8,2,17.5,3.7c2.1,0.6,4.1,1.3,6.2,2
		v-2.7c-4.4-1.1-8.8-2-13.2-2.9c-4.3-0.8-8.7-1.5-13-1.9c-5.7-0.5-11.4-0.6-17.2-0.8C418.1,160.9,417.6,161.1,416.7,161.2"/>
	<path class="st0" d="M432.4,232.2c-3.9,1-7.9,1.6-11.9,1.8c-6.1,0.3-12.2,0.1-18.3,0c-1.4,0-2.9-0.3-4.3-0.5
		c3.2,1.7,6.3,3.6,10,3.8c5.8,0.2,11.7,0.3,17.5,0.4c1.7,0,3.5-0.1,5.2-0.5c7.7-1.7,15.3-3.7,22.5-6.9c3-1.3,5.9-2.6,8.8-4v-3.8
		c-4.2,1.7-8.5,3.3-12.8,4.7C443.7,228.9,438.1,230.8,432.4,232.2"/>
	<path class="st0" d="M428.1,329.1c0.4,0.2,0.7,0.3,1.1,0.5c5.2,2,10.3,4.3,14.9,7.3c0.7-1,1.3-2,2-2.9c-3.5-1.9-7.2-3.5-10.9-5.1
		C432.7,327.9,430.5,327.8,428.1,329.1"/>
	<path class="st0" d="M434.9,326.7c0,0.1,0,0.3,0,0.4c2.2,0.9,4.3,1.9,6.5,2.8c1.9,0.8,3.7,1.7,5.5,2.7c0.4-0.6,0.7-1.2,1-1.7
		c-3.2-1.5-6.5-2.8-9.9-3.9C437.1,326.7,436,326.8,434.9,326.7"/>
	<path class="st0" d="M432.3,332.6c3,2.7,6.1,5.4,9.1,8.1c0.6-0.8,1.2-1.6,1.7-2.4c-3-2-6.2-3.7-9.6-5.2
		C433.1,333,432.7,332.8,432.3,332.6"/>
	<path class="st0" d="M433.5,156.6c-0.2,0.1-0.4,0.3-0.9,0.6c2.1,0,4,0.3,5.7-0.1c5.3-1.3,9.9-4.1,14.6-6.9c3-1.8,6.1-3.7,9.2-5.4
		v-3.1c-2.8,1.4-5.6,2.9-8.4,4.3C447,149.6,440.2,153.1,433.5,156.6"/>
	<path class="st0" d="M456.7,257.2c1.2,0.3,2.3,0.6,3.4,0.9c0.7,0.2,1.3,0.4,2,0.6v-0.9C460.3,257.5,458.5,257.2,456.7,257.2"/>
	<path class="st0" d="M460.7,161.2c0.5-0.1,0.9-0.2,1.4-0.3v-3.2c-2,1.1-4.1,2.3-6.2,3.4C457.5,161.2,459.2,161.5,460.7,161.2"/>
	<path class="st0" d="M462,156.1v-2.4c-3.8,2.4-7.7,4.6-12.1,5.9C454.4,159.9,458.4,158.4,462,156.1"/>
	<path class="st0" d="M414.3,267.8c8,1.7,15.8,3.6,23.3,6.6c5.5,2.2,10.6,5,15.2,8.9c3,2.6,5.8,5.5,8.5,8.4c0.2-2,0.4-4,0.6-6
		c-4.1-3.8-8.8-7-14.1-9.3c-9.2-3.9-18.7-6.9-28.5-9C417.7,267.1,415.9,266.2,414.3,267.8"/>
	<path class="st0" d="M422.8,263.8c0,0.2,0,0.3,0,0.5c8.4,1.7,16.5,4.3,24.5,7.5c5.4,2.2,10.3,5,14.8,8.4c0-0.4,0-0.7,0-1.1h0v-2.4
		c-10.8-6.8-22.6-11.4-35.5-13.3C425.3,263.3,424,263.7,422.8,263.8"/>
	<path class="st0" d="M435,260.7c1,0.2,2.4,0.4,3.7,0.6c6.8,0.9,13.3,3,19.5,5.7c1.3,0.6,2.6,1.1,3.8,1.8v-3.2
		C455.1,262.6,439,260.2,435,260.7"/>
	<path class="st0" d="M70.3,342.3c-10.3-3.3-20.6-5.8-31.5-6c-6.7-0.1-13.4,0.1-19.9,1.6c-5.5,1.2-10.8,3.1-16,5.3v1.3h73
		C74,343.6,72.2,342.9,70.3,342.3"/>
	<path class="st0" d="M84.4,146c-1.3,0.2-2.5,0.4-3.8,0.7l-1.1,1.8C81.2,147.7,82.8,146.9,84.4,146"/>
	<path class="st0" d="M321.6,139.8c-3.3,3.5-7,6.6-10.6,9.9c-1.1,1-2.2,1.9-3.2,2.8c0.3,0.1,0.5,0,0.7-0.1c6.2-3.2,12-6.8,17.5-10.9
		v-6.5C324.5,136.7,323.1,138.3,321.6,139.8"/>
	<path class="st0" d="M302.7,115.3c-9.7,6.8-20.5,9.9-32.2,10.2c-8.2,0.3-16.5,0.2-24.7,0c-4.7-0.1-9.4-0.7-14.1-1.2
		c-2.6-0.3-5.2-0.6-7.8-0.9v3.4c2.8,0.6,5.7,1.2,8.6,1.6c5.6,0.8,11.2,1.8,16.9,2.1c11.1,0.5,22.3,0.1,33.3-2
		c8.9-1.7,17.3-4.7,24.6-10.1c5.1-3.8,10-8,14.8-12.2h-5C312.2,109.2,307.3,112.1,302.7,115.3"/>
	<path class="st0" d="M205.3,121.4c0.5,0.2,1.1,0.4,1.6,0.6v-1c-1.2-0.2-2.4-0.4-3.6-0.6C203.9,120.8,204.6,121.2,205.3,121.4"/>
	<path class="st0" d="M78,151.1l-1.3,2.1c4.3-2.2,8.7-4.5,12.9-6.9c13.3-7.5,26.7-14.8,41.5-19.3c-0.7,0-1.3-0.1-1.9,0
		c-6.9,1.6-13.5,4.1-19.8,7.4c-10,5.2-20,10.8-30,16C78.9,150.6,78.5,150.9,78,151.1"/>
	<path class="st0" d="M303.9,122.6c-7.5,4.2-15.4,6.9-23.9,7.8c-6.1,0.7-12.2,1.4-18.4,1.7c-8,0.4-15.9,0-23.8-1.3
		c-4.6-0.7-9.3-1.6-13.9-2.5v1c6.8,1.9,13.5,4,20.4,5.5c5.4,1.2,11,1.6,16.5,2.1c7.1,0.7,14.2,0.2,21.1-1.2
		c9.1-1.9,17.5-5.9,24.9-11.5c5-3.7,9.5-8,14.1-12.1c1.7-1.5,3.4-3.1,5-4.7v-1.2h-1.3c-1.8,1.6-3.6,3.1-5.4,4.7
		C314.4,115.2,309.6,119.5,303.9,122.6"/>
	<path class="st0" d="M311.7,164.7c0,0.1,0.1,0.3,0.1,0.4c4.7-1.4,9.5-2.6,14.1-4.3v-3.4c-4.3,2.6-8.7,5-13.4,7
		C312.3,164.4,312,164.6,311.7,164.7"/>
	<path class="st0" d="M394,110.3c0.9-0.6,1.7-1.3,2.6-1.9c0.9-0.7,1.8-1.3,2.7-2H394V110.3z"/>
	<path class="st0" d="M262,120.1c3.2-0.1,6.5-0.3,9.7-0.5c5.5-0.3,11-0.8,16.1-3c7.6-3.1,15-6.6,22.4-10c0.3-0.1,0.6-0.3,0.8-0.4
		h-6.4c-7.3,3.2-14.7,6-22.4,8.1c-7.3,2-14.7,3.4-22.4,3.3c-5.4-0.1-10.6-0.9-15.8-2.1c-6.9-1.6-13.6-3.8-20.1-6.4v3.5
		C236,117.8,248.7,120.6,262,120.1"/>
	<path class="st0" d="M223.9,147.1v3.3c5.8,3.1,11.6,6.1,17.4,9.2c0.4,0.2,0.9,0.3,1.1,0.4c-3.7-2.4-7.6-4.7-11.3-7.4
		C228.7,150.8,226.3,149,223.9,147.1"/>
	<path class="st0" d="M168.8,110.3c3.3,2.2,6.1,5.1,9.5,7c10.5,5.8,19.6,13.3,28.4,21.4c0.1,0.1,0.2,0.2,0.3,0.2v-5.2
		c-3.1-2.5-6.3-5.1-9.4-7.6c-4.6-3.6-9-7.4-13.7-10.9c-4.5-3.3-9.3-6.3-14.2-8.9h-7C164.6,107.6,166.7,108.9,168.8,110.3"/>
	<path class="st0" d="M28.2,234.1c6.1,3.2,11.8,7.1,17.6,10.8c3.8,2.5,7.5,5.2,11.5,7.4c7.1,3.8,14.6,4.3,22.4,2.4
		c2.4-0.6,4.8-1.7,7.1-2.6c0-0.2-0.1-0.3-0.1-0.5c-0.7,0-1.5,0-2.2-0.1c-5.3-0.6-10.7-0.8-15.9-1.9c-9.3-1.9-18.3-5-26.6-9.5
		c-4.4-2.4-8.8-4.7-13.3-6.8L28.2,234.1z"/>
	<path class="st0" d="M57.3,210.5c10.6,0.9,21-0.3,30.9-4c6.7-2.5,13.2-5.8,19.7-8.8c3.6-1.6,7.1-3.3,11.2-5.2
		c-1.2-0.3-2.1-0.8-2.8-0.7c-1.9,0.3-3.8,0.8-5.7,1.3c-6.2,1.8-11.9,4.8-17.4,8c-10.4,6-21.5,8.6-33.5,8c-4.3-0.2-8.7-0.7-13-1.2
		c-0.9-0.1-1.7-0.2-2.6-0.4l-1.1,1.8C47.8,209.8,52.6,210.1,57.3,210.5"/>
	<path class="st0" d="M34.7,248.1c4.7-0.5,9.4-0.7,14,0.7c-1.9-1.1-3.7-2.5-5.8-3c-5.9-1.3-11.9-0.7-17.8,0.5
		c-1.7,0.4-3.4,0.8-5,1.3l-3,5C22.7,250.2,28.6,248.8,34.7,248.1"/>
	<path class="st0" d="M206.9,108.2v-1.9h-3C204.9,106.9,205.9,107.6,206.9,108.2"/>
	<path class="st0" d="M241.6,122.2c4.7,1.1,9.5,2.1,14.2,2.2c7.4,0.1,14.8-0.7,22.2-1.2c5.9-0.4,11.4-2.1,16.5-5
		c4.1-2.4,8.2-5,12.3-7.4c-0.1-0.1-0.1-0.2-0.2-0.4c-0.5,0.2-0.9,0.4-1.4,0.6c-2.7,1.3-5.4,2.7-8.2,3.8c-4.6,1.8-9.2,3.8-14,4.9
		c-4.6,1.1-9.3,1.2-14,1.6c-10.3,0.9-20.5,0.3-30.6-2.2c-5-1.2-9.9-2.8-14.6-4.7v2.4C229.7,119,235.6,120.8,241.6,122.2"/>
	<path class="st0" d="M394,118.6v4.3c1.2-0.6,2.3-1.2,3.5-1.8c3.6-1.8,7.4-3.3,10.7-5.5c4.9-3.3,9.8-6.4,14.9-9.3h-6
		C409.3,110.2,401.6,114.3,394,118.6"/>
	<path class="st0" d="M196,122.8c3.6,3.1,7.2,6.1,10.9,9.1v-3.4c-3.6-2.9-7.3-5.8-10.9-8.7c-6.1-4.8-12.3-9.5-19-13.4h-4.2
		C181.1,111,188.8,116.5,196,122.8"/>
	<path class="st0" d="M225.8,146.5c7.7,6.2,15.9,11.5,25,15.3c0.8,0.3,1.6,0.6,2.4,0.8c-0.2-0.5-0.6-0.7-0.9-0.9
		c-7.3-4.9-14.7-9.5-21.7-14.7c-2.2-1.7-4.4-3.4-6.6-5.1v3.1C224.5,145.5,225.2,146,225.8,146.5"/>
	<path class="st0" d="M274.7,163.1c-3,0-6-0.6-9-0.9c0.8,0.2,1.5,0.5,2.3,0.6c3.8,0.6,7.6,1.2,11.4,1.8c5.7,0.9,11.3,0.2,16.8-1.2
		c6.9-1.7,13.2-4.7,19.4-8.1c3.5-1.9,6.9-3.9,10.3-6v-1.5c-2,1.4-4.1,2.8-6.3,3.9c-10.1,5.4-20.6,9.6-32.1,10.9
		C283.3,163.1,279,163.1,274.7,163.1"/>
	<path class="st0" d="M304.2,147.7c-1.2,1.3-2.3,2.8-3.5,4.2c0.1,0.1,0.2,0.2,0.3,0.3c2.2-1.9,4.4-3.8,6.6-5.7
		c6.8-5.9,12.8-12.6,18.4-19.6v-7.2c-0.1,0.1-0.2,0.3-0.3,0.4C318.7,129.5,312.1,139.1,304.2,147.7"/>
	<path class="st0" d="M24.5,319.6c-3.9,2.8-7.9,5.5-11.8,8.4c-3.3,2.4-6.6,4.8-9.8,7.3v2.6c6.4-4.6,13-8.9,19.6-13.1
		c7.1-4.6,14.5-8.7,22.8-10.9c1.9-0.5,3.9-1.1,5.8-1.7c0-0.2,0-0.3,0-0.5c-0.9,0-1.8-0.3-2.7-0.1c-3.1,0.5-6.3,1-9.3,1.9
		C33.9,314.9,28.9,316.5,24.5,319.6"/>
	<path class="st0" d="M231.4,110.2c8,3,16.3,5.1,24.9,5.8c6.6,0.5,13.1-0.2,19.5-1.8c-8.1,0.2-16-0.9-23.9-2.6
		c-6.5-1.4-12.8-3.2-19.1-5.3h-8.9v0.9C226.4,108.2,228.9,109.3,231.4,110.2"/>
	<path class="st0" d="M396.6,111.3c-0.9,0.6-1.7,1.2-2.6,1.8v3.6c5.8-3.3,11.7-6.4,17.7-9.4c0.6-0.3,1.3-0.7,1.9-1h-8.9
		C401.9,107.9,399.2,109.6,396.6,111.3"/>
	<path class="st0" d="M191.4,114c2,1.5,3.9,3.5,6.7,3.8c1.4,0.1,2.7,0.5,4,0.7c1.6,0.3,3.2,0.6,4.8,0.8v-3.7
		c-0.8-0.4-1.7-0.7-2.5-1.1c-5.1-2.5-10-5.3-14.9-8.2h-9.3C184.1,108.7,187.8,111.3,191.4,114"/>
	<path class="st0" d="M42.6,249.9c-4.3-0.4-9-0.4-13.6,0.7c-4.6,1.1-9.1,2.3-13.3,4.3l-3.2,5.3C21.7,254.2,31.7,250.3,42.6,249.9"/>
	<path class="st0" d="M35.5,234.4c-0.7-0.5-1.5-1-2.2-1.5c-1-0.7-2-1.4-3-2.1l-0.7,1.1c2,1,4,2,6,3
		C35.5,234.6,35.5,234.4,35.5,234.4"/>
	<path class="st0" d="M322.6,133.5c-5.5,6.7-11.7,12.8-18.5,18.2c-1.4,1.1-2.8,2.3-4.2,3.4c0.1,0.1,0.2,0.2,0.2,0.3
		c1.8-1.1,3.7-2.1,5.3-3.3c6.9-5.4,13.3-11.3,19-18c0.5-0.6,1-1.1,1.5-1.7v-3C324.9,130.7,323.8,132.1,322.6,133.5"/>
	<path class="st0" d="M301.6,165.8c0.4,0,0.5,0.1,0.7,0.1c8.6-2,16.4-5.7,23.8-10.4v-1.3c-5.3,3.2-10.8,6-16.5,8.5
		C306.9,163.7,304.3,164.7,301.6,165.8"/>
	<path class="st0" d="M295.4,108.4c1.7-0.7,3.4-1.4,5.1-2.1h-12.6c2,0.8,3.9,1.5,5.9,2.2C294.2,108.7,294.9,108.6,295.4,108.4"/>
	<path class="st0" d="M33.2,241.5c-0.4-0.4-0.9-0.5-1.3-0.5c-2.6-0.1-5.1-0.2-7.7-0.1l-0.6,1.1c2-0.3,4-0.5,6.1-0.4
		C30.8,241.5,32,241.5,33.2,241.5"/>
	<path class="st0" d="M326,145.5v-1.8c-5.6,4-11.5,7.6-17.8,10.6c-3.3,1.6-6.7,2.9-10.1,4.4c0.1,0,0.2,0.1,0.3,0.1
		c8.6-2.7,17.1-5.9,24.5-11C323.9,147,325,146.3,326,145.5"/>
	<path class="st0" d="M258.9,111.4c5.4,0.8,10.8,1.1,16.3,1.5c2,0.1,4-0.2,6-0.3c-3.4-0.6-6.8-0.9-10.2-1.4
		c-4.5-0.7-9.1-1.2-13.5-2.4c-2.5-0.7-5.1-1.5-7.6-2.3h-12.1C244.7,108.5,251.7,110.3,258.9,111.4"/>
	<path class="st0" d="M5.3,331.3c6.3-4.4,12.4-9.1,18.8-13.4c6.5-4.4,13.9-6.1,21.5-7.6c-0.9-0.2-1.8-0.5-2.7-0.4
		c-7,0.7-13.5,2.9-19.6,6.4c-4.6,2.7-8.9,5.9-13.3,9c-2.4,1.7-4.9,3.5-7.2,5.4v2.3C3.6,332.5,4.5,331.9,5.3,331.3"/>
	<path class="st0" d="M33.8,243.8c1.3-0.1,2.5,0,3.8,0c0-0.2,0-0.3,0-0.5c-1.5-0.1-3-0.3-4.6-0.3c-3.5,0.1-7.2,0-10.6,0.7l-1.2,2
		C25.3,244.6,29.5,244,33.8,243.8"/>
	<path class="st0" d="M17.3,302.2c-4.8-2-9.6-3.9-14.4-5.5v2.5c5,0.9,9.9,2,14.8,3.5C17.5,302.4,17.4,302.3,17.3,302.2"/>
	<path class="st0" d="M9.5,287.6c12,5.4,24,10.8,36,16.2c2.2,1,4.5,1.8,6.8,2.7c-0.3-0.5-0.6-0.7-1-0.9c-6.7-3.4-13.4-6.8-20.2-10.1
		c-6.7-3.2-13.3-6.4-20.2-9.3c-2.7-1.1-5.4-1.9-8.1-2.4v1.7C5.1,286,7.3,286.7,9.5,287.6"/>
	<path class="st0" d="M18.9,307c2.4,0.6,4.7,1.5,6.9-0.5c-2-0.5-4-1-6-1.5c-5.5-1.4-10.9-3.1-16.4-4.1c-0.2,0-0.4-0.1-0.6-0.1v2.4
		C8.2,304.4,13.6,305.7,18.9,307"/>
	<path class="st0" d="M2.8,327v1.9c2.6-2,5.3-4,7.9-6c5.5-4.1,11-8.1,17.4-10.6c1.8-0.7,3.5-1.3,5.3-2c-5.3,0.9-10.4,2.5-15,5.3
		C12.9,318.8,7.8,322.8,2.8,327"/>
	<path class="st0" d="M53.2,311c-0.1-0.4-0.3-0.5-0.5-0.5c-12.5-4.6-25-9.1-37.5-13.7c-4.2-1.6-8.3-3.4-12.5-5.1v0.8
		c1,0.4,1.9,0.8,2.9,1.3c12.4,5.9,25.3,10.6,38.4,14.6C47.2,309.2,50.2,310.1,53.2,311"/>
	<path class="st0" d="M27.2,239.4c2.3,0.1,4.6,0,6.7,0c-0.4-0.2-0.9-0.6-1.5-0.7c-2.2-0.3-4.5-0.4-6.7-0.5l-0.7,1.1
		C25.8,239.3,26.4,239.4,27.2,239.4"/>
	<path class="st0" d="M20.4,309.4c-0.4-0.4-0.5-0.6-0.7-0.6c-5.6-1.4-11.3-2.9-16.9-4.2v1.2c5.1,1.1,10.2,2.6,15.3,3.8
		C18.8,309.8,19.5,309.5,20.4,309.4"/>
	<path class="st0" d="M276.2,108.6c1.6,0.2,3.3,0.3,4.9,0.4c-0.3-0.3-0.6-0.4-0.9-0.5c-3.1-0.5-6.1-1.3-9-2.3h-6.4
		C268.5,107.2,272.3,108.1,276.2,108.6"/>
	<path class="st0" d="M8.4,296.9c-1.9-0.9-3.7-1.8-5.6-2.6v0.8C4.7,295.7,6.6,296.3,8.4,296.9"/>
	<path class="st0" d="M28.5,236.7c-0.3-0.4-0.6-0.5-0.9-0.5c-0.2,0-0.5,0-0.7,0l-0.3,0.5C27.3,236.7,27.9,236.7,28.5,236.7"/>
	<path class="st0" d="M3.1,318.1c-0.1-0.1-0.2-0.2-0.2-0.3c0,0,0,0-0.1,0.1v0.5C2.9,318.3,3,318.2,3.1,318.1"/>
	<path class="st0" d="M418.3,111c0.1,0.2,0.2,0.3,0.3,0.5c3.8-1.7,7.6-3.5,11.4-5.2H427c-2.3,1.2-4.6,2.4-6.9,3.6
		C419.5,110.2,418.9,110.6,418.3,111"/>
	<path class="st0" d="M269.7,109.5c1.5,0.2,3.1,0.3,4.6,0.5c-1.5-0.4-3.1-0.6-4.6-1.1c-3.2-0.9-6.4-1.8-9.5-2.7h-5.6
		C259.5,107.7,264.6,108.8,269.7,109.5"/>
	<path class="st0" d="M85.1,139.2c11.5-7.1,23.6-12.6,36.5-16.6c6.6-2.1,13.3-3.4,20.2-3.7c5.7-0.3,11.4-0.3,17,0
		c4.3,0.3,8.6,1,12.8,2c7.7,1.9,14.6,5.7,21.4,9.5c1.1,0.6,2.2,1.3,3.4,1.9c-1.4-1.7-2.9-3.2-4.6-4.4c-11.7-8.1-23.7-15.7-37.7-19.3
		c-3.6-0.9-7.2-1.7-10.9-2.4h-38.4L85.1,139.2z"/>
	<path class="st0" d="M422.8,342.4c-4.9-1.4-9.7-3.2-14.6-4.1c-5.8-1.1-11.6-1.6-17.5-1.9c-6.7-0.4-13.4-0.1-19.9,1.7
		c-6.1,1.8-12.1,4-18.1,6.2c-1.9,0.7-3.9,1.4-5.3,2.7c-7.6,6.8-16,12.6-24.6,18c-3,1.9-6,3.5-9.1,5.1c4.2,2.1,8.5,4,13,5.5
		c2-0.7,4.1-1.3,6.1-2c14.1-4.7,27.9-10,42.7-12c7.3-1,14.6-2.2,21.9-2.4c8-0.3,16,0.3,24,1.4c5-3.8,9.7-8.1,14-12.7
		C431.5,345.6,427.3,343.7,422.8,342.4"/>
	<path class="st0" d="M288.9,347.1c4.9-1.4,9.6-3.3,12.6-8c0.9-1.4,1.9-2.8,2.7-4.3c3.7-6.5,8.5-12,14.6-16.3
		c6.6-4.6,14.1-6.2,22-6.7c-1.8-0.2-3.6-0.4-5.4-0.5c-5.1-0.4-10.2-1-15.4-1.2c-7.6-0.3-15.1,1-22.5,2.5c-8.2,1.6-16.2,3.9-23.6,7.9
		c-1.9,1-3.9,2-5.8,2.9c4.4,9.1,10,17.4,16.8,24.7C286.2,347.8,287.6,347.5,288.9,347.1"/>
	<path class="st0" d="M196.2,342.3c3.5,1.1,7.1,2,10.7,2.7v-0.5h34v-12.2c-2.5,0.5-5,1-7.6,1.4c-6.4,1.1-13,1.4-19.4,1.9
		c-9.7,0.8-19.3,0.2-28.9-1.3c-6.3-1-12.5-2.5-18.5-4.8c-2.6-1-5.2-2.1-7.9-3.2c-0.1,0.1-0.1,0.2-0.2,0.4c1.9,1.1,3.8,2.4,5.8,3.4
		C174.5,335.1,185.3,339,196.2,342.3"/>
	<path class="st0" d="M161.2,325.5c7,2.5,13.3,5.5,20.3,6.4c4.5,0.6,9,1.4,13.5,1.7c7.6,0.4,15.3,0.1,22.8-1.2
		c5.7-1,11.4-2,17.1-3.3c2-0.5,4-1,5.9-1.5v-23.7c-1.1-0.3-2.3-0.5-3.5-0.6c-5.5-0.5-11.2,0-16.8,0.4c-1.7,0.1-3.4,0.9-4.9,1.7
		c-6.1,3.2-12.1,6.7-18.2,9.8c-10.9,5.7-22.4,9.6-34.9,10.1C162.4,325.2,162,325.3,161.2,325.5"/>
	<path class="st0" d="M262.9,310.6c0.8,2.4,1.7,4.8,2.6,7.2c3.6-1.7,7.4-3.3,11-4.9c-2.8-0.2-5.6-0.1-8.3-0.8
		C266.5,311.6,264.7,311.1,262.9,310.6"/>
	<path class="st0" d="M152.2,276.6c9.1,6.7,18.8,12.4,29.9,15.4c6.8,1.8,13.6,2.4,20.6,1.5c8.2-1.1,14.5-6,21.8-9.9
		c-2.2,0.3-4,0.5-5.9,0.7c-7.1,0.6-14,0-20.4-3.2c-6-3.1-12-6.2-17.7-9.7c-13.1-8.1-26.6-15.3-41.4-19.7c-0.1,0-0.1,0-0.2,0v15.8
		C143.5,270.2,147.9,273.3,152.2,276.6"/>
	<path class="st0" d="M302.1,180.4c6.4,1,12.8,0.9,19.2,0.4c1.6-0.1,3.2-0.2,4.7-0.5v-14.9c-3.5,1.2-7,2.3-10.5,3.5
		c-5.6,1.8-11.5,2.8-17.3,3.7c-4.1,0.7-8.3,0.8-12.4,1.2c0,0,0.1,0.2,0.2,0.3C291,177,296.2,179.4,302.1,180.4"/>
	<path class="st0" d="M394,157.2c0.5,0,1.1-0.1,1.6-0.1c6.8-0.3,13.7-0.8,20.4-1.9c7.6-1.2,14-5.8,20.8-9.3
		c-3.9,0.8-7.7,1.7-11.6,2.3c-4.5,0.8-9.1,1.8-13.7,2c-5.8,0.2-11.7,0.4-17.5,0.5V157.2z"/>
	<path class="st0" d="M199.7,192.6c2.4-0.6,4.8-1.2,7.2-1.8v-0.9c-2.5,0.7-4.9,1.6-7.3,2.4C199.7,192.4,199.7,192.5,199.7,192.6"/>
	<path class="st0" d="M273.5,184.5c-5.1-0.8-10.3-1.3-15.5-1.6v4.6c4.9,0.4,9.7,1.1,14.6,1.7c6.2,0.9,12.5,1.8,18.8,2.2
		c10.1,0.7,20.1-0.2,29.9-2.7c1.6-0.4,3.2-0.9,4.8-1.3V182c-7.8,2-15.7,3.4-23.7,4.3C292.5,187.4,283,185.9,273.5,184.5"/>
	<path class="st0" d="M401.5,158.3c-2.5,0-5,0.1-7.5,0.3v2.7c4.8-1.2,9.8-1.9,14.8-2.1c5.4-0.2,10.7-1.2,15.5-3.5
		c6-2.9,12-6.1,17.8-9.4c6.5-3.7,13.1-7.3,19.8-10.6v-1.3c-9.3,4.8-18.5,9.6-27.6,14.8C424.2,155.1,413.4,158.3,401.5,158.3"/>
	<path class="st0" d="M279.5,192c-7.2-0.9-14.3-2-21.5-2.8v2.5c2.3,0.1,4.5,0.2,6.8,0.3c4.8,0.2,9.7,1.2,14.5,1.8
		c5.9,0.7,11.8,1.7,17.7,2c4.7,0.3,9.6,0,14.3-0.4c3.8-0.3,7.7-0.7,11.2-2c1.2-0.4,2.4-0.9,3.6-1.3v-3c-6.1,1.7-12.4,3-18.9,3.6
		C297.8,193.5,288.6,193.2,279.5,192"/>
	<path class="st0" d="M190.3,204.2c0.6,0,1.2-0.4,1.7-0.7c4.8-2.9,9.7-5.2,14.9-7.1v-3.9c-9.1,2.4-18.1,5.2-27.1,7.9
		c-2.3,0.7-4.5,1.6-6.7,2.4c0,0.2,0,0.4,0.1,0.6C178.9,203.7,184.6,204,190.3,204.2"/>
	<path class="st0" d="M398.9,161.9c-1.7,0.3-3.3,0.7-4.9,1.2v2.6c0.3-0.1,0.6-0.2,0.9-0.4c4.2-1.6,8.5-2.9,12.7-4.3
		c0-0.1,0-0.2-0.1-0.3C404.7,161.1,401.8,161.3,398.9,161.9"/>
	<path class="st0" d="M407.2,360.8c-5.9-0.2-11.9-0.1-17.8,0.4c-5.5,0.4-10.9,1.3-16.3,2.5c-7.5,1.6-15,3.2-22.2,5.6
		c-7.2,2.4-14.3,4.9-21.5,7.3c4,1.3,8.1,2.3,12.3,3.1c5.3-1.7,10.5-3.6,15.7-5.4c7.8-2.7,15.8-4.9,24-6.3c4.9-0.8,9.8-1.7,14.7-2.3
		c5.2-0.7,10.4-1.4,15.6-1.6c1.8-0.1,3.6-0.2,5.3-0.2c0.9-0.6,1.8-1.2,2.7-1.9C415.6,361.4,411.4,361,407.2,360.8"/>
	<path class="st0" d="M282.5,214.1c-7.4-4.1-15.4-6.5-23.9-6.6c-0.2,0-0.4,0-0.6,0v7.6c2.9-0.6,5.8-1.1,8.7-1.4
		C271.9,213.2,277.2,213.1,282.5,214.1"/>
	<path class="st0" d="M199.6,220.4c2.4,0.3,4.9,0.5,7.3,0.7v-5.7c-0.4,0.1-0.8,0.1-1.1,0.2c-7.3,0.9-14.6,1.4-22-0.3
		c0.6,0.5,1.3,1,2,1.4C190.1,219,194.9,219.8,199.6,220.4"/>
	<path class="st0" d="M297.2,227.1c-6.8,2.7-13.5,5.8-20.3,8.6c-6.1,2.5-12.4,4.3-19,5.1v3.9c3.1-0.1,6.3-0.4,9.4-1
		c5.3-0.9,10.4-2.2,15.2-4.6c3.1-1.5,6.1-3.2,9.3-4.6c6.9-3,14.3-4,21.7-4.9c4.1-0.5,8.3-0.8,12.4-1v-4.8c-2.4-0.1-4.8-0.2-7.2-0.3
		C311.4,223.3,304.1,224.4,297.2,227.1"/>
	<path class="st0" d="M206.9,233.7v-0.5c-0.2-0.1-0.4-0.1-0.5-0.2C206.5,233.4,206.7,233.5,206.9,233.7"/>
	<path class="st0" d="M138.9,199.7v1.2c0.5-0.2,1-0.4,1.6-0.6C139.9,200.1,139.4,199.9,138.9,199.7"/>
	<path class="st0" d="M75.6,226.6c8-1.2,15.6-3.8,22.9-7.2c6.4-3,12.9-6,19.4-9l3.9-6.7c-3.8,1.6-7.6,3.3-11.4,5
		c-11.9,5.6-23.9,10.8-36.9,13.1c-5.2,0.9-10.5,0.9-15.7,0.4c-4.9-0.4-9.9-1.1-14.8-2.1c-1.9-0.4-3.8-0.8-5.7-1.2l-2.9,4.8
		c5.6,1.9,11.4,2.9,17.4,3.4C59.8,227.7,67.7,227.8,75.6,226.6"/>
	<path class="st0" d="M161.5,239.1c8.6,1.6,16.9,4.6,24.8,8.4c6.9,3.3,13.6,6.9,20.6,9.9v-2.1c-3.3-1.5-6.7-3-10-4.4
		c-7.3-3-14.6-6.1-22.1-8.7c-5.5-1.9-11.2-3-16.8-4.3c-5.3-1.3-10.6-1.9-16.1-1.3c0.3,0.1,0.6,0.1,0.9,0.2
		C149,237.5,155.4,237.9,161.5,239.1"/>
	<path class="st0" d="M293.3,255.3c5.9-3.2,11.6-6.5,17.5-9.8c0.9-0.5,1.9-1,3.1-1.6c-0.4-0.1-0.5-0.2-0.7-0.2
		c-5.6,1.8-11.4,3.3-16.8,5.4c-7.5,3-15.1,5.5-23.1,6.7c-5.1,0.8-10.2,0.7-15.3,0.3v7.7c4.9-0.4,9.7-1,14.5-1.6
		C279.8,261.1,286.8,258.8,293.3,255.3"/>
	<path class="st0" d="M301,205.2c-5.4,0.2-10.7,0.5-16.1,0.4c-2.6,0-5.2-0.4-7.7-1.1c-3.8-1.2-7.5-2.6-11-4.3
		c-2.7-1.3-5.4-2.5-8.2-3.5v4c1.8,0.4,3.6,1,5.4,1.7c6.8,2.5,13.9,3.9,21.1,4.5c4.8,0.4,9.5,0,14.3-0.6c2.8-0.3,5.5-1,8.2-1.6
		c0-0.1-0.1-0.2-0.1-0.3C304.9,204.7,303,205.1,301,205.2"/>
	<path class="st0" d="M180.3,209.4c5.5,2.1,10.9,3,16.4,1.1c3.4-1.1,6.8-2.3,10.2-3.4v-8.9c-5.2,1.9-10.1,4.3-14.9,7.2
		c-2.1,1.3-4.4,2.3-6.7,3.1C183.8,209.1,182.1,209.1,180.3,209.4"/>
	<path class="st0" d="M166.6,245.5c-7.7-2.5-15.4-4.9-23.5-4.5c-1.4,0.1-2.7,0.2-4.1,0.2v2.5c3.9,0.2,7.7,0.7,11.5,1.5
		c9,2,17.6,5.1,26.2,8.4c9.3,3.6,18.5,7.3,27.8,10.5c0.8,0.3,1.7,0.6,2.5,0.8v-2.5c-2.7-1.1-5.4-2.2-8.1-3.4
		C188.2,254.4,177.7,249.1,166.6,245.5"/>
	<path class="st0" d="M267.5,270.9c8.3-1.2,16.2-4.1,23.8-7.6c9.7-4.5,18.5-10.3,27-16.7c1.9-1.5,3.9-2.9,5.9-4.3
		c-1.7,0.4-3.4,1-4.8,1.9c-6,3.7-11.9,7.5-17.9,11.2c-12.9,8.1-26.9,12.8-42.1,13.5c-0.5,0-0.9,0-1.4,0v2.8
		C261.2,271.7,264.4,271.4,267.5,270.9"/>
	<path class="st0" d="M206.9,231.5V230c-4.1-1.6-8.1-3.3-12.2-5c0,0.1-0.1,0.1-0.1,0.2c2.4,1.3,4.7,2.8,7.2,4
		C203.5,230,205.2,230.8,206.9,231.5"/>
	<path class="st0" d="M430.1,255.1c3.1-0.6,6.2-1.9,9.3-2.9c0-0.2-0.1-0.4-0.1-0.6c-0.5,0-1.1-0.1-1.6-0.1c-5.5-0.6-11-0.8-16.4-1.9
		c-9.3-1.8-18.3-4.9-26.6-9.4c-0.2-0.1-0.4-0.2-0.5-0.3v2.3c2.1,1.4,4.2,2.7,6.4,4.1c3,1.9,5.9,4.2,9.1,5.9
		C415.9,255.6,422.9,256.6,430.1,255.1"/>
	<path class="st0" d="M268.6,236.9c6.9-2.5,13.7-5.3,20.4-8.3c9.2-4.1,18.6-6.8,28.7-6.5c2.8,0.1,5.6,0.2,8.3,0.3v-4.1
		c-4.4-0.1-8.9,0.2-13.2,1.2c-5.3,1.2-10.6,3-15.7,4.9c-11.3,4.3-22.5,9.2-34.4,11.8c-1.6,0.3-3.2,0.6-4.7,0.9v2.2
		C261.6,238.9,265.1,238.1,268.6,236.9"/>
	<path class="st0" d="M286.8,182.8c-2.9-1-5.8-1.9-8.6-3.1c-7.1-3.2-14.3-5.6-22.1-6.3c-7.5-0.7-15-1-22.4,0.3
		c-1.2,0.2-2.3,0.4-3.5,0.6H258v4.1c1.9,0.1,3.9,0.3,5.8,0.6c4.3,0.7,8.7,1.4,13,2.2c3.6,0.7,7.1,1.5,10.6,2.3
		C287.2,183.1,287,182.9,286.8,182.8"/>
	<path class="st0" d="M158.4,200.1c0,0.1,0.1,0.3,0.1,0.4c2.1,0.4,4.2,0.9,6.4,1.3c0.8,0.1,1.7,0,2.4-0.3c12.4-6.2,25-11.6,38.1-16
		c0.5-0.2,1-0.3,1.5-0.5v-4.8c-11.9,3.8-23.5,8.2-34.9,13.3C167.4,195.6,163,197.9,158.4,200.1"/>
	<path class="st0" d="M188.4,267c6,3.3,12,6.7,18.5,9.2V270c-10-3.4-19.8-7.2-29.7-10.9c-6.4-2.4-12.7-5.2-19.1-7.6
		c-6.2-2.3-12.6-3.6-19.1-4.3c0,0-0.1,0-0.1,0v0.8c5.1,0.7,10.2,1.9,15.1,3.5C166.1,255.4,177.4,260.9,188.4,267"/>
	<path class="st0" d="M276.5,278.2c6.2-0.7,12-2.5,16.9-6.2c6.1-4.7,12-9.6,18-14.5c0.2-0.2,0.3-0.4,0.5-0.6c-2.3,1.4-4.4,3-6.6,4.6
		c-13.3,9.7-28.1,15-44.7,14.6c-0.9,0-1.7,0-2.6-0.1v2.3C264.1,279.1,270.3,278.9,276.5,278.2"/>
	<path class="st0" d="M240.9,276.8v-0.4h-33.3c0.6,0.2,1.2,0.4,1.8,0.6c4,1.3,8.1,1.9,12.4,1.4c4.9-0.6,9.8-1.3,14.7-1.6
		C238,276.8,239.5,276.8,240.9,276.8"/>
	<path class="st0" d="M297.5,276.2c-9.2,6.3-19.5,8.9-30.6,7.9c-3-0.3-5.9-0.8-8.9-1.1c0,1,0.1,1.9,0.1,2.9c2.7,0.6,5.4,1.5,8.2,1.8
		c6.4,0.9,12.6-0.5,18.4-2.9c9.7-4.1,17.8-10.7,25.6-17.6c5.4-4.8,10.5-10,15.6-15.1v-1.5c-1.9,1.8-3.8,3.6-5.7,5.5
		C313,263.2,306,270.5,297.5,276.2"/>
	<path class="st0" d="M198.6,304.2c-4.9,3.2-9.7,6.7-14.8,9.6c-8,4.5-16.7,7.2-25.7,9.3c0,0.2,0.1,0.4,0.1,0.5
		c3.9-0.7,7.8-1.3,11.7-2.1c7.4-1.6,14.6-3.8,21.2-7.8c8.3-5,16.4-10.2,24.6-15.3c8-4.9,16-9.9,25.2-12.2v-2.7
		c-2.2,0.5-4.3,1.1-6.4,1.9C222,290.7,210,296.8,198.6,304.2"/>
	<path class="st0" d="M292.5,208.4c-8.4,0.6-16.7-0.4-24.8-2.9c-3.2-1-6.5-2.1-9.7-2.9v3.5c0.1,0,0.2,0,0.3,0c4.5,0.3,9,0.9,13.3,2
		c4.1,1.1,8.1,3,12.1,4.7c3.4,1.5,6.7,2.2,10-0.3c1.2-0.9,2.7-1.5,4-2.2c2.6-1.2,5.2-2.3,7.6-3.4C301.1,207.4,296.8,208,292.5,208.4
		"/>
	<path class="st0" d="M182.8,211.9c-0.7-0.2-1.4-0.3-2.1-0.5c0.1,0.4,0.3,0.6,0.5,0.7c3,1.7,6.2,2.5,9.6,2.6c4,0.1,8,0.1,11.9-0.4
		c1.4-0.2,2.8-0.4,4.2-0.6v-4.8c-2.7,0.9-5.4,1.9-8.2,2.8C193.5,213.4,188.2,213.6,182.8,211.9"/>
	<path class="st0" d="M147.6,202.5c-1.2-0.4-2.5-0.9-3.8-1.2c-0.6-0.1-1.4-0.1-1.9,0.1c-1,0.4-2,0.9-2.9,1.3v4.1
		C141.8,205.4,144.7,203.9,147.6,202.5"/>
	<path class="st0" d="M39.3,230.5c5.5,1.4,11.2,2.3,16.9,2.4c6.8,0.1,13.7,0.1,20.2-1.7c9-2.3,17.9-5.1,26.6-8.1
		c3.2-1.1,6.4-2.4,9.5-3.7l4-6.8c-3.9,1.8-7.9,3.6-11.8,5.5c-11.3,5.5-22.8,9.9-35.4,10.6c-8.3,0.5-16.4,0.2-24.6-1
		c-3.9-0.5-7.6-1.5-11.2-2.7l-1.1,1.9c0.5,0.3,1.1,0.7,1.6,1C35.7,229,37.5,230.1,39.3,230.5"/>
	<path class="st0" d="M440.8,317.7c0.6-0.3,1.3-0.3,2-0.4c3.2-0.5,6.4-0.9,9.5-1.4c-1.9-0.4-4-0.7-5.9-1.4
		c-5.2-1.9-10.4-3.9-15.4-6.2c-8-3.6-15.6-7.8-23.8-11c-5.2-2-10.5-3.7-15.8-5.2c-0.6,1.5-1.4,3-2.2,4.4c13.8,7,27.7,13.8,42,19.5
		C434.3,317.3,437.3,319.3,440.8,317.7"/>
	<path class="st0" d="M17.8,287.3c6,2.9,12,5.8,17.9,8.8c15.6,8,31.5,15.5,47.9,22c0.5,0.2,1.1,0.5,1.6,0.4c4.7-0.8,9.4-1.8,14-2.6
		c-1.2-0.2-2.3-0.3-3.4-0.7c-5.2-1.9-10.4-3.6-15.4-5.8c-8.1-3.6-15.8-7.9-24-11.2c-7.1-2.8-14.5-4.8-21.8-7
		c-5.7-1.7-11.5-3-17.2-4.5C17.5,287,17.7,287.2,17.8,287.3"/>
	<path class="st0" d="M100,315.6c-0.2,0-0.5,0.1-0.7,0.1c0.3,0,0.5,0.1,0.8,0.1C100,315.8,100,315.7,100,315.6"/>
	<path class="st0" d="M298.6,304.6c10.6-4.3,21.4-6.8,32.7-7.1c-0.9-1.5-1.8-3-2.5-4.6c-0.7,0-1.4,0-2.2,0c-6.9,0.1-13.6,1.3-20,3.8
		c-7,2.8-14,5.8-20.9,8.7c-4.9,2.1-10.1,3.7-15.4,2.8c-2.9-0.5-5.9-1.1-8.8-1.8c0.2,0.9,0.5,1.7,0.7,2.5c1.3,0.4,2.5,0.8,3.8,1.2
		c5.5,1.7,11.1,1.6,16.6,0C288.1,308.5,293.5,306.7,298.6,304.6"/>
	<path class="st0" d="M240.9,302.2v-0.9c-4-0.6-8.1-0.8-12.3,0.1c0.8,0,1.5,0,2.2,0C234.2,301.3,237.6,301.3,240.9,302.2"/>
	<path class="st0" d="M248.7,164.1c-6.8-0.4-13.5-0.1-20.1,1.3c-1.6,0.3-3.1,0.7-4.6,1.1v2.8c4.3-0.9,8.7-1.5,13.2-1.8
		c9.5-0.7,18.9,0.1,27.9,3.1c8.2,2.7,16.3,5.9,24.5,8.6c4.2,1.4,8.5,2.7,12.8,3.3c4.5,0.6,9.1,0.1,13.6,0.1
		c-0.1-0.1-0.2-0.1-0.3-0.1c-1.1,0-2.2,0-3.3,0c-9.4,0.2-18.3-1.7-26.4-6.6c-3.3-2-6.6-3.8-9.9-5.7c-4.2-2.3-8.6-4.4-13.4-5
		C257.9,164.7,253.3,164.4,248.7,164.1"/>
	<path class="st0" d="M162.4,190.5c-4.9,2.3-9.7,4.7-14.9,7.3c0.8,0.3,1.3,0.4,1.7,0.6c2.2,0.8,4,0.4,6.1-0.7
		c10.3-5.4,20.6-10.9,31.2-15.7c6.7-3,13.5-5.8,20.4-8.1v-2.3C191.7,176.9,176.9,183.5,162.4,190.5"/>
	<path class="st0" d="M139.2,239.6c5.7-0.4,11.4-0.4,16.9,1.2c7.7,2.2,15.4,4.7,22.8,7.6c8.7,3.5,17.2,7.7,25.9,11.4
		c0.7,0.3,1.5,0.6,2.2,0.9V259c-4.4-1.8-8.7-3.9-12.9-6c-14.9-7.6-30.2-13.3-47.1-14.5c-2.7-0.2-5.4-0.2-8-0.1v1.3
		C139,239.6,139.1,239.6,139.2,239.6"/>
	<path class="st0" d="M274.7,265.1c9.4-2.1,18.1-6.2,26.3-11.3c2.6-1.6,5.2-3.3,7.8-5c-0.1-0.1-0.1-0.2-0.2-0.3
		c-3,1.8-6,3.6-9.1,5.3c-6.1,3.4-12.3,6.3-19.1,8.1c-7.4,2-14.9,2.8-22.5,3.3v2.2C263.6,267,269.2,266.3,274.7,265.1"/>
	<path class="st0" d="M34.9,273.6c-4.5,1.5-9,2.9-13.9,4.5c0.8,0,1.2,0,1.5-0.1c3.8-1,7.7-1.9,11.5-3c14.1-3.8,27.9-8.7,41.2-14.9
		c6.2-2.9,12.3-5.8,18.5-8.5l0.9-1.5c-0.9,0.4-1.7,0.8-2.6,1.2C73.4,259.9,54.3,267.1,34.9,273.6"/>
	<path class="st0" d="M322.7,116.2c-0.1-0.1-0.2-0.2-0.3-0.2c-2.2,2.5-4.3,4.9-6.5,7.4c-5,5.7-10.4,10.8-16.9,14.6
		c-9,5.2-19,6.6-29.2,6.9c-8.6,0.2-17.1-0.8-25.6-2.6c-7-1.4-13.8-3.5-20.3-6.5v1c15.4,7.9,31.5,13.4,49.1,15.1
		c5,0.5,10,0.2,14.8-1.5c5.2-1.8,9.5-5.1,13.1-9.1c7.3-7.9,14.2-16.2,21.3-24.3C322.4,116.9,322.5,116.5,322.7,116.2"/>
	<path class="st0" d="M323.2,112.4c-5,4.4-9.8,9.1-15.2,13.1c-12.1,8.9-25.7,13.6-40.8,13.2c-5.5-0.1-11-0.4-16.5-1.2
		c-6.3-0.9-12.5-2.1-18.6-3.8c-2.8-0.8-5.5-1.6-8.2-2.5v3c4.5,2.2,9.2,4,14.1,5.2c5.6,1.4,11.4,2.5,17.1,3.2
		c5.4,0.7,10.8,0.9,16.2,0.9c5.5,0,10.9-1,16.3-2.4c8.5-2.2,15.5-6.9,21.5-12.9c5.3-5.4,10.3-11.1,15.4-16.7
		C324,111.6,323.6,112,323.2,112.4"/>
	<path class="st0" d="M389.9,368.1c-5.2,0.8-10.5,1.5-15.6,2.8c-6.9,1.8-13.7,3.9-20.4,6.3c-2.9,1-5.7,2.1-8.6,3.1
		c3.1,0.4,6.2,0.8,9.3,0.9c7.2-1.9,14.5-3.7,21.7-5.6c5.1-1.3,10.2-2.6,15.4-3.7c4.2-0.9,8.4-1.7,12.6-2.3c1.4-0.2,2.8-0.4,4.2-0.6
		c2-1.1,3.9-2.2,5.9-3.4c-3.5,0.1-6.9,0.3-10.3,0.5C399.3,366.4,394.6,367.3,389.9,368.1"/>
	<path class="st0" d="M82.3,258.6c0,0.1,0.1,0.3,0.1,0.4c2.2,0.2,4.4,0.3,6.6,0.6c0,0,0.1,0,0.1,0l1.1-1.9c-1.4,0-2.7,0-4.1,0
		C84.9,257.7,83.6,258.3,82.3,258.6"/>
	<path class="st0" d="M147.2,290.4c5,3.7,10.1,7.2,15.8,9.7c7.4,3.2,15.2,4.5,23.2,5.2c2.9,0.2,4.6-1.4,7.1-2.8
		c-2.1-0.2-3.7-0.4-5.4-0.5c-4.7-0.3-9.3-0.9-13.7-2.4c-14-4.8-26.3-12.6-37.7-21.9c-0.5-0.4-1.1-0.9-1.6-1.3h-5.3
		C135.4,281,141.2,285.9,147.2,290.4"/>
	<path class="st0" d="M151,319.6c2.2,1.9,4.4,3.3,7.3,2.1c0.4-0.2,0.9-0.3,1.4-0.4c8.3-2.1,16.5-4.7,23.9-9c4.8-2.7,9.2-6,13.8-9.1
		c10.4-7,21.6-12.5,33.1-17.6c3.4-1.5,6.9-2.6,10.5-3.4v-2.6c-4.5,0.7-8.9,2.1-13.1,4.4c-10.7,6-21.3,12.2-31.6,18.9
		c-12.2,7.9-25.2,13.2-39.5,15.6C154.8,318.7,153,319.2,151,319.6"/>
	<path class="st0" d="M300.1,269.2c-7,5.9-14.8,9.9-24.1,10.6c-6,0.4-12,0.5-18,0c0,0.6,0,1.2,0,1.9c2.8,0.3,5.7,0.6,8.5,0.9
		c6.6,0.8,12.9-0.1,19.1-2.2c9.1-3,16.3-9,23.1-15.4c5.6-5.3,10.9-10.8,16.4-16.3c0.3-0.3,0.6-0.7,0.9-1v-0.6
		c-1.1,0.9-2.3,1.8-3.4,2.8C315.1,256.3,307.7,262.8,300.1,269.2"/>
	<path class="st0" d="M194.8,221.3c0.2,0.1,0.6,0.3,1,0.4c3.7,1.4,7.4,2.5,11.1,3.3v-2.6c-0.3,0-0.6,0-0.9,0
		C202.3,222.3,198.5,221.7,194.8,221.3"/>
	<path class="st0" d="M271.2,220.8c4.6-1.2,9-2.8,13.5-4.3c0-0.1,0-0.3,0-0.4c-2.5-0.4-5-1-7.5-1.2c-6.6-0.5-13,0.3-19.3,1.7v7.4
		C262.4,223.1,266.8,221.9,271.2,220.8"/>
	<path class="st0" d="M79.9,232.2c-4,1-8.1,1.6-12.2,1.8c-5.9,0.3-11.9,0.1-17.8,0c-1.5,0-3-0.3-4.4-0.5c3.1,1.7,6.1,3.6,9.7,3.7
		c5.8,0.3,11.7,0.4,17.5,0.4c1.8,0,3.8,0,5.5-0.5c6.7-1.8,13.5-3.4,20-5.9c3.4-1.3,6.8-2.8,10.1-4.3l3-5.1
		c-4.7,1.9-9.4,3.7-14.2,5.2C91.3,228.8,85.7,230.7,79.9,232.2"/>
	<path class="st0" d="M152.7,204.8c0.2-0.1,0.4-0.3,0.9-0.8c-1.5-0.2-2.7-0.7-3.7-0.3c-2.6,0.8-5.1,1.9-7.5,3.1
		c-1.2,0.6-2.3,1.2-3.5,1.8v3.4C143.5,209.6,148.1,207.2,152.7,204.8"/>
	<path class="st0" d="M112.3,282.4c6.4,5.5,11.7,12,16.7,18.7c5,6.7,11.3,11.5,19.3,14.1c5.3,1.7,7.6,2,11.3,0.8
		c-0.3-0.1-0.6-0.2-0.8-0.3c-3.1-1-6.4-1.8-9.4-3.2c-4.5-2-7.3-5.9-10.3-9.6c-8-10-17.4-18.4-28.2-25.3c-0.7-0.4-1.4-0.9-2.1-1.3
		h-5.1C106.7,278.1,109.6,280.1,112.3,282.4"/>
	<path class="st0" d="M70.2,264.3c4.8,1,9.5,2.2,14.1,3.7l1.2-2.1c-2.8-0.8-5.7-1.5-8.7-2C74.7,263.6,72.4,262.5,70.2,264.3"/>
	<path class="st0" d="M454.9,189.3c-4.6,2.3-9.2,4.5-13.8,6.8c-4,2-8,3.9-12.5,4.2c-5,0.3-10,0.7-14.9,0.4
		c-6.3-0.3-12.6-1.1-18.8-1.8c-0.3,0-0.5-0.1-0.8-0.1v4.7c0.2,0,0.3,0.1,0.5,0.1c6.4,1,12.9,0.9,19.4,1.1
		c11.1,0.2,21.4-2.2,31.2-7.3c5.4-2.9,10.9-5.6,16.4-8.4c0.1-0.1,0.1-0.3,0.2-0.4c-1.2-0.2-2.4-0.5-3.5-0.4
		C457,188.3,455.9,188.8,454.9,189.3"/>
	<path class="st0" d="M54.3,204.6c6.2-0.1,12.3,0,18.5-0.6c6-0.5,11.7-2.8,17.1-5.4c5.5-2.7,11-5.5,16.4-8.3
		c0.9-0.4,1.8-0.7,2.8-1.2c-1.4-1-2.5-1.5-4-0.9c-4.7,2.2-9.4,4.2-14.1,6.6c-5.3,2.7-10.6,5.1-16.7,5.6c-8.5,0.7-16.9,0.2-25.3-0.7
		c-0.1,0-0.3,0-0.4,0l-2.6,4.3C48.8,204.5,51.6,204.7,54.3,204.6"/>
	<path class="st0" d="M446.5,204.4c5.3-2.2,10.4-4.9,15.5-7.4v-3.5c-5.8,1.8-11.2,4.6-16.4,7.6c-10.1,5.8-20.9,8.5-32.6,8
		c-4.6-0.2-9.2-0.7-13.8-1.2c-1.8-0.2-3.5-0.4-5.3-0.7v2c5.2,0.5,10.4,0.9,15.6,1.3C422.4,211.6,434.8,209.4,446.5,204.4"/>
	<path class="st0" d="M302.4,209.8c0,0.1,0.1,0.2,0.1,0.3c5.8-1.5,11.5-3.2,17.4-4.3c2-0.4,4-0.8,6.1-1.1V203
		c-5.3,1.1-10.5,2.6-15.8,4.1C307.5,207.8,305,208.9,302.4,209.8"/>
	<path class="st0" d="M163.6,133.4c-8.5-0.8-17-0.1-25.3,1.6c-8,1.6-15.6,4.5-22.8,8.4c-6.7,3.7-13.3,7.7-20,11.5
		c-2.2,1.2-4.5,2.2-6.8,3.2c0,0.1,0,0.3,0,0.4c2.2,0,4.4,0.4,6.4-0.1c5.7-1.2,10.6-4.2,15.4-7.3c9-5.7,18.8-9.7,29.2-12
		c6.8-1.5,13.6-2.4,20.6-2.9c6.9-0.5,13.7,0,20.5,0.5c2.7,0.2,5.5,0.4,8.2,0.6c0-0.2,0.1-0.3,0.1-0.5c-3.5-0.6-7-1.4-10.5-1.9
		C173.6,134.3,168.6,133.9,163.6,133.4"/>
	<path class="st0" d="M308.2,309.2c6.8-0.8,13.5-0.8,20.2-0.2c6.9,0.6,13.8,1.6,20.7,2.4c-2-0.7-3.9-1.5-5.8-2.6
		c-7.5-1.8-15.1-3.2-22.9-3.8c-8.1-0.7-16,0.4-23.7,2.6c-10.6,3-20.8,6.8-30.7,11.6c0.4,0.9,0.8,1.8,1.2,2.7
		c0.2-0.1,0.5-0.2,0.7-0.4C280.6,314.6,294.1,311,308.2,309.2"/>
	<path class="st0" d="M230.8,332.5c3.4-0.6,6.8-1.3,10.1-2V329c-3.5,1-7,1.9-10.5,2.6c-1.7,0.4-3.4,0.7-5.1,1.1c0,0.1,0,0.3,0.1,0.4
		C227.2,333,229,332.9,230.8,332.5"/>
	<path class="st0" d="M164.5,182c-8.6,0.4-17.2,0.2-25.6-1.7v2.9c3.7,0.7,7.4,1.1,11.1,1.2c7.9,0.1,15.7-0.9,23.5-2.8
		C170.5,181.7,167.5,181.9,164.5,182"/>
	<path class="st0" d="M110,170.7c-10.9-3.8-22.2-6.2-33.7-7.2c-1.9-0.2-3.8-0.2-5.6-0.3l-1.4,2.3c5.5,0.5,10.9,1.4,16.3,2.1
		c5.4,0.7,10.7,2,15.8,3.8c10.3,3.8,20.5,8.1,31.3,10.5c0.5,0.1,1,0.2,1.5,0.3l1.6-2.7c-0.7-0.2-1.5-0.4-2.2-0.7
		C125.7,176.3,117.9,173.4,110,170.7"/>
	<path class="st0" d="M198.8,279.6c4.3,2.4,9,3.2,13.9,3.4c5.3,0.2,10.5-0.5,15.6-1.8c2.5-0.6,4.9-1.7,7.4-2.5
		c0-0.1-0.1-0.3-0.1-0.4c-3.5,0.4-7,0.6-10.5,1.2c-4.9,0.9-9.8,0.9-14.6-0.5c-6.1-1.7-11.6-4.5-17.1-7.5
		c-12.9-7.1-25.7-14.1-39.8-18.4c-4.8-1.5-9.8-2.6-14.6-3.8v0.8c10,2.9,19.7,6.8,28.8,11.9C178.1,267.8,188.4,273.8,198.8,279.6"/>
	<path class="st0" d="M145.5,296.7c4.5,4.1,9.7,7.1,15.7,8.7c7.1,1.9,14.4,2.1,21.7,2.6c0.9,0.1,1.9-0.5,3.2-0.9
		c-0.6-0.3-0.7-0.5-0.8-0.5c-0.6-0.1-1.2-0.1-1.7-0.1c-5.9-0.3-11.7-1.5-17.3-3.4c-10.4-3.6-19-10.4-27.7-16.9
		c-4.1-3.1-7.9-6.5-11.9-9.8h-4.1c2.5,1.7,4.8,3.6,7.2,5.5C135.2,286.6,140.2,291.9,145.5,296.7"/>
	<path class="st0" d="M84.6,260.9c1.1,0.2,2.3,0.5,3.4,0.7l0.4-0.7c-2.1-0.2-4.2-0.3-6.3-0.4C82.9,260.9,83.8,260.7,84.6,260.9"/>
	<path class="st0" d="M398,273.1c4.6,1.5,9,2.5,13.5,3.7c9.3,2.5,18.4,5.4,26.3,11.2c6.2,4.6,12.1,9.6,18.3,14.3
		c1,0.7,1.9,1.4,2.9,2.1c0.3-1.4,0.7-2.8,1-4.2c-0.5-0.6-1-1.2-1.5-1.9c-5.6-7.1-12.2-12.7-20.7-16.2c-11.1-4.6-22.6-7.7-34.3-9.9
		C401.7,271.9,399.8,272.8,398,273.1"/>
	<path class="st0" d="M115.2,309.7c-2.8-3.5-5.6-7.1-8.6-10.4c-3.4-3.7-6.8-7.5-10.5-10.8c-4.7-4.1-10.5-6.2-16.3-8.4
		c-8.6-3.3-17.5-5.5-26.5-7.5c-2.9-0.6-5.5-0.5-7.9,0.8c5.5,1.4,11.1,2.8,16.7,4.3c10.8,2.8,20.6,7.8,29.3,14.7
		c4.9,3.9,9.7,8.1,14.7,12c2.8,2.1,5.9,3.9,8.9,5.8C115,310,115.1,309.9,115.2,309.7"/>
	<path class="st0" d="M52.9,271c0.6,0.2,1.1,0.4,1.6,0.5c9.6,1.8,19,4.5,28.1,8c8,3.1,15.4,7.2,21,13.8c3.8,4.5,7.5,8.9,11.2,13.4
		c5.3,6.5,12.6,9.1,20.4,10.9c-0.3-0.2-0.6-0.4-1-0.5c-5.8-2.3-10.9-5.6-15-10.4c-4-4.7-8.1-9.4-12.1-14.1
		c-6-6.9-12.9-12.6-21.4-16.1h-6.3l1.1-1.9c-5.8-2-11.8-3.5-17.8-5C59.2,268.6,56.1,269.5,52.9,271"/>
	<path class="st0" d="M194.1,301c1.9,0,3.2-0.8,4.2-1.7c-5.5-0.8-11.1-1.3-16.5-2.5c-9.8-2.1-18.7-6.3-26.8-12.2
		c-5.4-3.9-10.6-8-16-11.9v3.7h-1.2c7.9,6.6,16.4,12.2,25.6,17C173,298.4,183.2,300.8,194.1,301"/>
	<path class="st0" d="M416.3,212.1c-7.4-0.2-14.9-0.8-22.3-1.5v1.8c2.9,0.6,5.7,1.2,8.6,1.7c5,1,10,2.1,15.1,1.9
		c3.5-0.2,7-0.4,10.4-0.8c7.1-0.9,13.9-2.9,20.4-6.1c4.6-2.3,9.1-4.7,13.6-7.1v-3.1c-2.2,1-4.3,2-6.5,3.1
		C443.2,208.3,430.3,212.4,416.3,212.1"/>
	<path class="st0" d="M107.3,203.2c5.4-2.8,10.7-5.8,16.1-8.7c0-0.2-0.1-0.4-0.1-0.6c-1,0.1-2.1-0.2-3,0.2c-4.6,2-9.3,3.9-13.7,6.2
		c-12,6.2-24.4,11.3-38.2,11.7c-6,0.2-12-0.1-18-0.4c-2.7-0.1-5.5-0.4-8.2-0.7l-0.9,1.5c2.1,0.4,4.3,0.9,6.4,1.3
		c4.7,0.9,9.4,2,14.2,2.3c9.4,0.7,18.6-0.8,27.4-4.2C95.5,209.4,101.4,206.2,107.3,203.2"/>
	<path class="st0" d="M283,241.6c10.5-3.9,21.1-7.1,32.3-8.3c3.6-0.4,7.1-0.7,10.7-0.9v-2.4c-5.2,0.3-10.4,0.8-15.6,1.5
		c-5.3,0.8-10.6,1.5-15.5,3.6c-4.3,1.8-8.5,4.1-12.8,6c-6.1,2.8-12.5,4-19.2,4.6c-1.7,0.2-3.3,0.3-5,0.3v2.2
		c1.4-0.2,2.7-0.5,4.1-0.8C269.1,246,276.2,244.2,283,241.6"/>
	<path class="st0" d="M394,245.5v2.2c2.2,0.1,4.4,0.3,6.6,0.9c0.1-0.1,0.1-0.3,0.2-0.4c-1.8-0.9-3.5-2.1-5.4-2.5
		C395,245.7,394.5,245.6,394,245.5"/>
	<path class="st0" d="M321.9,279.9c-1.2,0.6-2.3,1.2-3.5,1.9c0.3,0.1,0.4,0.2,0.5,0.2c2.4-0.6,4.8-1.2,7.1-2c0-0.2,0-0.5,0-0.7v-1.6
		C324.7,278.4,323.3,279.2,321.9,279.9"/>
	<path class="st0" d="M263.5,234.5c0.8-0.2,1.7-0.4,2.5-0.6c8.7-2.2,17.1-5.5,25.4-8.9c8.9-3.6,17.7-7.1,27.5-7.8
		c2.4-0.2,4.8-0.2,7.1-0.3v-3.3c-3.6,0.2-7.1,0.7-10.6,1.5c-7.9,1.7-15.3,4.9-22.7,8c-8.1,3.4-16.2,6.5-24.4,9.7
		c-1.6,0.6-3.3,0.9-4.9,1.4C263.4,234.3,263.5,234.4,263.5,234.5"/>
	<path class="st0" d="M179.7,140.5c-8.1-0.5-16.1-0.1-24.1,1.1c-5,0.7-10,1.9-14.9,3c-7.8,1.8-15.3,4.2-22.3,8.1
		c-5,2.7-9.4,6.5-15,8.2c1.5,0.4,3.1,0.9,4.4,0.5c4-1.2,8.1-2.4,11.7-4.4c10.6-5.7,21.6-10.4,33.6-12.3c5.8-0.9,11.7-1.7,17.5-2
		c11.2-0.5,22.3,0.1,33.3,1.6c1,0.1,2,0.2,3,0.3v-0.9c-2.9-1.3-6-1.4-9-1.7C191.9,141.3,185.8,140.9,179.7,140.5"/>
	<path class="st0" d="M77.3,170.6c8.1,0.1,16.1,0.9,23.6,4.2c6.5,2.9,12.9,6,19.3,9c3.6,1.7,7.3,2.9,11,3.7l2.2-3.8
		c-0.8-0.2-1.7-0.4-2.5-0.6c-9.2-2.1-18-5.4-26.7-9c-8.6-3.5-17.6-5.1-26.8-6.3c-3-0.4-6-0.6-9-0.9l-0.9,1.6c1,0.2,2,0.4,3,0.6
		C72.8,169.7,75.1,170.5,77.3,170.6"/>
	<path class="st0" d="M172.9,183.7c-5,0.6-10,1.2-15,1.8c-6.4,0.7-12.7,0.3-19-0.8v3.9c4.6,0.3,9.3,0.1,14-0.6
		c3.8-0.6,7.7-1,11.5-1.4C167.5,186.2,170.4,185.3,172.9,183.7"/>
	<path class="st0" d="M157,198.5c-0.6,0.3-1.1,0.6-1.7,1c0.1,0.1,0.1,0.3,0.2,0.4c0.3-0.1,0.7-0.3,1-0.4c2.6-1.4,5.1-2.8,7.7-4.1
		c13.8-6.7,28.1-12.1,42.6-16.8v-3c-1.2,0.4-2.4,0.8-3.5,1.2C187.3,182.7,171.9,190.1,157,198.5"/>
	<path class="st0" d="M276.6,176.4c-9-3.3-17.9-6.7-27.6-7.4c-7.3-0.6-14.5,0-21.7,1.2c-1.1,0.2-2.3,0.4-3.4,0.7v3
		c6.8-1.5,13.7-2.4,20.8-2.5c4-0.1,8.1,0.4,12.1,0.7c4.9,0.4,9.7,1.2,14.2,3c6.6,2.6,12.9,5.8,19.9,7.3c4.2,0.9,8.5,1.7,12.8,2.5
		c0-0.2,0.1-0.4,0.1-0.6c-1.7-0.2-3.4-0.2-4.9-0.7C291.4,181.3,283.9,179,276.6,176.4"/>
	<path class="st0" d="M140.5,175.2c-0.5-0.1-1.1-0.3-1.6-0.5v3.9c4.2,1,8.4,1.7,12.8,1.9c10.7,0.7,21.3-0.4,31.8-2
		c1.7-0.3,3.4-1,5.1-1.5c0-0.1-0.1-0.2-0.1-0.3c-0.2,0-0.3-0.1-0.5-0.1c-4.6,0.6-9.1,1.3-13.7,1.8
		C162.9,179.6,151.6,178.1,140.5,175.2"/>
	<path class="st0" d="M91.5,162.7c-4.5-0.8-9-1.2-13.6-1.6c-1.9-0.1-3.9-0.2-5.8-0.2l-0.5,0.8c2.4,0.2,4.7,0.4,7,0.7
		c5.9,0.7,11.9,1.5,17.7,2.8c9.5,2.1,18.7,5.5,27.9,8.9c4.1,1.5,8.3,2.9,12.5,4l2-3.4c-9.9-2.7-19.6-5.7-29.5-8.4
		C103.4,164.8,97.4,163.7,91.5,162.7"/>
	<path class="st0" d="M138.9,360.8v2.9c0.7,0,1.5-0.1,2.2-0.2c1.6-0.2,3.2-0.3,4.7-0.5c2.7-0.5,5.5-1.1,8.2-1.6
		c-1.4-0.3-2.7-0.3-4-0.3C146.3,361,142.6,361,138.9,360.8"/>
	<path class="st0" d="M75.5,329.1c0.4,0.2,0.8,0.3,1.1,0.5c9,3.5,17.3,8.1,24.4,14.8h5.9c-1.6-1.6-3.1-3.1-4.8-4.6
		c-5.7-5-12.6-8-19.6-11C80.1,327.9,77.9,327.8,75.5,329.1"/>
	<path class="st0" d="M66.7,169.9l-1.2,2.1c7,1.4,13.8,3.5,20.4,6c13.9,5.3,27.7,10.7,41.6,15.8l0.4-0.6c-7.4-2.7-14.6-5.8-21.8-9.1
		C93.3,178.2,80.4,172.9,66.7,169.9"/>
	<path class="st0" d="M187.3,206.2c-6.9-0.9-14-1.5-20.9-2.7c-7.5-1.3-14.9-2.9-22.2-5c-1.8-0.5-3.5-1-5.2-1.5v1
		c12.2,4.3,24.5,8,37.4,9.5C180.2,207.9,184,207.6,187.3,206.2"/>
	<path class="st0" d="M88.6,243.2c3.9-0.5,7.7-1.2,11.5-2.3l2.6-4.5c-1,0.4-2,0.7-3,1.1c-4.4,1.5-8.9,2.8-13.4,3.8
		c-3.4,0.8-6.9,1-10.3,1.4c0,0.2,0,0.3,0,0.5C80.1,243.3,84.4,243.7,88.6,243.2"/>
	<path class="st0" d="M162.6,206.4c-1.1,0.1-1.8,0.1-2.5,0.3c-0.9,0.3-1.7,0.7-2.5,1.1c-6.2,3.4-12.5,6.7-18.7,10.1v3.5
		c7.8-4.7,15.5-9.5,23.2-14.2C162.2,207.1,162.2,206.9,162.6,206.4"/>
	<path class="st0" d="M112,295.5c3.9,4.6,7.8,9.1,11.9,13.4c3.3,3.4,7.6,5.4,12.2,6.8c-0.5-0.3-1-0.7-1.4-1c-2.5-2.3-5.2-4.4-7.4-7
		c-4.2-5-8.1-10.4-12.1-15.6c-5.3-6.7-11.6-12.1-19.5-15.5c-0.3-0.1-0.5-0.2-0.8-0.3h-5.3C98.8,280.8,105.5,287.9,112,295.5"/>
	<path class="st0" d="M61.8,267.8c1.5,0.4,3,0.7,4.5,1c5.1,1.1,10.1,2.5,15,4.2l0.8-1.5c-5.1-1.7-10.3-3.1-15.6-4.2
		C65,267.1,63.2,266.2,61.8,267.8"/>
	<path class="st0" d="M155.4,129.5c-7,0.1-13.9,0.8-20.6,2.4c-8.8,2.1-17.1,5.6-25.1,9.7c-7.7,4-15.3,8.3-22.9,12.4
		c-2.1,1.1-4.3,2-6.4,3c0,0.2,0.1,0.4,0.1,0.6c2.1-0.2,4.3-0.1,6.3-0.6c2.2-0.6,4.4-1.5,6.4-2.7c6.7-3.7,13.3-7.7,20-11.4
		c10.7-6,22.2-9.8,34.4-10.7c6.5-0.5,13.2-0.2,19.7,0c3.3,0.1,6.6,0.7,9.9,1.2c2.3,0.3,4.6,0.6,6.9,1c0-0.1,0-0.1,0-0.2
		c-0.4-0.2-0.8-0.4-1.1-0.5C174,130.8,164.8,129.3,155.4,129.5"/>
	<path class="st0" d="M138.9,215.9c4.9-2.7,9.8-5.4,14.7-8c1.4-0.8,2.9-1.4,4.4-2.1c0-0.2-0.1-0.4-0.1-0.6c-1,0.2-2.2,0.1-3.1,0.5
		c-5.3,2.7-10.6,5.5-15.8,8.2V215.9z"/>
	<path class="st0" d="M80.2,240.7c4.3-0.5,8.7-1.2,12.9-2.5c3.7-1.1,7.3-2.5,10.9-3.9l2.9-5c-2.8,1.2-5.5,2.4-8.3,3.5
		c-11,4.5-22.4,7.3-34.5,6.4c-1-0.1-2.1,0-3.1,0c0,0.2-0.1,0.4-0.1,0.5c2.4,0.5,4.8,1.4,7.2,1.5C72.1,241.3,76.2,241.1,80.2,240.7"
		/>
	<path class="st0" d="M350.2,337.2c8.7-6.7,17.6-13.1,26.7-19.3c6.3-4.4,13.8-5.9,21.3-7.5c-0.8-0.2-1.7-0.5-2.5-0.4
		c-7.6,0.8-14.7,3.3-21.1,7.3c-5,3.1-9.8,6.5-14.4,10.2c-8.6,6.8-16.9,13.8-25.4,20.7c-5.4,4.4-10.7,9.1-16.3,13.3
		c-3,2.3-6.1,4.3-9.3,6.2c0.3,0.2,0.7,0.4,1.1,0.6c6.8-4.2,13.5-8.6,19.5-13.8C336.5,348.6,343.1,342.6,350.2,337.2"/>
	<path class="st0" d="M394,167.2C394,167.2,394,167.2,394,167.2l0,0.5c0.2-0.1,0.5-0.2,0.7-0.3C394.4,167.1,394.2,167.1,394,167.2"
		/>
	<path class="st0" d="M306.4,197.1c-6.1,0.6-12.2,0.1-18.3-0.6c-1.7-0.2-3.3-0.3-5-0.5c0,0.1,0,0.3,0,0.4c0.2,0.1,0.4,0.2,0.5,0.2
		c5.6,0.8,11.3,1.8,17,2.3c8.6,0.8,17-0.1,25.3-1.9v-3.3c-2.1,0.7-4.3,1.3-6.5,1.8C315.2,196.5,310.8,196.7,306.4,197.1"/>
	<path class="st0" d="M271.9,195.6c-3.6-0.7-7.2-1.2-10.8-1.7c-1-0.1-2.1-0.2-3.1-0.3v1.4c3.3,1.3,6.8,2.7,10.2,4.4
		c7.7,3.9,15.8,5.4,24.3,4.8c5.9-0.4,11.7-1,17.5-1.9c3.4-0.5,6.8-1.5,10.2-2.3c0-0.1,0-0.2,0-0.2c-2.4,0.2-4.7,0.6-7.1,0.6
		c-6.1,0-12.2,0-18.3-0.5c-4-0.3-7.9-1.2-11.9-1.9C279.1,197.3,275.5,196.3,271.9,195.6"/>
	<path class="st0" d="M324.5,362c8.8-5.7,17.4-11.6,24.7-19.2c1.3-1.3,2.7-2.6,4.2-3.6c8.2-5.5,16.5-11,24.8-16.4
		c4.8-3.1,9.9-5.9,15.5-7.6c3.3-1,6.5-2,9.8-3v-0.6c-0.9,0-1.8-0.1-2.7,0c-3.1,0.6-6.3,1-9.3,1.9c-5.3,1.5-10.5,3.1-15.1,6.5
		c-3.3,2.4-6.6,4.8-10,7.1c-9.8,6.9-19.3,14.2-28.2,22.2c-4.7,4.2-9.7,8.2-14.7,12.1c-2.8,2.2-5.9,4.1-8.9,6.1
		c0.9-0.2,1.8-0.6,2.6-1C319.7,365,322.1,363.6,324.5,362"/>
	<path class="st0" d="M378.3,376.7c3.9,0.1,7.8,0.1,11.7,0.1c5.1-1.6,10-3.5,14.7-5.8c-6.4,1.1-12.7,2.5-19,3.8
		C383.2,375.2,380.8,376,378.3,376.7"/>
	<path class="st0" d="M260.6,302.4c0.2,0.7,0.3,1.4,0.5,2.1c2.1,0.5,4.2,1,6.3,1.5c2.9,0.7,6.1,1.1,9,0.4c4.7-1.1,9.3-2.9,13.7-4.9
		c11.9-5.4,24-9.9,37.3-10.5c0.3,0,0.6,0,0.9,0c-0.2-0.6-0.4-1.2-0.6-1.9c-4.8,0.2-9.6,0.8-14.2,2.4c-5.6,1.9-11,4.2-16.6,6.2
		c-6.5,2.3-13.2,4.2-20.1,5C271.2,303.5,265.9,303.2,260.6,302.4"/>
	<path class="st0" d="M225.2,300.2c2.2-0.3,3.9-0.7,5.7-0.7c3.3,0,6.7-0.2,10,0.2V299c-1.5-0.2-3-0.5-4.5-0.7
		C232.8,297.8,228.9,297.3,225.2,300.2"/>
	<path class="st0" d="M316.7,127c-0.1-0.1-0.2-0.2-0.3-0.3c-2,2.4-4.1,4.7-6.1,7.1c-4.3,5-8.7,9.9-14,13.9
		c-4.2,3.1-8.8,5.3-14.1,5.7c-7.8,0.7-15.6-0.1-23.2-1.8c-9.6-2.2-19-5.3-28-9.4c-0.5-0.2-1-0.4-1.4-0.6c0.1,0.4,0.2,0.5,0.4,0.6
		c13.2,6.3,26.3,12.9,41,15.1c3.7,0.6,7.6,0.4,11.4,0c6-0.6,10.8-3.9,14.9-8.1c4.4-4.6,8.8-9.2,13-14
		C312.7,132.7,314.6,129.7,316.7,127"/>
	<path class="st0" d="M434.5,308.3c6.8,3.4,13.9,5.6,21.1,6.5c0.2-0.5,0.3-0.9,0.5-1.4c-2.3-0.4-4.7-0.8-6.9-1.4
		c-6.4-1.7-12.3-4.7-18-7.8c-11.5-6.2-23.4-11.5-36.2-14.5c-0.8-0.2-1.6-0.4-2.4-0.6c-0.2,0.6-0.4,1.2-0.6,1.8
		c8.9,2.5,17.7,5.2,26,9.4C423.5,302.9,429.1,305.5,434.5,308.3"/>
	<path class="st0" d="M34.6,289.5c13.5,3.3,26.5,8.1,38.9,14.6c8.6,4.5,17.3,9.1,27.1,10.3c4.8,0.6,9.7,0.7,14.5,1
		c-2.6-0.7-5.2-1-7.8-1.4c-3.6-0.6-7.2-1.1-10.7-2.1c-7-1.9-13.5-5.3-19.8-8.7c-10.4-5.6-21.1-10.3-32.6-13
		c-8.1-2-16.2-4.4-24.3-6.4c-3.6-0.9-7.1-2.7-11-1.4c-0.8,0.3-1.7,0.3-3,0.6c2.2,0.4,4,0.6,5.7,1.1
		C19.3,285.7,26.9,287.6,34.6,289.5"/>
	<path class="st0" d="M58.1,314.6c-4.1,1-8.2,2.4-12.2,3.8c-3.4,1.2-6.7,2.8-10,4.3c0,0.1,0.1,0.2,0.1,0.3c2.3,0,4.6-0.1,6.9,0
		c4.3,0.2,8.7,0.5,13,0.8c1.6,0.1,3.3,0.7,4.7,0.3c5.8-1.5,11.5-3.3,16.9-4.9c-4.7-1.3-9.9-2.7-15.1-4
		C61.1,314.9,59.5,314.3,58.1,314.6"/>
	<path class="st0" d="M412.5,314.5c-0.6-0.2-1.3-0.2-1.9,0c-4.9,1.6-9.7,3.1-14.5,4.8c-2.6,0.9-5.1,2.3-7.4,3.3
		c6.9,0.4,14,0.7,21,1.3c2.1,0.2,3.9,0.1,5.9-0.5c4.9-1.5,9.9-2.8,14.8-4.1C424.5,317.8,418.6,316.1,412.5,314.5"/>
	<path class="st0" d="M310.5,286.1c-7.4,2.3-14.2,6-21.1,9.5c-6.7,3.4-13.6,6.1-21.2,5.4c-2.7-0.3-5.4-0.7-8.1-1.1
		c0,0.2,0.1,0.4,0.1,0.6c2.2,0.3,4.3,0.7,6.5,1c8.2,1.1,16-0.7,23.3-4.6c3.9-2.1,7.6-4.5,11.5-6.4c7.9-3.8,16.3-5.6,24.8-6.4
		c-0.1-0.4-0.1-0.8-0.2-1.3C320.9,283.4,315.6,284.5,310.5,286.1"/>
	<path class="st0" d="M388.3,298c-0.3,0.4-0.5,0.8-0.8,1.2c2.4,1.1,4.8,2.2,7.3,3.3c3.3,1.5,6.7,2.7,10.1,4.1
		c-2.8-1.8-5.8-3.2-8.8-4.7C393.5,300.6,390.9,299.3,388.3,298"/>
	<path class="st0" d="M240.3,297.2c0.2,0,0.4,0.1,0.6,0.1v-0.5c-0.2,0-0.4-0.1-0.6-0.1C240.3,296.9,240.3,297.1,240.3,297.2"/>
	<path class="st0" d="M163.2,210.7c2.1-0.9,4.3-1.6,6.6-2.5c-2.6-0.7-4.9-1.1-7.3,0.5c-2.6,1.8-5.4,3.1-8.1,4.7
		c-5.2,3.1-10.3,6.3-15.5,9.4v4.8c2.4-1.8,4.8-3.7,7-5.7C151.1,217.3,156.8,213.5,163.2,210.7"/>
	<path class="st0" d="M98.4,243.8l0.6-1c-0.8,0.2-1.6,0.4-2.4,0.6c0.1,0.2,0.1,0.5,0.2,0.7C97.3,244,97.8,243.9,98.4,243.8"/>
	<path class="st0" d="M81.7,333.5c-0.5-0.2-1-0.4-1.5-0.6c1.1,1.4,2.5,2.4,3.7,3.5c2.5,2.2,4.9,4.5,7.5,6.7c0.6,0.5,1.1,0.9,1.7,1.4
		h5.5C93.5,340,88,336.3,81.7,333.5"/>
	<path class="st0" d="M154.1,362.8c-4.5,0.7-9,1.6-13.6,2.2c-0.6,0.1-1.1,0.1-1.6,0.2v2.4c1.5-0.1,2.9-0.3,4.4-0.7
		c4.1-1,8.1-2.4,12.1-3.7c0-0.2-0.1-0.4-0.1-0.5C154.9,362.8,154.5,362.8,154.1,362.8"/>
	<path class="st0" d="M113.4,128.3c0,0.2,0.1,0.3,0.1,0.5c7.8-2,15.6-3.7,23.6-4c7-0.2,14,0.5,20.9,1.7c3.5,0.6,7,1.3,10.4,2
		c3.9,0.8,7.9,1.2,11.6,2.5c6.5,2.2,13,4.8,19.4,7.4c2.5,1,4.9,2.2,7.4,3.3c0-0.4-0.1-0.5-0.3-0.6c-14.9-8.8-30.5-15.9-47.9-18
		c-5.8-0.7-11.8-0.6-17.6-0.3c-5.2,0.3-10.3,1.1-15.4,2.1C121.5,125.6,117.5,127.1,113.4,128.3"/>
	<path class="st0" d="M440.6,301c-12-8.4-25.3-13.8-39.5-17c-2.4-0.5-4.8-1.1-7.2-1.6c-0.1,0.8-0.2,1.6-0.3,2.3
		c8.2,1.9,16.3,4,24,7.4c7.1,3.2,14.1,6.8,21.1,10.3c5.3,2.6,10.8,4.6,16.5,6c-0.6-0.2-1.1-0.5-1.7-0.7
		C448.9,306,444.6,303.8,440.6,301"/>
	<path class="st0" d="M22.5,279.6c-0.8,0.3-1.7,0.4-2.8,0.6c3,0.5,5.7,0.9,8.5,1.5c6,1.4,12,2.8,18,4.3c8.9,2.3,17.6,5.1,25.9,9.2
		c6.7,3.4,13.3,6.7,20.1,9.9c3.3,1.5,6.8,2.5,10.2,3.7c0-0.1,0.1-0.3,0.1-0.4c-0.5-0.2-1.1-0.4-1.6-0.6c-4.4-1.8-8.6-3.8-12.5-6.5
		C76.4,292.8,63,287.2,48.6,284c-6.5-1.5-13.1-2.9-19.6-4.3C26.8,279.3,24.7,278.7,22.5,279.6"/>
	<path class="st0" d="M394,249.8v0.2c0.4,0,0.7-0.1,1.1-0.1C394.7,249.8,394.4,249.8,394,249.8"/>
	<path class="st0" d="M9.2,335.6c11.6-4.1,23.4-5.4,35.6-4.3c12.1,1.1,23.5,4.7,34.5,9.8c-0.1-0.1-0.1-0.2-0.2-0.2
		c-9.5-7-19.7-12.4-31.7-13.4c-4.8-0.4-9.4-0.2-14.1,0.5c-4.2,0.6-8.4,1.5-12.6,2.3C16.3,331,12.7,333.2,9.2,335.6"/>
	<path class="st0" d="M431.7,341.2c-0.4-0.6-0.4-0.7-0.6-0.8c-9.4-6.7-19.3-12-31.1-13c-4.8-0.4-9.5-0.2-14.3,0.5
		c-3.7,0.5-7.3,1.3-10.9,1.9c-4.9,0.8-9.2,3-13.2,5.8C385.7,327.3,408.8,330.4,431.7,341.2"/>
	<path class="st0" d="M156.7,219c3.1,0.2,6.1-0.1,9.1,0.3c6.5,0.9,12.1,3.9,16.9,8.2c7.5,6.7,15.5,12.8,24.1,18.2
		c0,0,0.1,0.1,0.2,0.1v-1.6c-5.8-3.4-11.1-7.7-15.8-12.6c-3.2-3.4-6.4-6.8-9.8-10c-4-3.8-9.3-5-14.5-6.3
		C162.4,214.1,159.9,217.2,156.7,219"/>
	<path class="st0" d="M198.1,311.8c-3.2,2-6.6,3.8-9.9,5.7c2.1-0.8,4.2-1.6,6.2-2.7c9.2-4.9,18.5-9.7,27.5-15
		c6.1-3.6,12.5-6.3,19.1-8.1V288c-6.1,1.6-11.6,4.4-17,7.6C215.3,300.9,206.7,306.4,198.1,311.8"/>
	<path class="st0" d="M262.3,289.5c2.7,0.1,5.4,0.1,8.1,0.1c1.7,0,3.3-0.2,5-0.2c-5.2,0.2-10.2,0.1-15.2-1.4c-0.7-0.2-1.3-0.4-2-0.5
		c0.1,0.7,0.1,1.3,0.2,2C259.7,289.5,261,289.5,262.3,289.5"/>
	<path class="st0" d="M167.1,213.5c3.4,1.1,6.6,1.9,9.6,3.2c5.1,2.1,8.8,6.1,12.3,10.2c5.3,6.1,11.2,11.3,17.9,15.4v-3.8
		c-4.6-3.2-8.9-6.7-13-10.5c-4-3.8-7.9-7.8-11.7-11.7c-2-2-4.2-3.4-7-3.8C172.4,212,169.8,212.8,167.1,213.5"/>
	<path class="st0" d="M206.9,378.2c-3.6-1.1-7.4-1.6-11.4-1.2c-4.2,0.5-8.5,0.8-12.7,1.4h24.1V378.2z"/>
	<path class="st0" d="M342.5,339.2c6.1-5,12.2-9.9,18.5-14.6c5.1-3.8,10.5-7.3,16-10.6c2.8-1.7,6.1-2.6,9.1-3.9
		c-0.1,0-0.2-0.1-0.4,0c-6.7,1.6-13.2,3.8-18.8,8.1c-6.8,5.3-13.5,10.7-20.1,16.1c-6.4,5.3-12.7,10.7-19,16
		c-6.8,5.7-13.6,11.3-21.1,16c0.3,0.2,0.5,0.3,0.8,0.5c7.4-4.4,14.4-9.6,21-15.4C333.1,347.2,337.7,343.1,342.5,339.2"/>
	<path class="st0" d="M101.5,324.2c0.3,0.2,0.5,0.3,0.7,0.4c8.7,3.7,16.3,9,23.6,14.9c2,1.6,4,3.3,6.1,4.9h6.7
		c-0.9-0.8-1.8-1.6-2.6-2.3c-7.6-6.8-15.9-12.3-25.4-15.9C107.7,325.1,104.9,323.3,101.5,324.2"/>
	<path class="st0" d="M152.4,354.9c-4.9-2.9-9.3-6.5-13.5-10.2v4.8C143.1,352,147.7,353.7,152.4,354.9"/>
	<path class="st0" d="M394,251.4v1.4c2.6-0.6,5.3-0.9,8-0.6c1.3,0.1,2.5,0.3,3.8,0.4c0-0.1,0-0.1,0-0.2c-0.4-0.2-0.7-0.4-1.1-0.5
		C401.2,251.3,397.6,251.2,394,251.4"/>
	<path class="st0" d="M9.5,269.4c6.4-3.8,12.3-8.4,19.1-11.7c8-3.8,16-7.1,25.1-5.1c-0.1-0.1-0.2-0.2-0.2-0.2
		c-5.7-1.6-11.6-1.3-17.3-0.3c-7.4,1.4-14.4,4.1-20.6,8.2c-1.8,1.2-3.5,2.4-5.3,3.7l-4.4,7.3C7.1,270.7,8.3,270.1,9.5,269.4"/>
	<path class="st0" d="M311.4,334.2c-2.4,4.3-5.6,8-9.7,10.8c-1.8,1.3-3.8,2.3-5.7,3.5c1.7-0.3,3.4-0.8,4.9-1.6
		c7.6-4.1,14-9.6,19.6-16.1c4.1-4.7,8.4-9.2,13.7-12.5c2.4-1.5,5.1-2.5,7.6-3.8c0-0.1-0.1-0.3-0.1-0.4c-3.4,0.9-6.9,1.5-10.2,2.7
		C322.6,320.1,316,326,311.4,334.2"/>
	<path class="st0" d="M144.9,359.9c0.2,0,0.4-0.1,0.6-0.1c-0.6-0.3-1.2-0.4-1.8-0.5c-1.6-0.2-3.2-0.4-4.8-0.7v1.1
		C140.9,359.8,142.9,359.9,144.9,359.9"/>
	<path class="st0" d="M82.4,326.7c0,0.2,0,0.3-0.1,0.5c0.6,0.2,1.1,0.5,1.7,0.7c6.5,2.6,12.9,5.5,18.3,10.1c2.4,2,4.6,4.3,6.9,6.5
		h5.6c-8.4-8.2-18.2-14-29.4-17.5C84.5,326.6,83.4,326.8,82.4,326.7"/>
	<path class="st0" d="M326,268.7c-3.2,3.2-6.5,6.3-10.2,9c-1.9,1.4-3.8,2.9-5.7,4.3c2.1-0.9,4.1-2.1,6-3.3c3.4-2.2,6.7-4.5,9.8-7
		V268.7z"/>
	<path class="st0" d="M452.3,322.8c0.4-0.9,0.9-1.9,1.3-2.8c-9.6-0.5-19.2-0.4-28.6,2.3c-2.9,0.8-5.7,1.6-8.9,2.5
		c2.9,1.2,5.4,2.2,7.9,3.2c0.5,0.2,1.1,0.1,1.7,0c7.7-2.3,15.4-4.8,23.6-5.1C450.2,322.9,451.2,322.9,452.3,322.8"/>
	<path class="st0" d="M74.5,321.8c-3.5,1-7.1,1.9-10.7,2.8c0,0.1,0,0.2,0.1,0.3c2.6,1.1,5.1,2.1,7.7,3.1c0.4,0.2,0.9,0,1.4-0.1
		c7.8-2.4,15.5-4.8,23.8-5.1c5.7-0.2,11.4-0.6,17.2-0.7c4.2-0.1,8.4,0,12.7,0c-0.5-0.1-1.1-0.2-1.6-0.2c-1.9-0.1-3.7,0-5.6-0.2
		c-5.2-0.5-10.4-1.3-15.7-1.6C94,319.7,84.2,319.2,74.5,321.8"/>
	<path class="st0" d="M10.5,274.3c5.2-3.3,10.3-6.9,15.3-10.6c9.7-7.2,20.4-9.5,32.2-6.8c1.9,0.4,3.9,0.5,5.9,0.8
		c-2.2-0.8-4.3-1.4-6.5-2.2c-5.1-1.8-10.3-2.6-15.7-1.2c-8.5,2.3-16.2,6.4-23.5,11.3c-4.6,3.1-9.2,6.2-14.1,8.8l-1.2,2v1.7
		C5.5,277,8,275.8,10.5,274.3"/>
	<path class="st0" d="M410,255.5c-5.3-2-10.6-2.4-16-1.1v2.1c5.2-1,10.7-0.9,16.4,0.3c2,0.4,4,0.6,6,0.8
		C414.2,256.9,412.1,256.3,410,255.5"/>
	<path class="st0" d="M114.9,152.7c11.8-7.1,25-10.1,38.4-12.3c5.9-0.9,11.9-1.3,17.9-1.4c7-0.1,14,0.5,21,0.8
		c2.8,0.1,5.5,0.5,8.3,0.8c-0.4-0.3-0.9-0.5-1.4-0.6c-3.8-0.5-7.7-1-11.5-1.4c-5.5-0.5-11-1-16.5-1.2c-10.2-0.3-20.3,0.7-30.3,3
		c-8.6,2-16.8,4.9-24.6,9.2c-6.2,3.4-11.8,7.8-18.8,9.8c0.1,0.2,0.1,0.4,0.2,0.6c2.2-0.5,4.6-0.6,6.6-1.5
		C107.9,156.9,111.4,154.8,114.9,152.7"/>
	<path class="st0" d="M296.7,152.1c-4.2,4-9.1,6.4-14.8,6.9c-7.2,0.7-14.4-0.2-21.3-2.4c-10.3-3.2-20-7.6-29.7-12.2
		c-0.4-0.2-0.9-0.4-1.3-0.6c0.9,1,1.9,1.9,2.9,2.6c3.1,2.2,6.1,4.8,9.5,6.4c10.9,5.1,22.5,8.1,34.6,9.1c4.1,0.3,8-0.1,11.7-2.2
		c5.4-3.1,10-7.1,13.6-12.2C300.1,149,298.3,150.5,296.7,152.1"/>
	<path class="st0" d="M405,148.5c-3.7,0-7.3-0.1-11-0.1v1c3.4-0.1,6.7-0.2,10.1-0.2c1.4,0,2.7-0.2,4.1-0.3c0-0.1,0-0.2-0.1-0.4
		C407.1,148.5,406,148.5,405,148.5"/>
	<path class="st0" d="M296.8,171.1c6.1-1,12.3-1.9,18.1-3.7c3.7-1.2,7.4-2.4,11.1-3.6v-1.4c-7.2,2.3-14.4,4.3-21.7,6.2
		c-4.7,1.2-9.7,1.7-14.5,2.3c-2.6,0.4-5.2,0.4-7.8,0.6c0.7,0.4,1.5,0.7,2.2,0.7C288.3,171.9,292.6,171.8,296.8,171.1"/>
	<path class="st0" d="M154.4,378.4h2.6c2.2-0.8,4.3-1.6,6.4-2.5c11.4-5,23.2-8.5,35.8-8.6c2.6,0,5.2,0.1,7.7,0.3v-1.2
		c-5.5,0.3-11.1,0.5-16.6,0.8c-6.5,0.4-12.8,1.8-19.1,3.8C165.3,372.9,159.9,375.7,154.4,378.4"/>
	<path class="st0" d="M132.4,128.5c-4.7,1.1-9.3,3-13.9,4.9c-11.5,4.7-22.2,11-33,17.1c-3.6,2-7.2,3.9-10.7,5.9l-0.2,0.4
		c0,0,0,0,0,0c0.7-0.1,1.6,0,2.2-0.3c3.4-1.4,6.8-2.7,10-4.4c8.6-4.4,16.9-9.2,25.5-13.6c14.1-7,28.9-11,44.8-10.5
		c-2-0.3-4-0.7-6-0.9C144.9,126.6,138.6,127.1,132.4,128.5"/>
	<path class="st0" d="M144.5,356.6c-1.9-0.4-3.8-0.8-5.6-1.4v1.8c1.3,0.3,2.7,0.5,4,0.6c3.3,0.4,6.6,0.6,10,0.8c0-0.1,0-0.2,0-0.3
		C150.1,357.7,147.3,357.2,144.5,356.6"/>
	<path class="st0" d="M87.8,325.4c0,0.2,0,0.3,0,0.5c1.1,0.4,2.3,0.9,3.4,1.3c9.8,3.9,18.4,9.7,26,17.2h4.6
		c-2.6-2.2-5.1-4.3-7.6-6.5c-6.7-5.6-14.1-9.9-22.5-12.4C90.5,325.1,89.1,325.4,87.8,325.4"/>
	<path class="st0" d="M14.5,277c6-4,12.1-7.8,18.1-11.8c6.9-4.6,14.3-7.2,22.8-6.1c2.4,0.3,4.9,0,7.3,0c-4.3-0.7-8.6-1.5-13-1.8
		c-2.7-0.2-5.4,0.1-8,0.5c-4.7,0.8-8.8,3-12.7,5.6c-4.3,2.9-8.4,5.9-12.6,8.9c-4.3,3-8.8,5.4-13.6,7.3v1.5c0.1,0,0.1,0,0.2,0
		C7.1,280.3,11,279.3,14.5,277"/>
	<path class="st0" d="M405.3,259c3.3,0.1,6.6,0,9.8,0c-4-0.5-7.9-1.2-11.9-1.5c-2.9-0.2-5.9-0.1-8.7,0.3c-0.2,0-0.3,0.1-0.5,0.1v2.5
		C397.6,259,401.5,258.9,405.3,259"/>
	<path class="st0" d="M289.4,352.8c0.3,0.3,0.6,0.6,0.9,0.9c2.7-0.4,5.4-0.7,8-1.3c2.9-0.7,6-1.2,8.6-2.6
		c10.9-5.8,20.5-13.3,28.7-22.6c4.1-4.7,8.1-9.6,14.1-12.1c-4.5,1.6-8.9,3.4-12.5,6.5c-3.9,3.4-7.6,7.1-11.3,10.8
		c-4.2,4.2-8.3,8.5-13.2,11.9C305.6,349.2,298,352.6,289.4,352.8"/>
	<path class="st0" d="M321.8,278.1c1.4-0.9,2.8-1.7,4.2-2.6v-1.9c-0.5,0.4-0.9,0.7-1.4,1.1c-2.9,2.3-6,4.3-9,6.4
		c0,0.1,0.1,0.1,0.1,0.2C317.7,280.3,319.8,279.3,321.8,278.1"/>
	<path class="st0" d="M290.2,249.6c11.6-4.7,23.5-8.4,35.8-10.1v-1.9c-1.7,0.2-3.4,0.3-5.1,0.6c-5.2,0.7-10.4,1.6-15.3,3.4
		c-7.7,2.8-15.4,5.9-23.1,8.8c-5.4,2-11.1,3.5-16.9,4.4c0.3,0,0.5,0,0.8,0C274.7,254.6,282.6,252.7,290.2,249.6"/>
	<path class="st0" d="M56,220.5c6.5,0.8,12.9,0.7,19.3-0.6c8.1-1.7,15.9-4.3,23.4-7.7c8.1-3.6,16.2-7.3,24.4-10.9l3.5-6
		c-0.8-0.2-1.5,0-2.3,0.5c-3.3,2.2-6.5,4.4-9.9,6.3c-6.7,3.9-13.3,8-20.3,11.3c-8.2,3.8-17.1,5.6-26.2,6.4
		c-6.2,0.6-12.5,0.5-18.5-0.7c-3.6-0.7-7.2-1.6-10.7-2.6l-0.6,1.1c1.6,0.3,3.2,0.7,4.8,1C47.2,219.5,51.6,220,56,220.5"/>
	<path class="st0" d="M427.9,219.9c7.7-1.6,15.2-4,22.4-7.2c3.9-1.7,7.9-3.5,11.8-5.3v-2.2c-4.3,2.6-8.7,5.2-13.3,7.4
		c-8.8,4.3-18.4,6.4-28.2,7.3c-6.3,0.5-12.5,0.3-18.7-0.6c-2.6-0.4-5.3-0.9-7.8-1.6v0.7c4.8,0.8,9.7,1.5,14.5,2.1
		C415,221.4,421.5,221.3,427.9,219.9"/>
	<path class="st0" d="M67.3,266c0.7,0.1,1.3,0.2,2,0.4c4.5,1.4,9,2.7,13.6,4.1l0.6-1.1c-3.4-1.1-6.9-2.1-10.4-2.9
		c-1.9-0.4-3.8-0.7-5.7-1C67.3,265.6,67.3,265.8,67.3,266"/>
	<path class="st0" d="M151,317.8c-1.8-0.6-3.5-1.1-5.1-1.7c-5.3-2.1-10.4-4.6-14.1-9.1c-4.1-5-8.1-10.1-12.4-15
		c-5.1-5.9-10.7-11.2-17.7-14.9c-0.5-0.3-1-0.5-1.4-0.7h-1.5c7.2,3.7,13.3,9,18.4,15.7c3.9,5.1,7.8,10.3,11.9,15.3
		c3.5,4.3,7.8,7.6,13,9.7C145,318.1,147.8,319,151,317.8"/>
	<path class="st0" d="M277.7,183.4c0-0.1,0-0.2,0.1-0.3c-0.3-0.1-0.6-0.3-1-0.3c-5.7-0.9-11.5-2.3-17.2-2.6c-0.5,0-1.1,0-1.6-0.1
		v1.2c5.3,0.3,10.6,0.7,15.9,1.6C275.1,183.2,276.4,183.3,277.7,183.4"/>
	<path class="st0" d="M171.9,201.5c11.4-5,23.1-9.4,35-13.2v-1.6c-11.3,3.7-22.3,8.3-33.1,13.4c-1,0.5-2,1-3.1,1.6
		C171.3,201.7,171.6,201.6,171.9,201.5"/>
	<path class="st0" d="M197.9,368.7c-6.2,0.2-12.3,1.2-18.3,2.9c-4.2,1.2-8.3,2.8-12.5,4.2c0,0.1,0.1,0.3,0.1,0.4
		c0.3,0,0.5,0,0.8-0.1c9.9-2.9,20-5.4,30.4-5.8c2.8-0.1,5.7-0.1,8.5,0.1V369C204,368.7,201,368.6,197.9,368.7"/>
	<path class="st0" d="M299.6,218.4c8.2-3.4,16.6-5.7,25.4-6.3c0.3,0,0.7,0,1-0.1V210c-13,1-25,5.5-36.3,12.7
		C293,221.2,296.3,219.8,299.6,218.4"/>
	<path class="st0" d="M279.9,272.2c14.1-4,25.7-12.3,36.5-21.9c-4.1,2.7-8.1,5.4-12.3,7.9c-12.9,7.8-26.5,13.7-41.7,14.8
		c-1.5,0.1-2.9,0.2-4.4,0.2v1.4C265.3,274.7,272.7,274.3,279.9,272.2"/>
	<path class="st0" d="M274,251.3c7.4-2.3,14.7-4.9,21.9-7.8c8.8-3.5,17.7-6.3,27.2-7.1c1-0.1,1.9-0.1,2.9-0.2v-0.4
		c-4,0.4-8,0.8-12,1.1c-6.9,0.6-13.5,2.3-20,4.8c-7.4,2.8-14.8,5.7-22.3,8.2c-4.4,1.5-9,2.6-13.8,3.3v0.7
		C263.5,253.8,268.8,252.9,274,251.3"/>
	<path class="st0" d="M148.9,355.8c-0.1-0.2-0.3-0.3-0.5-0.4c-3.4-1.1-6.6-2.5-9.6-4.2v2.3C142.1,354.6,145.5,355.3,148.9,355.8"/>
	<path class="st0" d="M94.4,324.6c0.8,0.3,1.2,0.5,1.6,0.7c6.8,2.6,13.1,6.3,18.7,11c3.2,2.7,6.4,5.5,9.6,8.2h4.8
		c-1.2-1-2.5-2.1-3.7-3.1c-6.9-6-14.5-11-22.9-14.8C100.1,325.4,97.6,324.2,94.4,324.6"/>
	<path class="st0" d="M201.7,373.6c1.7,0.1,3.5,0.2,5.2,0.4v-1.9c-4.3-0.6-8.7-0.5-13.1,0c-4.2,0.5-8.3,1.3-12.5,2.1
		c-3.2,0.6-6.3,1.6-9.5,2.4c0,0.1,0,0.2,0.1,0.3c3.4-0.7,6.8-1.5,10.2-2C188.6,373.9,195.2,373.3,201.7,373.6"/>
	<path class="st0" d="M140.7,302.2c2,2.6,4.3,5.1,6.7,7.2c3.7,3.2,8.5,4.2,13.1,5.2c2.2,0.5,4.5,0.8,6.6-0.3
		c-0.1-0.1-0.1-0.2-0.2-0.2c-0.3-0.1-0.5-0.1-0.8-0.2c-5.2-0.6-10-2.1-14.3-5.1c-5.6-3.9-10.6-8.5-15.1-13.6
		c-6.7-7.6-14.5-13.8-23.1-18.8h-2c3.6,2.4,7.2,4.9,10.7,7.6C129.2,289.2,135.3,295.4,140.7,302.2"/>
	<path class="st0" d="M93.9,183.8c-3,1.3-5.8,2.8-8.8,4c-5,2.1-10.1,4-15.6,3.9c-3.3-0.1-6.7-0.4-9.9-0.9c-1.6-0.3-3.2-0.6-4.8-0.9
		l-0.8,1.4c1.7,0.2,3.5,0.4,5.2,0.7c6.7,0.9,13.4,1.1,20-0.9c5.9-1.8,11.7-4.1,17.1-7c0-0.2,0-0.3-0.1-0.5
		C95.3,183.6,94.5,183.5,93.9,183.8"/>
	<path class="st0" d="M436.4,188.3c-5.6,2.3-11.4,3.9-17.6,3.3c-2.3-0.2-4.6-0.5-6.9-0.9c-5.5-1-11.1-2-16.6-3.3
		c-0.4-0.1-0.9-0.2-1.3-0.3v2.2c2.8,0.5,5.6,1.1,8.5,1.5c3.5,0.6,7,1,10.6,1.2c4.4,0.3,8.7,1,13.2,0.1c7.9-1.6,15.3-4.4,22.3-8.2
		c0-0.2,0-0.4,0-0.5c-0.7,0.1-1.6,0-2.2,0.3C443,185.3,439.8,187,436.4,188.3"/>
	<path class="st0" d="M100.9,185.9c-1.4-0.9-2.1-1.4-3.5-0.8c-4.3,2-8.6,4.2-13,5.8c-6.4,2.4-12.9,3.9-19.9,3
		c-3.8-0.5-7.7-0.7-11.5-1.2l-0.7,1.1c2.7,0.4,5.5,0.7,8.2,0.9c4.2,0.3,8.5,0.6,12.7,0c4.5-0.6,9-2,13.3-3.4
		C91.3,189.8,95.9,187.8,100.9,185.9"/>
	<path class="st0" d="M449.8,185.2c-3.5,1.8-7.1,3.6-10.8,5c-5.9,2.3-11.9,4.1-18.3,3.9c-5-0.2-10.1-0.5-15-1.3
		c-3.9-0.6-7.7-1.3-11.6-2v1.4c2.1,0.3,4.1,0.6,6.2,0.9c4.2,0.6,8.5,1.2,12.8,1.5c4.3,0.3,8.7,0.6,13,0.1c6.3-0.7,12.3-2.9,18.2-5.2
		c3-1.1,5.9-2.4,9.2-3.7C452,184.9,451.1,184.5,449.8,185.2"/>
	<path class="st0" d="M21,282.4c7.3,1.9,14.7,3.9,22,5.8c11.1,2.8,21.7,6.7,31.9,12.1c8.3,4.4,16.5,9.1,25.9,11
		c3.3,0.6,6.5,1.1,9.8,1.7c0-0.1,0.1-0.2,0.1-0.3c-0.5-0.2-1-0.4-1.5-0.5c-10-2.5-19.8-5.8-28.8-10.8c-11.1-6.2-22.7-11-35.1-13.9
		c-6.6-1.6-13.1-3.2-19.7-4.7c-1.6-0.4-3.3-0.6-5-0.8C20.8,282.3,20.9,282.4,21,282.4"/>
	<path class="st0" d="M288.1,242.2c3.7-1.3,7.4-2.7,11.1-4.1c0-0.1-0.1-0.2-0.1-0.3c-3.2,1.1-6.4,2-9.6,3.2
		c-10.2,4-20.6,7.3-31.5,8.8v1.9c3.5-0.6,6.9-1.4,10.3-2.5C274.9,247.2,281.5,244.6,288.1,242.2"/>
	<path class="st0" d="M203.1,233.7c1.2,0.9,2.5,1.9,3.8,2.8v-0.8c-0.9-0.6-1.9-1.2-2.8-1.8c-0.4-0.3-0.8-0.5-1.2-0.7
		C202.9,233.5,203,233.6,203.1,233.7"/>
	<path class="st0" d="M403.9,289.1c-3.5-0.9-7.1-1.9-10.7-2.8c-0.1,0.4-0.2,0.7-0.3,1.1c0.9,0.2,1.8,0.5,2.8,0.7
		c10.7,2.7,21,6.4,30.8,11.6c9.3,4.9,18.4,10.3,29,11.9c0.4,0.1,0.8,0.1,1.1,0.2c0.1-0.3,0.2-0.6,0.3-1c-8.6-2.4-16.9-5.6-24.8-10
		C423.2,296.1,413.9,291.8,403.9,289.1"/>
	<path class="st0" d="M297.4,215.7c-12.7,6.1-25.9,10.2-39.5,12.4v2.6c1.8-0.2,3.6-0.4,5.4-0.7c8.4-1.4,16.5-4,24-8.3
		c3.4-1.9,6.8-3.8,10.2-5.6C297.5,216,297.5,215.8,297.4,215.7"/>
	<path class="st0" d="M89.2,299.8c3.8,2.6,7.8,4.7,12.2,6.2c-0.1-0.2-0.3-0.4-0.5-0.6c-2.3-1.6-4.6-3.2-6.9-4.8
		c-9.7-6.9-20-12.5-31.5-15.8c-8-2.3-16-4.4-24.1-6.4c-2.9-0.7-6-2.1-9.2-0.3c0.3,0.1,0.5,0.3,0.8,0.3c8,1.8,16,3.4,23.9,5.3
		C66.7,286.9,78.5,292.3,89.2,299.8"/>
	<path class="st0" d="M394,280.9c3.7,0.8,7.3,1.6,10.9,2.4c11.6,2.7,22.5,7.3,32.6,13.6c4.6,2.9,8.8,6.3,13.9,8.2
		c0.8,0.3,1.6,0.6,2.5,1c-2.6-2.1-5.2-4-7.8-5.8c-8.7-6.2-17.9-11.4-28.1-14.5c-7.9-2.4-16-4.5-24-6.5
		C394,279.8,394,280.4,394,280.9"/>
	<path class="st0" d="M142.9,245.6c-1.3-0.2-2.7-0.3-4-0.4v0.6c0.5,0.1,1.1,0.1,1.6,0.2c7,0.7,13.8,2.3,20.3,4.7
		c7.9,3,15.7,6.3,23.5,9.5c7.4,3.1,15,5.9,22.6,8.1v-1.8c-7-2.3-13.9-4.8-20.8-7.4C172,253.7,158.1,247.5,142.9,245.6"/>
	<path class="st0" d="M53.9,242.3c11,4.4,22.5,6.7,34.3,7.7c1.1,0.1,2.3,0.2,3.3-0.2c1.5-0.6,3-1.2,4.5-1.8l1.2-2.1
		c-9.4,0.7-18.9,1.2-28.4-0.6c-10.8-2.1-20.9-6.5-30.7-11.3c2,1.4,3.9,2.8,6,3.8C47.3,239.4,50.5,240.9,53.9,242.3"/>
	<path class="st0" d="M394,236.3C394,236.3,394.1,236.3,394,236.3c14.8,8.6,30.9,12.3,47.6,13.7c0.8,0.1,1.7,0.1,2.4-0.2
		c3.5-1.4,6.9-2.9,10.3-4.4c-21.3,3.3-41.4,0.1-60.3-10.1V236.3z"/>
	<path class="st0" d="M138.9,369.1v3.2c5.1-0.8,9.7-3,14.1-5.7c0.5-0.3,1-0.6,1.5-0.9c0.5-0.3,0.9-0.6,1.4-1c-5.5,2-10.9,4-16.7,4.3
		C139.1,369.1,139,369.1,138.9,369.1"/>
	<path class="st0" d="M49.3,307.6c0.1-0.1,0.1-0.2,0.2-0.4c-0.3-0.1-0.5-0.2-0.8-0.4c-10.6-4.7-21.3-9.4-31.9-14
		c-4.3-1.9-8.4-4-12.9-5.3c-0.3-0.1-0.7-0.2-1-0.3v2.7c11.1,4.3,22.3,8.7,33.4,13C40.6,304.6,44.9,306,49.3,307.6"/>
	<path class="st0" d="M401.8,307.6c0.1-0.1,0.1-0.2,0.2-0.4c-0.2-0.1-0.4-0.2-0.7-0.3c-4.9-2.2-9.8-4.3-14.8-6.5
		c-0.3,0.4-0.7,0.9-1.1,1.3c0.7,0.3,1.5,0.6,2.2,0.9C392.4,304.3,397.1,305.9,401.8,307.6"/>
	<path class="st0" d="M173.8,359.5c-7.6-2.4-13.8-7.2-19.8-12.4c-5.1-4.5-10.6-8.4-16.7-11.6c0.7,0.6,1.4,1.2,2,1.8
		c3.8,3.7,7.5,7.6,11.3,11.2c4.4,4.2,9.4,7.6,15.1,9.8c4.8,1.9,9.8,2.9,14.8,3.8c2.3,0.4,4.7,0.7,7.1,1c-0.6-0.4-1.2-0.6-1.8-0.7
		C181.8,361.4,177.7,360.7,173.8,359.5"/>
	<path class="st0" d="M301.8,276.3c-3.1,2.2-6.2,4.4-9.4,6.6c2.3-0.9,4.5-2,6.5-3.3c9.9-6.3,18.7-14,27.1-22.2v-3.2
		c-0.8,0.8-1.5,1.6-2.3,2.4C316.8,263.8,309.8,270.5,301.8,276.3"/>
	<path class="st0" d="M145,332.5c5.5,2.8,11.1,5.4,16.6,8.4c9.4,5.1,18.6,10.5,28,15.7c4.4,2.4,9.2,3.8,14.1,4.9
		c-19.8-10.1-38.5-22.3-59.8-29.6C144.2,332.1,144.6,332.3,145,332.5"/>
	<path class="st0" d="M136.3,332.6c7.3,4,14,8.8,20.2,14.3c6.5,5.8,13.7,10.3,22.2,12.4c3.2,0.8,6.5,1.4,9.7,2.1c0-0.1,0-0.2,0-0.3
		c-0.3-0.2-0.6-0.4-1-0.5c-7.7-2.6-14.8-6.3-21.6-10.6c-7.6-4.7-15-9.5-22.6-14.2c-2.5-1.5-5.1-2.8-7.7-4.1
		C135.7,332.2,136,332.4,136.3,332.6"/>
	<path class="st0" d="M272.6,291.1c-4.6,0.2-9.3,0.2-14,0.3c0.1,0.8,0.2,1.6,0.3,2.4c2.5,0.2,5,0.4,7.4,0.5c3.1,0.2,6.4,0,9.4-0.7
		c6.6-1.4,12.4-4.7,18.1-8.2c3.1-1.9,6.2-4,9.3-6c-0.1-0.1-0.1-0.2-0.2-0.3c-0.2,0.1-0.5,0.2-0.7,0.3c-4.3,2.3-8.5,4.8-12.8,6.9
		C284.3,289,278.6,290.9,272.6,291.1"/>
	<path class="st0" d="M158.4,343.4c9.5,6.2,19.1,12.2,29.9,15.9c3.1,1.1,6.4,1.9,9.6,2.9c0.1-0.1,0.1-0.3,0.2-0.4
		c-0.1-0.1-0.3-0.2-0.4-0.2c-6.3-1.8-12-5.1-17.6-8.2c-10.6-5.9-21.2-11.8-31.9-17.6c-1.8-1-3.7-1.7-5.6-2.5
		C147.9,336.7,153.2,340,158.4,343.4"/>
	<path class="st0" d="M365.7,380.9c-1.6-0.2-3.3,0-4.9,0.1c0,0.1,0,0.2,0,0.3c2.1,0,4.1-0.1,6.2-0.2
		C366.6,381,366.1,381,365.7,380.9"/>
	<path class="st0" d="M189.8,144.5c-11.6-0.9-23.2-0.6-34.7,1.3c-7.9,1.3-15.5,3.5-22.9,6.7c-3.9,1.7-7.7,3.7-11.5,5.6
		c0.1,0.1,0.1,0.3,0.2,0.4c0.4-0.2,0.9-0.3,1.3-0.5c4.4-1.9,8.7-4,13.2-5.7c9.8-3.7,20.1-5.6,30.5-6.7c10.1-1,20.3-0.4,30.4,0.6
		c3.6,0.3,7.1,0.9,10.6,1.4v-1.5c-0.5-0.1-1-0.1-1.4-0.2C200.3,145.4,195,144.9,189.8,144.5"/>
	<path class="st0" d="M145.4,226.6c0.1,0.2,0.1,0.3,0.2,0.5c0.8,0,1.7,0,2.5-0.1c4.2-0.6,8.4-0.2,12.5,0.6
		c9.4,1.9,18.3,5.3,26.6,10.3c2.9,1.7,5.9,3.2,8.9,4.8c0.1-0.1,0.1-0.2,0.2-0.3c-8.9-6.9-18.5-12.4-29.2-16
		c-5.8-1.9-11.7-2.8-17.8-1.3C147.9,225.4,146.7,226.1,145.4,226.6"/>
	<path class="st0" d="M194.8,343.9c4,1.3,8.1,2.4,12.1,3.3v-0.8c-1.7-0.3-3.5-0.7-5.2-1.1c-2.4-0.6-4.8-1.2-7.5-1.9
		C194.6,343.8,194.7,343.9,194.8,343.9"/>
	<path class="st0" d="M324.7,201.5c0.4-0.2,0.9-0.3,1.3-0.4v-0.7c-0.5,0.2-0.9,0.4-1.4,0.6C324.6,201.1,324.7,201.3,324.7,201.5"/>
	<path class="st0" d="M322,342c-6.7,5.1-13.9,9.3-21.5,12.9c-2,1-4,1.8-6,2.5c0.4,0.3,0.8,0.7,1.2,1c0.7-0.3,1.5-0.6,2.2-1
		c7.1-3.1,13.6-7.4,19.9-11.9c1.8-1.3,3.6-2.6,5.4-4C322.7,341.6,322.3,341.7,322,342"/>
	<path class="st0" d="M138.9,231.9v0.8c0.4,0,0.7,0,1.1-0.1c8.1-0.9,16.2-0.5,24.1,1.5c9.3,2.4,18.2,5.7,26.9,9.8
		c5.3,2.5,10.5,5.2,15.9,7.4V250c-1.2-0.5-2.4-1.1-3.6-1.6c-10.1-4.3-20.2-8.6-30.3-12.9c-5.4-2.3-10.9-3.9-16.7-4.6
		c-5.6-0.7-11.2-0.3-16.8,0.9C139.3,231.8,139.1,231.9,138.9,231.9"/>
	<path class="st0" d="M74.9,196.7c3.1-0.4,6.2-1.5,9.3-2.2c-0.1-0.2-0.1-0.4-0.2-0.6c-0.2,0-0.4,0.1-0.6,0.1
		c-4,0.8-7.9,2.1-11.9,2.4c-6.7,0.5-13.4-0.2-20-1.1l-0.6,1c0.2,0,0.4,0,0.6,0.1C59.3,197.1,67.1,197.7,74.9,196.7"/>
	<path class="st0" d="M258,232.2v1.7c4-0.7,7.5-1.7,9.9-3C264.6,231.5,261.3,232,258,232.2"/>
	<path class="st0" d="M323,344.4c-3.9,2.3-7.5,4.8-11.2,7.3c-4.7,3.1-9.6,5.8-14.6,7.9c0.4,0.3,0.7,0.6,1.1,0.8
		c8-3.8,15.4-8.7,22.5-14.1C321.5,345.7,322.2,345,323,344.4"/>
	<path class="st0" d="M435.9,194c-4,0.8-8,2.1-12.1,2.4c-9.2,0.7-18.3-0.9-27.4-2.2c-0.8-0.1-1.7-0.3-2.5-0.4v1.6
		c1.2,0.1,2.5,0.3,3.7,0.4c4.7,0.5,9.4,0.8,14.1,1.1c6.7,0.5,13.5,0.6,20.1-1.1c0.8-0.2,1.6-0.5,2.4-0.8c0.8-0.3,1.6-0.5,2.3-0.8
		C436.3,193.9,436.1,194,435.9,194"/>
	<path class="st0" d="M373.2,378.4c-1.8,0-3.5,0.6-5.3,0.9c0,0.2,0.1,0.3,0.1,0.5c2.4,0.2,4.9,0.3,7.3,0.3c3.1-0.5,6.1-1.1,9.1-1.8
		C380.7,378.3,377,378.3,373.2,378.4"/>
	<path class="st0" d="M91,182.5c-2.3,0.9-4.5,1.9-6.8,2.7c-5.7,2-11.5,3.8-17.6,3.3c-3.4-0.3-6.8-0.8-10.2-1.4l-0.9,1.4
		c2.7,0.5,5.4,1,8.2,1.4c3,0.4,6.2,0.5,9.2,0c6.6-1.1,12.7-3.7,18.7-6.8c0.3-0.2,0.6-0.4,0.9-0.6c-0.1-0.1-0.1-0.2-0.2-0.4
		C91.8,182.3,91.4,182.4,91,182.5"/>
	<path class="st0" d="M443.5,182.6c-1.9,0.7-3.7,1.6-5.6,2.3c-6.1,2.2-12.2,4.2-18.8,3.7c-3.1-0.2-6.2-0.7-9.3-1.3
		c-5.3-1-10.5-2-15.8-3.2v1.5c2.1,0.5,4.2,1,6.4,1.4c5.2,1,10.5,2.1,15.7,2.9c3,0.4,6.2,0.5,9.2,0.1c5.1-0.7,10-2.7,14.7-4.8
		c1.7-0.8,3.3-1.6,5-2.4c-0.1-0.2-0.1-0.3-0.2-0.5C444.4,182.3,443.9,182.4,443.5,182.6"/>
	<path class="st0" d="M164.4,360.5c-4.5,3-8.8,6.4-13.4,9.1c-3.9,2.3-8,3.7-12.1,4.2v1.7c0.1,0,0.2-0.1,0.3-0.1
		c4.8-1.8,9.5-4.1,14-6.6c5.4-2.9,10.6-6.2,17-7.3c-1.6-0.5-2.9-1.1-4.3-1.4C165.5,360.1,164.8,360.2,164.4,360.5"/>
	<path class="st0" d="M326,152.1v-0.8c-6.6,4.2-13.5,7.7-20.7,10.8c-2.3,1-4.8,1.7-7.2,2.6c0,0.1,0.1,0.2,0.1,0.3
		c0.8-0.2,1.6-0.4,2.3-0.6C309.5,161.5,317.9,157.1,326,152.1"/>
	<path class="st0" d="M333.2,300.1c-0.3-0.4-0.6-0.8-0.9-1.2c-4.3,0.2-8.6,0.7-12.9,1.4c0.1,0,0.3,0.1,0.4,0.1
		C324.3,300,328.7,299.9,333.2,300.1"/>
	<path class="st0" d="M317.9,272.1c-3.1,2.8-6.2,5.5-9.3,8.3c0.1,0.1,0.1,0.2,0.2,0.2c0.1,0,0.3,0,0.4-0.1c4.9-4,10.3-7.6,14.7-12.1
		c0.7-0.7,1.3-1.3,2-2v-1.6C323.3,267.2,320.6,269.7,317.9,272.1"/>
	<path class="st0" d="M150.5,223.2c14-1.9,25.4,4.5,36.7,10.8c0.1-0.1,0.2-0.3,0.3-0.4c-3.8-3-7.5-6.2-11.5-8.8
		c-6.5-4.3-13.8-5.1-21.3-4C153.1,221,151.7,221.6,150.5,223.2"/>
	<path class="st0" d="M94.3,160.8c-4.6-0.8-9.2-1.5-13.8-2.1c-2.3-0.3-4.5-0.4-6.8-0.5l-0.7,1.2c4.2,0.2,8.5,0.4,12.6,0.9
		c5.7,0.7,11.3,1.7,16.8,3c7.4,1.6,14.8,3.5,22.1,5.5c10.4,2.9,20.6,6.8,31.6,7.8c5.6,0.5,11.3,0.7,17,1c0-0.1,0-0.1,0-0.2
		c-5.1-0.4-10.1-0.6-15.2-1.2c-4.1-0.5-8.2-1.3-12.2-2.4c-6.8-1.8-13.5-4-20.3-5.9c-5.5-1.5-11.1-3-16.7-4.3
		C103.9,162.5,99.1,161.6,94.3,160.8"/>
	<path class="st0" d="M109.7,323.6c0,0.1-0.1,0.3-0.1,0.4c0.2,0.1,0.4,0.2,0.7,0.3c6.1,2.4,12.1,5.1,17.4,9.1
		c5.6,4.3,10.9,8.9,16.4,13.4c2.7,2.1,5.5,4.1,7.5,5.6c-1.4-1.5-3.3-3.6-5.2-5.8c-9.1-10.5-20.3-17.9-33.3-22.6
		C112.1,323.6,110.9,323.7,109.7,323.6"/>
	<path class="st0" d="M417.4,260.8c-4.1-0.2-8.3-0.4-12.6-0.5c-3.7-0.1-7.4,0.3-10.8,1.9v1.6c2-1,4.2-1.6,6.5-1.6
		c3.3-0.1,6.7,0.2,10,0.4C412.9,262.8,416,262,417.4,260.8"/>
	<path class="st0" d="M124.2,162.3c-1.9,0.5-3.8,0.7-5.7,1.1c0,0.1,0,0.2,0,0.3c0.6,0,1.2,0.1,1.8,0c3.3-0.6,6.6-1.1,9.8-2
		c4.9-1.3,9.7-3.1,14.6-4c6.8-1.3,13.7-1.9,20.6-2.8c7.9-1,15.9-0.9,23.9-0.8c2.9,0,5.9,0.3,8.8,0.4c-0.3-0.4-0.6-0.4-0.9-0.4
		c-4.7-0.3-9.3-0.4-14-0.8c-8.5-0.7-16.9-0.8-25.4,0.4c-7,1-13.9,2.7-20.6,4.8C132.8,159.8,128.5,161.1,124.2,162.3"/>
	<path class="st0" d="M97.4,176.8c8.6,3.4,17.1,7.4,25.7,10.8c2.2,0.9,4.5,1.6,6.7,2.2l0.5-0.9c-4.4-1-8.6-2.7-12.8-4.6
		c-6.3-2.9-12.5-5.9-18.9-8.7c-5.4-2.4-11.1-3.3-16.9-3.3c1.4,0.6,2.7,1.1,4.2,1.4C89.8,174.8,93.7,175.4,97.4,176.8"/>
	<path class="st0" d="M144.3,191.4c1.5-0.1,3-0.2,4.4-0.4c2.7-0.4,5.4-1,8.1-1.4c0-0.1,0-0.2,0-0.3c-4.2,0.3-8.4,0.7-12.7,0.8
		c-1.7,0-3.5,0.1-5.2,0v1.3C140.7,191.5,142.5,191.5,144.3,191.4"/>
	<path class="st0" d="M39.8,263.1c-5.5,3.3-11,6.7-16.5,10.1c-1.9,1.2-3.8,2.5-5.6,3.7c0.1,0.1,0.1,0.3,0.2,0.4c2-0.6,4.3-0.9,6.1-2
		c4.8-3,9.5-6.1,14.1-9.4c2.9-2.1,6-3.4,9.5-3.6c3.4-0.1,6.8,0.1,10.2,0.3c2.7,0.2,5-0.7,7.6-1.8c-4.7-0.2-9.1-0.4-13.5-0.5
		C47.5,260.2,43.5,260.9,39.8,263.1"/>
	<path class="st0" d="M87.5,181.2c-2.8,1-5.5,2.2-8.3,3.2c-5.5,1.9-11.1,2.7-16.9,1.4c-1.5-0.3-3-0.7-4.5-1.1l-0.6,1
		c0.1,0,0.3,0.1,0.4,0.1c5.2,1,10.4,1.9,15.7,0.8c5.6-1.1,10.8-3,16-5.2c0-0.2-0.1-0.3-0.1-0.5C88.8,181,88.1,181,87.5,181.2"/>
	<path class="st0" d="M394,180.3v2.2c4.7,1,9.3,2.1,14,3c3.5,0.7,7.1,1.1,10.7,1.5c4,0.4,7.8-0.2,11.6-1.3c4-1.2,7.9-2.7,11.8-4
		c-0.1-0.2-0.1-0.4-0.1-0.6c-0.7,0.1-1.4,0-2,0.2c-1.4,0.5-2.8,1.2-4.2,1.8c-8.2,3.4-16.5,4.4-25.1,1.9
		C405.1,183.4,399.6,181.8,394,180.3"/>
	<path class="st0" d="M79.3,205.4c4.3-1.4,8.4-3.5,12.6-5.2c-0.1-0.1-0.1-0.3-0.2-0.4c-0.1,0-0.2-0.1-0.3-0.1
		c-0.4,0.2-0.9,0.4-1.3,0.6c-7.6,3.7-15.6,5.6-24,5.8c-7,0.2-13.9,0-20.8-0.7l-0.4,0.7c3.4,0.4,6.9,0.8,10.3,1.1
		C63.4,208.2,71.5,208,79.3,205.4"/>
	<path class="st0" d="M441.9,200.7c-5.4,2.5-11,4.5-16.9,5c-6.7,0.5-13.5,0.5-20.2,0.5c-3.5,0-7.1-0.4-10.6-0.9c0,0-0.1,0-0.1,0v0.6
		c4.6,0.6,9.3,1.2,14,1.6c8.1,0.8,16.1,0.6,23.9-1.9c4.3-1.4,8.4-3.5,12.6-5.2c-0.1-0.2-0.2-0.4-0.2-0.6
		C443.5,200,442.7,200.3,441.9,200.7"/>
	<path class="st0" d="M320.3,288.3c1.2-0.1,2.3-0.3,3.5-0.3c1.1,0,2.3-0.1,3.4-0.1c-0.1-0.2-0.1-0.5-0.2-0.7
		c-2.2,0.2-4.5,0.4-6.7,0.6C320.3,288,320.3,288.2,320.3,288.3"/>
	<path class="st0" d="M384.3,303c-0.3,0.3-0.7,0.7-1,1c3.5,1.2,7,2.4,10.5,3.4c4,1.2,8,2.4,12,3.6c0-0.1,0.1-0.2,0.1-0.3
		c-0.2-0.1-0.4-0.2-0.7-0.3C398.3,308,391.3,305.5,384.3,303"/>
	<path class="st0" d="M203.4,348.5c1.2,0.3,2.3,0.6,3.5,1v-0.8c-1.4-0.3-2.7-0.5-4.1-0.7C203,348.3,203.2,348.4,203.4,348.5"/>
	<path class="st0" d="M165.1,174.8c3.2-1,6.4-2.3,9.2-4c6.4-3.8,12.5-7.9,18.8-11.9c-0.1-0.1-0.2-0.3-0.2-0.4
		c-11.8,4.3-22,12.2-34,16.3C160.9,174.9,163.2,175.4,165.1,174.8"/>
	<path class="st0" d="M198.9,354c2.7,1.4,5.4,2.9,8.1,4.4v-0.8c-4.9-2.4-9.7-5.1-14.5-7.8c-10.9-6.3-21.6-12.8-33.6-16.8
		c-2.4-0.8-4.8-1.6-7.3-2.4c0,0.1-0.1,0.3-0.1,0.4c2.3,0.9,4.7,1.8,7,2.8C172.4,339.5,185.5,347,198.9,354"/>
	<path class="st0" d="M184.8,376.6c4.4-0.4,8.9-0.9,13.3-1.1c2-0.1,4.2,0,6.2,0.4c0.9,0.2,1.8,0.4,2.7,0.7v-1.2
		c-0.9-0.1-1.7-0.2-2.6-0.3c-7.3-0.4-14.6-0.2-22,1.4C183.3,376.6,184,376.7,184.8,376.6"/>
	<path class="st0" d="M158,236.2c7.5,1.6,15.1,3.3,22.2,6.1c5.9,2.3,11.7,4.7,17.6,7c0,0,0.1-0.1,0.1-0.1c-0.1-0.1-0.2-0.2-0.4-0.3
		c-6.5-2.9-12.9-6.1-19.5-8.7c-7.6-3-15.5-5.3-23.7-6.3c-5.2-0.6-10.4-0.3-15.5,0.2v1C145.3,234.7,151.7,234.8,158,236.2"/>
	<path class="st0" d="M147.2,150.3c-2.7,0.7-5.4,1.6-8,2.4c0,0.2,0.1,0.4,0.1,0.6c20.8-4.9,41.8-4.5,62.9-2.9
		c-2.1-0.3-4.3-0.8-6.4-1c-7.1-0.6-14.2-1.2-21.3-1.4C165.4,147.6,156.2,148.1,147.2,150.3"/>
	<path class="st0" d="M433.6,216.1c-3.5,0.4-7,1-10.5,1.2c-3.3,0.2-6.7,0.3-10,0c-4.1-0.4-8.2-1.2-12.2-1.9
		c-2.3-0.4-4.6-0.9-6.9-1.4v2C406.9,219.2,420,220,433.6,216.1"/>
	<path class="st0" d="M81,216c-3.5,0.5-7.1,1.2-10.6,1.3c-4.6,0.1-9.2-0.1-13.8-0.5c-3.3-0.3-6.6-1.2-10-1.9
		c-2.1-0.4-4.1-0.9-6.2-1.3l-1.1,1.8C52.9,219.1,66.7,220.2,81,216"/>
	<path class="st0" d="M142.4,297.9c-3-3-5.8-6.2-8.8-9.2c-2-1.9-4.2-3.7-6.3-5.5c-0.1,0.1-0.2,0.2-0.2,0.3c1.3,1.1,2.6,2.2,3.9,3.4
		c6.2,5.8,11.6,12.5,18.3,17.9c6.6,5.4,14.1,8.1,22.5,7.9c1.7,0,3.4-0.9,5.1-1.4c0-0.2-0.1-0.3-0.1-0.5c-0.6-0.1-1.1-0.2-1.7-0.2
		c-4.7-0.6-9.4-1-14-1.9C153.6,307.4,147.6,303.2,142.4,297.9"/>
	<path class="st0" d="M311.9,302.9c3.2,0,6.9-0.1,10.6,0c4.6,0.2,9.2,0.4,13.8,0.7c-0.6-0.6-1.2-1.2-1.8-1.9
		C327,301.3,319.5,301.6,311.9,302.9"/>
	<path class="st0" d="M169.5,365.2c-4.8,1.3-9.1,3.6-13.2,6.4c-3.9,2.7-8,5.1-12.4,6.8h2.7c4.4-2.3,8.6-4.8,12.9-7.2
		c5.9-3.3,12.1-5.4,18.9-6c1.8-0.2,3.7-0.5,5.5-0.7C178.9,363.7,174.2,364,169.5,365.2"/>
	<path class="st0" d="M132.7,168c6-1.3,12.1-2.3,17.8-4.1c8.8-2.8,17.5-5.9,26.7-7.4c-16.3,1.3-31.6,6.9-47.4,10.9
		C130.8,167.7,131.8,168.2,132.7,168"/>
	<path class="st0" d="M306.2,334.7c-2.8,4.7-5.3,9.6-11,11.7c0.1,0.1,0.2,0.3,0.2,0.4c0.5-0.2,1-0.5,1.5-0.7c6-3,10.2-7.7,13.5-13.3
		c3.4-6,8.1-10.9,14.1-14.3c2.6-1.4,5.3-2.6,7.9-3.8c-2.2,0.5-4.4,1.1-6.5,1.9C317.3,320.2,311,326.6,306.2,334.7"/>
	<path class="st0" d="M406.4,326.8c0.1,0,0.3,0.1,0.4,0.1c0.2,0,0.4,0,0.6,0c10.6,2.8,19.9,8,28.3,15c1,0.8,1.9,1.6,2.8,2.4
		c0.3-0.3,0.5-0.7,0.8-1c-0.4-0.3-0.7-0.7-1.1-1c-4.5-4.3-9.2-8.2-14.8-11C418.1,328.7,412.4,327,406.4,326.8"/>
	<path class="st0" d="M130.5,165.3c7.8-2.1,15.5-4.3,23.3-6.3c3.7-1,7.5-1.7,11.2-2.6c0,0,0-0.1,0-0.1c-1.8,0.2-3.6,0.3-5.4,0.6
		c-4.5,0.6-9,1.1-13.5,2c-4.6,1-9.1,2.5-13.7,3.7c-3.5,0.9-7.1,1.7-10.5,2.5C124.2,166.2,126.9,166.3,130.5,165.3"/>
	<path class="st0" d="M277.3,298.6c5.1-1.4,9.8-3.5,14.4-6c4.2-2.2,8.6-4.3,12.9-6.5c-1.5,0.4-3,0.7-4.3,1.3
		c-3.5,1.6-6.9,3.4-10.4,5.2c-4.9,2.5-10,4.6-15.4,5c-5,0.4-10.1,0-15.1-0.6c0.1,0.4,0.2,0.9,0.3,1.3c1.2,0.2,2.4,0.4,3.5,0.6
		C268,299.8,272.6,299.9,277.3,298.6"/>
	<path class="st0" d="M148.3,171.9c3.9-0.9,7.9-1.9,11.6-3.4c6.8-2.7,13.4-5.8,20.1-8.7c-0.1-0.2-0.1-0.4-0.2-0.6
		c-12.2,4.1-24.4,8.1-36.6,12.2c0,0.1,0,0.3,0,0.4C144.9,171.9,146.7,172.3,148.3,171.9"/>
	<path class="st0" d="M87.2,343.8c-4.3-4.1-8.6-8.2-13.9-11.1c-6-3.4-12.4-5.6-19.4-5.8c0.3,0,0.6,0,0.9,0.1
		c8.6,2.3,16.6,6,23.7,11.5c2.5,1.9,4.9,3.9,7.3,5.9h2.1C87.7,344.2,87.4,344,87.2,343.8"/>
	<path class="st0" d="M140.1,170.2c3.7-0.7,7.3-1.7,10.8-2.9c7.2-2.3,14.3-4.9,21.5-7.3c2.1-0.7,4.2-1.2,6.3-1.8
		c-0.3-0.3-0.6-0.3-0.8-0.2c-0.3,0-0.5,0.2-0.8,0.2c-6.5,1-12.8,2.7-19,4.8c-4.9,1.7-9.9,3.1-14.9,4.6c-2.3,0.7-4.7,1.1-7.1,1.6
		c0,0.1,0,0.2,0,0.3C137.4,169.7,138.8,170.4,140.1,170.2"/>
	<path class="st0" d="M409,263.7c-1.4,0-2.8,0.1-4.1,0c-2.9-0.2-5.7,0.1-8.5,0.9c-0.9,0.2-1.7,0.6-2.4,1v3.9l15-5.3
		C409,264,409,263.9,409,263.7"/>
	<path class="st0" d="M56.5,263.9c-1.5-0.1-3.1-0.1-4.6-0.2c-4.2-0.2-8.2,0.3-11.7,2.7c-2.4,1.7-4.7,3.5-7,5.2
		c-0.4,0.3-0.8,0.6-1.3,0.9c0.1,0.1,0.1,0.2,0.2,0.3c8.1-2.9,16.2-5.8,24.3-8.7C56.6,264.1,56.5,264,56.5,263.9"/>
	<path class="st0" d="M177.2,175.1c1.3-0.1,2.7-0.2,4-0.4c3.2-0.3,6-1.2,7.9-4c2.3-3.4,4.4-6.8,6.7-10.1c-0.1-0.1-0.1-0.2-0.2-0.3
		C189.5,165.2,183.4,170.1,177.2,175.1"/>
	<path class="st0" d="M125.9,190.4c0.1,0.3,0.3,0.5,0.5,0.5c0.8,0.3,1.6,0.5,2.4,0.8l0.2-0.4C127.9,191.1,126.9,190.8,125.9,190.4"
		/>
	<path class="st0" d="M147.9,195.9c2.9-1.6,5.9-3,8.9-4.5c-6,1.3-12,1.9-17.9,1.6v2.2c1.1,0.4,2.2,0.8,3.3,1.2
		C144.3,197.1,146,196.9,147.9,195.9"/>
	<path class="st0" d="M114.6,319.8c8.3,0.7,16.5,1.6,24.9,0.3c-0.4-0.2-0.8-0.3-1.2-0.4c-3.1-0.7-6.2-1.3-9.2-2.2
		c-2.7-0.8-5.3-1.9-8.2-0.5c-2,0.9-4.2,1.5-6.4,2.2C114.5,319.4,114.5,319.6,114.6,319.8"/>
	<path class="st0" d="M312.1,341.1c-2.6,2.4-5.7,4.3-8.9,6.7c0.5-0.2,0.8-0.3,1-0.4c6.5-3.2,12-7.7,17.2-12.7
		c6.2-5.9,11.3-13,18.9-17.4c-0.2,0-0.4,0-0.6,0.1c-5.6,2.3-10.1,6.1-14.3,10.4C321.1,332.2,316.8,336.8,312.1,341.1"/>
	<path class="st0" d="M355.7,318.5c-0.1-0.1-0.1-0.2-0.2-0.4c-0.3,0.2-0.6,0.3-0.9,0.5c-5.8,3.2-10.3,8-14.9,12.6
		c-10,10.2-20.6,19.5-33.1,26.5c-1.6,0.9-3.3,1.9-4.9,2.8c0.1,0.1,0.1,0.2,0.2,0.4c0.5-0.2,1-0.5,1.5-0.7
		c13.6-7.3,25.6-16.5,36.6-27.4C345,327.8,349.3,322,355.7,318.5"/>
	<path class="st0" d="M156.6,173.5c4.3-1.7,8.7-3.3,12.8-5.3c5.4-2.6,10.7-5.6,16.1-8.5c-11.9,4-22.7,10.7-35,13.6
		C153.5,174.2,154.2,174.4,156.6,173.5"/>
	<path class="st0" d="M186.2,128.9c-13.4-8.7-35.4-11.7-58.4-6.2C147.8,119.2,167.4,120.4,186.2,128.9"/>
	<path class="st0" d="M237.3,162.7c-2.8-1.5-5.5-2.9-8.2-4.2c-0.3-0.1-0.9,0.1-1.2,0.4c-1.3,0.9-2.7,1.8-4,2.8v3.1
		c0.8-0.2,1.7-0.4,2.5-0.5C230,163.5,233.5,163.2,237.3,162.7"/>
	<path class="st0" d="M315.3,355.4c-4.5,2.4-9.1,4.9-13.8,7.4c0.4,0.3,0.7,0.5,1.1,0.7c3.1-1.8,6.1-3.7,9.1-5.6
		C313,357.1,314.3,356.1,315.3,355.4"/>
	<path class="st0" d="M279.6,295c8.2-2.3,15.7-6.3,22.4-11.4c6.9-5.3,13.2-11.2,19.7-16.9c0.6-0.5,1-1.1,1.6-1.6
		c-3.7,2.8-7.1,5.8-10.5,8.8c-8.5,7.5-17.9,13.8-28.2,18.5c-6.3,2.9-12.8,4.4-19.8,3.2c-1.8-0.3-3.7-0.4-5.5-0.5
		c0,0.1,0,0.3,0.1,0.4c3.4,0.4,6.9,0.8,10.3,0.8C272.9,296.2,276.4,295.8,279.6,295"/>
	<path class="st0" d="M389,307.2c-1.7-0.1-3.4-0.3-5.1-0.1c-5.2,0.7-9.8,3-14,6c-9.4,6.7-18.4,14-27,21.8c-0.4,0.3-0.8,0.7-1.2,1
		c6.7-5.1,13.2-10.4,19.8-15.6c5.2-4.2,10.8-7.8,17.2-9.7c3.4-1,6.9-1.9,10.3-2.8C388.9,307.5,389,307.3,389,307.2"/>
	<path class="st0" d="M36.5,307.2c-1.7-0.1-3.4-0.4-5.1-0.2c-5,0.6-9.6,2.7-13.6,5.7c-5.1,3.8-10,7.6-15,11.6v0.8
		c2.2-1.8,4.4-3.6,6.7-5.4c6.1-4.9,12.8-8.6,20.5-10.4c2.2-0.5,4.4-1,6.5-1.6C36.5,307.5,36.5,307.4,36.5,307.2"/>
	<path class="st0" d="M223.9,156v3.7c1.1-0.7,2.2-1.5,3.2-2.3c-0.7-0.4-1.4-0.6-1.9-1C224.7,155.9,224.3,155.8,223.9,156"/>
	<path class="st0" d="M206.9,169.1v-1.2c-0.9,0.5-1.8,0.9-2.8,1.3c-3.9,1.8-7.9,3.2-12.1,5C197.2,172.9,202.2,171.2,206.9,169.1"/>
	<path class="st0" d="M130.3,159.1c6.5-2,13-3.8,19.6-5.6c1.9-0.5,3.8-0.8,5.7-1.2c-13.6,1.5-27.1,4-39.3,9.6
		C120.8,161.6,125.5,160.5,130.3,159.1"/>
	<path class="st0" d="M165.3,339.1c13.7,7.3,27.4,14.6,41.1,21.9c0.2,0.1,0.3,0.2,0.5,0.2v-1c-14.7-7.7-29-16-44.2-22.6
		C163.6,338.2,164.5,338.6,165.3,339.1"/>
	<path class="st0" d="M326,208.5v-0.8c-6.6,0.7-13.2,1.6-19.3,4.5C313.1,210.3,319.5,209,326,208.5"/>
	<path class="st0" d="M318.2,356c-0.1-0.1-0.1-0.2-0.2-0.3c-0.4,0.3-0.9,0.5-1.3,0.8c-4.1,2.9-8.3,5.6-12.6,8.1
		c0.3,0.2,0.7,0.4,1,0.6c1.9-1.2,3.8-2.4,5.7-3.7C313.3,359.7,315.8,357.8,318.2,356"/>
	<path class="st0" d="M324.5,263.4c0,0,0,0.2,0,0.4c0.5-0.4,0.9-0.7,1.2-1c0.1-0.1,0.2-0.2,0.3-0.2v-0.6
		C325.5,262.4,325,262.9,324.5,263.4"/>
	<path class="st0" d="M189.7,172.9c1.5-0.5,3-1,4.4-1.3c1.7-0.4,2.7-1.5,3.2-3.2c0.8-3,1.7-6.1,2.5-9.1
		C197.3,161.3,191,169.7,189.7,172.9"/>
	<path class="st0" d="M26.1,324.6c1.5-0.3,2.7-0.4,3.9-0.8c1.2-0.4,2.4-1.1,3.6-1.7c4.5-2,9-4,13.5-5.8c2.7-1.1,5.6-1.9,8.4-2.8
		c-0.1-0.2-0.1-0.3-0.2-0.5C45,315.1,35.2,318.4,26.1,324.6"/>
	<path class="st0" d="M379.1,324.5c3.3,0,6-1.9,9-3.2c6.5-2.8,13.2-5.4,19.5-8C404.5,312.3,382.4,320.8,379.1,324.5"/>
	<path class="st0" d="M206.9,355.4c-0.3-0.1-0.6-0.2-0.9-0.4c0.3,0.2,0.6,0.3,0.9,0.5V355.4z"/>
	<path class="st0" d="M138.9,377.2v1.2h0.2c7.3-2.1,13.5-6.3,19.8-10.3c0.1-0.1,0.1-0.2,0.1-0.3c-1.7,0.9-3.4,1.8-5.1,2.7
		C149.1,373.3,144.2,375.8,138.9,377.2"/>
	<path class="st0" d="M159,367.8C159,367.7,159.1,367.7,159,367.8L159,367.8C159,367.7,159,367.7,159,367.8"/>
	<path class="st0" d="M186.1,151.9c6.9,0.4,13.9,0.8,20.8,1.2v-0.8c-15.2-1.5-45.8-1.8-49.5-0.2C167,150.7,176.5,151.3,186.1,151.9"
		/>
	<path class="st0" d="M75.8,198.9c3.8-0.2,7.2-1.7,10.5-3.5c-0.3,0-0.5,0-0.7,0.1c-4.1,1.5-8.2,2.6-12.6,3c-7.7,0.7-15.3-0.1-23-0.7
		l-0.4,0.6c3.4,0.4,6.7,0.9,10.1,0.9C65.1,199.4,70.5,199.2,75.8,198.9"/>
	<path class="st0" d="M413.4,199.3c5,0.1,10-0.1,14.9-0.4c3.8-0.2,7.2-1.7,10.4-3.7c-0.2,0-0.4,0.1-0.6,0.1c-3.5,1-7,2.3-10.5,2.8
		c-10.7,1.3-21.3-0.1-31.9-1.1c-0.6-0.1-1.2-0.1-1.8-0.2v0.5c2.1,0.3,4.2,0.5,6.3,0.8C404.7,198.6,409,199.2,413.4,199.3"/>
	<path class="st0" d="M141.9,229.8c14.8-2.6,28.2,1.9,41.1,8.3c0.1-0.1,0.1-0.3,0.2-0.4c-0.2-0.1-0.3-0.3-0.5-0.4
		c-4.4-2.6-9.1-4.6-14-5.9c-7.4-2.1-14.9-4.2-22.8-2.8c-1.4,0.2-2.7,0.5-4.1,0.7C141.9,229.5,141.9,229.7,141.9,229.8"/>
	<path class="st0" d="M186.6,366c-10.1-0.6-27.1,5.1-33,11C163.9,371.4,174.8,367.3,186.6,366"/>
	<path class="st0" d="M198.6,169.9c2-0.9,3.8-1.7,5.3-2.3c-0.5-3-1-5.8-1.5-8.6C199.9,162.1,199.7,166,198.6,169.9"/>
	<path class="st0" d="M223.9,152.7v1.1c5.3,2.8,10.5,5.5,15.9,8.2c1.1,0.5,2.4,0.5,3.5,0.8c0,0,0-0.1,0-0.1
		C236.9,159.3,230.4,156,223.9,152.7"/>
	<path class="st0" d="M65.4,181.9c-1.5-0.7-3.2-1.2-4.6-2c0,0,0,0,0,0l-0.5,0.8C61.9,181.3,63.6,181.7,65.4,181.9"/>
	<path class="st0" d="M454.6,317.5c-2.4,0.1-4.9,0.2-7.3,0.3c2.3,0.3,4.6,0.5,6.9,0.7C454.3,318.2,454.4,317.9,454.6,317.5"/>
	<path class="st0" d="M394,170v0.4c0.1,0,0.2,0.1,0.4,0.1c3.6,0.8,6.5,3,9.4,5.2c4.2,3.3,8.9,5.6,14.7,6.3c-2-0.8-3.6-1.3-5-2.2
		c-4.9-2.7-9.7-5.5-14.6-8.4C397.3,170.6,395.7,170,394,170"/>
	<path class="st0" d="M111.2,319.4c0.4,0,0.8-0.1,1.1-0.4c0.8-0.6,1.6-1.2,2.7-2c-7,0.3-13.7,0.6-20.4,0.9
		C100.1,318.5,105.7,319,111.2,319.4"/>
	<path class="st0" d="M394,177.3v1.3c0.9,0.2,1.8,0.5,2.8,0.7C396,178.6,395.1,177.9,394,177.3"/>
	<path class="st0" d="M169,175.7c7.2-0.5,11.8-5.7,16.9-10C180.3,169.1,174.7,172.4,169,175.7"/>
	<path class="st0" d="M2.8,307.4v1c4.7,0.9,9.4,1.9,14.2,2.8C14.9,310.1,9,308.6,2.8,307.4"/>
	<path class="st0" d="M343.7,331.5c6.4-5.2,12.6-10.3,18.7-15.3C355.3,320.1,348.9,324.9,343.7,331.5"/>
	<path class="st0" d="M2.8,320.6v1.4c2.3-1.9,4.7-3.8,7-5.7C7.4,317.7,5.1,319.1,2.8,320.6"/>
	<path class="st0" d="M59.4,182.1l-0.2,0.4c1.1,0.3,2.3,0.7,3.4,1C61.5,183,60.5,182.6,59.4,182.1"/>
	<path class="st0" d="M414.7,182.9c-3.3-0.7-6.3-1.9-9-3.8c-2-1.4-3.8-2.8-5.8-4.1c-1.7-1.1-3.5-2-5.2-3c-0.1,0.1-0.1,0.2-0.2,0.3
		c6.3,4.7,12.4,10,20.7,10.9C415.1,183.1,414.9,182.9,414.7,182.9"/>
	<path class="st0" d="M394,174.1v1.3c2,1,3.9,2.3,5.7,4c1,0.9,2.4,1.5,3.6,2.2c0.1-0.2,0.2-0.4,0.3-0.5c-3-2.2-6-4.5-9.1-6.6
		C394.3,174.3,394.2,174.2,394,174.1"/>
	<path class="st0" d="M412.2,172.3c6.2,4.3,13,6.9,20.4,7.5C425.5,177.9,418.6,175.7,412.2,172.3"/>
	<path class="st0" d="M63.7,174.9c5.6,3,13.6,5.4,16.6,4.7c-5.7-1.4-11.1-2.9-16.3-5.2L63.7,174.9z"/>
	<path class="st0" d="M200.2,154.6c0.3,0,0.5,0.1,0.8,0.1c2,0.2,4,0.3,5.9,0.5v-0.7c-2.2-0.1-4.5-0.2-6.7-0.3
		C200.2,154.3,200.2,154.5,200.2,154.6"/>
	<path class="st0" d="M294.9,296.1c0.1,0.1,0.1,0.2,0.2,0.4c5.1-2.4,10.2-4.8,15.3-7.2C306.9,289.4,298.2,293.5,294.9,296.1"/>
	<path class="st0" d="M90.1,141c0.1,0.2,0.2,0.4,0.3,0.6c5.5-2.8,11-5.7,16.5-8.5C100.8,134.7,95.5,137.9,90.1,141"/>
	<path class="st0" d="M458.4,132.7c-5.3,2.7-10.6,5.4-15.8,8.2c0.1,0.2,0.2,0.3,0.2,0.5c5.6-2,10.8-5.2,16-8.1
		C458.6,133.1,458.5,132.9,458.4,132.7"/>
	<path class="st0" d="M143.2,321.5c4,1.8,8.3,3.6,12.6,5.5c-2.4-2.5-5.4-3.9-8.6-5.1C145.6,321.3,144.3,320.8,143.2,321.5"/>
	<path class="st0" d="M205.8,166.7c0.4-0.2,0.7-0.4,1.1-0.6v-1.3c-1.7-2.5-2.2-5.2-1.3-8.2C203.5,157.4,203.8,163.5,205.8,166.7"/>
	<path class="st0" d="M291,169.3c-4-0.2-9.4-0.5-15.3-0.9C281.4,171,286.9,169.6,291,169.3"/>
	<path class="st0" d="M364.6,313.4c1.1,0.4,1.8,0.3,2.6-0.9l-0.1,0c-1.1,0.2-2.3,0.4-3.4,0.6C364,313.1,364.3,313.2,364.6,313.4"/>
	<path class="st0" d="M14.5,313.2c0-0.2,0-0.5,0-0.7c-3.9-0.9-7.8-1.8-11.7-2.6v0.6c3.2,1,6.4,2,9.6,2.9
		C13,313.6,13.8,313.3,14.5,313.2"/>
	<path class="st0" d="M332.3,335.6c0.1,0.1,0.2,0.2,0.3,0.3c5.4-5.3,10.9-10.6,16.3-15.9C342.6,324.4,337.8,330.3,332.3,335.6"/>
	<path class="st0" d="M61.9,177.9l-0.3,0.5c1.1,0.5,2.3,1,3.5,1.3C64,179.2,63,178.6,61.9,177.9"/>
	<path class="st0" d="M401.3,171c5.4,3,10.3,6.9,16.3,8.7c-5.3-3-10.7-6.1-16.1-9.1C401.4,170.8,401.3,170.9,401.3,171"/>
	<path class="st0" d="M338.4,326.8c4.1-4.2,8.5-8,13.8-10.8C347.3,317.6,342.2,321.6,338.4,326.8"/>
	<path class="st0" d="M206.9,149.6v-0.4c-1.3-0.1-2.7-0.2-4-0.4L206.9,149.6z"/>
	<path class="st0" d="M206.9,161.1v-3C206.6,159.1,206.6,160.1,206.9,161.1"/>
	<path class="st0" d="M462,191.9V191c-2.2,0.6-4.2,1.7-6.1,2.9C458,193.3,460,192.6,462,191.9"/>
	<path class="st0" d="M103.4,193.9c3.3-1.1,6.6-2.2,9.9-3.3C109.5,190.3,106.4,192,103.4,193.9"/>
	<path class="st0" d="M423.9,146.7c-4.7,0.6-9.5,1.1-14.2,1.7c0,0.2,0,0.4,0.1,0.6c4.7-0.7,9.4-1.3,14.2-2
		C424,146.9,424,146.8,423.9,146.7"/>
	<path class="st0" d="M136.2,323c3.3,0.6,6.6,1.1,9.9,1.7c0-0.1,0-0.3,0.1-0.4C143,323.2,139.6,322.7,136.2,323"/>
	<path class="st0" d="M69.4,174.4c0,0.2-0.1,0.3-0.1,0.5c3.3,1,6.6,2,10,3c0.1-0.2,0.1-0.3,0.2-0.5C76,176.3,72.7,175.3,69.4,174.4"
		/>
	<path class="st0" d="M272.4,222.9c-2.4,0.6-4.8,1.3-7.2,2c2.6-0.3,5.1-0.9,7.6-1.6c1.4-0.4,2.8-1,4.2-1.5
		C275.5,222.1,273.9,222.5,272.4,222.9"/>
	<path class="st0" d="M262.4,234.5l-4.5,0.7v0.3c1.5-0.2,3-0.5,4.5-0.7C262.5,234.8,262.4,234.7,262.4,234.5"/>
	<path class="st0" d="M421.8,174.3c0,0.2-0.1,0.3-0.1,0.4c3.3,1,6.7,2,10,3c0.1-0.2,0.1-0.4,0.2-0.5
		C428.5,176.3,425.2,175.3,421.8,174.3"/>
	<path class="st0" d="M292.7,166c-3.7,0.2-7.3,0.4-11,0.7c0,0.1,0,0.2,0,0.3c3.6-0.2,7.3-0.4,10.9-0.6
		C292.7,166.2,292.7,166.1,292.7,166"/>
	<path class="st0" d="M430.6,183.2c0-0.1,0-0.2,0.1-0.3c-2.8-0.6-5.7-1.1-8.5-1.7c0,0.1,0,0.2-0.1,0.4
		C424.9,182.1,427.7,182.7,430.6,183.2"/>
	<path class="st0" d="M69.7,181.3c0,0.1,0,0.2-0.1,0.4c2.8,0.5,5.7,1.1,8.5,1.6c0-0.1,0-0.2,0.1-0.3
		C75.4,182.4,72.5,181.8,69.7,181.3"/>
	<path class="st0" d="M166,364c-2.2,1.1-4.3,2.3-6.5,3.4c2.2-1,4.5-2,6.7-2.9C166.2,364.4,166.1,364.2,166,364"/>
	<path class="st0" d="M159,367.7C159,367.7,159.1,367.7,159,367.7c0.2-0.1,0.4-0.1,0.5-0.2C159.4,367.5,159.2,367.6,159,367.7"/>
	<path class="st0" d="M407,171.1c-0.1,0.2-0.2,0.4-0.3,0.5c1.6,0.9,3.1,1.8,4.7,2.8c0.1-0.1,0.1-0.2,0.2-0.3
		C410.1,173.1,408.5,172.1,407,171.1"/>
	<path class="st0" d="M201.5,148.3c-2.3-0.2-4.6-0.4-6.9-0.6c0,0.1,0,0.1,0,0.2c2.3,0.3,4.5,0.6,6.8,0.9
		C201.5,148.5,201.5,148.4,201.5,148.3"/>
	<path class="st0" d="M386.5,325.7c-1.8,0.3-3.6,0.6-5.5,0.9c0,0.1,0,0.2,0,0.4c1.8-0.2,3.7-0.5,5.5-0.7
		C386.6,326.1,386.6,325.9,386.5,325.7"/>
	<path class="st0" d="M28.7,327c1.7-0.2,3.5-0.5,5.2-0.7c0-0.2-0.1-0.3-0.1-0.5c-1.7,0.3-3.4,0.6-5.2,0.9
		C28.7,326.7,28.7,326.8,28.7,327"/>
	<path class="st0" d="M163.3,307.6c0,0.1,0,0.2,0,0.2c2.2,0.3,4.5,0.6,6.7,0.9c0-0.1,0.1-0.2,0.1-0.3
		C167.8,308.2,165.5,307.9,163.3,307.6"/>
	<path class="st0" d="M277.8,221.5c-0.2,0-0.3,0.1-0.5,0.1c-0.1,0-0.2,0.1-0.3,0.1c0.1,0,0.2-0.1,0.4-0.1
		C277.6,221.6,277.7,221.5,277.8,221.5"/>
	<path class="st0" d="M282.7,219.6c-1.6,0.6-3.2,1.3-4.8,1.9c1.7-0.5,3.3-0.9,5-1.4C282.8,219.9,282.7,219.8,282.7,219.6"/>
</g>
</svg>
