<?xml version="1.0" encoding="utf-8"?>
<!-- Generator: Adobe Illustrator 22.0.1, SVG Export Plug-In . SVG Version: 6.00 Build 0)  -->
<svg version="1.1" id="Layer_1" xmlns="http://www.w3.org/2000/svg" xmlns:xlink="http://www.w3.org/1999/xlink" x="0px" y="0px"
	 viewBox="0 0 141.7 141.7" style="enable-background:new 0 0 141.7 141.7;" xml:space="preserve">
<style type="text/css">
	.st0{fill:#231F20;}
</style>
<title>01</title>
<path class="st0" d="M45.5,66.3c-4.1,0-5.8-3.9-5.8-8.7l0,0c0-4.8,1.8-8.8,5.8-8.8c1.3,0,2.6,0.6,3.5,1.6l0.3-1.2h3.7v16.5h-3.7
	l-0.3-1C48.1,65.7,46.8,66.3,45.5,66.3 M44,57.5L44,57.5c0,2.5,0.7,4.6,2.3,4.6c1.4,0,2.3-2,2.3-4.6l0,0c0-2.5-0.9-4.6-2.3-4.6
	C44.7,52.9,44,55,44,57.5"/>
<path class="st0" d="M59,65.7h-4.5V49.2h3.7l0.3,1.2c1.2-1.1,2.8-1.7,4.4-1.6v2.6c1.2-1.7,3.1-2.7,5.2-2.6c5.3,0,6.5,4.4,6.5,9.8
	h-9.1c0,2,1,3.6,2.5,3.6c1.2,0.1,2.2-0.7,2.3-1.9c0,0,0-0.1,0-0.1h4.2c-0.4,3.4-2.1,5.9-6.6,5.9c-4,0-6.7-3.4-6.7-7.6l0,0
	c0-1.8,0.2-3.6,0.8-5.3c-0.2-0.1-0.5-0.2-0.7-0.2c-2,0-2.4,2-2.4,4.5L59,65.7z M68.1,52.7c-1.4,0-2.3,1.3-2.3,2.9h4.6
	C70.4,54,69.7,52.7,68.1,52.7"/>
<path class="st0" d="M80.3,56.5v-0.9l0,0c0-1.5,0.3-2.7,1.6-2.7c1.1,0,1.4,0.7,1.5,1.6v11.2h4.4V52.6c0-2.3-1.4-3.8-4.7-3.8
	c-1.3,0-2.4,0.6-3.2,1.6l-0.3-1.2h-3.8v16.5h4.5V56.5z"/>
<path class="st0" d="M94.6,66.3c-4.1,0-5.8-3.9-5.8-8.7l0,0c0-4.8,1.8-8.8,5.8-8.8c1.3,0,2.6,0.6,3.4,1.6l0.3-1.2h3.7v16.5h-3.7
	l-0.3-1C97.2,65.7,96,66.3,94.6,66.3 M93.2,57.6L93.2,57.6c0,2.5,0.7,4.6,2.3,4.6c1.4,0,2.3-2,2.3-4.6l0,0c0-2.5-0.9-4.6-2.3-4.6
	C93.9,53,93.2,55,93.2,57.6"/>
<path class="st0" d="M56.8,70.2c-1.3-0.6-2.7-1-4.1-1c-1.5,0-3.1,0.3-4.5,1l-11.4,7.2L52.5,87l15.7-9.7L56.8,70.2z"/>
<path class="st0" d="M93.2,70.1c-1.4-0.6-2.9-0.9-4.4-0.9c-1.5,0-3,0.4-4.3,1.1l-11,6.9L89.2,87l15.7-9.7L93.2,70.1z"/>
<path class="st0" d="M55.2,88.5l11.4,7.1c1.3,0.8,2.7,1.2,4.2,1.3c1.6,0,3.2-0.5,4.5-1.3l11.3-7l-15.8-9.8L55.2,88.5z"/>
</svg>
