<?xml version="1.0" encoding="utf-8"?>
<!-- Generator: Adobe Illustrator 22.0.1, SVG Export Plug-In . SVG Version: 6.00 Build 0)  -->
<svg version="1.1" id="Layer_1" xmlns="http://www.w3.org/2000/svg" xmlns:xlink="http://www.w3.org/1999/xlink" x="0px" y="0px"
	 viewBox="0 0 141.7 141.7" style="enable-background:new 0 0 141.7 141.7;" xml:space="preserve">
<style type="text/css">
	.st0{fill:#25B7DE;}
</style>
<title>04</title>
<path class="st0" d="M19.8,84.5c1.6-0.1,2.2-0.8,2.3-2.6c0.2-4.4,0.5-8.8,0.7-13.2c0-0.1,0-0.3,0-0.5h9.7v16.1l1.5,0.1v6
	c-0.1,0-0.2,0.1-0.3,0.1c-1.7,0.1-1.7,0.1-1.9-1.7c-0.1-0.8-0.1-1.6-0.2-2.5h-9.2l-0.4,4.1h-2.1V84.5z M23.5,84.4h6.5V70.2h-4.7
	c0,0.3-0.1,0.7-0.1,1c-0.1,2.8-0.2,5.5-0.4,8.2C24.6,81.1,24.9,82.9,23.5,84.4z"/>
<path class="st0" d="M38.6,82l-1.2,4.4h-2.5c1.6-6,3.3-12,4.9-18.2c1.2,0,2.4,0,3.7,0c0.2,0.1,0.4,0.2,0.5,0.5
	c1.6,5.7,3.1,11.5,4.7,17.2c0,0.1,0,0.3,0.1,0.4c0,0-0.1,0-0.1,0c-2.3,0.2-2.3,0.2-2.9-2.1S45.1,82,42.8,82H38.6z M44.5,80
	c-0.9-3.2-1.7-6.3-2.6-9.4h-0.2c-0.9,3.2-1.7,6.3-2.6,9.4H44.5z"/>
<path class="st0" d="M101.6,74.4c1.1-2,2.1-3.8,3.1-5.6c0.2-0.4,0.6-0.6,1-0.6c0.7,0,1.4,0,2.3,0l-3.1,5.6c-0.2,0.4-0.4,0.7-0.6,1.1
	c-1.3,1.5-1.1,2.8,0,4.4c1.3,2,2.3,4.1,3.5,6.2c0.1,0.3,0.3,0.5,0.4,0.9c-1,0-1.8,0-2.6,0c-0.2,0-0.5-0.3-0.7-0.6
	c-1.1-1.9-2.2-3.9-3.3-6L99,84.5c-1.2,2.2-1.3,2.2-4,1.8c1-1.9,2.1-3.8,3.1-5.6c0.5-1,1-2,1.6-2.9c0.3-0.4,0.3-1,0-1.3
	c-1.4-2.4-2.7-4.9-4-7.3c-0.1-0.3-0.3-0.5-0.4-0.9c0.9,0,1.7,0,2.6,0c0.3,0.1,0.6,0.3,0.7,0.5c0.9,1.5,1.7,3,2.5,4.5L101.6,74.4z"/>
<path class="st0" d="M52.7,81v5.4h-2.5v-18c2.6,0,5.1-0.1,7.6,0c1.8,0.2,3.2,1.4,3.7,3.2c0.8,2.1,0.7,4.3-0.1,6.4
	c-0.7,1.9-2.6,3.1-4.5,3C55.4,81,54.1,81,52.7,81z M52.7,79h3.5c1.2,0.1,2.3-0.7,2.6-1.8c0.6-1.7,0.6-3.5,0-5.2
	c-0.3-1-1.1-1.7-2.1-1.7c-1.3-0.1-2.6,0-4,0L52.7,79z"/>
<path class="st0" d="M68.7,68.2c2.3,0,4.6-0.1,6.9,0c2.1,0.1,3.8,1.5,4.4,3.5c0.7,2,0.7,4.2-0.2,6.2c-0.7,1.9-2.6,3.1-4.6,3
	c-1.3,0-2.6,0-4,0v5.4h-2.5V68.2z M71.2,79h3.6c1,0.1,2-0.5,2.4-1.5c0.8-1.9,0.8-4,0-5.8c-0.3-0.8-1-1.4-1.9-1.4
	c-1.4-0.1-2.7,0-4.1,0V79z"/>
<path class="st0" d="M92.1,68.3h2.7c-0.5,1.4-0.9,2.7-1.4,4c-1.6,4.5-3.2,8.9-4.8,13.4c-0.2,0.6-0.4,0.8-1,0.7s-1.2,0-2,0
	c0.6-1.8,1.2-3.5,1.8-5.2c-0.3,0-0.5,0-0.8-0.1c-0.3-0.1-0.6-0.3-0.7-0.5c-1.6-4-3.1-8-4.7-12.1c0-0.1,0-0.2,0-0.3
	c0.8,0,1.7,0,2.4,0c0.2,0,0.5,0.4,0.6,0.6c1.2,3,2.3,6.1,3.5,9.1c0.1,0.3,0.2,0.5,0.4,1L92.1,68.3z"/>
<path class="st0" d="M108.3,68.2c0.9,0,1.7,0,2.5,0c0.3,0.1,0.5,0.3,0.7,0.6c1.2,3.1,2.4,6.3,3.6,9.4c0.1,0.2,0.1,0.3,0.3,0.6
	c0.3-0.8,0.6-1.5,0.8-2.2c0.9-2.5,1.8-5,2.7-7.5c0.3-0.8,0.6-1.2,1.4-1c0.6,0,1.1,0,1.7,0c-0.7,2-1.4,4-2.1,5.9
	c-1.4,3.9-2.8,7.7-4.1,11.6c-0.2,0.6-0.5,0.8-1.1,0.7s-1.2,0-1.9,0l1.9-5.4c-1.3,0.4-1.6-0.4-1.9-1.3c-1.3-3.6-2.8-7.2-4.1-10.8
	L108.3,68.2z"/>
<path class="st0" d="M75,57.6h-8.1v-3c0-1.7,0-3.5,0-5.2c0-0.8-0.2-1.5-0.7-2.1c-3-3.6-6-7.2-9-10.9l-0.8-1c1.3-1,1.4-1,2.5,0.1
	c1.9,1.8,3.8,3.7,5.7,5.5c3.3,3.2,9.4,3.5,12.7,0.1c1.8-1.9,3.8-3.6,5.6-5.5c1.2-1.1,1.2-1.1,2.7-0.3c-1.4,1.7-2.8,3.4-4.3,5.1
	c-1.9,2.3-3.9,4.7-5.7,7c-0.4,0.5-0.6,1.1-0.6,1.7c-0.1,2.5,0,5,0,7.6C75.1,57,75,57.2,75,57.6z"/>
<path class="st0" d="M40.5,50.1c0.2-1,0.8-1,1.4-0.8c2,0.4,4,0.7,6,1.1c3.1,0.7,6.2-1.3,6.9-4.5c0-0.2,0.1-0.4,0.1-0.5
	c0.2-1.7,0.5-3.3,0.7-5c0.1-0.9,0.7-0.7,1.4-0.7c0,0.4,0,0.9,0,1.3c-0.1,2.8-0.1,5.7-0.2,8.5c0,0.8,0.2,1.5,0.7,2.1
	c1.2,1.4,2.3,2.9,3.6,4.5L56.4,59c-1.2-1.5-2.5-3-3.6-4.5c-0.5-0.7-1.3-1.2-2.2-1.4l-9.8-2.8C40.8,50.2,40.6,50.2,40.5,50.1z"/>
<path class="st0" d="M85.2,59.1l-4.6-2.9c1.1-1.4,2.1-2.8,3.3-4.2c0.7-0.8,1.1-1.9,1-3c-0.1-2.8-0.1-5.5-0.2-8.3v-1
	c0.8-0.2,1.3-0.1,1.4,0.9c0.2,1.7,0.6,3.4,0.7,5c0.3,2.3,2,4.2,4.3,4.6c1.2,0.2,2.4,0.1,3.7-0.1c1.7-0.2,3.3-0.6,4.9-0.9
	c1.1-0.2,1.1-0.2,1.6,0.8L97,51.4c-2.3,0.7-4.5,1.3-6.8,2.1c-0.5,0.2-1,0.6-1.3,1C87.7,56,86.5,57.5,85.2,59.1z"/>
<path class="st0" d="M71.1,34.1c1.2-0.1,2.4,0.4,3.2,1.2c1.4,1.3,1.6,3.5,0.3,5c-0.1,0.1-0.1,0.1-0.2,0.2c-1.7,1.8-4.5,1.9-6.4,0.2
	c-1.2-0.9-1.6-2.5-1.1-3.9c0.6-1.5,2-2.6,3.6-2.7C70.7,34.1,70.9,34.1,71.1,34.1z"/>
<path class="st0" d="M91.8,49.1c-1.6,0.1-3-1.1-3.2-2.8c0.2-1.5,1.5-2.7,3-2.7c1.6-0.1,3,1.1,3.2,2.8C94.7,48,93.4,49.2,91.8,49.1z"
	/>
<path class="st0" d="M53,46.4c-0.1,1.6-1.5,2.8-3.1,2.7c-1.6,0.1-2.9-1.1-3-2.7c0-1.7,1.4-3,3-3C51.6,43.4,53,44.8,53,46.4L53,46.4z
	"/>
</svg>
