<?xml version="1.0" encoding="utf-8"?>
<!-- Generator: Adobe Illustrator 22.0.1, SVG Export Plug-In . SVG Version: 6.00 Build 0)  -->
<svg version="1.1" id="Layer_1" xmlns="http://www.w3.org/2000/svg" xmlns:xlink="http://www.w3.org/1999/xlink" x="0px" y="0px"
	 viewBox="0 0 141.7 141.7" style="enable-background:new 0 0 141.7 141.7;" xml:space="preserve">
<style type="text/css">
	.st0{fill:#C10505;}
</style>
<title>02</title>
<path class="st0" d="M11.3,68.5c0,4,2.7,7.4,9,7.4c2.5,0,4.8-1.2,6.3-3.2l3.8,3.7v-8.7h-7.2c0,4.1-1.1,5.9-2.5,5.9s-2.6-1.2-2.6-5.3
	c0-3.8,0.9-5.1,4.1-5.1c2.8,0.2,5.6,1,8.2,2.3V61h-9.4C13.8,61,11.3,64.4,11.3,68.5"/>
<path class="st0" d="M64.3,70.1c0-3.1-0.7-5.6-6.5-5.6h-8.2v11.4h5.3v-5.8c0-3.3,0.9-3.9,1.9-3.9s1.9,0.6,1.9,3.9v1.7L64.3,70.1z"/>
<path class="st0" d="M40.1,74.5c-1.1,0-1.9-0.6-1.9-4.3s0.9-4.3,1.9-4.3s1.9,0.6,1.9,4.3S41.1,74.5,40.1,74.5 M40.1,64.2
	c-5.7,0-7.6,2.9-7.6,6s1.8,6,7.6,6s7.6-2.9,7.6-6S45.8,64.2,40.1,64.2"/>
<path class="st0" d="M107.2,64.5h-8v11.3h5.5v-5.8c0-3.3,0.7-3.9,1.8-3.9s1.7,0.6,1.7,3.9v5.8h5.5v-5.8
	C113.7,67,113.4,64.5,107.2,64.5"/>
<path class="st0" d="M73,74.2c-1.1,0-1.9-0.8-1.9-4s0.9-4,1.9-4s1.9,0.8,1.9,4S74.1,74.2,73,74.2 M72.8,64.5c-5.7,0-7.3,2.6-7.2,5.7
	s1.5,5.7,7.2,5.7h2.1c-0.2,2-1.1,2.8-2.4,2.8c-2.1,0-4.7-1.2-5.9-1.7v3.2c2,0.3,4,0.5,6,0.6c5.8,0,7.5-3,7.5-6.6v-9.6H72.8z"/>
<path class="st0" d="M91.3,70.2c0,3.3-0.9,4-1.9,4s-1.9-0.7-1.9-4s0.9-4,1.9-4S91.3,66.9,91.3,70.2 M81.9,70.2
	c0,3.1,1.5,5.7,7.2,5.7h7.3V64.5h-7.3C83.4,64.5,81.9,67.1,81.9,70.2"/>
<path class="st0" d="M124.9,64.5v5.6c0,3.3-0.7,4.1-1.7,4.1s-1.7-0.9-1.7-4.1v-5.6h-5.5v5.6c0,3.1,1.1,5.8,6.9,5.8h2.1
	c-0.2,2-1.1,2.8-2.4,2.8c-2.1,0-4.5-1.2-5.7-1.7v3.2c1.9,0.3,3.9,0.5,5.8,0.6c5.8,0,7.8-3,7.8-6.6v-9.6H124.9z"/>
</svg>
