<?xml version="1.0" encoding="utf-8"?>
<!-- Generator: Adobe Illustrator 22.0.1, SVG Export Plug-In . SVG Version: 6.00 Build 0)  -->
<svg version="1.1" id="Layer_1" xmlns="http://www.w3.org/2000/svg" xmlns:xlink="http://www.w3.org/1999/xlink" x="0px" y="0px"
	 viewBox="0 0 141.7 141.7" style="enable-background:new 0 0 141.7 141.7;" xml:space="preserve">
<style type="text/css">
	.st0{fill:#7FC241;}
</style>
<title>03</title>
<g id="Layer_1-2">
	<path class="st0" d="M38.2,58.8l-3.2,14.6c-0.1,0.4-0.4,0.8-0.9,1c-4.3,2.2-9.1,3.3-13.9,3.4c-4.5,0.1-8.9-1.1-12.8-3.4
		c-0.3-0.2-0.5-0.6-0.4-1l3.2-14.8c0-0.2,0.2-0.4,0.5-0.4c0.1,0,0.2,0,0.2,0.1c2.6,1.6,5.6,2.7,8.6,3.1c0.4,0.1,0.5,0.3,0.3,0.7
		l-4.6,11.3c0,0.1,0,0.2,0.1,0.2c0,0,0,0,0,0c0.1,0,0.1,0,0.2,0c2.1-1.8,4.3-4.8,6.4-6.6c0.2-0.2,0.6-0.2,0.8,0c0,0,0,0,0,0l0,0
		c0.7,0.9,3.3,5.8,3.8,6.6c0.1,0.1,0.3,0.2,0.4,0.1c0.1-0.1,0.1-0.1,0.1-0.2c-0.1-3.4-0.3-9.8-0.3-11.4c0-0.3,0.1-0.5,0.4-0.6
		c3.7-0.5,7.2-1.6,10.5-3.2C38.1,58.2,38.3,58.3,38.2,58.8z"/>
	<circle class="st0" cx="24" cy="57.2" r="2.4"/>
	<path d="M42.6,72.3l2.7-12.5c0.1-0.5,0.6-0.9,1.1-0.9H48c0.6,0,1.2,0.5,1.2,1.2c0,0.1,0,0.2,0,0.3l-2.8,12.4
		c-0.1,0.5-0.6,0.9-1.1,0.9h-1.6c-0.6,0-1.1-0.5-1.2-1.1c0,0,0,0,0,0C42.6,72.5,42.6,72.4,42.6,72.3z"/>
	<path d="M65.4,60.6c0.9,1.5,1.2,3.3,0.7,5l-1.6,7.3c-0.1,0.5-0.6,0.9-1.1,0.9h-1.6c-0.6,0-1.1-0.5-1.2-1.1c0,0,0,0,0,0
		c0-0.1,0-0.2,0-0.3l1.5-7c0.3-0.9,0.1-1.8-0.4-2.5c-0.5-0.6-1.3-0.9-2.2-0.8c-2.2,0-3.7,1.8-4.5,5.3L54,72.8
		c-0.1,0.5-0.6,0.9-1.1,0.9h-1.6c-0.6,0-1.1-0.5-1.1-1.1c0-0.1,0-0.2,0-0.3l2.8-12.5C53,59.4,53.5,59,54,59h1.6
		c0.6,0,1.1,0.5,1.1,1.1c0,0,0,0,0,0c0,0.1,0,0.2,0,0.3l0,0c1.1-1.2,2.7-1.9,4.3-1.8C62.7,58.4,64.4,59.2,65.4,60.6z"/>
	<path d="M83.2,60.6c0.9,1.5,1.2,3.3,0.7,5l-1.6,7.3c-0.1,0.5-0.6,0.9-1.1,0.9h-1.6c-0.6,0-1.1-0.5-1.2-1.1c0,0,0,0,0,0
		c0-0.1,0-0.2,0-0.3l1.5-7c0.3-0.9,0.1-1.8-0.4-2.5c-0.5-0.6-1.3-0.9-2.2-0.8c-2.2,0-3.7,1.8-4.5,5.3l-1.2,5.6
		c-0.1,0.5-0.6,0.9-1.1,0.9h-1.6c-0.6,0-1.1-0.5-1.2-1.1c0-0.1,0-0.2,0-0.3l2.8-12.5c0.1-0.5,0.6-0.9,1.1-0.9h1.6
		c0.6,0,1.1,0.5,1.2,1.1c0,0.1,0,0.2,0,0.3l0,0c1.1-1.2,2.7-1.9,4.3-1.8C80.5,58.4,82.2,59.2,83.2,60.6z"/>
	<path d="M100.3,60.8c1.4,1.5,2.1,3.5,1.7,5.6c-0.3,2.2-1.3,4.2-3,5.6c-1.6,1.4-3.7,2.2-5.8,2.2c-2.1,0.1-4.1-0.7-5.6-2.1
		c-1.4-1.5-2.1-3.6-1.7-5.6c0.3-2.2,1.4-4.2,3-5.6c1.6-1.4,3.7-2.2,5.8-2.2C96.8,58.6,98.8,59.4,100.3,60.8z M96.4,69.6
		c1-0.8,1.6-1.9,1.8-3.2c0.2-1.1,0-2.3-0.8-3.2c-0.7-0.8-1.7-1.2-2.7-1.2c-1.2,0-2.3,0.4-3.1,1.2c-1,0.8-1.6,1.9-1.8,3.2
		c-0.3,1.1,0,2.3,0.8,3.2c0.7,0.8,1.7,1.2,2.8,1.2C94.5,70.8,95.5,70.3,96.4,69.6z"/>
	<path d="M110,73.7h-2.6c-0.5,0-1-0.4-1.1-0.9L103.7,60c-0.1-0.5,0.2-0.9,0.7-1c0.1,0,0.1,0,0.2,0h2c0.5,0,1,0.4,1.1,0.9l1.7,9
		l5.9-9.4c0.2-0.4,0.6-0.6,1-0.5h2.3c0.5,0,0.8,0.4,0.8,0.8c0,0.2,0,0.3-0.1,0.5l-8.3,12.9C110.7,73.5,110.4,73.7,110,73.7z"/>
	<path d="M132.9,60.8c1.4,1.5,2,3.5,1.6,5.6c-0.3,2.2-1.3,4.2-3,5.6c-1.6,1.4-3.7,2.2-5.8,2.2c-2.1,0.1-4.1-0.7-5.6-2.1
		c-1.4-1.5-2.1-3.6-1.7-5.6c0.3-2.2,1.4-4.2,3-5.6c1.6-1.4,3.7-2.2,5.8-2.2C129.4,58.6,131.4,59.3,132.9,60.8z M129,69.6
		c1-0.8,1.6-1.9,1.8-3.2c0.3-1.1,0-2.3-0.8-3.2c-0.7-0.8-1.7-1.2-2.7-1.2c-1.2,0-2.3,0.4-3.2,1.2c-1,0.8-1.6,1.9-1.8,3.2
		c-0.3,1.1,0,2.3,0.8,3.2c0.7,0.8,1.8,1.2,2.8,1.2C127.1,70.7,128.2,70.3,129,69.6z"/>
</g>
</svg>
