<?xml version="1.0" encoding="utf-8"?>
<!-- Generator: Adobe Illustrator 22.0.1, SVG Export Plug-In . SVG Version: 6.00 Build 0)  -->
<svg version="1.1" id="Layer_1" xmlns="http://www.w3.org/2000/svg" xmlns:xlink="http://www.w3.org/1999/xlink" x="0px" y="0px"
	 viewBox="0 0 141.7 141.7" style="enable-background:new 0 0 141.7 141.7;" xml:space="preserve">
<style type="text/css">
	.st0{fill:#FF0000;}
</style>
<title>05</title>
<path class="st0" d="M72,77.8v0.5l-0.3,0.2l-0.3,0.1h-0.3h-0.2l-0.1,0.2L70.6,79h-0.5l-0.3,0.2l-0.5,0.3l-0.3,0.1l-0.1,0.4v0.3
	l-0.4,0.1l-0.2-0.1L68,80.2h-0.3L66.7,81l-0.6,0.3l-0.3-0.1l-0.3-0.1L65.1,81l1.5-1l-0.3-0.2l0.3-0.6l-0.7,0.4l-0.2,0.1l-0.4-0.2
	L65.2,79l1.2-2.5v-0.2L65,78.2l-0.3,0.2l-0.4-0.1L63.8,78v-0.1l0.1-0.3l-0.6-0.5l1-1.1l-0.4-0.4L63,74.8l-0.5-0.4l-1-0.8l-1.3-1.2
	L59.8,72l-0.5-0.5l-0.9-1l-0.7-0.3l-0.9-0.4c-2.2-1.2-3.7-3.5-3.9-6v-1.4c0.6-2.1,1.1-3.5,3.2-4.5l0.5,0.3l-0.1,0.4
	c-0.3,0.3-0.7,0.5-0.9,0.7c-0.9,0.9-1.3,1.4-1.7,3.7v1l0.2,1.3l0.6,1.3l0.5,0.9c0.4,0.5,0.9,1,1.5,1.3l-1-1.1
	c-0.1-0.4,0.1-0.3,0.8-0.1l1.3,1.6l0.8,0.7l0.6,0.2h1.3L59,68l-0.6,0.1c-0.6-0.1-0.7-0.4-0.4-0.8l0.2-0.2l-0.4-0.6l-0.6-0.8
	l-1.3,1.1h-0.4l-0.3-0.4l0.1-0.3l0.9-0.8l0.6-0.5l-0.8-1.1c-0.2-0.4,0.1-0.4,0.4-0.5l0.2,0.2l0.3,0.3l0.5,0.6l0.5-0.3l1.1-0.8l1-0.7
	l2.4-1.3l2.6-1.4l-0.2-0.5v-0.1l-0.1-0.5l0.5-0.1l0.3,0.3l0.2,0.7l1.3-0.6l1.1-0.3l0.4,0.4c-0.2-0.6-0.5-1.2-0.9-1.7
	c-0.5-0.3-0.9-0.7-1.3-1.1c-2.8-2.8-7.9-2.5-11.2,0.7l-0.7,1.1l-0.2,0.2l-0.7,0.2c-0.2-0.3-0.2-0.7,0-1l0.6-1.1l1.3-1.2
	c0.4-0.2,0.9-0.6,1.3-0.8c5.5-2.6,9.3-0.5,11.4,2.1c-0.1,0,0.4,0.4,0.8,1c0.6,1,0.9,2.1,1,3.2v1.2l0.3,0.2l0.5,0.5v0.3h-0.5L70,64.3
	l-0.2,0.1l-0.4,1.4L69,66.5l0.2,1L69,67.9l0.1,0.3L69,68.8l0.3,0.7l-0.1,0.1l0.2,0.6l0.1,2.2v0.8h0.2l0.7,0.5l0.2,0.7l0.3,0.2
	l0.1,0.6l0.2,0.2v0.5l0.3,1l0.4,0.3L72,77.8z M60.8,65.2l1.5-0.9l1.5-0.7l0.9-0.5l0.8-0.3l-0.4-1.6l-1.2,0.5l-1.5,0.8L61.5,63
	l-1.1,0.6l-0.5,0.3l-0.4,0.3L58,65.3l0.4,0.6l0.4,0.6L60.8,65.2z M61.5,70c0.8-0.1,1.7-0.3,2.4-0.7l1.1-0.4l1.2-0.9l0.4-0.5l-1-3.4
	l-2.2,0.9l-1.3,0.7l-1.8,1.3l-0.8,0.6C60.1,68.4,60.8,69.2,61.5,70L61.5,70z M68.4,73.3l0.2-0.6l-0.1-1.8l-0.2,0.4l-0.2-0.2
	l-1.1-2.5l-2,1.1l-1.2,0.5l-1.8,0.3l1.8,2.2l0.1,0.8h-0.4l-2.6-2.9h-1.6l0.1,0.1l0.1,0.1l0.2,0.1l0.1,0.1l0.1,0.1l0.2,0.1l0.3,0.2
	l0.1,0.1l0.2,0.1l0.1,0.1h0.1l0.2,0.1l0.2,0.3l0.1,0.1l0.1,0.1l0.2,0.2l0.7,0.6l1.4,1.3l0.4,0.3l0.5,0.4l1.2-0.7l0.6-0.3l0.3-0.2
	l1.7-0.8L68.4,73.3z M68.4,64.2l0.1-0.9c-0.6,0-1.2,0.2-1.7,0.5l0.6,3.1l0.5-0.7l0.4-0.8L68.4,64.2z M68.4,67.4l-0.6,0.7l0.8,2.4
	L68.4,67.4z M68.9,61.5v-1.1h-0.4L68,60.3L67.8,60l-1.3,0.4L66,60.8l0.3,0.9l0.3,0.8l0.8-0.2l1.2-0.1l0.1-0.7L68.9,61.5z"/>
<polygon points="77.1,57.6 79.7,63.4 80.9,63.2 77.2,54.9 73.4,63.2 74.6,63.4 "/>
<polygon points="94.4,63.3 95.6,63.1 95.6,55 94.4,55.2 "/>
<path d="M83.9,63.2h-2.4v-8l1.2-0.1v3.2h0.9c2.2,0,3.1,1.2,3.1,2.5S85.9,63.2,83.9,63.2z M82.8,62.1h1.1c1.2,0,1.6-0.7,1.6-1.3
	s-0.6-1.3-1.6-1.3h-1.1L82.8,62.1z"/>
<path d="M99.5,63.2h-2.3v-8h1.9c2.3,0,2.8,1.3,2.8,2.1c0,0.7-0.4,1.4-1,1.8c0.8,0.2,1.4,1,1.4,1.8C102.3,62.2,101.3,63.2,99.5,63.2z
	 M98.4,58.6h1c0.6,0.1,1.2-0.4,1.3-1.1c0,0,0,0,0-0.1c0-0.6-0.5-1.1-1.4-1.1h-0.9L98.4,58.6z M98.4,62.1h1.1c1,0,1.5-0.6,1.5-1.2
	c0-0.7-0.6-1.2-1.3-1.2c0,0-0.1,0-0.1,0h-1.2V62.1z"/>
<path d="M109.3,61.6c-0.5,0.4-1.2,0.6-1.8,0.6c-1.7,0-3-1.3-3-3l0,0c0-1.7,1.3-3,2.9-3.1c0,0,0,0,0.1,0c0.7,0,1.3,0.2,1.8,0.6
	l-0.2-1.4c-0.5-0.2-1.1-0.3-1.6-0.3c-2.3,0-4.2,1.8-4.3,4.2s1.8,4.2,4.2,4.3c0.6,0,1.2-0.1,1.7-0.3L109.3,61.6z"/>
<path d="M112.8,63.2h-2.4v-8l1.2-0.1v3.2h0.9c2.2,0,3.1,1.2,3.1,2.5S114.8,63.2,112.8,63.2z M111.7,62.1h1.1c1.2,0,1.6-0.7,1.6-1.3
	s-0.6-1.3-1.6-1.3h-1.1V62.1z"/>
<polygon points="118,59.1 118.1,59.1 121.3,63.4 122.2,63 122.4,62.7 119.4,58.9 122.4,55.4 121.2,55 118.1,58.9 118,58.9 118,55 
	116.7,55.2 116.7,63.3 118,63.1 "/>
<path d="M122.5,62.9l-0.1-0.2l3.9-7.8l4.1,8.3l-1.2,0.3l-1.3-2.7h-3.2l-1.3,2.7l-1.2-0.3l0.1-0.1L122.5,62.9z M125.2,59.6h2.2
	l-1.1-2.3L125.2,59.6z"/>
<path d="M90.2,63.2h-2.3v-8h1.9c2.3,0,2.8,1.3,2.8,2.1c0,0.7-0.4,1.4-1,1.8c0.8,0.2,1.4,1,1.4,1.8C93,62.2,92,63.2,90.2,63.2z
	 M89.1,58.6h1c0.6,0.1,1.2-0.4,1.3-1.1c0,0,0,0,0-0.1c0-0.6-0.5-1.1-1.4-1.1H89L89.1,58.6z M89.1,62.1h1.1c1,0,1.5-0.6,1.5-1.2
	c0-0.7-0.6-1.2-1.3-1.2c0,0-0.1,0-0.1,0h-1.2L89.1,62.1z"/>
<path d="M94.1,76.5c0,2.2-1.6,3.7-4.6,3.7h-3.8V67.1h3.2c3.8,0,4.7,2.1,4.7,3.5c0,1.2-0.6,2.3-1.7,2.9
	C93.2,73.8,94.1,75.1,94.1,76.5z M87.7,72.7h1.7c1.1,0.1,2-0.7,2.1-1.7c0,0,0-0.1,0-0.1c0-1-0.8-1.8-2.3-1.8h-1.5V72.7z M92.1,76.4
	c0-1.1-1-2-2.1-2c-0.1,0-0.1,0-0.2,0h-2v4h1.8C91.3,78.3,92.1,77.4,92.1,76.4z"/>
<polygon points="98.5,66.8 96.4,67.1 96.4,80.8 105.2,71.3 105.2,80.3 107.2,80.1 107.2,66.5 98.5,75.9 "/>
<path d="M126.2,67.1h3.1v13l-2,0.2v-6.5l-4.8,6.7l-2-0.7l3.8-5.1c-1.7-0.3-3-1.8-2.9-3.6C121.4,69.3,122.5,67.1,126.2,67.1z
	 M127.2,68.9h-1.1c-1.7,0-2.6,0.9-2.6,2.2c0,1.3,1.1,2.3,2.4,2.3c0,0,0.1,0,0.1,0h1.3L127.2,68.9z"/>
<polygon points="84.1,67.6 82.3,66.8 78.9,71.9 75.4,66.8 73.6,67.6 77.7,73.5 73.2,79.8 75,80.5 78.9,75.1 82.8,80.5 84.7,79.8 
	80,73.5 "/>
<polygon points="108.2,80.2 110.2,80.5 114.3,71 118.5,80.5 120.5,80.2 114.4,66.5 "/>
<polygon class="st0" points="50.9,55 48.9,55.3 48.9,68.5 50.9,68.3 "/>
<path class="st0" d="M32.6,68.7l-2.1-4.5h-5.2L23,68.7l-2-0.4l6.8-13.6l6.7,13.5v0.1L32.6,68.7z M29.6,62.5l-1.8-3.7L26,62.5
	L29.6,62.5z"/>
<path class="st0" d="M34.6,68.3L34.6,68.3v-1.8h1.2L41,54.7l5.2,11.8h1.2v4.3l-2,0.2v-2.7h-8.8v2.5l-2,0.2L34.6,68.3L34.6,68.3z
	 M37.8,66.6h6.3l-3.1-7.4L37.8,66.6z"/>
<path class="st0" d="M15.8,64c-0.3,0-0.6,0-0.9,0v4.4l-2,0.2V55.3H16c3.4,0,4.9,2.3,4.9,4.3C20.8,61.8,19.2,64,15.8,64z M18.8,59.6
	c0-1.4-1.1-2.5-2.5-2.5c-0.1,0-0.2,0-0.3,0h-1v4.9c0.2,0,0.4,0,0.7,0C18,62.1,18.8,60.7,18.8,59.6L18.8,59.6z"/>
<polygon points="11.8,75.2 13.4,74.1 13.4,80.4 14.6,80.3 14.6,72.1 11.3,74.4 "/>
<path d="M23.5,76.3c0,2.5-1.3,4.2-3.1,4.2s-3.1-1.7-3.1-4.2s1.3-4.2,3.1-4.2S23.5,73.8,23.5,76.3z M22.3,76.3c0-1.7-0.6-3.1-1.9-3.1
	c-1.1,0-1.9,1-1.9,3.1s0.9,3.1,1.9,3.1S22.3,78.4,22.3,76.3z"/>
<path d="M30.1,76.3c0,2.5-1.3,4.2-3.1,4.2S24,78.8,24,76.3s1.3-4.2,3.1-4.2S30.1,73.8,30.1,76.3z M29,76.3c0-1.7-0.6-3.1-1.9-3.1
	c-1.1,0-1.9,1-1.9,3.1s0.9,3.1,1.9,3.1S29,78.4,29,76.3L29,76.3z"/>
<path d="M32,79l-0.9,0.7c0.3,0.1,0.4,0.4,0.5,0.6c-0.1,0.4-0.2,0.7-0.5,0.9l-0.2,0.3l0.6,0.4l0.3-0.4c0.4-0.6,0.9-1.1,0.9-1.6
	C32.6,79.6,32.4,79.2,32,79z"/>
<path d="M45.3,73.1c0.2,0,0.4,0,0.6,0.1l-0.3-1.1h-0.4c-1.1-0.1-2.1,0.7-2.2,1.8c0,0.1,0,0.3,0,0.4v0.2h-0.4l-0.3,1H43v5l1.1-0.1
	v-4.9h1.5v-1h-1.5v-0.1c-0.1-0.6,0.3-1.2,1-1.2C45.1,73,45.2,73,45.3,73.1z"/>
<path d="M38.9,78.1c0,1.4-1.2,2.4-2.5,2.4c-0.1,0-0.1,0-0.1,0c-1.4,0.1-2.5-0.9-2.7-2.2c0,0,0-0.1,0-0.1c0-0.9,0.6-1.7,1.4-2
	c-0.7-0.3-1.2-1.1-1.2-1.9c0-1.2,1-2.2,2.3-2.2c0.1,0,0.1,0,0.2,0c1.2-0.1,2.3,0.7,2.4,1.9c0,0.1,0,0.2,0,0.2c0,0.8-0.5,1.5-1.2,1.8
	C38.4,76.4,38.9,77.2,38.9,78.1z M35.9,75.5l0.4,0.2c0.6-0.2,1.3-0.6,1.3-1.3c-0.1-0.7-0.8-1.3-1.5-1.2c-0.6,0.1-1.1,0.6-1.2,1.2
	C34.9,75,35.5,75.3,35.9,75.5L35.9,75.5z M37.8,78.1c0-0.8-0.6-1-1.2-1.3l-0.3-0.2c-0.5,0.1-1.5,0.5-1.5,1.5c0.2,0.8,1,1.3,1.8,1.2
	C37.2,79.1,37.6,78.7,37.8,78.1L37.8,78.1z"/>
<path d="M52.9,74.3c-0.2-0.1-0.4-0.1-0.6-0.1c-0.7,0-1.4,0.3-1.8,0.9c-0.3-0.6-0.9-0.9-1.6-0.9c-0.7,0-1.3,0.4-1.7,1v-0.9l-1,0.1v6
	l1.1-0.1v-3.5c-0.1-0.8,0.5-1.4,1.2-1.5c0,0,0.1,0,0.1,0c1,0,1,0.9,1,1.2v4l1.1-0.1v-3.5c0-1.2,0.7-1.6,1.3-1.6
	c0.3,0,0.6,0.1,0.8,0.4c0.2,0.2,0.3,0.5,0.3,0.8v4l1.1-0.1v-4.1C54.2,75.3,53.7,74.6,52.9,74.3z"/>
<path d="M52.9,74.3c-0.2-0.1-0.4-0.1-0.6-0.1c-0.7,0-1.4,0.3-1.8,0.9c-0.3-0.6-0.9-0.9-1.6-0.9c-0.7,0-1.3,0.4-1.7,1v-0.9l-1,0.1v6
	l1.1-0.1v-3.5c-0.1-0.8,0.5-1.4,1.2-1.5c0,0,0.1,0,0.1,0c1,0,1,0.9,1,1.2v4l1.1-0.1v-3.5c0-1.2,0.7-1.6,1.3-1.6
	c0.3,0,0.6,0.1,0.8,0.4c0.2,0.2,0.3,0.5,0.3,0.8v4l1.1-0.1v-4.1C54.2,75.3,53.7,74.6,52.9,74.3z"/>
</svg>
