<?xml version="1.0" encoding="utf-8"?>
<!-- Generator: Adobe Illustrator 22.0.1, SVG Export Plug-In . SVG Version: 6.00 Build 0)  -->
<svg version="1.1" id="Layer_1" xmlns="http://www.w3.org/2000/svg" xmlns:xlink="http://www.w3.org/1999/xlink" x="0px" y="0px"
	 viewBox="0 0 141.7 141.7" style="enable-background:new 0 0 141.7 141.7;" xml:space="preserve">
<style type="text/css">
	.st0{fill:#009E99;}
	.st1{fill:#E42E25;}
</style>
<g>
	<g>
		<path class="st0" d="M108.8,81.3c4.6,0,5.3-3.7,10.4-3.7c4.3,0,7.9,2.1,7.9,4.8s-3.5,4.8-7.9,4.8c-5.1,0-5.8-3.7-10.4-3.7
			c-4.6,0-5.3,3.7-10.4,3.7c-4.3,0-7.9-2.1-7.9-4.8s3.5-4.8,7.9-4.8C103.5,77.6,104.2,81.3,108.8,81.3 M108.8,87.2
			c-2.8,0-5.1,1.8-5.1,4c0,2.2,2.3,4,5.1,4c2.8,0,5.1-1.8,5.1-4C113.9,89,111.6,87.2,108.8,87.2 M98.4,70.4c-4.6,0-5.3-3.7-10.4-3.7
			c-4.3,0-7.9,2.1-7.9,4.8s3.5,4.8,7.9,4.8c5.1,0,5.8-3.7,10.4-3.7c4.6,0,5.3,3.7,10.4,3.7c5.1,0,5.8-3.7,10.4-3.7
			c4.6,0,5.3,3.7,10.4,3.7c4.3,0,7.9-2.1,7.9-4.8s-3.5-4.8-7.9-4.8c-5.1,0-5.8,3.7-10.4,3.7c-4.6,0-5.3-3.7-10.4-3.7
			C103.7,66.7,103,70.4,98.4,70.4"/>
		<path class="st1" d="M108.8,55c2.8,0,5.1-1.8,5.1-4c0-2.2-2.3-4-5.1-4c-2.8,0-5.1,1.8-5.1,4C103.8,53.2,106,55,108.8,55
			 M108.8,59.5c-4.6,0-5.3-3.7-10.4-3.7c-4.3,0-7.9,2.2-7.9,4.8c0,2.7,3.5,4.8,7.9,4.8c5.1,0,5.8-3.7,10.4-3.7
			c4.6,0,5.3,3.7,10.4,3.7c4.3,0,7.9-2.1,7.9-4.8c0-2.7-3.5-4.8-7.9-4.8C114.1,55.8,113.4,59.5,108.8,59.5"/>
		<path class="st0" d="M11.9,82.5v-5.3h-1.7c0,0.8-0.2,1.7-0.5,2.7c-0.3,1-0.6,1.9-1,2.6H11.9z M13.6,85h-0.7v-1.8H8.1V85H7.4v-2.5
			h0.5c0.4-0.8,0.8-1.8,1.1-2.9c0.3-1.1,0.5-2.1,0.5-3.1h3.2v6h0.9V85z"/>
		<path class="st0" d="M15.6,83.2h-0.8v-4.8h0.8V83.2z M15.3,77.2c-0.1,0-0.3,0-0.4-0.1c-0.1-0.1-0.1-0.2-0.1-0.4
			c0-0.1,0.1-0.3,0.1-0.4c0.1-0.1,0.2-0.1,0.4-0.1c0.1,0,0.3,0,0.4,0.1c0.1,0.1,0.1,0.2,0.1,0.4s0,0.3-0.1,0.4
			C15.5,77.1,15.4,77.2,15.3,77.2"/>
		<path class="st0" d="M20,80.8l-1.2,0.2c-0.4,0.1-0.6,0.1-0.8,0.3c-0.2,0.1-0.3,0.3-0.3,0.7c0,0.2,0.1,0.4,0.2,0.6
			c0.2,0.1,0.4,0.2,0.7,0.2c0.4,0,0.7-0.1,0.9-0.4c0.2-0.3,0.4-0.6,0.4-1V80.8z M20.8,83.2H20v-0.7h0c-0.3,0.6-0.8,0.9-1.5,0.9
			c-0.5,0-0.8-0.1-1.1-0.4c-0.3-0.3-0.4-0.6-0.4-1c0-0.9,0.5-1.4,1.6-1.6l1.4-0.2c0-0.8-0.3-1.2-1-1.2c-0.6,0-1.1,0.2-1.6,0.6v-0.8
			c0.5-0.3,1-0.4,1.6-0.4c1.1,0,1.7,0.6,1.7,1.8V83.2z"/>
	</g>
	<polygon class="st0" points="25.1,79.1 23.2,79.1 23.2,83.2 22.4,83.2 22.4,78.4 25.1,78.4 	"/>
	<polygon class="st0" points="30.3,83.2 29.5,83.2 29.5,81 27.1,81 27.1,83.2 26.3,83.2 26.3,78.4 27.1,78.4 27.1,80.4 29.5,80.4 
		29.5,78.4 30.3,78.4 	"/>
	<g>
		<path class="st0" d="M34,78.9c-0.5,0-0.9,0.2-1.2,0.5c-0.3,0.3-0.4,0.8-0.4,1.4c0,0.6,0.1,1,0.4,1.3c0.3,0.3,0.7,0.5,1.2,0.5
			c0.5,0,0.9-0.2,1.1-0.5c0.3-0.3,0.4-0.8,0.4-1.4c0-0.6-0.1-1.1-0.4-1.4C34.9,79.1,34.5,78.9,34,78.9 M34,83.3
			c-0.7,0-1.3-0.2-1.7-0.7c-0.4-0.4-0.6-1-0.6-1.8c0-0.8,0.2-1.4,0.7-1.9c0.4-0.4,1-0.7,1.8-0.7c0.7,0,1.3,0.2,1.7,0.7
			c0.4,0.4,0.6,1,0.6,1.8c0,0.8-0.2,1.4-0.6,1.8C35.3,83.1,34.7,83.3,34,83.3"/>
		<path class="st0" d="M41,83c-0.4,0.2-0.8,0.3-1.3,0.3c-0.7,0-1.2-0.2-1.6-0.7c-0.4-0.4-0.6-1-0.6-1.7c0-0.8,0.2-1.4,0.7-1.9
			c0.4-0.5,1-0.7,1.8-0.7c0.4,0,0.8,0.1,1.1,0.2v0.8c-0.4-0.3-0.7-0.4-1.1-0.4c-0.5,0-0.9,0.2-1.2,0.5c-0.3,0.3-0.5,0.8-0.5,1.4
			c0,0.6,0.1,1,0.4,1.3c0.3,0.3,0.7,0.5,1.2,0.5c0.4,0,0.8-0.1,1.2-0.4V83z"/>
	</g>
	<polygon class="st0" points="45.4,79.1 44,79.1 44,83.2 43.2,83.2 43.2,79.1 41.8,79.1 41.8,78.4 45.4,78.4 	"/>
	<g>
		<path class="st0" d="M50.5,83.2h-0.7v-3.8c-0.1,0.1-0.2,0.3-0.3,0.6l-2.2,3.2h-0.8v-4.8h0.7v3.8c0-0.1,0.1-0.2,0.2-0.5l2.3-3.3
			h0.8V83.2z"/>
		<path class="st0" d="M56.1,83.2h-0.8v-1.9c-0.6,0.3-1.1,0.5-1.5,0.5c-1.1,0-1.6-0.6-1.6-1.7v-1.6h0.8V80c0,0.7,0.3,1.1,0.9,1.1
			c0.5,0,1-0.1,1.5-0.4v-2.2h0.8V83.2z"/>
	</g>
	<polygon class="st0" points="61.8,83.2 61,83.2 61,81 58.6,81 58.6,83.2 57.8,83.2 57.8,78.4 58.6,78.4 58.6,80.4 61,80.4 61,78.4 
		61.8,78.4 	"/>
	<g>
		<path class="st0" d="M67.6,83.2h-0.7v-3.8c-0.1,0.1-0.2,0.3-0.3,0.6l-2.2,3.2h-0.8v-4.8h0.7v3.8c0-0.1,0.1-0.2,0.2-0.5l2.3-3.3
			h0.8V83.2z"/>
		<path class="st0" d="M73,76.1c0,0.4-0.2,0.8-0.5,1c-0.3,0.3-0.7,0.4-1.1,0.4c-0.5,0-0.9-0.1-1.2-0.4c-0.3-0.3-0.5-0.6-0.5-1h0.8
			c0,0.6,0.3,0.9,0.9,0.9c0.2,0,0.5-0.1,0.6-0.2c0.2-0.2,0.3-0.4,0.3-0.6H73z M73.3,83.2h-0.7v-3.8c-0.1,0.1-0.2,0.3-0.3,0.6
			l-2.2,3.2h-0.8v-4.8H70v3.8c0-0.1,0.1-0.2,0.2-0.5l2.3-3.3h0.8V83.2z"/>
	</g>
	<polygon class="st0" points="32.8,93.1 32.2,93.1 32.2,91.3 28.2,91.3 28.2,86.5 28.9,86.5 28.9,90.7 31.4,90.7 31.4,86.5 
		32.1,86.5 32.1,90.7 32.8,90.7 	"/>
	<g>
		<path class="st0" d="M37.2,88.5c0-0.4-0.1-0.8-0.3-1c-0.2-0.2-0.5-0.4-0.9-0.4c-0.4,0-0.7,0.1-0.9,0.4c-0.2,0.3-0.4,0.6-0.5,1
			H37.2z M37.9,89.1h-3.4c0,0.5,0.2,0.9,0.4,1.2c0.3,0.3,0.6,0.4,1.1,0.4c0.5,0,1-0.2,1.5-0.5V91c-0.4,0.3-1,0.5-1.7,0.5
			c-0.7,0-1.2-0.2-1.6-0.7c-0.4-0.4-0.6-1-0.6-1.8c0-0.7,0.2-1.4,0.6-1.8c0.4-0.5,0.9-0.7,1.6-0.7c0.6,0,1.1,0.2,1.5,0.6
			c0.3,0.4,0.5,1,0.5,1.7V89.1z"/>
	</g>
	<polygon class="st0" points="43.3,91.3 42.5,91.3 42.5,89.2 40.1,89.2 40.1,91.3 39.3,91.3 39.3,86.5 40.1,86.5 40.1,88.5 
		42.5,88.5 42.5,86.5 43.3,86.5 	"/>
	<polygon class="st0" points="47.9,87.2 46.5,87.2 46.5,91.3 45.7,91.3 45.7,87.2 44.3,87.2 44.3,86.5 47.9,86.5 	"/>
	<g>
		<path class="st0" d="M49.9,88.7v0.7c0,0.4,0.1,0.7,0.4,1c0.3,0.3,0.6,0.4,1,0.4c0.5,0,0.8-0.2,1.1-0.5c0.3-0.4,0.4-0.9,0.4-1.5
			c0-0.5-0.1-0.9-0.4-1.3c-0.2-0.3-0.6-0.5-1-0.5c-0.4,0-0.8,0.2-1.1,0.5C50,87.9,49.9,88.2,49.9,88.7 M49.9,90.6L49.9,90.6l0,2.9
			h-0.8v-7h0.8v0.8h0c0.4-0.6,0.9-1,1.6-1c0.6,0,1.1,0.2,1.4,0.6c0.3,0.4,0.5,1,0.5,1.7c0,0.8-0.2,1.4-0.6,1.9
			c-0.4,0.5-0.9,0.7-1.6,0.7C50.7,91.4,50.2,91.2,49.9,90.6"/>
	</g>
	<polygon class="st1" points="20.5,51.3 15.8,57 11,51.3 7.7,51.3 7.7,67.7 10.7,67.7 10.7,54.9 15.8,60.9 20.9,54.9 20.9,67.7 
		23.9,67.7 23.9,51.3 	"/>
	<g>
		<path class="st1" d="M28.3,60.5c0.2-1.4,1.2-2.8,2.9-2.8c1.8,0,2.6,1.4,2.7,2.8H28.3z M31.2,55.5c-3.4,0-5.9,2.6-5.9,6.1
			c0,3.9,2.5,6.3,6.5,6.3c1.4,0,2.8-0.3,4-0.8l0.1,0v-2.6l-0.3,0.2c-0.7,0.5-2.4,1-3.6,1c-1.8,0-3.6-1.1-3.7-3.2h8.5v-0.9
			C36.8,57.8,34.7,55.5,31.2,55.5"/>
		<path class="st1" d="M73,64.6c-0.9,0.5-2.7,0.9-3.9,0.9c-3.5,0-6.1-2.6-6.1-6c0-3.4,2.6-6,6.1-6c1.2,0,2.8,0.4,3.9,1l0.3,0.2v-2.9
			l-0.1,0c-1.1-0.4-2.7-0.7-4.2-0.7c-5.3,0-9.1,3.5-9.1,8.5c0,5,3.7,8.5,9.1,8.5c1.1,0,2.9-0.2,4.2-0.7l0.1,0v-2.8L73,64.6z"/>
		<path class="st1" d="M55.2,66.9c0,0.5,0.8,0.7,1.5,0.8h1.3V55.8h-2.9V66.9z"/>
	</g>
	<rect x="55.2" y="51.3" class="st1" width="2.9" height="2.8"/>
	<g>
		<path class="st1" d="M49.3,65.2h-6.5c0.8-1.8,1.5-4.8,1.8-8.1l0.3-3.4h4.4V65.2z M52.2,65.2V51.3H40.9v2.5h0.9l-0.2,2.7
			c-0.2,3.3-1,7.3-2.2,8.8h-1.7v5.1h2.3l0.2-2.6h11.4l0.2,2.6h2.3v-5.1H52.2z"/>
	</g>
</g>
</svg>
