<?xml version="1.0" encoding="utf-8"?>
<!-- Generator: Adobe Illustrator 22.0.1, SVG Export Plug-In . SVG Version: 6.00 Build 0)  -->
<svg version="1.1" id="Layer_1" xmlns="http://www.w3.org/2000/svg" xmlns:xlink="http://www.w3.org/1999/xlink" x="0px" y="0px"
	 viewBox="0 0 141.7 141.7" style="enable-background:new 0 0 141.7 141.7;" xml:space="preserve">
<style type="text/css">
	.st0{fill:#D0524C;}
</style>
<title>09</title>
<path class="st0" d="M71.7,69.6h-1.8v-3.2h1.7c0.6,0,1.2,0.1,1.7,0.3c0.4,0.2,0.6,0.7,0.6,1.2c0,0.5-0.2,1.1-0.7,1.4
	C72.8,69.5,72.2,69.6,71.7,69.6z M12.5,57.4h117.6v26.9H12.5V57.4z M109.5,77.6h6.2c1.2,0,2.3-0.1,3.5-0.5c1.2-0.3,2.2-1,3-1.9
	c0.9-1.1,1.4-2.6,1.3-4v-0.5c0.1-1.8-0.5-3.6-1.7-5c-1.3-1.4-3.5-2.1-6.4-2.1h-6L109.5,77.6z M93.2,77.6h3.6V67l4.8,10.7h5.5V63.7
	h-3.5V74v0.1l-4.8-10.4h-5.5L93.2,77.6z M80.2,77.6H91v-2.7h-6.8V72h6.3v-2.7h-6.3v-2.8H91v-2.7H80.2L80.2,77.6z M66,77.6h3.9v-5.3
	h0.9c0.7-0.1,1.4,0,2.1,0.3c0.3,0.2,0.5,0.6,0.6,1c0,0,0.1,0.7,0.3,2.1c0.1,0.7,0.2,1.3,0.3,1.9h4.3c-0.3-1-0.6-2.1-0.7-3.2
	c-0.1-0.9-0.3-1.9-0.7-2.7c-0.6-0.7-1.6-1.1-2.5-0.9v-0.1c0.9-0.1,1.8-0.4,2.5-1c0.7-0.6,1.1-1.5,1.1-2.5c0-1-0.4-1.9-1.2-2.5
	c-1.4-0.8-3.1-1.2-4.7-1.1H66V77.6z M51.9,66.4h4.3v11.2h3.9V66.4h4.4v-2.7H51.9V66.4z M36.9,72.5c-0.1,1.5,0.6,3,1.8,4
	c1.4,1,3.2,1.6,4.9,1.5c1.9,0.1,3.8-0.4,5.2-1.6c1.1-1,1.6-2.5,1.5-4v-8.6h-4V72c0.1,0.8-0.2,1.6-0.6,2.3c-0.5,0.7-1.4,1.1-2.2,1
	c-0.8,0.1-1.6-0.2-2.2-0.8c-0.5-0.7-0.8-1.5-0.7-2.3v-8.4h-3.8L36.9,72.5z M20.4,77.6H24V67l4.8,10.6h5.4V63.7h-3.5V74v0.1L26,63.7
	h-5.6V77.6z M118.4,73.5c0.6-0.9,1-1.9,0.9-3c0-1.1-0.4-2.2-1.1-2.9c-0.8-0.8-1.8-1.2-2.9-1.2h-1.9v8.5h1.9
	C116.5,75,117.7,74.4,118.4,73.5L118.4,73.5z M140,61.1c0,1.3-0.7,2.5-1.8,3.2c-1.7,1-4,0.4-5-1.3c0,0,0,0,0,0c-1-1.7-0.4-4,1.3-5
	c1.1-0.6,2.5-0.6,3.6,0C139.3,58.6,140,59.8,140,61.1z M139.3,61.1c0-1.6-1.3-2.9-2.9-2.9l0,0c-1.6,0-2.9,1.3-2.9,2.9l0,0
	c0,1.6,1.3,2.9,3,2.9c0.8,0,1.5-0.3,2-0.8C139,62.6,139.3,61.9,139.3,61.1L139.3,61.1z M137.4,61.9c0,0,0.2,0.4,0.6,1.1H137
	c-0.2-0.5-0.5-0.9-0.8-1.3c-0.1-0.1-0.2-0.2-0.4-0.2h-0.1V63h-1v-3.9h1.7c0.4,0,0.8,0.1,1.1,0.3c0.2,0.2,0.4,0.5,0.3,0.8
	c0,0.3-0.1,0.5-0.3,0.7c-0.2,0.2-0.5,0.4-0.8,0.4c0.1,0,0.2,0.1,0.3,0.2C137.3,61.6,137.4,61.8,137.4,61.9L137.4,61.9z M136.8,60.3
	c0-0.1-0.1-0.3-0.2-0.3c-0.2-0.1-0.4-0.2-0.6-0.1h-0.5v1h0.4c0.2,0,0.4,0,0.6-0.1C136.8,60.6,136.9,60.5,136.8,60.3L136.8,60.3z"/>
</svg>
