<?xml version="1.0" encoding="utf-8"?>
<!-- Generator: Adobe Illustrator 22.0.1, SVG Export Plug-In . SVG Version: 6.00 Build 0)  -->
<svg version="1.1" id="Layer_1" xmlns="http://www.w3.org/2000/svg" xmlns:xlink="http://www.w3.org/1999/xlink" x="0px" y="0px"
	 viewBox="0 0 141.7 141.7" style="enable-background:new 0 0 141.7 141.7;" xml:space="preserve">
<style type="text/css">
	.st0{fill:#2967B1;}
	.st1{fill:#F99F1B;}
	.st2{fill:#6A6A69;}
</style>
<title>07</title>
<path class="st0" d="M9.6,72.2H7.9l-1.1,4.2H2.8l3.8-14h5.3c2.3,0,3.8,0.5,4.8,1.4c0.7,0.8,1.1,1.8,1.1,2.9c0,1.3-0.4,2.5-1.3,3.4
	c-0.8,0.8-1.8,1.3-2.9,1.6l2.2,4.7h-4.3L9.6,72.2z M10.9,69.2c0.9,0.1,1.7-0.2,2.4-0.8c0.3-0.3,0.5-0.7,0.5-1.2
	c0-0.3-0.1-0.7-0.4-0.9c-0.5-0.4-1.1-0.6-1.7-0.5H9.6l-0.9,3.4H10.9z"/>
<path class="st0" d="M17.6,71.8c0-0.8,0.1-1.5,0.4-2.2l1.9-7.1h3.9l-2,7.4c-0.1,0.4-0.2,0.9-0.2,1.3c0,1.1,0.8,2,1.8,2
	c0.1,0,0.2,0,0.3,0c0.7,0,1.4-0.3,1.9-0.7c0.6-0.7,1-1.4,1.2-2.3l2-7.7h3.9l-2.2,8.3c-0.3,1.6-1.1,3-2.2,4.2
	c-1.4,1.3-3.3,1.9-5.1,1.8C19.7,76.7,17.7,74.8,17.6,71.8"/>
<polygon class="st0" points="34.1,62.5 37.7,62.5 41.3,70.2 43.5,62.5 47.3,62.5 43.5,76.4 40.1,76.4 36.4,68.4 34.2,76.4 
	30.4,76.4 "/>
<polygon class="st1" points="67.6,62.5 69.2,62.5 69.2,70.8 77.2,62.5 79.2,62.5 73.3,68.6 79.5,76.4 77.5,76.4 72.2,69.7 
	69.2,72.7 69.2,76.4 67.6,76.4 "/>
<path class="st1" d="M81,62.5h6c1.5-0.1,2.9,0.4,4,1.4c0.7,0.8,1,1.7,1,2.8l0,0c0,2.3-1.6,3.7-3.8,4.1l4.3,5.7h-1.9l-4-5.4h-4v5.4
	H81V62.5z M86.9,69.6c2.1,0,3.6-1.1,3.6-2.9l0,0c0-1.7-1.3-2.8-3.6-2.8h-4.4v5.6H86.9z"/>
<path class="st1" d="M99.5,62.4h1.5l6.4,14.1h-1.7l-1.6-3.7h-7.6l-1.6,3.7h-1.6L99.5,62.4z M103.4,71.3l-3.2-7.1l-3.2,7.1H103.4z"/>
<rect x="109.3" y="62.5" class="st1" width="1.6" height="14"/>
<polygon class="st1" points="113.9,62.5 115.4,62.5 124.2,73.7 124.2,62.5 125.8,62.5 125.8,76.4 124.5,76.4 115.5,65 115.5,76.4 
	113.9,76.4 "/>
<polygon class="st1" points="128.7,62.5 138.8,62.5 138.8,63.9 130.3,63.9 130.3,68.7 137.9,68.7 137.9,70.1 130.3,70.1 130.3,75 
	138.9,75 138.9,76.4 128.7,76.4 "/>
<path class="st1" d="M56.7,65.9c-0.1-0.2-0.5-1.5-0.6-1.7s-0.2-0.4-0.3-0.5c-0.1-0.3-0.2-0.5-0.2-0.8c0.3-0.6,0-1.2-0.6-1.5
	c0,0,0,0,0,0c-0.2-0.1-0.4-0.1-0.6-0.2c-0.2-0.1-0.4-0.2-0.5-0.4c0-0.1,0-0.2,0-0.3c0.2-0.2,0.3-0.4,0.3-0.7l0,0
	c0.1,0,0.1-0.2,0.2-0.3s0.1-0.3,0-0.3l0,0c0,0-0.1,0-0.1,0c0,0,0-0.2,0.1-0.4c0.1-0.5-0.3-1-0.9-1.1h-0.2c-0.5,0-1,0.4-1,0.9
	c0,0.2-0.1,0.4-0.1,0.4l0,0c-0.1,0-0.1,0.1-0.1,0.2c0,0.1,0,0.3,0,0.4l0,0l0,0c0,0.2,0,0.4,0.1,0.5c0,0,0,0.1,0,0.1
	c-0.1,0.1-0.3,0.2-0.5,0.3c0-0.5-0.8-0.9-0.9-1c-0.1-0.3-0.2-0.5-0.3-0.8c-0.2-0.4-0.4-0.7-0.4-0.7s0-0.1,0.1-0.4
	c0.1-0.3,0.2-0.7,0.2-1c0-0.3,0.1-0.5,0.1-0.8c0-0.1,0.1-0.2,0.1-0.3c0-0.1,0-0.2,0-0.2c0.1-0.2,0.1-0.4,0.2-0.5
	c0,0,0.1-0.3,0.1-0.4s0.1-0.3,0.1-0.4c0-0.1,0-0.2,0.1-0.3c0,0,0-0.2,0-0.3c0-0.1,0-0.1-0.1-0.1c0,0,0,0,0,0c0,0-0.1,0-0.1,0.1
	c0,0.1-0.1,0.2-0.1,0.3c0,0-0.1,0.3-0.1,0.3l-0.1,0.2c0-0.1-0.1-0.1-0.1-0.1l0,0c-0.1,0-0.2,0.1-0.2,0.1c0-0.1-0.1-0.1-0.2-0.1l0,0
	c-0.1,0-0.2,0.1-0.2,0.1s0-0.1-0.1-0.1l0,0c-0.1,0-0.2,0.2-0.2,0.2s0,0.2-0.1,0.3s0.1,0.1,0.1,0.1c-0.1,0.2-0.1,0.4,0,0.6
	c0,0.1,0,0.3,0,0.4c-0.1,0.4-0.2,0.7-0.4,1.1c-0.2,0.4-0.3,0.8-0.3,1.2c0,0.1,0,0.3,0.1,0.4c0,0.1,0.1,0.1,0.1,0.2
	c0,0.3,0.1,0.7,0.2,1c0.1,0.3,0.3,0.6,0.5,0.9C50,61,49.9,61.4,50,61.8c0,0.4,0.1,0.7,0.1,1.1c0,0.2,0,0.6,0,0.8s-0.1,1.3-0.1,1.4
	s-0.2,0.3-0.3,0.5s-0.2,0.4-0.2,0.7c0,0-0.1,0-0.1,0.1l-0.1,0.6c-0.2,0.2-0.3,0.3-0.4,0.5c-0.1,0.2-0.8,0.9-0.6,1.2l0,0
	c-0.1,0.3-0.2,0.6-0.3,0.9c-0.2,0.9-0.3,1.7-0.4,2.6c-0.1,0.2-0.1,0.5,0,0.7c0.1,0.2,0.3,0.4,0.5,0.4l0,0c0.3-0.1,0.5-0.2,0.7-0.5
	c0.2-0.2,0.5-0.3,0.8-0.6S50,72,50.1,72c0.1,0,0.3-0.1,0.5-0.1l0,0c-0.1,0.3-0.3,2-0.4,2.2s-0.2,0.3-0.5,1s-0.5,2.9-0.6,3.5
	c0,0.2-0.1,0.4-0.2,0.6c-0.1,0.1-0.2,0.2-0.2,0.3v0.1c-0.1,0.1-0.1,0.2-0.1,0.3c0,0.2-0.1,0.5-0.2,0.7c-0.1,0.2-0.2,0.3-0.3,0.5
	c0,0-0.4,0.3-0.4,0.6v0.2c0,0.1,0.1,0.1,0.2,0.1c0.3,0.1,0.7,0.2,1,0.2l0,0c0.1,0,0.1,0,0.2,0c0.2,0,0.3-0.1,0.4-0.2v-0.4
	c0,0,0-0.2,0.1-0.2c0.1-0.1,0.2-0.3,0.2-0.4c0,0,0-0.5-0.1-0.7V80v-0.1c0-0.1,0.1-0.3,0.1-0.4c0.2-0.6,0.5-1.3,0.9-1.9
	c0.4-0.7,0.6-1.4,0.8-2.2c0-0.3,0-0.8,0.1-1c0.2-0.5,0.4-1,0.7-1.5c0.4-0.7,0.7-1.5,0.9-2.2c0,0,0.1,0,0.1-0.1
	c0.1-0.3,0.2-0.6,0.3-0.9c0.1-0.3,0.1-0.6,0.1-0.9c0.1-0.4,0.1-0.8,0-1.2c0,0,0-0.4-0.1-0.4l0,0c0-0.2,0-0.3,0-0.5
	c0-0.2,0-0.4,0-0.6c0-0.1,0.2-0.4,0.3-0.8s0.5-1.1,0.5-1.1c0.1-0.1,0.3-0.3,0.3-0.4c0.1,0.2,0.2,0.5,0.4,0.7
	c0.1,0.3,0.2,0.6,0.4,0.9c0.2,0.4,0.6,0.9,0.6,0.9l0,0l-0.2,0.2c-0.1,0.1-0.1,0.1-0.1,0.2c0,0.1,0,0.2-0.1,0.2c0,0.1,0,0.1,0.1,0.1
	l0,0c0.2,0,0.2-0.3,0.2-0.3l0,0c0.1,0,0.3,0.2,0.3,0.2c0,0.1,0,0.1,0,0.2c-0.1,0.1-0.2,0.1-0.3,0.2l0,0c-0.1,0-0.2,0-0.3,0.1
	c-0.1,0-0.1,0.1-0.1,0.1c0,0,0,0.1,0,0.1l0.2,0.1c0,0,0.4,0.1,0.5,0.1h0.1c0.1,0,0.2,0,0.3,0c0-0.1,0.2-0.3,0.2-0.4s0-0.3,0-0.5
	C56.7,66.6,56.7,66.2,56.7,65.9 M50.8,70.3c-0.3,0.1-0.5,0.6-0.6,0.6c-0.1,0-0.1,0-0.2,0c0,0-0.1,0-0.1,0c0.2-0.3,0.3-0.6,0.4-0.9
	c0,0,0.1,0.1,0.1,0.1l0,0c0,0,0.1-0.1,0.1-0.2l0.2-0.1c0,0,0,0.3,0,0.3H51c0,0.1,0,0.2-0.1,0.3"/>
<path class="st1" d="M63.3,62.5v8.1c0,3.1-1.6,4.6-4.2,4.6c-2.2,0.2-4-1.5-4.2-3.6c0,0,0-0.1,0-0.1v0.1c0,0.1-0.1,0.1-0.1,0.2
	c-0.3,0.7-0.5,1.4-0.9,2c1,2,3,3.1,5.2,3c3.5,0,5.8-2.1,5.8-6.2v-8L63.3,62.5z"/>
<polygon class="st2" points="56.5,79.3 57,79.3 57.6,81.2 58.2,79.3 58.6,79.3 59.2,81.2 59.8,79.3 60.3,79.3 59.4,81.8 59,81.8 
	58.4,80.1 57.8,81.8 57.4,81.8 "/>
<polygon class="st2" points="62.7,79.3 64.6,79.3 64.6,79.7 63.2,79.7 63.2,80.4 64.4,80.4 64.4,80.8 63.2,80.8 63.2,81.4 
	64.6,81.4 64.6,81.8 62.7,81.8 "/>
<path class="st2" d="M71.1,79.3h0.4l1.1,2.5h-0.5l-0.3-0.6h-1.2l-0.3,0.6H70L71.1,79.3z M71.7,80.8l-0.4-1l-0.4,1H71.7z"/>
<path class="st2" d="M75,79.3h1.1c0.3,0,0.5,0.1,0.7,0.3c0.1,0.1,0.2,0.3,0.2,0.5l0,0c0,0.4-0.2,0.7-0.6,0.8l0.7,1h-0.5L76,81h-0.6
	v0.9H75V79.3z M76.1,80.6c0.3,0,0.5-0.2,0.5-0.4l0,0c0-0.3-0.2-0.4-0.5-0.4h-0.6v0.8L76.1,80.6z"/>
<polygon class="st2" points="79.6,79.3 81.4,79.3 81.4,79.7 80,79.7 80,80.4 81.3,80.4 81.3,80.8 80,80.8 80,81.4 81.5,81.4 
	81.5,81.8 79.6,81.8 "/>
<path class="st2" d="M87.1,79.3h1.1c0.3,0,0.5,0.1,0.7,0.3c0.1,0.1,0.2,0.3,0.2,0.5l0,0c0,0.4-0.2,0.7-0.6,0.8l0.7,1h-0.5L88.1,81
	h-0.6v0.9h-0.4V79.3z M88.1,80.6c0.3,0,0.5-0.2,0.5-0.4l0,0c0-0.3-0.2-0.4-0.5-0.4h-0.6v0.8L88.1,80.6z"/>
<path class="st2" d="M91.5,80.6L91.5,80.6c0.1-0.7,0.7-1.3,1.4-1.2c0.6,0.1,1.1,0.6,1.2,1.2l0,0c0,0.7-0.6,1.3-1.3,1.3c0,0,0,0,0,0
	C92.1,81.9,91.6,81.3,91.5,80.6C91.5,80.6,91.5,80.6,91.5,80.6 M93.7,80.6L93.7,80.6c0-0.5-0.3-0.9-0.8-0.9c0,0,0,0,0,0
	c-0.5,0-0.8,0.4-0.8,0.8c0,0,0,0,0,0l0,0c-0.1,0.5,0.3,0.9,0.8,0.9s0.9-0.3,0.9-0.8C93.7,80.7,93.7,80.6,93.7,80.6"/>
<path class="st2" d="M97.4,79.3h0.4l1.1,2.5h-0.5l-0.3-0.6H97l-0.3,0.6h-0.4L97.4,79.3z M98,80.8l-0.4-1l-0.4,1H98z"/>
<path class="st2" d="M101.3,79.3h0.9c0.7,0,1.3,0.5,1.3,1.1c0,0,0,0.1,0,0.1l0,0c0,0.7-0.6,1.3-1.2,1.3c0,0-0.1,0-0.1,0h-0.9V79.3z
	 M101.8,79.7v1.7h0.5c0.5,0,0.8-0.3,0.9-0.8c0,0,0-0.1,0-0.1l0,0c0-0.5-0.3-0.8-0.8-0.9c0,0-0.1,0-0.1,0H101.8z"/>
<path class="st2" d="M109.2,79.3h1.1c0.3,0,0.5,0.1,0.7,0.3c0.1,0.1,0.2,0.3,0.2,0.5l0,0c0,0.4-0.2,0.7-0.6,0.8l0.7,1h-0.5l-0.6-0.9
	h-0.6v0.9h-0.4V79.3z M110.3,80.6c0.3,0,0.5-0.2,0.5-0.4l0,0c0-0.3-0.2-0.4-0.5-0.4h-0.6v0.8L110.3,80.6z"/>
<path class="st2" d="M113.8,80.8v-1.4h0.4v1.4c0,0.5,0.2,0.7,0.6,0.7s0.6-0.2,0.6-0.7v-1.4h0.4v1.4c0.1,0.5-0.3,1-0.9,1.1
	c-0.1,0-0.1,0-0.2,0c-0.6,0-1-0.4-1.1-0.9C113.8,80.9,113.8,80.8,113.8,80.8"/>
<polygon class="st2" points="118.5,79.3 118.9,79.3 120.3,81.1 120.3,79.3 120.7,79.3 120.7,81.8 120.3,81.8 118.9,80.1 118.9,81.8 
	118.5,81.8 "/>
<polygon class="st2" points="123.3,79.3 123.7,79.3 125.1,81.1 125.1,79.3 125.5,79.3 125.5,81.8 125.1,81.8 123.8,80.1 123.8,81.8 
	123.3,81.8 "/>
<polygon class="st2" points="128.1,79.3 130,79.3 130,79.7 128.6,79.7 128.6,80.4 129.8,80.4 129.8,80.8 128.6,80.8 128.6,81.4 
	130,81.4 130,81.8 128.1,81.8 "/>
<path class="st2" d="M132.5,79.3h1.1c0.3,0,0.5,0.1,0.7,0.3c0.1,0.1,0.2,0.3,0.2,0.5l0,0c0,0.4-0.2,0.7-0.6,0.8l0.7,1h-0.5l-0.6-0.9
	H133v0.9h-0.4L132.5,79.3z M133.6,80.6c0.3,0,0.5-0.2,0.5-0.4l0,0c0-0.3-0.2-0.4-0.5-0.4H133v0.8L133.6,80.6z"/>
<path class="st2" d="M137,81.5l0.3-0.3c0.2,0.2,0.5,0.3,0.8,0.3c0.3,0,0.4-0.1,0.4-0.3l0,0c0-0.2-0.1-0.3-0.6-0.4s-0.8-0.3-0.8-0.8
	l0,0c0-0.4,0.4-0.8,0.8-0.7c0,0,0,0,0,0c0.3,0,0.7,0.1,0.9,0.3l-0.2,0.3c-0.2-0.2-0.4-0.2-0.7-0.3c-0.3,0-0.4,0.1-0.4,0.3l0,0
	c0,0.2,0.1,0.3,0.6,0.4s0.8,0.3,0.8,0.7l0,0c0,0.5-0.4,0.7-0.9,0.7C137.7,81.9,137.3,81.7,137,81.5"/>
</svg>
