<?xml version="1.0" encoding="utf-8"?>
<!-- Generator: Adobe Illustrator 22.0.1, SVG Export Plug-In . SVG Version: 6.00 Build 0)  -->
<svg version="1.1" id="Layer_1" xmlns="http://www.w3.org/2000/svg" xmlns:xlink="http://www.w3.org/1999/xlink" x="0px" y="0px"
	 viewBox="0 0 141.7 141.7" style="enable-background:new 0 0 141.7 141.7;" xml:space="preserve">
<style type="text/css">
	.st0{fill:#231F20;}
</style>
<title>08</title>
<path class="st0" d="M98.1,75.3c-0.5,0-1-0.2-1.5-0.4l-0.2-0.1l-1.2,2.5l0.2,0.1c0.9,0.5,1.9,0.8,3,0.8c2,0,3.2-1,4.2-3.5l4.8-12.6
	H104l-2.9,8.4L97.9,62h-3.5l5.1,12.2C99.1,75.1,98.6,75.3,98.1,75.3"/>
<path class="st0" d="M66.4,72.1l0.2-0.2l-2-2l-0.2,0.2c-0.7,0.9-1.8,1.4-2.9,1.4c-1.9,0-3.4-1.6-3.3-3.4V68l0,0
	c-0.1-1.8,1.3-3.4,3.1-3.5l0,0c1.1,0,2.2,0.5,2.9,1.4l0.2,0.2l2-2.2l-0.2-0.2c-1.2-1.5-3.1-2.2-5-2.2c-3.5,0-6.4,2.9-6.4,6.4l0,0
	l0,0c0,3.5,2.8,6.4,6.3,6.4c0.1,0,0.1,0,0.2,0C63.3,74.5,65.2,73.6,66.4,72.1"/>
<path class="st0" d="M70.5,67.9c-0.1,1.9,1.4,3.5,3.3,3.6c0,0,0,0,0.1,0c1.9,0,3.4-1.5,3.4-3.3c0-0.1,0-0.1,0-0.2l0,0
	c0.1-1.9-1.4-3.5-3.2-3.6c-0.1,0-0.1,0-0.2,0c-1.8,0-3.3,1.5-3.3,3.3C70.5,67.8,70.5,67.9,70.5,67.9L70.5,67.9z M73.9,74.4
	c-3.6,0.1-6.5-2.7-6.6-6.3V68l0,0c0-3.7,3-6.6,6.6-6.6c3.7,0,6.6,3,6.6,6.6l0,0C80.5,71.6,77.6,74.5,73.9,74.4
	C74,74.5,73.9,74.5,73.9,74.4"/>
<path class="st0" d="M49.5,61.8v7.1c0.1,1.2-0.8,2.3-2,2.4c-0.1,0-0.1,0-0.2,0c-1.3,0-2.3-1-2.3-2.3v-0.1v-7.1h-3.4v7.1
	c0,3.1,2.5,5.1,5.6,5.1c0.9,0,1.9-0.3,2.7-0.8l0.2-0.1v0.6V74H53V61.8H49.5z"/>
<path class="st0" d="M85.8,74.1V67c-0.1-1.2,0.8-2.3,1.9-2.4c0.1,0,0.2,0,0.3,0c1.3,0,2.3,1.1,2.2,2.3V67v7h3.4v-7
	c0-3.1-2.5-5.1-5.6-5.1c-0.9,0-1.8,0.3-2.7,0.8l-0.2,0.1v-0.6v-0.3h-2.8v12.2H85.8z"/>
<path class="st0" d="M32.8,71.5c2,0,3.6-1.7,3.6-3.7s-1.7-3.6-3.7-3.6s-3.6,1.7-3.6,3.7C29.1,69.8,30.8,71.5,32.8,71.5 M36.1,61.7
	h3.1v12.1h-3.1V73c-1,0.7-2.2,1.1-3.5,1.2c-3.8,0-6.7-2.6-6.7-6.3l0,0c0-3.7,3-6.4,6.8-6.4c1.2,0.1,2.4,0.5,3.4,1.1V61.7L36.1,61.7z
	"/>
<path class="st0" d="M20,63.5c1.2,0.1,2.4,0.5,3.4,1.2l0.1,0.1l1.3-2.3l-0.1-0.1c-1.4-0.9-3-1.4-4.7-1.4c-2.4,0-4.8,1.3-4.8,4.1l0,0
	c0,2.3,2.1,3.3,4,3.8c1.2,0.4,2.4,0.8,2.4,1.7l0,0c0,0.4-0.2,1.4-1.8,1.4c-1.5-0.2-2.9-0.8-4.1-1.7l-0.1-0.1l-1.4,2.2l0.1,0.1
	c1.6,1.2,3.5,1.9,5.5,2c3.2,0,5-1.6,5-4.1v-0.3c0-1.6-1.3-2.8-4-3.7l0,0l-0.3-0.1c-1.2-0.4-2.1-0.7-2.1-1.7l0,0
	C18.3,64.1,18.8,63.5,20,63.5"/>
<path class="st0" d="M121.1,76.4c0.2-1-0.5-2.1-1.5-2.3s-2.1,0.5-2.3,1.5c-0.2,1,0.5,2.1,1.5,2.3l0,0c0.5,0.1,1,0,1.4-0.3
	C120.7,77.4,121,76.9,121.1,76.4 M114.6,81.4c0.5-0.4,0.9-1,0.9-1.6c0-0.4-0.1-0.7-0.3-1.1c-0.6-0.9-1.8-1.1-2.7-0.5
	s-1.1,1.8-0.5,2.7C112.5,81.8,113.7,82,114.6,81.4 M109.8,84c0.1-0.5,0-1-0.3-1.4c-0.6-0.9-1.8-1.1-2.7-0.5s-1.1,1.8-0.5,2.7
	c0.3,0.4,0.7,0.7,1.1,0.8C108.5,85.8,109.5,85.1,109.8,84L109.8,84 M133.1,76c0.1,0.1,0.2,0.3,0.1,0.5c-0.1,0.3-0.4,0.4-0.7,0.4
	s-1-0.1-3.5-0.1c-8,0-15.5,12.5-24.5,12.5c-7.6,0-29-7.9-36-10.7c-0.1,0-0.2-0.1-0.2-0.2c0,0-0.4-0.9-0.5-1.1c0-0.2,0.1-0.3,0.2-0.4
	c0.1,0,0.1,0,0.2,0c0.2,0.1,17.9,4.7,26.4,5.1c9.2,0.5,13.1-3.8,17-6.4c0,0,4.3-3.4,6.7-4.2c3.2-1.1,6.6-0.6,13.1,3.4
	C132.1,75.3,132.1,75.3,133.1,76L133.1,76"/>
</svg>
